<svg version="1.1" xmlns="http://www.w3.org/2000/svg" viewBox="0 0 1000 745" width="1000" height="745">
  <!-- svg-source:excalidraw -->
  
  <defs>
    <style class="style-fonts">
      @font-face {
        font-family: "Virgil";
        src: url("https://unpkg.com/@excalidraw/excalidraw@undefined/dist/excalidraw-assets/Virgil.woff2");
      }
      @font-face {
        font-family: "Cascadia";
        src: url("https://unpkg.com/@excalidraw/excalidraw@undefined/dist/excalidraw-assets/Cascadia.woff2");
      }
      @font-face {
        font-family: "Assistant";
        src: url("https://unpkg.com/@excalidraw/excalidraw@undefined/dist/excalidraw-assets/Assistant-Regular.woff2");
      }
    </style>
    
  </defs>
  <rect x="0" y="0" width="1000" height="745" fill="#ffffff"></rect><g transform="translate(10 10) rotate(0 490 35)"><text x="0" y="0" font-family="Virgil, Segoe UI Emoji" font-size="30px" fill="#000000" text-anchor="start" style="white-space: pre;" direction="ltr" dominant-baseline="text-before-edge">Game of Life: Algorithm Pattern Architecture</text></g><g stroke-linecap="round" transform="translate(10 75) rotate(0 485 40)"><path d="M7.81 2.81 C7.81 2.81, 7.81 2.81, 7.81 2.81 M7.81 2.81 C7.81 2.81, 7.81 2.81, 7.81 2.81 M0.73 23.16 C5.69 17.92, 14.22 8.01, 20.41 0.52 M0.73 23.16 C7.34 15.83, 14.49 7.9, 20.41 0.52 M0.2 35.95 C8.5 27.08, 13.17 19.66, 31.04 0.48 M0.2 35.95 C8.69 28.01, 14.94 18.74, 31.04 0.48 M0.34 47.99 C11.5 33.31, 22.82 22.39, 41.67 0.45 M0.34 47.99 C14.77 31.9, 28.22 15.5, 41.67 0.45 M0.47 60.03 C14.68 41.8, 29.63 26.98, 52.3 0.41 M0.47 60.03 C17.71 40, 35.75 21.08, 52.3 0.41 M2.57 69.81 C23.59 45.61, 40.42 24.55, 62.93 0.38 M2.57 69.81 C18.29 50.62, 34.7 33.13, 62.93 0.38 M7.3 76.57 C24.67 55.19, 42.81 34.67, 73.56 0.34 M7.3 76.57 C31.22 49.52, 55.32 21.32, 73.56 0.34 M15.3 79.55 C29.26 63.52, 44.82 43.05, 84.19 0.31 M15.3 79.55 C41.81 48.83, 70.44 16.81, 84.19 0.31 M25.28 80.27 C40.33 60.06, 56.77 41.96, 94.82 0.27 M25.28 80.27 C51.32 49.93, 76.38 20.34, 94.82 0.27 M35.91 80.24 C53.28 60.35, 71.41 42.18, 105.45 0.24 M35.91 80.24 C56.73 54.57, 79.39 29.73, 105.45 0.24 M46.54 80.2 C63.24 58.12, 85.38 36.94, 116.08 0.21 M46.54 80.2 C64.79 56.42, 85.98 35.49, 116.08 0.21 M57.17 80.17 C71.1 65.89, 83.07 46.15, 126.71 0.17 M57.17 80.17 C72.18 62.54, 88.98 43.75, 126.71 0.17 M67.8 80.14 C85.85 56.19, 107.26 33.16, 137.34 0.14 M67.8 80.14 C92.71 50.35, 117.89 20.16, 137.34 0.14 M78.43 80.1 C102.37 53.35, 128.86 24.27, 147.97 0.1 M78.43 80.1 C96.33 58.52, 116.36 36.04, 147.97 0.1 M89.06 80.07 C111.75 52.52, 135.3 27.57, 158.6 0.07 M89.06 80.07 C117 46.88, 144.36 15.55, 158.6 0.07 M99.69 80.03 C120.64 55.75, 139.31 32.9, 168.57 0.79 M99.69 80.03 C114.41 63.77, 128.69 46.39, 168.57 0.79 M110.32 80 C126.24 60.99, 143.16 39.78, 179.2 0.75 M110.32 80 C131.31 56.28, 152.79 32.81, 179.2 0.75 M120.95 79.96 C141.21 55.14, 161.62 31.67, 189.83 0.72 M120.95 79.96 C142.81 56.16, 164.51 29.38, 189.83 0.72 M131.58 79.93 C153.99 56.1, 176.17 28.44, 200.46 0.68 M131.58 79.93 C150.25 56.96, 170.6 33.14, 200.46 0.68 M142.21 79.89 C155.19 64.96, 172.07 46.99, 211.09 0.65 M142.21 79.89 C164.22 54.03, 185.88 30.91, 211.09 0.65 M152.84 79.86 C173.47 58.81, 192.53 33.85, 221.72 0.62 M152.84 79.86 C175.49 53.69, 199.43 27.51, 221.72 0.62 M163.47 79.83 C180.95 61.6, 198.58 39.21, 232.35 0.58 M163.47 79.83 C178.21 62.42, 193.73 46.27, 232.35 0.58 M174.1 79.79 C203.56 47.1, 230.62 16.38, 242.98 0.55 M174.1 79.79 C193.57 56.32, 214.76 32.19, 242.98 0.55 M184.73 79.76 C202.17 58.7, 220.47 36.46, 253.61 0.51 M184.73 79.76 C204.33 57.87, 223.81 35.04, 253.61 0.51 M194.7 80.48 C214.74 57.33, 232.4 36.93, 264.24 0.48 M194.7 80.48 C208.33 62.91, 223.01 48.24, 264.24 0.48 M205.33 80.44 C227.37 53.51, 252.44 29.29, 274.88 0.44 M205.33 80.44 C225.26 57.81, 243.89 33.71, 274.88 0.44 M215.96 80.41 C233.71 58.89, 252.77 41.53, 285.51 0.41 M215.96 80.41 C239.46 51.57, 264.45 23.99, 285.51 0.41 M226.59 80.37 C242.28 63.21, 261.6 43.67, 296.14 0.37 M226.59 80.37 C242.6 61.71, 258.96 42.31, 296.14 0.37 M237.22 80.34 C255.62 60.87, 273.29 37.78, 306.77 0.34 M237.22 80.34 C251.21 61.96, 266.52 45.26, 306.77 0.34 M247.85 80.3 C268.08 58.73, 287.46 33.59, 317.4 0.3 M247.85 80.3 C264.41 61.16, 281.13 40.94, 317.4 0.3 M258.48 80.27 C280.77 53.9, 308.44 26, 328.03 0.27 M258.48 80.27 C283.9 52.99, 306.63 25.98, 328.03 0.27 M269.11 80.24 C289.95 54.82, 311.14 31.92, 338.66 0.24 M269.11 80.24 C286.72 59.46, 305.53 38.25, 338.66 0.24 M279.74 80.2 C301.75 55.03, 324.17 27.78, 349.29 0.2 M279.74 80.2 C297.51 60.87, 316.02 40.03, 349.29 0.2 M290.37 80.17 C312.02 50.37, 339.24 26.53, 359.92 0.17 M290.37 80.17 C314.97 51.68, 340.77 23.24, 359.92 0.17 M301 80.13 C327.39 51.45, 352.68 21.77, 370.55 0.13 M301 80.13 C326.5 52.82, 350.63 24.89, 370.55 0.13 M311.63 80.1 C328.64 60.62, 348.29 40.54, 381.18 0.1 M311.63 80.1 C325.78 61.27, 341.98 43.97, 381.18 0.1 M322.26 80.06 C335.29 64.6, 348.22 47.7, 391.81 0.06 M322.26 80.06 C350.45 48.92, 377.42 17.54, 391.81 0.06 M332.89 80.03 C354.03 55.74, 374.87 35.11, 401.78 0.78 M332.89 80.03 C351.94 56.9, 372.03 34.54, 401.78 0.78 M343.52 79.99 C362.15 58.28, 381.74 38.77, 412.41 0.75 M343.52 79.99 C358.81 63.02, 373.73 45.54, 412.41 0.75 M354.15 79.96 C376.12 56.27, 399.7 27.95, 423.04 0.71 M354.15 79.96 C380.01 50.3, 405.53 20.14, 423.04 0.71 M364.78 79.92 C379.01 64.67, 392.58 46.76, 433.67 0.68 M364.78 79.92 C381.22 60.45, 398.84 40.03, 433.67 0.68 M375.41 79.89 C401.99 46.29, 428.52 15.9, 444.3 0.65 M375.41 79.89 C393.75 58.07, 410.13 37.85, 444.3 0.65 M386.04 79.86 C411.38 50.97, 435.58 22.23, 454.93 0.61 M386.04 79.86 C412.73 50.96, 437.89 21.77, 454.93 0.61 M396.67 79.82 C422.82 52.49, 447.24 20.89, 465.56 0.58 M396.67 79.82 C418.59 53.37, 441.73 28.19, 465.56 0.58 M407.3 79.79 C428.02 57.84, 446.98 35.31, 476.19 0.54 M407.3 79.79 C424.19 60.99, 441.97 40.35, 476.19 0.54 M417.93 79.75 C439.06 55.12, 461.35 29.48, 486.82 0.51 M417.93 79.75 C436.59 58, 455.78 34.45, 486.82 0.51 M427.91 80.47 C444 61.24, 462.82 42.65, 497.45 0.47 M427.91 80.47 C442.79 65.28, 456.54 48.61, 497.45 0.47 M438.54 80.44 C456.4 58.04, 475.43 38.5, 508.08 0.44 M438.54 80.44 C456.27 58.09, 475 37.02, 508.08 0.44 M449.17 80.4 C468.31 60.25, 487.87 39.28, 518.71 0.4 M449.17 80.4 C474.89 51.75, 499.8 21.41, 518.71 0.4 M459.8 80.37 C483.03 54.23, 504.62 29.33, 529.34 0.37 M459.8 80.37 C483.19 52.72, 506.93 26.31, 529.34 0.37 M470.43 80.33 C489.73 53.76, 513.44 30.3, 539.97 0.34 M470.43 80.33 C491.56 54.55, 511.96 31.99, 539.97 0.34 M481.06 80.3 C504.77 55.81, 525.99 28.74, 550.6 0.3 M481.06 80.3 C507.78 50.69, 531.72 20.52, 550.6 0.3 M491.69 80.27 C514.88 54.37, 537.58 29.63, 561.23 0.27 M491.69 80.27 C518.07 50.73, 544.55 21.29, 561.23 0.27 M502.32 80.23 C529.26 50.7, 552.72 22.4, 571.86 0.23 M502.32 80.23 C527.93 50.18, 552.87 22.03, 571.86 0.23 M512.95 80.2 C540.74 50.25, 564.75 21.61, 582.49 0.2 M512.95 80.2 C527.65 62.76, 542.03 46.32, 582.49 0.2 M523.58 80.16 C544.75 56.4, 562.32 36.43, 593.12 0.16 M523.58 80.16 C549.37 50.86, 574.86 21.35, 593.12 0.16 M534.21 80.13 C558.17 54.39, 576.49 26.3, 603.75 0.13 M534.21 80.13 C562.75 48.78, 589.27 16.36, 603.75 0.13 M544.84 80.09 C569.15 50.53, 594.37 19.95, 614.38 0.09 M544.84 80.09 C565.71 54.31, 588.22 29.52, 614.38 0.09 M555.47 80.06 C575.88 55.51, 598.18 30.36, 625.01 0.06 M555.47 80.06 C570.83 61.14, 587.42 43.54, 625.01 0.06 M566.1 80.02 C584.21 56.51, 604.01 34.95, 634.99 0.78 M566.1 80.02 C593.63 48.63, 619.33 19.04, 634.99 0.78 M576.73 79.99 C598.68 56.65, 618.27 33.86, 645.62 0.74 M576.73 79.99 C601.38 51.17, 626.42 23.86, 645.62 0.74 M587.36 79.95 C607.79 53.43, 629.32 29.38, 656.25 0.71 M587.36 79.95 C607.93 56.77, 625.88 34.87, 656.25 0.71 M597.99 79.92 C621.44 50.51, 647.93 24.78, 666.88 0.68 M597.99 79.92 C617.16 58.48, 637.38 35.37, 666.88 0.68 M608.62 79.89 C630.33 54.51, 650.31 32.76, 677.51 0.64 M608.62 79.89 C629.55 54.42, 651.59 28.55, 677.51 0.64 M619.25 79.85 C643.69 52.43, 665.68 25.15, 688.14 0.61 M619.25 79.85 C640.58 54.85, 663.5 27.89, 688.14 0.61 M629.88 79.82 C653.35 53.06, 680.62 21.46, 698.77 0.57 M629.88 79.82 C653.22 51.83, 678.8 24.16, 698.77 0.57 M640.51 79.78 C657.78 62.68, 675.1 40.64, 709.4 0.54 M640.51 79.78 C657.22 60.03, 674.51 41.28, 709.4 0.54 M651.14 79.75 C676.73 51.76, 700.13 23.91, 720.03 0.5 M651.14 79.75 C666.31 61.51, 681.64 44.71, 720.03 0.5 M661.11 80.47 C687.88 49.76, 716.45 20.07, 730.66 0.47 M661.11 80.47 C688.07 49.34, 712.83 19.73, 730.66 0.47 M671.74 80.43 C698.76 51.59, 721.73 21.67, 741.29 0.43 M671.74 80.43 C697.36 52.01, 721.19 21.99, 741.29 0.43 M682.37 80.4 C702.2 58.37, 720.37 39.57, 751.92 0.4 M682.37 80.4 C706.17 51.82, 729.59 24.1, 751.92 0.4 M693 80.36 C710.05 57.49, 729.68 35.8, 762.55 0.37 M693 80.36 C716.17 53.47, 741.08 24.21, 762.55 0.37 M703.63 80.33 C729.56 52.03, 753.08 24.56, 773.18 0.33 M703.63 80.33 C727.99 54.35, 751.16 25.26, 773.18 0.33 M714.26 80.3 C739.23 52.09, 763.4 23.18, 783.81 0.3 M714.26 80.3 C739.29 52.24, 763.97 24.03, 783.81 0.3 M724.9 80.26 C753.97 47.85, 780.33 17.07, 794.44 0.26 M724.9 80.26 C740.7 62.24, 755.25 45.28, 794.44 0.26 M735.53 80.23 C757.72 56.55, 776.74 34.34, 805.07 0.23 M735.53 80.23 C756.5 55.1, 778.83 29.32, 805.07 0.23 M746.16 80.19 C771.55 49.17, 798.94 20.27, 815.7 0.19 M746.16 80.19 C763.35 62.9, 778.9 42.97, 815.7 0.19 M756.79 80.16 C782.96 46.75, 811.9 17.39, 826.33 0.16 M756.79 80.16 C779.8 54, 802.92 27.73, 826.33 0.16 M767.42 80.12 C794.35 46.9, 821.77 15.73, 836.96 0.12 M767.42 80.12 C786.76 58.73, 805.74 36.75, 836.96 0.12 M778.05 80.09 C798.76 54.92, 821.34 31.71, 847.59 0.09 M778.05 80.09 C799.88 55.72, 821.43 30.4, 847.59 0.09 M788.68 80.05 C807.5 54.16, 829.93 34.17, 858.22 0.06 M788.68 80.05 C803.43 62.22, 818.69 43.78, 858.22 0.06 M799.31 80.02 C825.08 49.72, 851.75 20.22, 868.19 0.78 M799.31 80.02 C817.48 59.2, 835.47 37.4, 868.19 0.78 M809.94 79.99 C828.23 57.25, 846.45 38.49, 878.82 0.74 M809.94 79.99 C827.19 59.66, 844.39 39.81, 878.82 0.74 M820.57 79.95 C837.11 59.2, 853.76 43.18, 889.45 0.71 M820.57 79.95 C841.23 58.22, 859.74 35.74, 889.45 0.71 M831.2 79.92 C851.32 58.7, 871.6 34.15, 900.08 0.67 M831.2 79.92 C851.32 56.28, 871.13 33.59, 900.08 0.67 M841.83 79.88 C857.4 64.69, 874.73 46.14, 910.71 0.64 M841.83 79.88 C863.58 53.72, 886.37 26.76, 910.71 0.64 M852.46 79.85 C870.01 59.74, 885.81 40.72, 921.34 0.6 M852.46 79.85 C874.62 53.43, 898.87 27.2, 921.34 0.6 M863.09 79.81 C891.12 47.29, 916.66 16.89, 931.97 0.57 M863.09 79.81 C876.78 63.9, 890.83 47.36, 931.97 0.57 M873.72 79.78 C900.99 48.07, 925.85 19.15, 942.6 0.53 M873.72 79.78 C897.74 50.37, 923.24 21.02, 942.6 0.53 M884.35 79.74 C902.13 58.95, 923.32 36.71, 952.58 1.25 M884.35 79.74 C899.8 61.93, 916.73 42.61, 952.58 1.25 M894.32 80.46 C916.66 55.54, 940.6 25.43, 961.89 2.73 M894.32 80.46 C910.92 62.39, 925.94 44.34, 961.89 2.73 M904.95 80.43 C927.6 56.19, 944.92 32.71, 967.28 8.73 M904.95 80.43 C927.78 52.61, 951.53 25.67, 967.28 8.73 M915.58 80.4 C931.74 62.28, 945.52 45.69, 970.03 17.75 M915.58 80.4 C934.85 58.75, 954.22 35.99, 970.03 17.75 M926.21 80.36 C940.25 64.29, 952.95 50.69, 970.17 29.8 M926.21 80.36 C939.62 65.74, 952.4 49.39, 970.17 29.8 M936.84 80.33 C945.76 71.41, 954.71 59.7, 970.3 41.84 M936.84 80.33 C944.03 71.82, 953.08 61.98, 970.3 41.84 M947.47 80.29 C952.12 75.43, 957.61 67.41, 970.43 53.88 M947.47 80.29 C953.94 72.5, 960.67 64.88, 970.43 53.88 M959.41 78.75 C960.67 76.23, 963.25 72.6, 969.25 67.43 M959.41 78.75 C962.51 74.62, 966.88 71.16, 969.25 67.43" stroke="#E8DAEF" stroke-width="1" fill="none"></path><path d="M20 0 C206.35 -0.37, 391.88 -0.29, 950 0 M20 0 C273.03 1.16, 525.82 1.65, 950 0 M950 0 C962.04 0.53, 970.88 8.29, 970 20 M950 0 C963.53 0.56, 968.67 8.4, 970 20 M970 20 C971.35 26.95, 970.91 38.63, 970 60 M970 20 C969.24 35.26, 969.99 50.57, 970 60 M970 60 C970.6 71.73, 963.82 78.28, 950 80 M970 60 C968.31 73.4, 964.27 80.81, 950 80 M950 80 C749.85 83.59, 549.26 83.6, 20 80 M950 80 C749.21 83.72, 548.48 83.46, 20 80 M20 80 C4.78 79.71, -0.18 73.86, 0 60 M20 80 C8.5 79.98, 2.16 73.43, 0 60 M0 60 C-1.01 48.25, 0.97 35.53, 0 20 M0 60 C-0.64 49.58, 0.58 37.21, 0 20 M0 20 C0.44 8.66, 5.12 -1.31, 20 0 M0 20 C-0.62 4.6, 7.68 2.27, 20 0" stroke="#5C2D91" stroke-width="2" fill="none"></path></g><g transform="translate(25 88) rotate(0 470 27.5)"><text x="0" y="0" font-family="Virgil, Segoe UI Emoji" font-size="16px" fill="#000000" text-anchor="start" style="white-space: pre;" direction="ltr" dominant-baseline="text-before-edge">Algorithms operate on trait-based board surfaces, not concrete storage. The StreamingBoard backend now ships alongside InMemoryBoard for boards too large to fit in --max-board-memory; see streaming-architecture.excalidraw.</text></g><g stroke-linecap="round" transform="translate(10 190) rotate(0 120 145)"><path d="M32 0 C68.06 0.61, 102.08 0.81, 208 0 M32 0 C80.07 -0.09, 127.51 1.13, 208 0 M208 0 C228.04 0.53, 240.88 12.29, 240 32 M208 0 C229.53 0.56, 238.67 12.4, 240 32 M240 32 C240.42 79.66, 240.05 131.36, 240 258 M240 32 C238.04 119.76, 238.68 207.56, 240 258 M240 258 C240.6 277.73, 229.82 288.28, 208 290 M240 258 C238.31 279.4, 230.27 290.81, 208 290 M208 290 C171.09 291.53, 133.11 291.55, 32 290 M208 290 C169.81 292.38, 131.79 291.73, 32 290 M32 290 C8.78 289.71, -0.18 279.86, 0 258 M32 290 C12.5 289.98, 2.16 279.43, 0 258 M0 258 C-2.02 192.94, -0.33 127.05, 0 32 M0 258 C-0.69 196.08, 0.35 132.48, 0 32 M0 32 C0.44 12.66, 9.12 -1.31, 32 0 M0 32 C-0.62 8.6, 11.68 2.27, 32 0" stroke="#0078D4" stroke-width="2" fill="none"></path></g><g transform="translate(25 202) rotate(0 105 22.5)"><text x="105" y="0" font-family="Virgil, Segoe UI Emoji" font-size="18px" fill="#000000" text-anchor="middle" style="white-space: pre;" direction="ltr" dominant-baseline="text-before-edge">Runtime Wiring</text></g><g stroke-linecap="round" transform="translate(35 260) rotate(0 95 35)"><path d="M2.16 7.18 C2.16 7.18, 2.16 7.18, 2.16 7.18 M2.16 7.18 C2.16 7.18, 2.16 7.18, 2.16 7.18 M0.59 15.09 C3.19 12.49, 9.05 5.66, 12.4 1.5 M0.59 15.09 C4.6 10.74, 9.05 5.88, 12.4 1.5 M0.33 21.48 C5.81 15.74, 7.77 11.43, 18.7 0.35 M0.33 21.48 C5.74 17, 9.02 11.15, 18.7 0.35 M0.72 27.13 C6.64 18.16, 12.88 13.07, 24.34 -0.04 M0.72 27.13 C9.19 18.07, 16.68 8.55, 24.34 -0.04 M0.46 33.53 C8.45 22.49, 16.95 15.09, 29.33 0.32 M0.46 33.53 C9.94 22.28, 20.45 12.03, 29.33 0.32 M0.85 39.17 C13.1 25, 21.42 13.74, 34.97 -0.08 M0.85 39.17 C9.56 27.98, 18.89 18.66, 34.97 -0.08 M0.59 45.57 C10.65 32.77, 21.25 20.92, 39.96 0.28 M0.59 45.57 C15 29.57, 29.42 12.49, 39.96 0.28 M0.33 51.96 C8.83 41.91, 19.05 27.58, 45.6 -0.11 M0.33 51.96 C17.64 31.91, 36.84 10.74, 45.6 -0.11 M0.73 57.61 C11.18 42.61, 23.02 29.81, 50.59 0.25 M0.73 57.61 C19.49 35.71, 37.22 14.56, 50.59 0.25 M2.43 61.74 C15.98 46.37, 30.2 32.69, 56.23 -0.15 M2.43 61.74 C18.34 41.8, 36.07 22.64, 56.23 -0.15 M4.8 65.12 C17.99 47.11, 36.68 29.91, 61.22 0.21 M4.8 65.12 C19.42 45.69, 36.94 28.98, 61.22 0.21 M7.81 67.74 C19.74 55.89, 29.59 38.58, 66.86 -0.18 M7.81 67.74 C20.45 52.76, 34.89 36.69, 66.86 -0.18 M11.49 69.61 C26.92 48.81, 45.65 28.86, 71.85 0.18 M11.49 69.61 C33.09 43.73, 54.88 17.44, 71.85 0.18 M16.48 69.97 C37.42 46.55, 60.95 20.87, 77.49 -0.21 M16.48 69.97 C32.13 51.1, 49.85 31.28, 77.49 -0.21 M21.46 70.33 C41.3 46.09, 61.93 24.48, 82.48 0.15 M21.46 70.33 C46.04 41.1, 70.01 13.68, 82.48 0.15 M27.11 69.94 C45.7 48.32, 62.06 28.14, 88.12 -0.25 M27.11 69.94 C40.19 55.53, 52.83 40.03, 88.12 -0.25 M32.09 70.3 C46.16 53.5, 61.19 34.46, 93.11 0.11 M32.09 70.3 C50.73 49.26, 69.82 28.53, 93.11 0.11 M37.74 69.9 C55.58 47.88, 73.55 27.21, 98.75 -0.28 M37.74 69.9 C57.1 48.93, 76.29 25.03, 98.75 -0.28 M42.72 70.26 C62.62 49.27, 82.34 24.44, 103.74 0.08 M42.72 70.26 C59.16 49.96, 77.25 28.75, 103.74 0.08 M48.37 69.87 C59.52 56.93, 74.63 41, 108.72 0.44 M48.37 69.87 C67.66 47.13, 86.66 27.07, 108.72 0.44 M53.35 70.23 C71.66 51.77, 88.44 29.43, 114.37 0.04 M53.35 70.23 C73.44 47.05, 94.73 23.9, 114.37 0.04 M59 69.84 C74.35 54.08, 89.8 34.21, 119.35 0.4 M59 69.84 C71.9 54.51, 85.57 40.48, 119.35 0.4 M63.98 70.2 C90.28 41.08, 114.19 13.98, 125 0.01 M63.98 70.2 C81.14 49.37, 99.99 27.93, 125 0.01 M69.63 69.8 C84.76 51.41, 100.73 31.85, 129.98 0.37 M69.63 69.8 C86.79 50.7, 103.86 30.63, 129.98 0.37 M74.61 70.16 C92.25 49.64, 107.55 31.95, 135.63 -0.03 M74.61 70.16 C86.54 54.63, 99.5 41.95, 135.63 -0.03 M80.26 69.77 C99.31 46.31, 121.36 25.56, 140.61 0.33 M80.26 69.77 C97.64 50.18, 113.62 29.12, 140.61 0.33 M85.24 70.13 C100.78 51.12, 117.69 36.24, 146.26 -0.06 M85.24 70.13 C105.8 44.77, 127.82 20.61, 146.26 -0.06 M90.23 70.49 C103.79 55.64, 121.02 38.5, 151.24 0.3 M90.23 70.49 C104.23 54.1, 118.6 37, 151.24 0.3 M95.87 70.09 C112.04 53.16, 127.47 32.65, 156.89 -0.1 M95.87 70.09 C108.14 53.87, 121.63 39.26, 156.89 -0.1 M100.86 70.45 C118.63 51.72, 135.5 29.47, 161.87 0.26 M100.86 70.45 C115.43 53.67, 130.09 35.83, 161.87 0.26 M106.5 70.06 C125.83 47.09, 150.56 22.56, 167.52 -0.13 M106.5 70.06 C128.91 46.12, 148.73 22.46, 167.52 -0.13 M111.49 70.42 C129.8 47.92, 148.42 27.98, 172.51 0.23 M111.49 70.42 C126.86 52.13, 143.45 33.46, 172.51 0.23 M117.13 70.02 C136.1 48.43, 155.46 24.7, 177.49 0.59 M117.13 70.02 C132.53 53.3, 148.7 35.15, 177.49 0.59 M122.12 70.38 C140.43 44.54, 164.25 24.6, 181.82 1.7 M122.12 70.38 C143.1 45.99, 165.39 21.59, 181.82 1.7 M127.76 69.99 C149.42 46.69, 170.07 22.35, 184.84 4.33 M127.76 69.99 C148.8 47.72, 168.59 24.78, 184.84 4.33 M132.75 70.35 C146 55.13, 161.86 39.41, 187.2 7.71 M132.75 70.35 C143.63 55.39, 156.4 42.03, 187.2 7.71 M138.39 69.95 C147.79 58.81, 156.89 46.31, 188.91 11.84 M138.39 69.95 C159.05 47.43, 178.65 24.54, 188.91 11.84 M143.38 70.31 C157.61 53.51, 171.77 40.57, 189.96 16.73 M143.38 70.31 C155.94 54.39, 169.64 39.38, 189.96 16.73 M149.02 69.92 C160.11 56.82, 172.3 45.81, 189.7 23.13 M149.02 69.92 C158.05 59.81, 166.86 49.33, 189.7 23.13 M154.01 70.28 C164.98 58.82, 177.82 42.86, 189.44 29.53 M154.01 70.28 C167.04 55.06, 179.96 39.41, 189.44 29.53 M159.66 69.89 C166.41 63.74, 172.21 54.76, 189.83 35.17 M159.66 69.89 C166.87 61.69, 174.9 52.3, 189.83 35.17 M164.64 70.25 C174.11 57.13, 183.13 46.89, 189.57 41.57 M164.64 70.25 C171.89 62, 176.8 54.97, 189.57 41.57 M170.29 69.85 C177.92 61.78, 184.08 53.81, 189.31 47.96 M170.29 69.85 C178.21 61.94, 184.9 54, 189.31 47.96 M175.93 69.46 C181.82 65.25, 185.8 57.16, 189.05 54.36 M175.93 69.46 C179.42 64.41, 184.36 60.16, 189.05 54.36 M182.88 67.55 C185.07 65.77, 186.36 63.93, 189.44 60.01 M182.88 67.55 C184.37 65.88, 186.41 63.44, 189.44 60.01" stroke="#CFE4FA" stroke-width="0.5" fill="none"></path><path d="M17.5 0 C49.36 0.65, 79.18 0.85, 172.5 0 M17.5 0 C59.86 -0.17, 101.59 1.05, 172.5 0 M172.5 0 C182.87 0.53, 190.88 7.46, 190 17.5 M172.5 0 C184.37 0.56, 188.67 7.56, 190 17.5 M190 17.5 C191.38 23.36, 190.94 33.96, 190 52.5 M190 17.5 C189.28 30.82, 190.03 44.18, 190 52.5 M190 52.5 C190.6 62.57, 184.65 68.28, 172.5 70 M190 52.5 C188.31 64.23, 185.1 70.81, 172.5 70 M172.5 70 C140.12 71.32, 106.67 71.34, 17.5 70 M172.5 70 C138.85 72.18, 105.36 71.54, 17.5 70 M17.5 70 C3.95 69.71, -0.18 64.69, 0 52.5 M17.5 70 C7.66 69.98, 2.16 64.26, 0 52.5 M0 52.5 C-0.97 42.18, 1.01 30.89, 0 17.5 M0 52.5 C-0.63 43.46, 0.58 32.48, 0 17.5 M0 17.5 C0.44 7.83, 4.28 -1.31, 17.5 0 M0 17.5 C-0.62 3.76, 6.85 2.27, 17.5 0" stroke="#0078D4" stroke-width="1" fill="none"></path></g><g transform="translate(45 272) rotate(0 85 22.5)"><text x="85" y="0" font-family="Virgil, Segoe UI Emoji" font-size="14px" fill="#000000" text-anchor="middle" style="white-space: pre;" direction="ltr" dominant-baseline="text-before-edge">main.rs</text><text x="85" y="22.5" font-family="Virgil, Segoe UI Emoji" font-size="14px" fill="#000000" text-anchor="middle" style="white-space: pre;" direction="ltr" dominant-baseline="text-before-edge">CLI config + loop</text></g><g stroke-linecap="round" transform="translate(35 360) rotate(0 95 40)"><path d="M2.85 7.77 C2.85 7.77, 2.85 7.77, 2.85 7.77 M2.85 7.77 C2.85 7.77, 2.85 7.77, 2.85 7.77 M1.27 15.68 C3.87 13.09, 9.74 6.25, 13.08 2.1 M1.27 15.68 C5.28 11.34, 9.74 6.48, 13.08 2.1 M1.01 22.08 C6.64 16.17, 8.74 11.7, 20.04 0.19 M1.01 22.08 C6.59 17.41, 10.02 11.38, 20.04 0.19 M0.75 28.48 C7.06 19.09, 13.67 13.57, 25.68 -0.2 M0.75 28.48 C9.66 18.9, 17.59 8.87, 25.68 -0.2 M1.14 34.12 C9.31 22.88, 18 15.26, 30.67 0.16 M1.14 34.12 C10.85 22.62, 21.58 12.12, 30.67 0.16 M0.88 40.52 C13.57 25.85, 22.31 14.1, 36.31 -0.24 M0.88 40.52 C9.94 28.93, 19.62 19.2, 36.31 -0.24 M1.28 46.16 C11.51 33.16, 22.3 21.1, 41.3 0.12 M1.28 46.16 C15.91 29.89, 30.58 12.55, 41.3 0.12 M1.02 52.56 C9.67 42.33, 20.04 27.83, 46.94 -0.27 M1.02 52.56 C18.58 32.21, 38.04 10.73, 46.94 -0.27 M0.75 58.96 C11.52 43.61, 23.66 30.46, 51.93 0.09 M0.75 58.96 C20.01 36.49, 38.22 14.78, 51.93 0.09 M0.49 65.35 C14.68 49.23, 29.55 34.8, 56.91 0.45 M0.49 65.35 C17.22 44.46, 35.77 24.35, 56.91 0.45 M2.86 68.73 C16.92 49.71, 36.48 31.51, 62.56 0.05 M2.86 68.73 C18.39 48.21, 36.83 30.45, 62.56 0.05 M4.56 72.87 C17.24 60.1, 27.88 41.89, 67.54 0.41 M4.56 72.87 C18.09 56.89, 33.41 39.8, 67.54 0.41 M6.93 76.25 C24.04 53.43, 44.5 31.49, 73.19 0.02 M6.93 76.25 C30.66 47.85, 54.62 19.06, 73.19 0.02 M10.6 78.12 C33.85 52.13, 59.66 23.84, 78.17 0.38 M10.6 78.12 C27.98 57.16, 47.48 35.3, 78.17 0.38 M14.93 79.23 C37.4 51.94, 60.73 27.24, 83.82 -0.01 M14.93 79.23 C42.61 46.35, 69.71 15.32, 83.82 -0.01 M19.26 80.34 C40.41 55.84, 59.28 32.77, 88.8 0.35 M19.26 80.34 C34.13 63.93, 48.54 46.39, 88.8 0.35 M24.25 80.7 C40.48 61.33, 57.71 39.76, 94.45 -0.05 M24.25 80.7 C45.64 56.54, 67.51 32.61, 94.45 -0.05 M29.89 80.31 C50.36 55.26, 70.97 31.55, 99.43 0.31 M29.89 80.31 C51.97 56.27, 73.87 29.25, 99.43 0.31 M34.88 80.67 C57.72 56.37, 80.3 28.24, 105.08 -0.08 M34.88 80.67 C53.92 57.26, 74.65 33, 105.08 -0.08 M40.52 80.28 C53.65 65.19, 70.66 47.06, 110.06 0.28 M40.52 80.28 C62.74 54.17, 84.61 30.82, 110.06 0.28 M45.51 80.64 C66.53 59.15, 85.97 33.76, 115.71 -0.12 M45.51 80.64 C68.59 53.96, 92.97 27.28, 115.71 -0.12 M51.15 80.24 C68.8 61.83, 86.59 39.24, 120.69 0.24 M51.15 80.24 C66.04 62.67, 81.69 46.37, 120.69 0.24 M56.14 80.6 C86.13 47.32, 113.72 15.99, 126.34 -0.15 M56.14 80.6 C75.99 56.69, 97.57 32.11, 126.34 -0.15 M61.78 80.21 C79.4 58.95, 97.88 36.5, 131.32 0.21 M61.78 80.21 C81.57 58.11, 101.23 35.07, 131.32 0.21 M66.77 80.57 C86.99 57.22, 104.83 36.61, 136.97 -0.19 M66.77 80.57 C80.53 62.84, 95.34 48.02, 136.97 -0.19 M72.41 80.17 C94.45 53.24, 119.52 29.02, 141.95 0.17 M72.41 80.17 C92.34 57.54, 110.97 33.44, 141.95 0.17 M77.4 80.53 C95.31 58.82, 114.54 41.27, 147.6 -0.22 M77.4 80.53 C101.12 51.42, 126.34 23.58, 147.6 -0.22 M83.04 80.14 C98.73 62.97, 118.05 43.44, 152.58 0.14 M83.04 80.14 C99.05 61.47, 115.41 42.07, 152.58 0.14 M88.03 80.5 C106.6 60.83, 124.44 37.55, 158.23 -0.26 M88.03 80.5 C102.15 61.95, 117.6 45.09, 158.23 -0.26 M93.67 80.1 C113.9 58.52, 133.28 33.39, 163.21 0.1 M93.67 80.1 C110.23 60.96, 126.95 40.74, 163.21 0.1 M98.66 80.46 C120.95 54.1, 148.61 26.19, 168.2 0.46 M98.66 80.46 C124.07 53.18, 146.8 26.18, 168.2 0.46 M104.3 80.07 C124.94 54.88, 145.94 32.2, 173.19 0.82 M104.3 80.07 C121.74 59.49, 140.38 38.47, 173.19 0.82 M109.29 80.43 C130.87 55.77, 152.85 29.03, 177.52 1.94 M109.29 80.43 C126.72 61.47, 144.9 41.01, 177.52 1.94 M114.28 80.79 C135.25 51.79, 161.8 28.72, 181.85 3.05 M114.28 80.79 C138.15 53.12, 163.25 25.49, 181.85 3.05 M119.92 80.39 C144.81 53.41, 168.64 25.42, 185.53 4.92 M119.92 80.39 C144.01 54.68, 166.76 28.32, 185.53 4.92 M124.91 80.75 C140.12 63.31, 157.95 45.32, 187.23 9.06 M124.91 80.75 C137.49 63.78, 152.05 48.36, 187.23 9.06 M130.55 80.36 C141.45 67.43, 152.13 53.11, 188.94 13.19 M130.55 80.36 C154.33 54.27, 176.97 27.87, 188.94 13.19 M135.54 80.72 C152.2 61.28, 168.72 45.62, 189.99 18.08 M135.54 80.72 C150.38 62.25, 166.34 44.65, 189.99 18.08 M141.18 80.33 C154.37 64.82, 168.62 51.44, 189.73 24.48 M141.18 80.33 C151.95 68.3, 162.47 55.87, 189.73 24.48 M146.17 80.69 C159.94 66.11, 175.52 47, 190.12 30.12 M146.17 80.69 C162.46 61.79, 178.6 42.43, 190.12 30.12 M151.81 80.29 C160.08 72.29, 167.46 61.5, 189.86 36.52 M151.81 80.29 C160.9 69.8, 170.88 58.17, 189.86 36.52 M156.8 80.65 C169.33 63.86, 181.48 50.02, 189.6 42.92 M156.8 80.65 C166.03 69.97, 173 60.58, 189.6 42.92 M162.44 80.26 C173.11 68.62, 182.35 57.1, 189.99 48.56 M162.44 80.26 C173.57 68.76, 183.42 57.18, 189.99 48.56 M167.43 80.62 C176.65 72.6, 184 60.64, 189.73 54.96 M167.43 80.62 C173.95 72.04, 181.89 64.35, 189.73 54.96 M173.73 79.47 C179.06 74.81, 182.61 70.03, 190.13 60.6 M173.73 79.47 C177.52 75.22, 182.41 69.41, 190.13 60.6 M180.03 78.32 C182.74 75.12, 186.22 71.11, 189.21 67.75 M180.03 78.32 C182.34 75.8, 184.68 72.08, 189.21 67.75" stroke="#CFE4FA" stroke-width="0.5" fill="none"></path><path d="M20 0 C50.86 0.66, 79.68 0.86, 170 0 M20 0 C61 -0.19, 101.37 1.03, 170 0 M170 0 C182.04 0.53, 190.88 8.29, 190 20 M170 0 C183.53 0.56, 188.67 8.4, 190 20 M190 20 C191.35 26.95, 190.91 38.63, 190 60 M190 20 C189.24 35.26, 189.99 50.57, 190 60 M190 60 C190.6 71.73, 183.82 78.28, 170 80 M190 60 C188.31 73.4, 184.27 80.81, 170 80 M170 80 C138.7 81.27, 106.33 81.29, 20 80 M170 80 C137.43 82.14, 105.02 81.49, 20 80 M20 80 C4.78 79.71, -0.18 73.86, 0 60 M20 80 C8.5 79.98, 2.16 73.43, 0 60 M0 60 C-1.01 48.25, 0.97 35.53, 0 20 M0 60 C-0.64 49.58, 0.58 37.21, 0 20 M0 20 C0.44 8.66, 5.12 -1.31, 20 0 M0 20 C-0.62 4.6, 7.68 2.27, 20 0" stroke="#0078D4" stroke-width="1" fill="none"></path></g><g transform="translate(45 372) rotate(0 85 27.5)"><text x="85" y="0" font-family="Virgil, Segoe UI Emoji" font-size="14px" fill="#000000" text-anchor="middle" style="white-space: pre;" direction="ltr" dominant-baseline="text-before-edge">Current defaults</text><text x="85" y="27.5" font-family="Virgil, Segoe UI Emoji" font-size="14px" fill="#000000" text-anchor="middle" style="white-space: pre;" direction="ltr" dominant-baseline="text-before-edge">No CLI selection yet</text></g><g stroke-linecap="round" transform="translate(300 190) rotate(0 150 215)"><path d="M32 0 C79.92 0.41, 126.13 0.58, 268 0 M32 0 C96.36 0.13, 160.19 1.15, 268 0 M268 0 C288.04 0.53, 300.88 12.29, 300 32 M268 0 C289.53 0.56, 298.67 12.4, 300 32 M300 32 C299.9 110.52, 299.63 191.98, 300 398 M300 32 C297.86 174.37, 298.32 316.76, 300 398 M300 398 C300.6 417.73, 289.82 428.28, 268 430 M300 398 C298.31 419.4, 290.27 430.81, 268 430 M268 430 C217.99 431.78, 167.07 431.8, 32 430 M268 430 C216.9 432.46, 165.93 431.92, 32 430 M32 430 C8.78 429.71, -0.18 419.86, 0 398 M32 430 C12.5 429.98, 2.16 419.43, 0 398 M0 398 C-2.1 292.85, -0.87 187.1, 0 32 M0 398 C-0.58 297.23, 0.18 195.24, 0 32 M0 32 C0.44 12.66, 9.12 -1.31, 32 0 M0 32 C-0.62 8.6, 11.68 2.27, 32 0" stroke="#107C10" stroke-width="2" fill="none"></path></g><g transform="translate(315 202) rotate(0 135 22.5)"><text x="135" y="0" font-family="Virgil, Segoe UI Emoji" font-size="18px" fill="#000000" text-anchor="middle" style="white-space: pre;" direction="ltr" dominant-baseline="text-before-edge">Algorithm Interfaces</text></g><g stroke-linecap="round" transform="translate(325 255) rotate(0 125 52.5)"><path d="M3.9 10.01 C3.9 10.01, 3.9 10.01, 3.9 10.01 M3.9 10.01 C3.9 10.01, 3.9 10.01, 3.9 10.01 M0.36 20.19 C3.87 16.6, 10.99 8.31, 15.45 2.83 M0.36 20.19 C5.46 14.61, 11.07 8.45, 15.45 2.83 M0.1 26.58 C6.47 19.85, 9.28 14.56, 22.4 0.92 M0.1 26.58 C6.48 21.01, 10.69 14.08, 22.4 0.92 M0.49 32.23 C7.58 21.99, 14.94 15.61, 28.05 0.53 M0.49 32.23 C10.29 21.61, 19.1 10.56, 28.05 0.53 M0.23 38.62 C9.46 26.15, 19.25 17.26, 33.69 0.13 M0.23 38.62 C11.26 25.62, 23.28 13.64, 33.69 0.13 M0.62 44.27 C14.19 28.6, 23.78 15.86, 38.68 0.49 M0.62 44.27 C10.38 31.88, 20.77 21.33, 38.68 0.49 M0.36 50.67 C11.66 36.4, 23.56 23.08, 44.32 0.1 M0.36 50.67 C16.39 32.78, 32.47 13.81, 44.32 0.1 M0.1 57.06 C9.51 46.01, 20.62 30.66, 49.31 0.46 M0.1 57.06 C18.94 35.23, 39.71 12.25, 49.31 0.46 M0.5 62.71 C11.87 46.67, 24.63 32.81, 54.29 0.82 M0.5 62.71 C20.72 39.12, 39.91 16.28, 54.29 0.82 M0.23 69.1 C15.22 52.04, 30.9 36.68, 59.94 0.43 M0.23 69.1 C17.98 47.01, 37.56 25.72, 59.94 0.43 M0.63 74.75 C15.93 54.29, 36.69 34.7, 64.92 0.79 M0.63 74.75 C17.43 52.7, 37.15 33.46, 64.92 0.79 M0.37 81.15 C14.43 66.72, 26.52 46.83, 70.57 0.39 M0.37 81.15 C15.53 63.35, 32.47 44.38, 70.57 0.39 M1.42 86.03 C20.79 60.52, 43.53 35.95, 75.55 0.75 M1.42 86.03 C27.98 54.29, 54.86 22.15, 75.55 0.75 M2.47 90.92 C29.65 60.58, 59.31 27.84, 81.2 0.36 M2.47 90.92 C22.79 66.41, 45.31 41.09, 81.2 0.36 M4.18 95.06 C31.05 62.69, 58.85 32.84, 86.18 0.72 M4.18 95.06 C37.02 56.1, 69.36 19.05, 86.18 0.72 M6.54 98.43 C32.4 68.59, 55.9 40.2, 91.83 0.32 M6.54 98.43 C24.7 78.3, 42.37 57.01, 91.83 0.32 M10.21 100.3 C30.32 76.32, 51.47 50.24, 96.81 0.68 M10.21 100.3 C36.51 70.56, 63.35 40.92, 96.81 0.68 M13.23 102.93 C39.74 70.89, 66.44 40.17, 102.46 0.29 M13.23 102.93 C41.56 71.83, 69.74 37.57, 102.46 0.29 M17.56 104.04 C46.71 72.66, 75.43 37.46, 107.44 0.65 M17.56 104.04 C42.19 73.98, 68.6 43.2, 107.44 0.65 M22.55 104.4 C40.19 84.4, 61.57 61.25, 113.09 0.25 M22.55 104.4 C51.47 70.62, 79.89 39.73, 113.09 0.25 M26.88 105.52 C54.11 77.12, 79.61 44.75, 118.07 0.61 M26.88 105.52 C56.83 70.87, 88.24 36.1, 118.07 0.61 M31.87 105.88 C55.06 80.99, 78.58 51.83, 123.72 0.22 M31.87 105.88 C51.58 82.87, 72.04 61.03, 123.72 0.22 M37.51 105.48 C75.96 62.66, 111.93 21.68, 128.7 0.58 M37.51 105.48 C63.54 74.51, 91.36 42.75, 128.7 0.58 M42.5 105.84 C66.15 77.62, 90.72 48.16, 134.35 0.18 M42.5 105.84 C68.67 76.49, 94.63 46.2, 134.35 0.18 M48.14 105.45 C74.27 75.63, 97.9 48.36, 139.33 0.54 M48.14 105.45 C66.1 82.7, 85.14 63.01, 139.33 0.54 M53.13 105.81 C82.42 70.43, 114.83 37.77, 144.98 0.15 M53.13 105.81 C79.23 75.78, 104.29 44.28, 144.98 0.15 M58.77 105.41 C82.12 77.5, 106.64 53.87, 149.96 0.51 M58.77 105.41 C89.73 67.74, 122.28 31.47, 149.96 0.51 M63.76 105.77 C85.02 82.55, 109.8 56.73, 155.61 0.12 M63.76 105.77 C85.01 81.15, 106.59 55.75, 155.61 0.12 M69.4 105.38 C93.45 79.47, 116.8 49.86, 160.59 0.48 M69.4 105.38 C87.77 81.52, 107.68 59.52, 160.59 0.48 M74.39 105.74 C100.85 76.93, 126.6 44.47, 165.58 0.84 M74.39 105.74 C95.99 80.59, 117.96 54.34, 165.58 0.84 M80.03 105.35 C109.85 70.35, 144.95 33.9, 171.22 0.44 M80.03 105.35 C113.07 69.58, 143.19 34.08, 171.22 0.44 M85.02 105.71 C112.26 72.9, 140.01 42.46, 176.21 0.8 M85.02 105.71 C108.33 78.64, 132.77 50.94, 176.21 0.8 M90.66 105.31 C119.84 71.71, 149.48 36.16, 181.85 0.41 M90.66 105.31 C114.02 79.83, 138.04 52.65, 181.85 0.41 M95.65 105.67 C124.64 67.2, 159.34 34.75, 186.84 0.77 M95.65 105.67 C128.2 68.17, 161.73 30.84, 186.84 0.77 M101.29 105.28 C135.89 67.24, 169.24 28.28, 192.48 0.37 M101.29 105.28 C134.54 69.2, 166.19 32.61, 192.48 0.37 M106.28 105.64 C128.66 80.04, 153.75 53.71, 197.47 0.73 M106.28 105.64 C125.12 81.26, 146.23 58.31, 197.47 0.73 M111.92 105.24 C129.09 84.87, 146.36 62.96, 203.11 0.34 M111.92 105.24 C148.68 64.29, 184.04 23.26, 203.11 0.34 M116.91 105.6 C144.96 73.82, 172.48 45.51, 208.1 0.7 M116.91 105.6 C142.44 75.27, 168.92 45.56, 208.1 0.7 M122.55 105.21 C147.15 76.69, 172.59 50.45, 213.74 0.3 M122.55 105.21 C142.79 82.82, 162.53 59.78, 213.74 0.3 M127.54 105.57 C156.84 73.72, 187.58 37.16, 218.73 0.66 M127.54 105.57 C161.94 66.27, 195.87 26.46, 218.73 0.66 M133.18 105.17 C151.71 84.68, 169.75 61.62, 224.37 0.27 M133.18 105.17 C154.93 79.21, 178.07 52.43, 224.37 0.27 M138.17 105.53 C173.17 61.85, 208.33 21.53, 228.7 1.38 M138.17 105.53 C161.97 77.03, 184 50.31, 228.7 1.38 M143.16 105.89 C176.17 67.96, 208.21 30.21, 233.69 1.74 M143.16 105.89 C177.98 67.88, 211.16 29.47, 233.69 1.74 M148.8 105.5 C182.33 69.73, 214.21 29.56, 238.02 2.86 M148.8 105.5 C177.43 71.25, 207.21 38.43, 238.02 2.86 M153.79 105.86 C179.88 77.85, 204.24 49.12, 241.04 5.48 M153.79 105.86 C175.25 81.97, 197.54 56.14, 241.04 5.48 M159.43 105.46 C185.43 75.17, 212.6 43.91, 244.06 8.11 M159.43 105.46 C182.42 78.58, 206.08 49.89, 244.06 8.11 M164.42 105.82 C183.59 82.91, 205.62 60.62, 247.08 10.73 M164.42 105.82 C181.94 87.59, 198.43 67.77, 247.08 10.73 M170.06 105.43 C190.26 80.45, 211.57 58.28, 248.13 15.62 M170.06 105.43 C190.06 80.37, 211.08 56.67, 248.13 15.62 M175.05 105.79 C195.64 84.02, 216.59 61.44, 249.84 19.75 M175.05 105.79 C202.73 74.94, 229.56 42.38, 249.84 19.75 M180.69 105.4 C203.92 79.25, 225.51 54.35, 250.23 25.4 M180.69 105.4 C204.08 77.75, 227.82 51.34, 250.23 25.4 M185.68 105.76 C203.57 80.82, 225.86 59, 250.63 31.04 M185.68 105.76 C205.44 81.62, 224.45 60.66, 250.63 31.04 M191.32 105.36 C211.64 84.83, 229.4 61.74, 250.36 37.44 M191.32 105.36 C214.13 80.25, 234.2 54.53, 250.36 37.44 M196.31 105.72 C214.53 85.51, 232.26 66.49, 250.76 43.08 M196.31 105.72 C217.06 82.56, 237.91 59.59, 250.76 43.08 M201.95 105.33 C221.06 84.82, 236.82 65.37, 250.5 49.48 M201.95 105.33 C219.91 84.11, 237.07 64.92, 250.5 49.48 M206.94 105.69 C224.44 87.07, 238.45 69.93, 250.24 55.88 M206.94 105.69 C216.05 94.57, 225.08 84.28, 250.24 55.88 M212.58 105.29 C224.73 91.73, 233.43 81.96, 250.63 61.52 M212.58 105.29 C226.45 89.2, 240.28 73.11, 250.63 61.52 M217.57 105.65 C229.9 93.76, 236.45 79.21, 250.37 67.92 M217.57 105.65 C231.22 91.35, 243.09 75.78, 250.37 67.92 M223.21 105.26 C232.42 93.31, 242.09 80.61, 250.76 73.56 M223.21 105.26 C230.93 94.8, 240.07 85.39, 250.76 73.56 M229.51 104.11 C235 97.21, 242.24 89.38, 249.85 80.71 M229.51 104.11 C233.97 98.45, 239.11 94.03, 249.85 80.71 M235.81 102.96 C238.31 97.29, 242.54 93.65, 248.93 87.86 M235.81 102.96 C241.78 96.2, 245.74 91.61, 248.93 87.86" stroke="#DFF6DD" stroke-width="0.5" fill="none"></path><path d="M26.25 0 C66.61 0.56, 104.93 0.76, 223.75 0 M26.25 0 C80.16 0, 133.46 1.22, 223.75 0 M223.75 0 C239.95 0.53, 250.88 10.38, 250 26.25 M223.75 0 C241.45 0.56, 248.67 10.48, 250 26.25 M250 26.25 C251.29 35.92, 250.86 50.32, 250 78.75 M250 26.25 C249.13 46.38, 249.88 66.56, 250 78.75 M250 78.75 C250.6 94.65, 241.73 103.28, 223.75 105 M250 78.75 C248.31 96.31, 242.19 105.81, 223.75 105 M223.75 105 C182.21 106.74, 139.59 106.76, 26.25 105 M223.75 105 C180.92 107.57, 138.26 106.93, 26.25 105 M26.25 105 C6.86 104.71, -0.18 96.78, 0 78.75 M26.25 105 C10.58 104.98, 2.16 96.35, 0 78.75 M0 78.75 C-1.1 63.41, 0.88 47.11, 0 26.25 M0 78.75 C-0.65 64.88, 0.57 49.05, 0 26.25 M0 26.25 C0.44 10.75, 7.2 -1.31, 26.25 0 M0 26.25 C-0.62 6.68, 9.76 2.27, 26.25 0" stroke="#107C10" stroke-width="1" fill="none"></path></g><g transform="translate(338 266) rotate(0 112.5 40)"><text x="112.5" y="0" font-family="Virgil, Segoe UI Emoji" font-size="13px" fill="#000000" text-anchor="middle" style="white-space: pre;" direction="ltr" dominant-baseline="text-before-edge">BoardView</text><text x="112.5" y="20" font-family="Virgil, Segoe UI Emoji" font-size="13px" fill="#000000" text-anchor="middle" style="white-space: pre;" direction="ltr" dominant-baseline="text-before-edge">width / height</text><text x="112.5" y="40" font-family="Virgil, Segoe UI Emoji" font-size="13px" fill="#000000" text-anchor="middle" style="white-space: pre;" direction="ltr" dominant-baseline="text-before-edge">cell_state(coord)</text><text x="112.5" y="60" font-family="Virgil, Segoe UI Emoji" font-size="13px" fill="#000000" text-anchor="middle" style="white-space: pre;" direction="ltr" dominant-baseline="text-before-edge">read_cells(coords, out)</text></g><g stroke-linecap="round" transform="translate(325 385) rotate(0 125 37.5)"><path d="M4.99 4.34 C4.99 4.34, 4.99 4.34, 4.99 4.34 M4.99 4.34 C4.99 4.34, 4.99 4.34, 4.99 4.34 M0.79 15.26 C3.39 12.67, 9.26 5.84, 12.6 1.68 M0.79 15.26 C4.8 10.92, 9.26 6.06, 12.6 1.68 M1.19 20.91 C6.52 15.33, 8.34 11.18, 18.9 0.53 M1.19 20.91 C6.44 16.61, 9.56 10.93, 18.9 0.53 M0.93 27.31 C6.85 18.34, 13.08 13.25, 24.54 0.14 M0.93 27.31 C9.4 18.25, 16.88 8.73, 24.54 0.14 M1.32 32.95 C9.13 22.12, 17.45 14.93, 29.53 0.5 M1.32 32.95 C10.58 21.96, 20.88 11.95, 29.53 0.5 M1.06 39.35 C13.31 25.18, 21.63 13.92, 35.17 0.1 M1.06 39.35 C9.77 28.16, 19.09 18.83, 35.17 0.1 M0.8 45.74 C10.85 32.95, 21.45 21.1, 40.16 0.46 M0.8 45.74 C15.2 29.74, 29.63 12.67, 40.16 0.46 M1.19 51.39 C9.54 41.49, 19.61 27.34, 45.8 0.07 M1.19 51.39 C18.25 31.63, 37.18 10.76, 45.8 0.07 M0.93 57.78 C11.39 42.79, 23.23 29.99, 50.79 0.43 M0.93 57.78 C19.7 35.89, 37.42 14.73, 50.79 0.43 M1.98 62.67 C15.69 47.11, 30.07 33.25, 56.43 0.03 M1.98 62.67 C18.09 42.49, 36.03 23.09, 56.43 0.03 M3.69 66.81 C17.23 48.39, 36.27 30.79, 61.42 0.39 M3.69 66.81 C18.68 46.94, 36.56 29.81, 61.42 0.39 M5.4 70.94 C17.83 58.48, 28.2 40.57, 67.06 0 M5.4 70.94 C18.62 55.3, 33.65 38.54, 67.06 0 M9.07 72.81 C25.25 51.11, 44.75 30.28, 72.05 0.36 M9.07 72.81 C31.62 45.81, 54.38 18.41, 72.05 0.36 M12.74 74.68 C35.07 49.72, 59.97 22.47, 77.69 -0.04 M12.74 74.68 C29.43 54.56, 48.22 33.51, 77.69 -0.04 M17.73 75.04 C38.89 49.27, 60.87 26.12, 82.68 0.32 M17.73 75.04 C43.86 43.98, 69.39 14.76, 82.68 0.32 M22.72 75.4 C42.69 52.23, 60.4 30.49, 88.32 -0.07 M22.72 75.4 C36.76 59.91, 50.36 43.31, 88.32 -0.07 M28.36 75.01 C43.35 57.1, 59.33 36.98, 93.31 0.29 M28.36 75.01 C48.18 52.63, 68.46 30.53, 93.31 0.29 M33.35 75.37 C52.4 51.94, 71.59 29.87, 98.3 0.65 M33.35 75.37 C53.97 52.98, 74.4 27.64, 98.3 0.65 M38.99 74.97 C60.15 52.56, 81.09 26.32, 103.94 0.25 M38.99 74.97 C56.55 53.33, 75.77 30.82, 103.94 0.25 M43.98 75.33 C56.12 61.32, 72.18 44.29, 108.93 0.61 M43.98 75.33 C64.73 50.91, 85.17 29.2, 108.93 0.61 M49.62 74.94 C69.09 55.18, 87.01 31.54, 114.57 0.22 M49.62 74.94 C70.99 50.26, 93.6 25.6, 114.57 0.22 M54.61 75.3 C71.11 58.21, 87.73 36.98, 119.56 0.58 M54.61 75.3 C68.5 58.85, 83.17 43.68, 119.56 0.58 M60.25 74.9 C88.13 44, 113.62 15.09, 125.2 0.19 M60.25 74.9 C78.56 52.75, 98.58 29.97, 125.2 0.19 M65.24 75.26 C81.62 55.44, 98.84 34.43, 130.19 0.55 M65.24 75.26 C83.72 54.66, 102.08 33.11, 130.19 0.55 M70.88 74.87 C89.63 53.14, 106.01 34.2, 135.83 0.15 M70.88 74.87 C83.59 58.4, 97.35 44.8, 135.83 0.15 M75.87 75.23 C96.41 50.03, 119.97 27.55, 140.82 0.51 M75.87 75.23 C94.52 54.12, 111.83 31.54, 140.82 0.51 M81.51 74.83 C98.07 54.67, 115.97 38.64, 146.46 0.12 M81.51 74.83 C103.42 47.87, 126.82 22.13, 146.46 0.12 M86.5 75.19 C101.04 59.27, 119.24 41.03, 151.45 0.48 M86.5 75.19 C101.43 57.75, 116.71 39.59, 151.45 0.48 M92.14 74.8 C109.34 56.69, 125.8 35, 157.09 0.08 M92.14 74.8 C105.2 57.58, 119.53 42, 157.09 0.08 M97.13 75.16 C116.04 55.11, 134.06 31.53, 162.08 0.44 M97.13 75.16 C112.62 57.29, 128.23 38.35, 162.08 0.44 M102.12 75.52 C123.04 50.72, 149.35 24.37, 167.72 0.05 M102.12 75.52 C126.14 49.78, 147.53 24.32, 167.72 0.05 M107.76 75.12 C127.23 51.28, 147.04 29.97, 172.71 0.41 M107.76 75.12 C124.16 55.69, 141.78 35.84, 172.71 0.41 M112.75 75.48 C133.45 51.84, 154.56 26.11, 178.35 0.01 M112.75 75.48 C129.5 57.27, 147.01 37.58, 178.35 0.01 M118.39 75.09 C138.48 47.14, 164.12 25.12, 183.34 0.37 M118.39 75.09 C141.3 48.51, 165.46 21.96, 183.34 0.37 M123.38 75.45 C148.27 48.47, 172.1 20.47, 188.98 -0.02 M123.38 75.45 C147.47 49.73, 170.22 23.37, 188.98 -0.02 M129.02 75.05 C144.88 56.87, 163.38 38.12, 193.97 0.34 M129.02 75.05 C142.17 57.4, 157.33 41.3, 193.97 0.34 M134.01 75.42 C146.28 60.85, 158.42 44.86, 199.61 -0.06 M134.01 75.42 C160.64 46.06, 186.08 16.43, 199.61 -0.06 M139.65 75.02 C159.57 52.05, 179.23 32.78, 204.6 0.3 M139.65 75.02 C157.55 53.16, 176.51 32.1, 204.6 0.3 M144.64 75.38 C162.21 54.87, 180.77 36.54, 209.59 0.66 M144.64 75.38 C159.05 59.37, 173.11 42.86, 209.59 0.66 M150.28 74.99 C170.95 52.73, 193.27 25.87, 215.23 0.27 M150.28 74.99 C174.62 47.02, 198.67 18.57, 215.23 0.27 M155.27 75.35 C168.73 61.02, 181.51 44.02, 220.22 0.63 M155.27 75.35 C170.77 57.02, 187.41 37.72, 220.22 0.63 M160.91 74.95 C185.95 43.19, 210.92 14.6, 225.86 0.24 M160.91 74.95 C178.25 54.35, 193.61 35.31, 225.86 0.24 M165.9 75.31 C190.06 47.79, 213.08 20.42, 231.5 -0.16 M165.9 75.31 C191.35 47.79, 215.29 20, 231.5 -0.16 M171.54 74.92 C196.02 49.49, 218.76 19.82, 235.83 0.96 M171.54 74.92 C191.94 50.23, 213.58 26.77, 235.83 0.96 M176.53 75.28 C195.7 55.06, 213.13 34.31, 240.16 2.07 M176.53 75.28 C192.1 57.94, 208.59 38.77, 240.16 2.07 M182.17 74.88 C201.07 52.85, 221.11 29.79, 243.84 3.94 M182.17 74.88 C198.84 55.48, 215.98 34.29, 243.84 3.94 M187.16 75.24 C200.79 58.96, 217.03 43.33, 246.2 7.32 M187.16 75.24 C199.92 62.48, 211.48 48.33, 246.2 7.32 M192.8 74.85 C206.87 56.64, 222.21 41.33, 248.57 10.7 M192.8 74.85 C206.86 56.88, 221.9 40.05, 248.57 10.7 M197.79 75.21 C212.24 60.29, 227.25 44.56, 250.27 14.83 M197.79 75.21 C217.14 53.7, 235.78 30.56, 250.27 14.83 M203.43 74.81 C219.41 57.11, 233.49 40.85, 250.01 21.23 M203.43 74.81 C219.21 56.2, 235.24 38.66, 250.01 21.23 M208.42 75.17 C219.31 58.45, 234.48 44.82, 250.41 26.87 M208.42 75.17 C221.35 59.26, 233.38 46.32, 250.41 26.87 M213.4 75.53 C226.53 63.43, 236.94 48.79, 250.14 33.27 M213.4 75.53 C227.9 59.99, 239.74 43.73, 250.14 33.27 M219.05 75.14 C229.73 63.58, 239.87 53.28, 250.54 38.91 M219.05 75.14 C231.24 61.68, 243.53 48.57, 250.54 38.91 M224.03 75.5 C234.82 64.58, 242.41 54.53, 250.28 45.31 M224.03 75.5 C233.87 63.67, 242.75 53.99, 250.28 45.31 M229.68 75.1 C238.44 66.12, 243.95 58.76, 250.67 50.95 M229.68 75.1 C234.05 69.36, 238.52 64.31, 250.67 50.95 M235.32 74.71 C240.71 68.8, 242.76 66.68, 249.75 58.11 M235.32 74.71 C240.25 68.53, 245.33 62.49, 249.75 58.11 M241.62 73.56 C245.28 70.88, 245.43 66.5, 249.49 64.5 M241.62 73.56 C245.03 70.46, 247.45 66.53, 249.49 64.5" stroke="#DFF6DD" stroke-width="0.5" fill="none"></path><path d="M18.75 0 C62 0.47, 103.47 0.64, 231.25 0 M18.75 0 C76.72 0.05, 134.15 1.12, 231.25 0 M231.25 0 C242.45 0.53, 250.88 7.88, 250 18.75 M231.25 0 C243.95 0.56, 248.67 7.98, 250 18.75 M250 18.75 C251.36 25.16, 250.93 36.29, 250 56.25 M250 18.75 C249.26 33.04, 250.01 47.37, 250 56.25 M250 56.25 C250.6 67.15, 244.23 73.28, 231.25 75 M250 56.25 C248.31 68.81, 244.69 75.81, 231.25 75 M231.25 75 C186.35 76.66, 140.5 76.68, 18.75 75 M231.25 75 C185.21 77.38, 139.32 76.82, 18.75 75 M18.75 75 C4.36 74.71, -0.18 69.28, 0 56.25 M18.75 75 C8.08 74.98, 2.16 68.85, 0 56.25 M0 56.25 C-0.99 45.21, 0.99 33.21, 0 18.75 M0 56.25 C-0.64 46.52, 0.58 34.85, 0 18.75 M0 18.75 C0.44 8.25, 4.7 -1.31, 18.75 0 M0 18.75 C-0.62 4.18, 7.26 2.27, 18.75 0" stroke="#107C10" stroke-width="1" fill="none"></path></g><g transform="translate(338 397) rotate(0 112.5 25)"><text x="112.5" y="0" font-family="Virgil, Segoe UI Emoji" font-size="13px" fill="#000000" text-anchor="middle" style="white-space: pre;" direction="ltr" dominant-baseline="text-before-edge">BoardEditor</text><text x="112.5" y="25" font-family="Virgil, Segoe UI Emoji" font-size="13px" fill="#000000" text-anchor="middle" style="white-space: pre;" direction="ltr" dominant-baseline="text-before-edge">set_cell(coord, state)</text></g><g stroke-linecap="round" transform="translate(325 485) rotate(0 125 27.5)"><path d="M3.66 3.18 C3.66 3.18, 3.66 3.18, 3.66 3.18 M3.66 3.18 C3.66 3.18, 3.66 3.18, 3.66 3.18 M0.12 13.35 C2.57 10.9, 8.11 4.45, 11.27 0.52 M0.12 13.35 C3.91 9.25, 8.11 4.66, 11.27 0.52 M0.51 19 C5.55 13.75, 7.08 9.93, 16.91 0.13 M0.51 19 C5.44 15.06, 8.25 9.75, 16.91 0.13 M0.91 24.64 C6.05 16.52, 11.53 12.3, 21.9 0.49 M0.91 24.64 C8.5 16.63, 15.1 8.13, 21.9 0.49 M1.3 30.28 C8.58 20.07, 16.35 13.52, 27.54 0.09 M1.3 30.28 C9.9 20.04, 19.55 10.78, 27.54 0.09 M1.04 36.68 C12.41 23.52, 19.88 13.23, 32.53 0.45 M1.04 36.68 C9.05 26.29, 17.66 17.78, 32.53 0.45 M1.44 42.32 C10.77 30.37, 20.64 19.36, 38.17 0.06 M1.44 42.32 C14.91 27.4, 28.39 11.42, 38.17 0.06 M1.83 47.97 C9.42 38.9, 18.75 25.6, 43.16 0.42 M1.83 47.97 C17.61 29.69, 35.23 10.32, 43.16 0.42 M4.19 51.35 C13.42 37.74, 24.04 26.36, 48.8 0.02 M4.19 51.35 C21.02 31.7, 36.79 12.79, 48.8 0.02 M7.21 53.97 C19.01 40.67, 31.43 29.05, 53.79 0.38 M7.21 53.97 C20.86 36.65, 36.33 20.09, 53.79 0.38 M11.54 55.08 C22.46 39.73, 38.9 25.11, 59.43 -0.01 M11.54 55.08 C23.81 38.48, 38.94 24.52, 59.43 -0.01 M16.53 55.44 C26.32 46.16, 33.92 31.44, 64.42 0.35 M16.53 55.44 C26.64 43.28, 38.57 30.1, 64.42 0.35 M22.17 55.05 C33.85 38.74, 48.76 23.18, 69.41 0.71 M22.17 55.05 C39.05 34.75, 56 14.03, 69.41 0.71 M27.16 55.41 C43.48 37.12, 62.47 16.66, 75.05 0.32 M27.16 55.41 C39.35 40.72, 53.53 24.97, 75.05 0.32 M32.15 55.77 C47.58 36.6, 63.74 20.15, 80.04 0.68 M32.15 55.77 C51.55 32.62, 70.29 11.22, 80.04 0.68 M37.79 55.38 C52.45 38.21, 64.96 22.46, 85.68 0.28 M37.79 55.38 C48.12 44.06, 58.05 31.68, 85.68 0.28 M42.78 55.74 C53.74 42.62, 65.64 27.19, 90.67 0.64 M42.78 55.74 C57.48 39.16, 72.6 23, 90.67 0.64 M48.42 55.34 C62.24 37.98, 76.15 21.98, 96.31 0.25 M48.42 55.34 C63.62 39.07, 78.61 20, 96.31 0.25 M53.41 55.7 C69.1 39.43, 84.72 19.31, 101.3 0.61 M53.41 55.7 C66.12 39.83, 80.42 22.97, 101.3 0.61 M59.05 55.31 C67.53 45.29, 80.04 32.33, 106.94 0.21 M59.05 55.31 C74.36 37.12, 89.47 21.54, 106.94 0.21 M64.04 55.67 C78.46 41.53, 91.46 23.55, 111.93 0.57 M64.04 55.67 C79.83 37.46, 96.73 19.38, 111.93 0.57 M69.68 55.27 C81.93 43.14, 94.18 26.94, 117.57 0.18 M69.68 55.27 C79.88 42.99, 90.87 32.05, 117.57 0.18 M74.67 55.63 C95.68 32.48, 114.35 11.41, 122.56 0.54 M74.67 55.63 C87.96 39.22, 102.92 22.26, 122.56 0.54 M80.31 55.24 C92.08 40.74, 104.64 25.1, 128.2 0.14 M80.31 55.24 C93.91 40.19, 107.46 24.17, 128.2 0.14 M85.3 55.6 C99.24 39.12, 110.92 25.6, 133.19 0.5 M85.3 55.6 C94.6 43.21, 104.92 33.56, 133.19 0.5 M90.94 55.2 C105.93 36.47, 123.89 20.43, 138.83 0.11 M90.94 55.2 C104.87 39.75, 117.26 22.83, 138.83 0.11 M95.93 55.56 C108.06 40.43, 121.67 29.35, 143.82 0.47 M95.93 55.56 C111.95 35.56, 129.4 16.66, 143.82 0.47 M101.57 55.17 C111.85 43.88, 125.87 30.44, 149.46 0.07 M101.57 55.17 C112.49 42.28, 123.78 28.71, 149.46 0.07 M106.56 55.53 C119.29 42.49, 131.29 25.94, 154.45 0.43 M106.56 55.53 C116.17 42.63, 126.87 31.22, 154.45 0.43 M111.54 55.89 C125.54 41.54, 138.54 23.73, 159.44 0.79 M111.54 55.89 C123.06 42.75, 134.54 28.57, 159.44 0.79 M117.19 55.49 C131.94 37.75, 152.17 18.41, 165.08 0.4 M117.19 55.49 C134.97 36.7, 150.32 18.19, 165.08 0.4 M122.17 55.85 C136.6 37.84, 151.25 22.47, 170.07 0.76 M122.17 55.85 C134.09 41.38, 147.27 26.64, 170.07 0.76 M127.82 55.46 C142.66 38.71, 157.86 19.77, 175.71 0.37 M127.82 55.46 C140 42.27, 153 27.77, 175.71 0.37 M132.8 55.82 C147.1 34.71, 166.85 19.47, 180.7 0.73 M132.8 55.82 C149.44 36.35, 167.51 16.8, 180.7 0.73 M138.45 55.42 C156.62 36.1, 173.85 15.69, 186.34 0.33 M138.45 55.42 C156.19 36.88, 172.79 17.6, 186.34 0.33 M143.43 55.78 C155.06 42.41, 169.26 28.6, 191.33 0.69 M143.43 55.78 C152.89 42.51, 164.17 30.86, 191.33 0.69 M149.08 55.39 C157.97 44.84, 166.54 32.94, 196.97 0.3 M149.08 55.39 C168.7 34.06, 187.28 12.34, 196.97 0.3 M154.06 55.75 C168.7 38.51, 183.25 25.11, 201.96 0.66 M154.06 55.75 C167 39.4, 181.08 23.96, 201.96 0.66 M159.71 55.36 C172.72 40.05, 186.8 26.87, 207.6 0.26 M159.71 55.36 C170.33 43.49, 180.71 31.22, 207.6 0.26 M164.69 55.72 C179.76 39.7, 196.6 19.13, 212.59 0.62 M164.69 55.72 C182.5 35.12, 200.12 14.06, 212.59 0.62 M170.34 55.32 C180.51 45.01, 189.86 31.94, 218.23 0.23 M170.34 55.32 C181.77 41.97, 194.19 27.53, 218.23 0.23 M175.32 55.68 C193.73 31.86, 211.9 11.1, 223.22 0.59 M175.32 55.68 C188.36 40.35, 199.27 26.42, 223.22 0.59 M180.97 55.29 C198.85 35.16, 215.45 15.17, 228.86 0.19 M180.97 55.29 C199.75 35.22, 217.14 14.98, 228.86 0.19 M185.95 55.65 C204.48 37.02, 221.2 14.27, 233.85 0.55 M185.95 55.65 C200.93 37.26, 217.22 19.95, 233.85 0.55 M191.6 55.25 C206.16 40.22, 218.96 24.79, 239.49 0.16 M191.6 55.25 C203.25 42.28, 215.87 27.56, 239.49 0.16 M196.58 55.61 C210.81 39.01, 226.18 21.33, 243.17 2.03 M196.58 55.61 C209.1 41.12, 221.95 24.86, 243.17 2.03 M201.57 55.97 C211.97 43.55, 224.83 31.81, 246.84 3.9 M201.57 55.97 C211.56 46.41, 220.25 35.56, 246.84 3.9 M207.21 55.58 C217.5 41.55, 229.15 30.49, 249.2 7.28 M207.21 55.58 C217.6 41.99, 228.94 29.41, 249.2 7.28 M212.2 55.94 C222.5 45.66, 233.49 34.55, 249.6 12.92 M212.2 55.94 C225.91 40.75, 239.02 23.99, 249.6 12.92 M217.85 55.54 C229.27 43.14, 238.62 32.32, 249.99 18.56 M217.85 55.54 C228.84 42.61, 240.02 30.65, 249.99 18.56 M222.83 55.9 C229.12 44.57, 239.61 36.33, 249.73 24.96 M222.83 55.9 C231.27 45.4, 238.72 37.73, 249.73 24.96 M228.48 55.51 C236.72 49.1, 242.16 40.19, 250.13 30.6 M228.48 55.51 C237.35 46.44, 243.63 36.58, 250.13 30.6 M233.46 55.87 C239.4 49.74, 244.78 44.92, 250.52 36.25 M233.46 55.87 C240.27 48.52, 247.18 41.59, 250.52 36.25 M239.76 54.72 C244.47 50.5, 246.7 46.88, 250.26 42.64 M239.76 54.72 C243.8 49.67, 247.02 46.41, 250.26 42.64" stroke="#DFF6DD" stroke-width="0.5" fill="none"></path><path d="M13.75 0 C58.99 0.44, 102.48 0.61, 236.25 0 M13.75 0 C74.44 0.08, 134.59 1.13, 236.25 0 M236.25 0 C244.12 0.53, 250.88 6.21, 250 13.75 M236.25 0 C245.62 0.56, 248.67 6.31, 250 13.75 M250 13.75 C251.41 17.98, 250.97 26.94, 250 41.25 M250 13.75 C249.34 24.15, 250.09 34.58, 250 41.25 M250 41.25 C250.6 48.82, 245.9 53.28, 236.25 55 M250 41.25 C248.31 50.48, 246.35 55.81, 236.25 55 M236.25 55 C189.17 56.71, 141.16 56.73, 13.75 55 M236.25 55 C188.06 57.42, 140.01 56.86, 13.75 55 M13.75 55 C2.7 54.71, -0.18 50.94, 0 41.25 M13.75 55 C6.41 54.98, 2.16 50.51, 0 41.25 M0 41.25 C-0.92 33.08, 1.06 23.95, 0 13.75 M0 41.25 C-0.63 34.29, 0.59 25.37, 0 13.75 M0 13.75 C0.44 6.58, 3.03 -1.31, 13.75 0 M0 13.75 C-0.62 2.51, 5.6 2.27, 13.75 0" stroke="#107C10" stroke-width="1" fill="none"></path></g><g transform="translate(338 495) rotate(0 112.5 17.5)"><text x="112.5" y="0" font-family="Virgil, Segoe UI Emoji" font-size="14px" fill="#000000" text-anchor="middle" style="white-space: pre;" direction="ltr" dominant-baseline="text-before-edge">BoardInitializer</text></g><g stroke-linecap="round" transform="translate(325 555) rotate(0 125 27.5)"><path d="M3.66 3.18 C3.66 3.18, 3.66 3.18, 3.66 3.18 M3.66 3.18 C3.66 3.18, 3.66 3.18, 3.66 3.18 M0.12 13.35 C2.57 10.9, 8.11 4.45, 11.27 0.52 M0.12 13.35 C3.91 9.25, 8.11 4.66, 11.27 0.52 M0.51 19 C5.55 13.75, 7.08 9.93, 16.91 0.13 M0.51 19 C5.44 15.06, 8.25 9.75, 16.91 0.13 M0.91 24.64 C6.05 16.52, 11.53 12.3, 21.9 0.49 M0.91 24.64 C8.5 16.63, 15.1 8.13, 21.9 0.49 M1.3 30.28 C8.58 20.07, 16.35 13.52, 27.54 0.09 M1.3 30.28 C9.9 20.04, 19.55 10.78, 27.54 0.09 M1.04 36.68 C12.41 23.52, 19.88 13.23, 32.53 0.45 M1.04 36.68 C9.05 26.29, 17.66 17.78, 32.53 0.45 M1.44 42.32 C10.77 30.37, 20.64 19.36, 38.17 0.06 M1.44 42.32 C14.91 27.4, 28.39 11.42, 38.17 0.06 M1.83 47.97 C9.42 38.9, 18.75 25.6, 43.16 0.42 M1.83 47.97 C17.61 29.69, 35.23 10.32, 43.16 0.42 M4.19 51.35 C13.42 37.74, 24.04 26.36, 48.8 0.02 M4.19 51.35 C21.02 31.7, 36.79 12.79, 48.8 0.02 M7.21 53.97 C19.01 40.67, 31.43 29.05, 53.79 0.38 M7.21 53.97 C20.86 36.65, 36.33 20.09, 53.79 0.38 M11.54 55.08 C22.46 39.73, 38.9 25.11, 59.43 -0.01 M11.54 55.08 C23.81 38.48, 38.94 24.52, 59.43 -0.01 M16.53 55.44 C26.32 46.16, 33.92 31.44, 64.42 0.35 M16.53 55.44 C26.64 43.28, 38.57 30.1, 64.42 0.35 M22.17 55.05 C33.85 38.74, 48.76 23.18, 69.41 0.71 M22.17 55.05 C39.05 34.75, 56 14.03, 69.41 0.71 M27.16 55.41 C43.48 37.12, 62.47 16.66, 75.05 0.32 M27.16 55.41 C39.35 40.72, 53.53 24.97, 75.05 0.32 M32.15 55.77 C47.58 36.6, 63.74 20.15, 80.04 0.68 M32.15 55.77 C51.55 32.62, 70.29 11.22, 80.04 0.68 M37.79 55.38 C52.45 38.21, 64.96 22.46, 85.68 0.28 M37.79 55.38 C48.12 44.06, 58.05 31.68, 85.68 0.28 M42.78 55.74 C53.74 42.62, 65.64 27.19, 90.67 0.64 M42.78 55.74 C57.48 39.16, 72.6 23, 90.67 0.64 M48.42 55.34 C62.24 37.98, 76.15 21.98, 96.31 0.25 M48.42 55.34 C63.62 39.07, 78.61 20, 96.31 0.25 M53.41 55.7 C69.1 39.43, 84.72 19.31, 101.3 0.61 M53.41 55.7 C66.12 39.83, 80.42 22.97, 101.3 0.61 M59.05 55.31 C67.53 45.29, 80.04 32.33, 106.94 0.21 M59.05 55.31 C74.36 37.12, 89.47 21.54, 106.94 0.21 M64.04 55.67 C78.46 41.53, 91.46 23.55, 111.93 0.57 M64.04 55.67 C79.83 37.46, 96.73 19.38, 111.93 0.57 M69.68 55.27 C81.93 43.14, 94.18 26.94, 117.57 0.18 M69.68 55.27 C79.88 42.99, 90.87 32.05, 117.57 0.18 M74.67 55.63 C95.68 32.48, 114.35 11.41, 122.56 0.54 M74.67 55.63 C87.96 39.22, 102.92 22.26, 122.56 0.54 M80.31 55.24 C92.08 40.74, 104.64 25.1, 128.2 0.14 M80.31 55.24 C93.91 40.19, 107.46 24.17, 128.2 0.14 M85.3 55.6 C99.24 39.12, 110.92 25.6, 133.19 0.5 M85.3 55.6 C94.6 43.21, 104.92 33.56, 133.19 0.5 M90.94 55.2 C105.93 36.47, 123.89 20.43, 138.83 0.11 M90.94 55.2 C104.87 39.75, 117.26 22.83, 138.83 0.11 M95.93 55.56 C108.06 40.43, 121.67 29.35, 143.82 0.47 M95.93 55.56 C111.95 35.56, 129.4 16.66, 143.82 0.47 M101.57 55.17 C111.85 43.88, 125.87 30.44, 149.46 0.07 M101.57 55.17 C112.49 42.28, 123.78 28.71, 149.46 0.07 M106.56 55.53 C119.29 42.49, 131.29 25.94, 154.45 0.43 M106.56 55.53 C116.17 42.63, 126.87 31.22, 154.45 0.43 M111.54 55.89 C125.54 41.54, 138.54 23.73, 159.44 0.79 M111.54 55.89 C123.06 42.75, 134.54 28.57, 159.44 0.79 M117.19 55.49 C131.94 37.75, 152.17 18.41, 165.08 0.4 M117.19 55.49 C134.97 36.7, 150.32 18.19, 165.08 0.4 M122.17 55.85 C136.6 37.84, 151.25 22.47, 170.07 0.76 M122.17 55.85 C134.09 41.38, 147.27 26.64, 170.07 0.76 M127.82 55.46 C142.66 38.71, 157.86 19.77, 175.71 0.37 M127.82 55.46 C140 42.27, 153 27.77, 175.71 0.37 M132.8 55.82 C147.1 34.71, 166.85 19.47, 180.7 0.73 M132.8 55.82 C149.44 36.35, 167.51 16.8, 180.7 0.73 M138.45 55.42 C156.62 36.1, 173.85 15.69, 186.34 0.33 M138.45 55.42 C156.19 36.88, 172.79 17.6, 186.34 0.33 M143.43 55.78 C155.06 42.41, 169.26 28.6, 191.33 0.69 M143.43 55.78 C152.89 42.51, 164.17 30.86, 191.33 0.69 M149.08 55.39 C157.97 44.84, 166.54 32.94, 196.97 0.3 M149.08 55.39 C168.7 34.06, 187.28 12.34, 196.97 0.3 M154.06 55.75 C168.7 38.51, 183.25 25.11, 201.96 0.66 M154.06 55.75 C167 39.4, 181.08 23.96, 201.96 0.66 M159.71 55.36 C172.72 40.05, 186.8 26.87, 207.6 0.26 M159.71 55.36 C170.33 43.49, 180.71 31.22, 207.6 0.26 M164.69 55.72 C179.76 39.7, 196.6 19.13, 212.59 0.62 M164.69 55.72 C182.5 35.12, 200.12 14.06, 212.59 0.62 M170.34 55.32 C180.51 45.01, 189.86 31.94, 218.23 0.23 M170.34 55.32 C181.77 41.97, 194.19 27.53, 218.23 0.23 M175.32 55.68 C193.73 31.86, 211.9 11.1, 223.22 0.59 M175.32 55.68 C188.36 40.35, 199.27 26.42, 223.22 0.59 M180.97 55.29 C198.85 35.16, 215.45 15.17, 228.86 0.19 M180.97 55.29 C199.75 35.22, 217.14 14.98, 228.86 0.19 M185.95 55.65 C204.48 37.02, 221.2 14.27, 233.85 0.55 M185.95 55.65 C200.93 37.26, 217.22 19.95, 233.85 0.55 M191.6 55.25 C206.16 40.22, 218.96 24.79, 239.49 0.16 M191.6 55.25 C203.25 42.28, 215.87 27.56, 239.49 0.16 M196.58 55.61 C210.81 39.01, 226.18 21.33, 243.17 2.03 M196.58 55.61 C209.1 41.12, 221.95 24.86, 243.17 2.03 M201.57 55.97 C211.97 43.55, 224.83 31.81, 246.84 3.9 M201.57 55.97 C211.56 46.41, 220.25 35.56, 246.84 3.9 M207.21 55.58 C217.5 41.55, 229.15 30.49, 249.2 7.28 M207.21 55.58 C217.6 41.99, 228.94 29.41, 249.2 7.28 M212.2 55.94 C222.5 45.66, 233.49 34.55, 249.6 12.92 M212.2 55.94 C225.91 40.75, 239.02 23.99, 249.6 12.92 M217.85 55.54 C229.27 43.14, 238.62 32.32, 249.99 18.56 M217.85 55.54 C228.84 42.61, 240.02 30.65, 249.99 18.56 M222.83 55.9 C229.12 44.57, 239.61 36.33, 249.73 24.96 M222.83 55.9 C231.27 45.4, 238.72 37.73, 249.73 24.96 M228.48 55.51 C236.72 49.1, 242.16 40.19, 250.13 30.6 M228.48 55.51 C237.35 46.44, 243.63 36.58, 250.13 30.6 M233.46 55.87 C239.4 49.74, 244.78 44.92, 250.52 36.25 M233.46 55.87 C240.27 48.52, 247.18 41.59, 250.52 36.25 M239.76 54.72 C244.47 50.5, 246.7 46.88, 250.26 42.64 M239.76 54.72 C243.8 49.67, 247.02 46.41, 250.26 42.64" stroke="#DFF6DD" stroke-width="0.5" fill="none"></path><path d="M13.75 0 C58.99 0.44, 102.48 0.61, 236.25 0 M13.75 0 C74.44 0.08, 134.59 1.13, 236.25 0 M236.25 0 C244.12 0.53, 250.88 6.21, 250 13.75 M236.25 0 C245.62 0.56, 248.67 6.31, 250 13.75 M250 13.75 C251.41 17.98, 250.97 26.94, 250 41.25 M250 13.75 C249.34 24.15, 250.09 34.58, 250 41.25 M250 41.25 C250.6 48.82, 245.9 53.28, 236.25 55 M250 41.25 C248.31 50.48, 246.35 55.81, 236.25 55 M236.25 55 C189.17 56.71, 141.16 56.73, 13.75 55 M236.25 55 C188.06 57.42, 140.01 56.86, 13.75 55 M13.75 55 C2.7 54.71, -0.18 50.94, 0 41.25 M13.75 55 C6.41 54.98, 2.16 50.51, 0 41.25 M0 41.25 C-0.92 33.08, 1.06 23.95, 0 13.75 M0 41.25 C-0.63 34.29, 0.59 25.37, 0 13.75 M0 13.75 C0.44 6.58, 3.03 -1.31, 13.75 0 M0 13.75 C-0.62 2.51, 5.6 2.27, 13.75 0" stroke="#107C10" stroke-width="1" fill="none"></path></g><g transform="translate(338 565) rotate(0 112.5 17.5)"><text x="112.5" y="0" font-family="Virgil, Segoe UI Emoji" font-size="14px" fill="#000000" text-anchor="middle" style="white-space: pre;" direction="ltr" dominant-baseline="text-before-edge">BoardUpdater (legacy)</text><text x="112.5" y="11.666666666666666" font-family="Virgil, Segoe UI Emoji" font-size="14px" fill="#000000" text-anchor="middle" style="white-space: pre;" direction="ltr" dominant-baseline="text-before-edge">+ CellRule trait + board.advance_with_rule()</text><text x="112.5" y="23.333333333333332" font-family="Virgil, Segoe UI Emoji" font-size="14px" fill="#000000" text-anchor="middle" style="white-space: pre;" direction="ltr" dominant-baseline="text-before-edge">rules describe what; boards own how</text></g><g stroke-linecap="round" transform="translate(650 190) rotate(0 150 125)"><path d="M32 0 C79.92 0.41, 126.13 0.58, 268 0 M32 0 C96.36 0.13, 160.19 1.15, 268 0 M268 0 C288.04 0.53, 300.88 12.29, 300 32 M268 0 C289.53 0.56, 298.67 12.4, 300 32 M300 32 C300.68 70.71, 300.24 114.14, 300 218 M300 32 C298.04 104.14, 298.79 176.31, 300 218 M300 218 C300.6 237.73, 289.82 248.28, 268 250 M300 218 C298.31 239.4, 290.27 250.81, 268 250 M268 250 C217.99 251.78, 167.07 251.8, 32 250 M268 250 C216.9 252.46, 165.93 251.92, 32 250 M32 250 C8.78 249.71, -0.18 239.86, 0 218 M32 250 C12.5 249.98, 2.16 239.43, 0 218 M0 218 C-2.07 164.37, -0.09 109.78, 0 32 M0 218 C-0.77 167.22, 0.45 114.5, 0 32 M0 32 C0.44 12.66, 9.12 -1.31, 32 0 M0 32 C-0.62 8.6, 11.68 2.27, 32 0" stroke="#F7630C" stroke-width="2" fill="none"></path></g><g transform="translate(665 202) rotate(0 135 22.5)"><text x="135" y="0" font-family="Virgil, Segoe UI Emoji" font-size="18px" fill="#000000" text-anchor="middle" style="white-space: pre;" direction="ltr" dominant-baseline="text-before-edge">Concrete Algorithms</text></g><g stroke-linecap="round" transform="translate(680 260) rotate(0 120 47.5)"><path d="M5.67 6.25 C5.67 6.25, 5.67 6.25, 5.67 6.25 M5.67 6.25 C5.67 6.25, 5.67 6.25, 5.67 6.25 M0.81 17.93 C4.12 14.58, 11.04 6.52, 15.25 1.33 M0.81 17.93 C5.7 12.6, 11.09 6.7, 15.25 1.33 M0.55 24.33 C6.48 18.09, 8.86 13.29, 20.89 0.93 M0.55 24.33 C6.45 19.3, 10.2 12.91, 20.89 0.93 M0.29 30.73 C6.99 20.91, 13.97 14.96, 26.53 0.54 M0.29 30.73 C9.64 20.63, 18.01 10.09, 26.53 0.54 M0.68 36.37 C9.38 24.52, 18.62 16.26, 32.17 0.14 M0.68 36.37 C11.05 24.12, 22.43 12.88, 32.17 0.14 M0.42 42.77 C13.55 27.6, 22.72 15.36, 37.16 0.5 M0.42 42.77 C9.83 30.78, 19.86 20.64, 37.16 0.5 M0.82 48.41 C11.58 34.78, 22.92 22.08, 42.8 0.11 M0.82 48.41 C16.15 31.33, 31.52 13.18, 42.8 0.11 M0.56 54.81 C9.51 44.25, 20.18 29.41, 47.79 0.47 M0.56 54.81 C18.63 33.87, 38.61 11.79, 47.79 0.47 M0.29 61.21 C11.52 45.34, 24.12 31.66, 53.43 0.07 M0.29 61.21 C20.27 37.9, 39.22 15.34, 53.43 0.07 M0.69 66.85 C15.19 50.35, 30.39 35.55, 58.42 0.43 M0.69 66.85 C17.82 45.47, 36.78 24.89, 58.42 0.43 M0.43 73.25 C15.55 53, 36.14 33.6, 64.06 0.04 M0.43 73.25 C17.04 51.42, 36.59 32.39, 64.06 0.04 M1.48 78.14 C15.04 64.31, 26.6 45.03, 69.05 0.4 M1.48 78.14 C16.04 61, 32.4 42.72, 69.05 0.4 M3.18 82.27 C21.8 57.65, 43.79 33.96, 74.69 0.01 M3.18 82.27 C28.81 51.64, 54.71 20.62, 74.69 0.01 M4.89 86.4 C30.69 57.6, 58.99 26.43, 79.68 0.37 M4.89 86.4 C24.18 63.15, 45.63 39.04, 79.68 0.37 M7.25 89.78 C32.81 58.93, 59.27 30.63, 85.32 -0.03 M7.25 89.78 C38.55 52.65, 69.32 17.41, 85.32 -0.03 M10.93 91.65 C35.02 63.8, 56.78 37.41, 90.31 0.33 M10.93 91.65 C27.85 72.91, 44.3 53.03, 90.31 0.33 M13.95 94.28 C32.97 71.58, 53.02 46.77, 95.95 -0.06 M13.95 94.28 C38.87 66.1, 64.32 38.05, 95.95 -0.06 M18.93 94.64 C43.22 65.16, 67.69 37.01, 100.94 0.3 M18.93 94.64 C44.97 66.13, 70.85 34.52, 100.94 0.3 M23.92 95 C50.54 66.44, 76.81 34.07, 105.93 0.66 M23.92 95 C46.32 67.6, 70.45 39.42, 105.93 0.66 M28.91 95.36 C44.85 77.2, 64.6 55.93, 111.57 0.26 M28.91 95.36 C55.32 64.45, 81.28 36.39, 111.57 0.26 M34.55 94.96 C59.06 69.58, 81.91 40.27, 116.56 0.62 M34.55 94.96 C61.5 63.8, 89.83 32.57, 116.56 0.62 M39.54 95.32 C60.45 73.1, 81.61 46.64, 122.2 0.23 M39.54 95.32 C57.27 74.55, 75.75 54.99, 122.2 0.23 M45.18 94.93 C79.93 56.27, 112.23 19.52, 127.19 0.59 M45.18 94.93 C68.51 67.04, 93.6 38.42, 127.19 0.59 M50.17 95.29 C71.34 69.93, 93.39 43.36, 132.83 0.19 M50.17 95.29 C73.72 68.92, 97.08 41.62, 132.83 0.19 M55.81 94.89 C79.36 67.9, 100.45 43.55, 137.82 0.55 M55.81 94.89 C71.93 74.34, 89.13 56.79, 137.82 0.55 M60.8 95.25 C87.11 63.35, 116.49 34.17, 143.46 0.16 M60.8 95.25 C84.35 68.27, 106.77 39.81, 143.46 0.16 M66.44 94.86 C87.41 69.66, 109.62 48.69, 148.45 0.52 M66.44 94.86 C94.23 60.93, 123.58 28.35, 148.45 0.52 M71.43 95.22 C90.39 74.49, 112.93 51.26, 154.09 0.12 M71.43 95.22 C90.52 73.05, 109.95 50.12, 154.09 0.12 M77.07 94.82 C98.72 71.65, 119.67 44.8, 159.08 0.48 M77.07 94.82 C93.58 73.29, 111.54 53.53, 159.08 0.48 M82.06 95.18 C106.06 69.22, 129.31 39.64, 164.72 0.09 M82.06 95.18 C101.67 72.4, 121.57 48.53, 164.72 0.09 M87.7 94.79 C114.33 63.45, 146.27 30.63, 169.71 0.45 M87.7 94.79 C117.51 62.62, 144.49 30.72, 169.71 0.45 M92.69 95.15 C117.41 65.26, 142.57 37.79, 175.35 0.06 M92.69 95.15 C113.75 70.56, 135.98 45.42, 175.35 0.06 M98.33 94.75 C124.47 64.73, 151.04 32.7, 180.34 0.42 M98.33 94.75 C119.32 71.88, 141 47.39, 180.34 0.42 M103.32 95.11 C129.41 60.06, 161.17 31, 185.98 0.02 M103.32 95.11 C132.74 61.16, 163.22 27.33, 185.98 0.02 M108.96 94.72 C140.08 60.65, 170.01 25.63, 190.97 0.38 M108.96 94.72 C138.93 62.36, 167.38 29.45, 190.97 0.38 M113.95 95.08 C134.21 71.89, 157.16 48.03, 196.61 -0.01 M113.95 95.08 C130.94 72.89, 150.11 52.16, 196.61 -0.01 M118.94 95.44 C134.47 77, 150.04 57.07, 201.6 0.35 M118.94 95.44 C152.32 58.35, 184.38 21.12, 201.6 0.35 M124.58 95.05 C149.99 66.13, 174.95 40.75, 207.24 -0.05 M124.58 95.05 C147.63 67.47, 171.67 40.57, 207.24 -0.05 M129.57 95.41 C151.88 69.49, 175.08 45.82, 212.23 0.31 M129.57 95.41 C147.91 75.09, 165.81 54.17, 212.23 0.31 M135.21 95.01 C161.71 66.28, 189.71 32.87, 217.87 -0.08 M135.21 95.01 C166.34 59.4, 197.06 23.28, 217.87 -0.08 M140.2 95.37 C156.95 77.04, 173.15 56.1, 222.2 1.03 M140.2 95.37 C159.76 72.08, 180.63 47.92, 222.2 1.03 M145.84 94.98 C177.26 55.57, 208.77 19.46, 227.19 1.39 M145.84 94.98 C167.32 69.31, 186.96 45.35, 227.19 1.39 M150.83 95.34 C180.12 61.79, 208.36 28.41, 230.87 3.26 M150.83 95.34 C181.71 61.74, 211 27.8, 230.87 3.26 M156.47 94.94 C185.71 64.07, 213.26 28.88, 233.88 5.89 M156.47 94.94 C181.2 65.22, 207.13 36.83, 233.88 5.89 M161.46 95.3 C183.9 71.41, 204.6 46.89, 236.25 9.26 M161.46 95.3 C179.81 74.87, 199.04 52.56, 236.25 9.26 M167.1 94.91 C188.84 69.57, 211.74 43.23, 237.95 13.4 M167.1 94.91 C186.3 72.51, 206.04 48.32, 237.95 13.4 M172.09 95.27 C187.72 76.59, 206.05 58.56, 239.66 17.53 M172.09 95.27 C186.57 80.53, 199.91 64.33, 239.66 17.53 M177.73 94.87 C193.61 74.67, 210.7 57.35, 240.06 23.18 M177.73 94.87 C193.54 74.82, 210.33 55.97, 240.06 23.18 M182.72 95.23 C198.61 78.7, 215.02 61.36, 240.45 28.82 M182.72 95.23 C204.03 71.53, 224.6 46.17, 240.45 28.82 M188.36 94.84 C206 75.2, 221.79 56.97, 240.19 35.22 M188.36 94.84 C205.88 74.16, 223.67 54.6, 240.19 35.22 M193.35 95.2 C205.64 76.83, 222.23 61.57, 239.93 41.61 M193.35 95.2 C207.64 77.64, 221.07 63.1, 239.93 41.61 M198.99 94.8 C213.6 80.97, 225.52 64.59, 240.32 47.26 M198.99 94.8 C215.2 77.29, 228.74 59.09, 240.32 47.26 M203.98 95.16 C216.17 81.87, 227.83 69.83, 240.06 53.65 M203.98 95.16 C217.88 79.77, 231.88 64.68, 240.06 53.65 M209.62 94.77 C222.12 81.87, 231.39 69.89, 240.45 59.3 M209.62 94.77 C221.13 81.01, 231.71 69.37, 240.45 59.3 M214.61 95.13 C225.17 84.16, 232.43 74.79, 240.19 65.7 M214.61 95.13 C219.95 88.28, 225.37 82.15, 240.19 65.7 M220.25 94.73 C227.33 86.91, 231.04 82.88, 240.59 71.34 M220.25 94.73 C227.41 86.07, 234.68 77.53, 240.59 71.34 M226.55 93.59 C232.35 89.34, 232.59 82.4, 239.01 79.25 M226.55 93.59 C231.94 88.68, 235.77 82.46, 239.01 79.25" stroke="#FFF4CE" stroke-width="0.5" fill="none"></path><path d="M23.75 0 C63.11 0.57, 100.43 0.77, 216.25 0 M23.75 0 C76.3 -0.02, 128.24 1.2, 216.25 0 M216.25 0 C230.79 0.53, 240.88 9.54, 240 23.75 M216.25 0 C232.28 0.56, 238.67 9.65, 240 23.75 M240 23.75 C241.32 32.33, 240.88 45.64, 240 71.25 M240 23.75 C239.18 41.94, 239.93 60.16, 240 71.25 M240 71.25 C240.6 85.48, 232.57 93.28, 216.25 95 M240 71.25 C238.31 87.15, 233.02 95.81, 216.25 95 M216.25 95 C175.79 96.69, 134.25 96.71, 23.75 95 M216.25 95 C174.5 97.53, 132.92 96.88, 23.75 95 M23.75 95 C6.03 94.71, -0.18 87.61, 0 71.25 M23.75 95 C9.75 94.98, 2.16 87.18, 0 71.25 M0 71.25 C-1.07 57.35, 0.92 42.47, 0 23.75 M0 71.25 C-0.65 58.76, 0.57 44.32, 0 23.75 M0 23.75 C0.44 9.91, 6.37 -1.31, 23.75 0 M0 23.75 C-0.62 5.85, 8.93 2.27, 23.75 0" stroke="#F7630C" stroke-width="1" fill="none"></path></g><g transform="translate(695 272) rotate(0 105 37.5)"><text x="105" y="0" font-family="Virgil, Segoe UI Emoji" font-size="13px" fill="#000000" text-anchor="middle" style="white-space: pre;" direction="ltr" dominant-baseline="text-before-edge">CenteredBlinkerInitializer</text><text x="105" y="14.999999999999998" font-family="Virgil, Segoe UI Emoji" font-size="13px" fill="#000000" text-anchor="middle" style="white-space: pre;" direction="ltr" dominant-baseline="text-before-edge">fixed pattern</text><text x="105" y="29.999999999999996" font-family="Virgil, Segoe UI Emoji" font-size="13px" fill="#000000" text-anchor="middle" style="white-space: pre;" direction="ltr" dominant-baseline="text-before-edge"></text><text x="105" y="44.99999999999999" font-family="Virgil, Segoe UI Emoji" font-size="13px" fill="#000000" text-anchor="middle" style="white-space: pre;" direction="ltr" dominant-baseline="text-before-edge">RandomBoardInitializer</text><text x="105" y="59.99999999999999" font-family="Virgil, Segoe UI Emoji" font-size="13px" fill="#000000" text-anchor="middle" style="white-space: pre;" direction="ltr" dominant-baseline="text-before-edge">seed + density</text></g><g stroke-linecap="round" transform="translate(680 355) rotate(0 120 35)"><path d="M2.16 7.18 C2.16 7.18, 2.16 7.18, 2.16 7.18 M2.16 7.18 C2.16 7.18, 2.16 7.18, 2.16 7.18 M0.59 15.09 C3.19 12.49, 9.05 5.66, 12.4 1.5 M0.59 15.09 C4.6 10.74, 9.05 5.88, 12.4 1.5 M0.33 21.48 C5.81 15.74, 7.77 11.43, 18.7 0.35 M0.33 21.48 C5.74 17, 9.02 11.15, 18.7 0.35 M0.72 27.13 C6.64 18.16, 12.88 13.07, 24.34 -0.04 M0.72 27.13 C9.19 18.07, 16.68 8.55, 24.34 -0.04 M0.46 33.53 C8.45 22.49, 16.95 15.09, 29.33 0.32 M0.46 33.53 C9.94 22.28, 20.45 12.03, 29.33 0.32 M0.85 39.17 C13.1 25, 21.42 13.74, 34.97 -0.08 M0.85 39.17 C9.56 27.98, 18.89 18.66, 34.97 -0.08 M0.59 45.57 C10.65 32.77, 21.25 20.92, 39.96 0.28 M0.59 45.57 C15 29.57, 29.42 12.49, 39.96 0.28 M0.33 51.96 C8.83 41.91, 19.05 27.58, 45.6 -0.11 M0.33 51.96 C17.64 31.91, 36.84 10.74, 45.6 -0.11 M0.73 57.61 C11.18 42.61, 23.02 29.81, 50.59 0.25 M0.73 57.61 C19.49 35.71, 37.22 14.56, 50.59 0.25 M2.43 61.74 C15.98 46.37, 30.2 32.69, 56.23 -0.15 M2.43 61.74 C18.34 41.8, 36.07 22.64, 56.23 -0.15 M4.8 65.12 C17.99 47.11, 36.68 29.91, 61.22 0.21 M4.8 65.12 C19.42 45.69, 36.94 28.98, 61.22 0.21 M7.81 67.74 C19.74 55.89, 29.59 38.58, 66.86 -0.18 M7.81 67.74 C20.45 52.76, 34.89 36.69, 66.86 -0.18 M11.49 69.61 C26.92 48.81, 45.65 28.86, 71.85 0.18 M11.49 69.61 C33.09 43.73, 54.88 17.44, 71.85 0.18 M16.48 69.97 C37.42 46.55, 60.95 20.87, 77.49 -0.21 M16.48 69.97 C32.13 51.1, 49.85 31.28, 77.49 -0.21 M21.46 70.33 C41.3 46.09, 61.93 24.48, 82.48 0.15 M21.46 70.33 C46.04 41.1, 70.01 13.68, 82.48 0.15 M27.11 69.94 C45.7 48.32, 62.06 28.14, 88.12 -0.25 M27.11 69.94 C40.19 55.53, 52.83 40.03, 88.12 -0.25 M32.09 70.3 C46.16 53.5, 61.19 34.46, 93.11 0.11 M32.09 70.3 C50.73 49.26, 69.82 28.53, 93.11 0.11 M37.74 69.9 C55.58 47.88, 73.55 27.21, 98.75 -0.28 M37.74 69.9 C57.1 48.93, 76.29 25.03, 98.75 -0.28 M42.72 70.26 C62.62 49.27, 82.34 24.44, 103.74 0.08 M42.72 70.26 C59.16 49.96, 77.25 28.75, 103.74 0.08 M48.37 69.87 C59.52 56.93, 74.63 41, 108.72 0.44 M48.37 69.87 C67.66 47.13, 86.66 27.07, 108.72 0.44 M53.35 70.23 C71.66 51.77, 88.44 29.43, 114.37 0.04 M53.35 70.23 C73.44 47.05, 94.73 23.9, 114.37 0.04 M59 69.84 C74.35 54.08, 89.8 34.21, 119.35 0.4 M59 69.84 C71.9 54.51, 85.57 40.48, 119.35 0.4 M63.98 70.2 C90.28 41.08, 114.19 13.98, 125 0.01 M63.98 70.2 C81.14 49.37, 99.99 27.93, 125 0.01 M69.63 69.8 C84.76 51.41, 100.73 31.85, 129.98 0.37 M69.63 69.8 C86.79 50.7, 103.86 30.63, 129.98 0.37 M74.61 70.16 C92.25 49.64, 107.55 31.95, 135.63 -0.03 M74.61 70.16 C86.54 54.63, 99.5 41.95, 135.63 -0.03 M80.26 69.77 C99.31 46.31, 121.36 25.56, 140.61 0.33 M80.26 69.77 C97.64 50.18, 113.62 29.12, 140.61 0.33 M85.24 70.13 C100.78 51.12, 117.69 36.24, 146.26 -0.06 M85.24 70.13 C105.8 44.77, 127.82 20.61, 146.26 -0.06 M90.23 70.49 C103.79 55.64, 121.02 38.5, 151.24 0.3 M90.23 70.49 C104.23 54.1, 118.6 37, 151.24 0.3 M95.87 70.09 C112.04 53.16, 127.47 32.65, 156.89 -0.1 M95.87 70.09 C108.14 53.87, 121.63 39.26, 156.89 -0.1 M100.86 70.45 C118.63 51.72, 135.5 29.47, 161.87 0.26 M100.86 70.45 C115.43 53.67, 130.09 35.83, 161.87 0.26 M106.5 70.06 C125.83 47.09, 150.56 22.56, 167.52 -0.13 M106.5 70.06 C128.91 46.12, 148.73 22.46, 167.52 -0.13 M111.49 70.42 C129.8 47.92, 148.42 27.98, 172.51 0.23 M111.49 70.42 C126.86 52.13, 143.45 33.46, 172.51 0.23 M117.13 70.02 C136.32 48.17, 155.89 24.2, 178.15 -0.16 M117.13 70.02 C132.7 53.11, 149.04 34.77, 178.15 -0.16 M122.12 70.38 C140.87 44.01, 165.15 23.56, 183.14 0.2 M122.12 70.38 C143.58 45.45, 166.34 20.51, 183.14 0.2 M127.76 69.99 C150.92 44.99, 173.03 18.96, 188.78 -0.2 M127.76 69.99 C150.21 46.13, 171.37 21.61, 188.78 -0.2 M132.75 70.35 C147.64 53.27, 165.14 35.66, 193.77 0.16 M132.75 70.35 C145.05 53.71, 159.31 38.63, 193.77 0.16 M138.39 69.95 C149.79 56.43, 161 41.5, 199.41 -0.23 M138.39 69.95 C163.21 42.68, 186.87 15.1, 199.41 -0.23 M143.38 70.31 C162.08 48.67, 180.57 30.75, 204.4 0.13 M143.38 70.31 C160.14 49.73, 177.97 29.96, 204.4 0.13 M149.02 69.92 C165.55 50.61, 183.07 33.47, 210.04 -0.27 M149.02 69.92 C162.56 54.86, 175.78 39.33, 210.04 -0.27 M154.01 70.28 C173.39 49.47, 194.45 24.05, 215.03 0.09 M154.01 70.28 C176.85 44.02, 199.41 17.27, 215.03 0.09 M159.66 69.89 C172.23 56.64, 184.09 40.7, 220.01 0.45 M159.66 69.89 C174.06 52.9, 189.56 34.91, 220.01 0.45 M164.64 70.25 C187.9 40.62, 211.03 14.14, 225 0.81 M164.64 70.25 C180.83 51.06, 194.98 33.4, 225 0.81 M170.29 69.85 C192.36 44.8, 213.24 19.89, 229.99 1.17 M170.29 69.85 C193.51 44.82, 215.27 19.54, 229.99 1.17 M175.27 70.21 C197.61 47.23, 218.18 20.06, 233.66 3.04 M175.27 70.21 C193.72 47.79, 213.43 26.55, 233.66 3.04 M180.92 69.82 C197.78 52.19, 212.89 34.1, 236.68 5.67 M180.92 69.82 C194.53 54.66, 209.08 37.72, 236.68 5.67 M185.9 70.18 C201.96 51.44, 219.15 31.67, 238.39 9.8 M185.9 70.18 C200.04 53.76, 214.57 35.58, 238.39 9.8 M191.55 69.78 C202.71 56.44, 216.38 43.78, 240.09 13.93 M191.55 69.78 C202.19 59.46, 211.56 47.82, 240.09 13.93 M196.53 70.14 C207.18 55.71, 219.18 44.25, 239.83 20.33 M196.53 70.14 C207.27 56.14, 218.96 43.16, 239.83 20.33 M201.52 70.5 C212.18 59.82, 223.52 48.31, 240.23 25.97 M201.52 70.5 C215.72 54.77, 229.31 37.45, 240.23 25.97 M207.16 70.11 C218.8 57.46, 228.36 46.39, 239.97 32.37 M207.16 70.11 C218.38 56.91, 229.78 44.7, 239.97 32.37 M212.15 70.47 C218.64 58.9, 229.33 50.43, 239.7 38.77 M212.15 70.47 C220.78 59.73, 228.43 51.83, 239.7 38.77 M217.79 70.07 C226.04 63.67, 231.48 54.75, 239.44 45.17 M217.79 70.07 C226.66 61, 232.95 51.14, 239.44 45.17 M222.78 70.43 C228.72 64.31, 234.1 59.49, 239.84 50.81 M222.78 70.43 C229.59 63.08, 236.5 56.15, 239.84 50.81 M229.73 68.53 C234.15 64.57, 236.24 61.18, 239.58 57.21 M229.73 68.53 C233.52 63.8, 236.54 60.74, 239.58 57.21" stroke="#FFF4CE" stroke-width="0.5" fill="none"></path><path d="M17.5 0 C59.27 0.49, 99.22 0.67, 222.5 0 M17.5 0 C73.43 0.02, 128.81 1.11, 222.5 0 M222.5 0 C232.87 0.53, 240.88 7.46, 240 17.5 M222.5 0 C234.37 0.56, 238.67 7.56, 240 17.5 M240 17.5 C241.38 23.36, 240.94 33.96, 240 52.5 M240 17.5 C239.28 30.82, 240.03 44.18, 240 52.5 M240 52.5 C240.6 62.57, 234.65 68.28, 222.5 70 M240 52.5 C238.31 64.23, 235.1 70.81, 222.5 70 M222.5 70 C179.23 71.62, 134.99 71.64, 17.5 70 M222.5 70 C178.08 72.36, 133.8 71.78, 17.5 70 M17.5 70 C3.95 69.71, -0.18 64.69, 0 52.5 M17.5 70 C7.66 69.98, 2.16 64.26, 0 52.5 M0 52.5 C-0.97 42.18, 1.01 30.89, 0 17.5 M0 52.5 C-0.63 43.46, 0.58 32.48, 0 17.5 M0 17.5 C0.44 7.83, 4.28 -1.31, 17.5 0 M0 17.5 C-0.62 3.76, 6.85 2.27, 17.5 0" stroke="#F7630C" stroke-width="1" fill="none"></path></g><g transform="translate(695 367) rotate(0 105 22.5)"><text x="105" y="0" font-family="Virgil, Segoe UI Emoji" font-size="13px" fill="#000000" text-anchor="middle" style="white-space: pre;" direction="ltr" dominant-baseline="text-before-edge">InPlaceTransitionalUpdater</text><text x="105" y="22.5" font-family="Virgil, Segoe UI Emoji" font-size="13px" fill="#000000" text-anchor="middle" style="white-space: pre;" direction="ltr" dominant-baseline="text-before-edge">mark pass + normalize pass</text></g><g stroke-linecap="round" transform="translate(650 475) rotate(0 150 130)"><path d="M32 0 C79.92 0.41, 126.13 0.58, 268 0 M32 0 C96.36 0.13, 160.19 1.15, 268 0 M268 0 C288.04 0.53, 300.88 12.29, 300 32 M268 0 C289.53 0.56, 298.67 12.4, 300 32 M300 32 C300.63 72.88, 300.19 118.49, 300 228 M300 32 C297.96 108.03, 298.71 184.1, 300 228 M300 228 C300.6 247.73, 289.82 258.28, 268 260 M300 228 C298.31 249.4, 290.27 260.81, 268 260 M268 260 C217.99 261.78, 167.07 261.8, 32 260 M268 260 C216.9 262.46, 165.93 261.92, 32 260 M32 260 C8.78 259.71, -0.18 249.86, 0 228 M32 260 C12.5 259.98, 2.16 249.43, 0 228 M0 228 C-2.14 171.5, -0.16 114.04, 0 32 M0 228 C-0.78 174.46, 0.44 118.97, 0 32 M0 32 C0.44 12.66, 9.12 -1.31, 32 0 M0 32 C-0.62 8.6, 11.68 2.27, 32 0" stroke="#1e1e1e" stroke-width="2" fill="none"></path></g><g transform="translate(665 487) rotate(0 135 22.5)"><text x="135" y="0" font-family="Virgil, Segoe UI Emoji" font-size="18px" fill="#000000" text-anchor="middle" style="white-space: pre;" direction="ltr" dominant-baseline="text-before-edge">Board Storage</text></g><g stroke-linecap="round" transform="translate(680 545) rotate(0 120 37.5)"><path d="M4.99 4.34 C4.99 4.34, 4.99 4.34, 4.99 4.34 M4.99 4.34 C4.99 4.34, 4.99 4.34, 4.99 4.34 M0.79 15.26 C3.39 12.67, 9.26 5.84, 12.6 1.68 M0.79 15.26 C4.8 10.92, 9.26 6.06, 12.6 1.68 M1.19 20.91 C6.52 15.33, 8.34 11.18, 18.9 0.53 M1.19 20.91 C6.44 16.61, 9.56 10.93, 18.9 0.53 M0.93 27.31 C6.85 18.34, 13.08 13.25, 24.54 0.14 M0.93 27.31 C9.4 18.25, 16.88 8.73, 24.54 0.14 M1.32 32.95 C9.13 22.12, 17.45 14.93, 29.53 0.5 M1.32 32.95 C10.58 21.96, 20.88 11.95, 29.53 0.5 M1.06 39.35 C13.31 25.18, 21.63 13.92, 35.17 0.1 M1.06 39.35 C9.77 28.16, 19.09 18.83, 35.17 0.1 M0.8 45.74 C10.85 32.95, 21.45 21.1, 40.16 0.46 M0.8 45.74 C15.2 29.74, 29.63 12.67, 40.16 0.46 M1.19 51.39 C9.54 41.49, 19.61 27.34, 45.8 0.07 M1.19 51.39 C18.25 31.63, 37.18 10.76, 45.8 0.07 M0.93 57.78 C11.39 42.79, 23.23 29.99, 50.79 0.43 M0.93 57.78 C19.7 35.89, 37.42 14.73, 50.79 0.43 M1.98 62.67 C15.69 47.11, 30.07 33.25, 56.43 0.03 M1.98 62.67 C18.09 42.49, 36.03 23.09, 56.43 0.03 M3.69 66.81 C17.23 48.39, 36.27 30.79, 61.42 0.39 M3.69 66.81 C18.68 46.94, 36.56 29.81, 61.42 0.39 M5.4 70.94 C17.83 58.48, 28.2 40.57, 67.06 0 M5.4 70.94 C18.62 55.3, 33.65 38.54, 67.06 0 M9.07 72.81 C25.25 51.11, 44.75 30.28, 72.05 0.36 M9.07 72.81 C31.62 45.81, 54.38 18.41, 72.05 0.36 M12.74 74.68 C35.07 49.72, 59.97 22.47, 77.69 -0.04 M12.74 74.68 C29.43 54.56, 48.22 33.51, 77.69 -0.04 M17.73 75.04 C38.89 49.27, 60.87 26.12, 82.68 0.32 M17.73 75.04 C43.86 43.98, 69.39 14.76, 82.68 0.32 M22.72 75.4 C42.69 52.23, 60.4 30.49, 88.32 -0.07 M22.72 75.4 C36.76 59.91, 50.36 43.31, 88.32 -0.07 M28.36 75.01 C43.35 57.1, 59.33 36.98, 93.31 0.29 M28.36 75.01 C48.18 52.63, 68.46 30.53, 93.31 0.29 M33.35 75.37 C52.4 51.94, 71.59 29.87, 98.3 0.65 M33.35 75.37 C53.97 52.98, 74.4 27.64, 98.3 0.65 M38.99 74.97 C60.15 52.56, 81.09 26.32, 103.94 0.25 M38.99 74.97 C56.55 53.33, 75.77 30.82, 103.94 0.25 M43.98 75.33 C56.12 61.32, 72.18 44.29, 108.93 0.61 M43.98 75.33 C64.73 50.91, 85.17 29.2, 108.93 0.61 M49.62 74.94 C69.09 55.18, 87.01 31.54, 114.57 0.22 M49.62 74.94 C70.99 50.26, 93.6 25.6, 114.57 0.22 M54.61 75.3 C71.11 58.21, 87.73 36.98, 119.56 0.58 M54.61 75.3 C68.5 58.85, 83.17 43.68, 119.56 0.58 M60.25 74.9 C88.13 44, 113.62 15.09, 125.2 0.19 M60.25 74.9 C78.56 52.75, 98.58 29.97, 125.2 0.19 M65.24 75.26 C81.62 55.44, 98.84 34.43, 130.19 0.55 M65.24 75.26 C83.72 54.66, 102.08 33.11, 130.19 0.55 M70.88 74.87 C89.63 53.14, 106.01 34.2, 135.83 0.15 M70.88 74.87 C83.59 58.4, 97.35 44.8, 135.83 0.15 M75.87 75.23 C96.41 50.03, 119.97 27.55, 140.82 0.51 M75.87 75.23 C94.52 54.12, 111.83 31.54, 140.82 0.51 M81.51 74.83 C98.07 54.67, 115.97 38.64, 146.46 0.12 M81.51 74.83 C103.42 47.87, 126.82 22.13, 146.46 0.12 M86.5 75.19 C101.04 59.27, 119.24 41.03, 151.45 0.48 M86.5 75.19 C101.43 57.75, 116.71 39.59, 151.45 0.48 M92.14 74.8 C109.34 56.69, 125.8 35, 157.09 0.08 M92.14 74.8 C105.2 57.58, 119.53 42, 157.09 0.08 M97.13 75.16 C116.04 55.11, 134.06 31.53, 162.08 0.44 M97.13 75.16 C112.62 57.29, 128.23 38.35, 162.08 0.44 M102.12 75.52 C123.04 50.72, 149.35 24.37, 167.72 0.05 M102.12 75.52 C126.14 49.78, 147.53 24.32, 167.72 0.05 M107.76 75.12 C127.23 51.28, 147.04 29.97, 172.71 0.41 M107.76 75.12 C124.16 55.69, 141.78 35.84, 172.71 0.41 M112.75 75.48 C133.45 51.84, 154.56 26.11, 178.35 0.01 M112.75 75.48 C129.5 57.27, 147.01 37.58, 178.35 0.01 M118.39 75.09 C138.48 47.14, 164.12 25.12, 183.34 0.37 M118.39 75.09 C141.3 48.51, 165.46 21.96, 183.34 0.37 M123.38 75.45 C148.27 48.47, 172.1 20.47, 188.98 -0.02 M123.38 75.45 C147.47 49.73, 170.22 23.37, 188.98 -0.02 M129.02 75.05 C144.88 56.87, 163.38 38.12, 193.97 0.34 M129.02 75.05 C142.17 57.4, 157.33 41.3, 193.97 0.34 M134.01 75.42 C146.28 60.85, 158.42 44.86, 199.61 -0.06 M134.01 75.42 C160.64 46.06, 186.08 16.43, 199.61 -0.06 M139.65 75.02 C159.57 52.05, 179.23 32.78, 204.6 0.3 M139.65 75.02 C157.55 53.16, 176.51 32.1, 204.6 0.3 M144.64 75.38 C162.21 54.87, 180.77 36.54, 209.59 0.66 M144.64 75.38 C159.05 59.37, 173.11 42.86, 209.59 0.66 M150.28 74.99 C170.95 52.73, 193.27 25.87, 215.23 0.27 M150.28 74.99 C174.62 47.02, 198.67 18.57, 215.23 0.27 M155.27 75.35 C168.73 61.02, 181.51 44.02, 220.22 0.63 M155.27 75.35 C170.77 57.02, 187.41 37.72, 220.22 0.63 M160.91 74.95 C185.7 43.49, 210.4 15.21, 225.2 0.99 M160.91 74.95 C178.09 54.55, 193.27 35.71, 225.2 0.99 M165.9 75.31 C189.6 48.34, 212.14 21.52, 230.19 1.35 M165.9 75.31 C190.85 48.34, 214.31 21.11, 230.19 1.35 M171.54 74.92 C195.07 50.58, 216.84 22.02, 233.21 3.97 M171.54 74.92 C191.07 51.24, 211.86 28.76, 233.21 3.97 M176.53 75.28 C194.55 56.35, 210.82 36.93, 236.23 6.6 M176.53 75.28 C191.12 59.03, 206.65 40.98, 236.23 6.6 M182.17 74.88 C199.44 54.73, 217.86 33.55, 238.59 9.98 M182.17 74.88 C197.4 57.19, 213.04 37.71, 238.59 9.98 M187.16 75.24 C199.25 60.8, 213.88 47.02, 239.64 14.87 M187.16 75.24 C198.6 64, 208.79 51.42, 239.64 14.87 M192.8 74.85 C204.53 59.22, 217.58 46.55, 240.04 20.51 M192.8 74.85 C204.59 59.59, 217.34 45.4, 240.04 20.51 M197.79 75.21 C209.35 63.52, 221.56 51, 239.78 26.91 M197.79 75.21 C213.22 58.1, 228.01 39.39, 239.78 26.91 M203.43 74.81 C216.31 60.72, 227.16 48.17, 240.17 32.55 M203.43 74.81 C215.95 60.07, 228.67 46.34, 240.17 32.55 M208.42 75.17 C216.11 62.2, 228.02 52.32, 239.91 38.95 M208.42 75.17 C218.22 63.03, 227.07 53.75, 239.91 38.95 M213.4 75.53 C223.35 67.15, 230.51 56.24, 240.3 44.59 M213.4 75.53 C224.23 64.21, 232.45 52.13, 240.3 44.59 M219.05 75.14 C226.28 67.53, 232.96 61.22, 240.04 50.99 M219.05 75.14 C227.33 66.12, 235.7 57.51, 240.04 50.99 M224.69 74.74 C231.56 68.34, 235.3 62.71, 240.44 56.63 M224.69 74.74 C230.7 67.33, 235.69 62.13, 240.44 56.63 M231.65 72.84 C234.77 69.77, 236.15 67.62, 238.86 64.54 M231.65 72.84 C233.13 70.73, 234.71 68.96, 238.86 64.54" stroke="#F3F2F1" stroke-width="0.5" fill="none"></path><path d="M18.75 0 C60.02 0.5, 99.47 0.67, 221.25 0 M18.75 0 C74 0.02, 128.7 1.11, 221.25 0 M221.25 0 C232.45 0.53, 240.88 7.88, 240 18.75 M221.25 0 C233.95 0.56, 238.67 7.98, 240 18.75 M240 18.75 C241.36 25.16, 240.93 36.29, 240 56.25 M240 18.75 C239.26 33.04, 240.01 47.37, 240 56.25 M240 56.25 C240.6 67.15, 234.23 73.28, 221.25 75 M240 56.25 C238.31 68.81, 234.69 75.81, 221.25 75 M221.25 75 C178.52 76.6, 134.83 76.62, 18.75 75 M221.25 75 C177.37 77.35, 133.63 76.77, 18.75 75 M18.75 75 C4.36 74.71, -0.18 69.28, 0 56.25 M18.75 75 C8.08 74.98, 2.16 68.85, 0 56.25 M0 56.25 C-0.99 45.21, 0.99 33.21, 0 18.75 M0 56.25 C-0.64 46.52, 0.58 34.85, 0 18.75 M0 18.75 C0.44 8.25, 4.7 -1.31, 18.75 0 M0 18.75 C-0.62 4.18, 7.26 2.27, 18.75 0" stroke="#1e1e1e" stroke-width="1" fill="none"></path></g><g transform="translate(695 557) rotate(0 105 25)"><text x="105" y="0" font-family="Virgil, Segoe UI Emoji" font-size="13px" fill="#000000" text-anchor="middle" style="white-space: pre;" direction="ltr" dominant-baseline="text-before-edge">InMemoryBoard</text><text x="105" y="25" font-family="Virgil, Segoe UI Emoji" font-size="13px" fill="#000000" text-anchor="middle" style="white-space: pre;" direction="ltr" dominant-baseline="text-before-edge">private Vec&lt;CellState&gt;</text></g><g stroke-linecap="round" transform="translate(680 645) rotate(0 120 37.5)"><path d="M4.99 4.34 C4.99 4.34, 4.99 4.34, 4.99 4.34 M4.99 4.34 C4.99 4.34, 4.99 4.34, 4.99 4.34 M0.79 15.26 C3.39 12.67, 9.26 5.84, 12.6 1.68 M0.79 15.26 C4.8 10.92, 9.26 6.06, 12.6 1.68 M1.19 20.91 C6.52 15.33, 8.34 11.18, 18.9 0.53 M1.19 20.91 C6.44 16.61, 9.56 10.93, 18.9 0.53 M0.93 27.31 C6.85 18.34, 13.08 13.25, 24.54 0.14 M0.93 27.31 C9.4 18.25, 16.88 8.73, 24.54 0.14 M1.32 32.95 C9.13 22.12, 17.45 14.93, 29.53 0.5 M1.32 32.95 C10.58 21.96, 20.88 11.95, 29.53 0.5 M1.06 39.35 C13.31 25.18, 21.63 13.92, 35.17 0.1 M1.06 39.35 C9.77 28.16, 19.09 18.83, 35.17 0.1 M0.8 45.74 C10.85 32.95, 21.45 21.1, 40.16 0.46 M0.8 45.74 C15.2 29.74, 29.63 12.67, 40.16 0.46 M1.19 51.39 C9.54 41.49, 19.61 27.34, 45.8 0.07 M1.19 51.39 C18.25 31.63, 37.18 10.76, 45.8 0.07 M0.93 57.78 C11.39 42.79, 23.23 29.99, 50.79 0.43 M0.93 57.78 C19.7 35.89, 37.42 14.73, 50.79 0.43 M1.98 62.67 C15.69 47.11, 30.07 33.25, 56.43 0.03 M1.98 62.67 C18.09 42.49, 36.03 23.09, 56.43 0.03 M3.69 66.81 C17.23 48.39, 36.27 30.79, 61.42 0.39 M3.69 66.81 C18.68 46.94, 36.56 29.81, 61.42 0.39 M5.4 70.94 C17.83 58.48, 28.2 40.57, 67.06 0 M5.4 70.94 C18.62 55.3, 33.65 38.54, 67.06 0 M9.07 72.81 C25.25 51.11, 44.75 30.28, 72.05 0.36 M9.07 72.81 C31.62 45.81, 54.38 18.41, 72.05 0.36 M12.74 74.68 C35.07 49.72, 59.97 22.47, 77.69 -0.04 M12.74 74.68 C29.43 54.56, 48.22 33.51, 77.69 -0.04 M17.73 75.04 C38.89 49.27, 60.87 26.12, 82.68 0.32 M17.73 75.04 C43.86 43.98, 69.39 14.76, 82.68 0.32 M22.72 75.4 C42.69 52.23, 60.4 30.49, 88.32 -0.07 M22.72 75.4 C36.76 59.91, 50.36 43.31, 88.32 -0.07 M28.36 75.01 C43.35 57.1, 59.33 36.98, 93.31 0.29 M28.36 75.01 C48.18 52.63, 68.46 30.53, 93.31 0.29 M33.35 75.37 C52.4 51.94, 71.59 29.87, 98.3 0.65 M33.35 75.37 C53.97 52.98, 74.4 27.64, 98.3 0.65 M38.99 74.97 C60.15 52.56, 81.09 26.32, 103.94 0.25 M38.99 74.97 C56.55 53.33, 75.77 30.82, 103.94 0.25 M43.98 75.33 C56.12 61.32, 72.18 44.29, 108.93 0.61 M43.98 75.33 C64.73 50.91, 85.17 29.2, 108.93 0.61 M49.62 74.94 C69.09 55.18, 87.01 31.54, 114.57 0.22 M49.62 74.94 C70.99 50.26, 93.6 25.6, 114.57 0.22 M54.61 75.3 C71.11 58.21, 87.73 36.98, 119.56 0.58 M54.61 75.3 C68.5 58.85, 83.17 43.68, 119.56 0.58 M60.25 74.9 C88.13 44, 113.62 15.09, 125.2 0.19 M60.25 74.9 C78.56 52.75, 98.58 29.97, 125.2 0.19 M65.24 75.26 C81.62 55.44, 98.84 34.43, 130.19 0.55 M65.24 75.26 C83.72 54.66, 102.08 33.11, 130.19 0.55 M70.88 74.87 C89.63 53.14, 106.01 34.2, 135.83 0.15 M70.88 74.87 C83.59 58.4, 97.35 44.8, 135.83 0.15 M75.87 75.23 C96.41 50.03, 119.97 27.55, 140.82 0.51 M75.87 75.23 C94.52 54.12, 111.83 31.54, 140.82 0.51 M81.51 74.83 C98.07 54.67, 115.97 38.64, 146.46 0.12 M81.51 74.83 C103.42 47.87, 126.82 22.13, 146.46 0.12 M86.5 75.19 C101.04 59.27, 119.24 41.03, 151.45 0.48 M86.5 75.19 C101.43 57.75, 116.71 39.59, 151.45 0.48 M92.14 74.8 C109.34 56.69, 125.8 35, 157.09 0.08 M92.14 74.8 C105.2 57.58, 119.53 42, 157.09 0.08 M97.13 75.16 C116.04 55.11, 134.06 31.53, 162.08 0.44 M97.13 75.16 C112.62 57.29, 128.23 38.35, 162.08 0.44 M102.12 75.52 C123.04 50.72, 149.35 24.37, 167.72 0.05 M102.12 75.52 C126.14 49.78, 147.53 24.32, 167.72 0.05 M107.76 75.12 C127.23 51.28, 147.04 29.97, 172.71 0.41 M107.76 75.12 C124.16 55.69, 141.78 35.84, 172.71 0.41 M112.75 75.48 C133.45 51.84, 154.56 26.11, 178.35 0.01 M112.75 75.48 C129.5 57.27, 147.01 37.58, 178.35 0.01 M118.39 75.09 C138.48 47.14, 164.12 25.12, 183.34 0.37 M118.39 75.09 C141.3 48.51, 165.46 21.96, 183.34 0.37 M123.38 75.45 C148.27 48.47, 172.1 20.47, 188.98 -0.02 M123.38 75.45 C147.47 49.73, 170.22 23.37, 188.98 -0.02 M129.02 75.05 C144.88 56.87, 163.38 38.12, 193.97 0.34 M129.02 75.05 C142.17 57.4, 157.33 41.3, 193.97 0.34 M134.01 75.42 C146.28 60.85, 158.42 44.86, 199.61 -0.06 M134.01 75.42 C160.64 46.06, 186.08 16.43, 199.61 -0.06 M139.65 75.02 C159.57 52.05, 179.23 32.78, 204.6 0.3 M139.65 75.02 C157.55 53.16, 176.51 32.1, 204.6 0.3 M144.64 75.38 C162.21 54.87, 180.77 36.54, 209.59 0.66 M144.64 75.38 C159.05 59.37, 173.11 42.86, 209.59 0.66 M150.28 74.99 C170.95 52.73, 193.27 25.87, 215.23 0.27 M150.28 74.99 C174.62 47.02, 198.67 18.57, 215.23 0.27 M155.27 75.35 C168.73 61.02, 181.51 44.02, 220.22 0.63 M155.27 75.35 C170.77 57.02, 187.41 37.72, 220.22 0.63 M160.91 74.95 C185.7 43.49, 210.4 15.21, 225.2 0.99 M160.91 74.95 C178.09 54.55, 193.27 35.71, 225.2 0.99 M165.9 75.31 C189.6 48.34, 212.14 21.52, 230.19 1.35 M165.9 75.31 C190.85 48.34, 214.31 21.11, 230.19 1.35 M171.54 74.92 C195.07 50.58, 216.84 22.02, 233.21 3.97 M171.54 74.92 C191.07 51.24, 211.86 28.76, 233.21 3.97 M176.53 75.28 C194.55 56.35, 210.82 36.93, 236.23 6.6 M176.53 75.28 C191.12 59.03, 206.65 40.98, 236.23 6.6 M182.17 74.88 C199.44 54.73, 217.86 33.55, 238.59 9.98 M182.17 74.88 C197.4 57.19, 213.04 37.71, 238.59 9.98 M187.16 75.24 C199.25 60.8, 213.88 47.02, 239.64 14.87 M187.16 75.24 C198.6 64, 208.79 51.42, 239.64 14.87 M192.8 74.85 C204.53 59.22, 217.58 46.55, 240.04 20.51 M192.8 74.85 C204.59 59.59, 217.34 45.4, 240.04 20.51 M197.79 75.21 C209.35 63.52, 221.56 51, 239.78 26.91 M197.79 75.21 C213.22 58.1, 228.01 39.39, 239.78 26.91 M203.43 74.81 C216.31 60.72, 227.16 48.17, 240.17 32.55 M203.43 74.81 C215.95 60.07, 228.67 46.34, 240.17 32.55 M208.42 75.17 C216.11 62.2, 228.02 52.32, 239.91 38.95 M208.42 75.17 C218.22 63.03, 227.07 53.75, 239.91 38.95 M213.4 75.53 C223.35 67.15, 230.51 56.24, 240.3 44.59 M213.4 75.53 C224.23 64.21, 232.45 52.13, 240.3 44.59 M219.05 75.14 C226.28 67.53, 232.96 61.22, 240.04 50.99 M219.05 75.14 C227.33 66.12, 235.7 57.51, 240.04 50.99 M224.69 74.74 C231.56 68.34, 235.3 62.71, 240.44 56.63 M224.69 74.74 C230.7 67.33, 235.69 62.13, 240.44 56.63 M231.65 72.84 C234.77 69.77, 236.15 67.62, 238.86 64.54 M231.65 72.84 C233.13 70.73, 234.71 68.96, 238.86 64.54" stroke="#F3F2F1" stroke-width="0.5" fill="none"></path><path d="M18.75 0 C60.02 0.5, 99.47 0.67, 221.25 0 M18.75 0 C74 0.02, 128.7 1.11, 221.25 0 M221.25 0 C232.45 0.53, 240.88 7.88, 240 18.75 M221.25 0 C233.95 0.56, 238.67 7.98, 240 18.75 M240 18.75 C241.36 25.16, 240.93 36.29, 240 56.25 M240 18.75 C239.26 33.04, 240.01 47.37, 240 56.25 M240 56.25 C240.6 67.15, 234.23 73.28, 221.25 75 M240 56.25 C238.31 68.81, 234.69 75.81, 221.25 75 M221.25 75 C178.52 76.6, 134.83 76.62, 18.75 75 M221.25 75 C177.37 77.35, 133.63 76.77, 18.75 75 M18.75 75 C4.36 74.71, -0.18 69.28, 0 56.25 M18.75 75 C8.08 74.98, 2.16 68.85, 0 56.25 M0 56.25 C-0.99 45.21, 0.99 33.21, 0 18.75 M0 56.25 C-0.64 46.52, 0.58 34.85, 0 18.75 M0 18.75 C0.44 8.25, 4.7 -1.31, 18.75 0 M0 18.75 C-0.62 4.18, 7.26 2.27, 18.75 0" stroke="#1e1e1e" stroke-width="1" fill="none"></path></g><g transform="translate(695 657) rotate(0 105 25)"><text x="105" y="0" font-family="Virgil, Segoe UI Emoji" font-size="13px" fill="#000000" text-anchor="middle" style="white-space: pre;" direction="ltr" dominant-baseline="text-before-edge">Future storage</text><text x="105" y="16.666666666666668" font-family="Virgil, Segoe UI Emoji" font-size="13px" fill="#000000" text-anchor="middle" style="white-space: pre;" direction="ltr" dominant-baseline="text-before-edge">now shipped: StreamingBoard</text><text x="105" y="33.333333333333336" font-family="Virgil, Segoe UI Emoji" font-size="13px" fill="#000000" text-anchor="middle" style="white-space: pre;" direction="ltr" dominant-baseline="text-before-edge">(2D chunked + scratch file)</text></g><g stroke-linecap="round"><g transform="translate(225 305) rotate(0 50 0)"><path d="M0 0 C20.86 0.76, 39.68 0.96, 100 0 M0 0 C27.4 -0.39, 54.17 0.83, 100 0" stroke="#0078D4" stroke-width="2" fill="none"></path></g><g transform="translate(225 305) rotate(0 50 0)"><path d="M71.89 10.48 C78.46 9.29, 82.9 7.4, 100 0 M71.89 10.48 C79.82 6.96, 87.04 5.32, 100 0" stroke="#0078D4" stroke-width="2" fill="none"></path></g><g transform="translate(225 305) rotate(0 50 0)"><path d="M71.73 -10.04 C78.16 -7.12, 82.63 -4.92, 100 0 M71.73 -10.04 C79.53 -7.98, 86.79 -4.03, 100 0" stroke="#0078D4" stroke-width="2" fill="none"></path></g></g><mask></mask><g stroke-linecap="round"><g transform="translate(575 510) rotate(0 52.5 -57.5)"><path d="M0 0 C22.81 -22.25, 42.64 -45.05, 105 -115 M0 0 C29.75 -31.65, 57.89 -61.71, 105 -115" stroke="#107C10" stroke-width="2" fill="none"></path></g><g transform="translate(575 510) rotate(0 52.5 -57.5)"><path d="M93.87 -87.14 C97.19 -91.77, 98.24 -97.14, 105 -115 M93.87 -87.14 C97.34 -95.46, 99.94 -101.82, 105 -115" stroke="#107C10" stroke-width="2" fill="none"></path></g><g transform="translate(575 510) rotate(0 52.5 -57.5)"><path d="M78.57 -100.81 C84.83 -102.74, 88.94 -105.38, 105 -115 M78.57 -100.81 C86.08 -105.35, 92.84 -107.99, 105 -115" stroke="#107C10" stroke-width="2" fill="none"></path></g></g><mask></mask><g stroke-linecap="round"><g transform="translate(800 425) rotate(0 0 60)"><path d="M0 0 C-0.14 24.96, -1.32 49.16, 0 120 M0 0 C-0.84 31.85, -1.27 65.71, 0 120" stroke="#F7630C" stroke-width="2" fill="none"></path></g><g transform="translate(800 425) rotate(0 0 60)"><path d="M-10.72 91.98 C-7.95 98.53, -6.98 104.33, 0 120 M-10.72 91.98 C-7.85 98.86, -5.36 107.7, 0 120" stroke="#F7630C" stroke-width="2" fill="none"></path></g><g transform="translate(800 425) rotate(0 0 60)"><path d="M9.8 91.65 C8.46 98.3, 5.32 104.17, 0 120 M9.8 91.65 C7.08 98.53, 3.99 107.46, 0 120" stroke="#F7630C" stroke-width="2" fill="none"></path></g></g><mask></mask><g stroke-linecap="round"><g transform="translate(680 585) rotate(0 -52.5 -80)"><path d="M0 0 C-18.82 -30.82, -40.99 -62.63, -105 -160 M0 0 C-26.98 -44.72, -55.96 -87.02, -105 -160" stroke="#1e1e1e" stroke-width="2" fill="none"></path></g><g transform="translate(680 585) rotate(0 -52.5 -80)"><path d="M-80.75 -142.33 C-84.6 -144.85, -90.62 -148.19, -105 -160 M-80.75 -142.33 C-87 -148.02, -94.02 -151.61, -105 -160" stroke="#1e1e1e" stroke-width="2" fill="none"></path></g><g transform="translate(680 585) rotate(0 -52.5 -80)"><path d="M-97.78 -130.88 C-98.13 -135.73, -100.75 -141.35, -105 -160 M-97.78 -130.88 C-99.3 -139.62, -101.68 -146.32, -105 -160" stroke="#1e1e1e" stroke-width="2" fill="none"></path></g></g><mask></mask><g transform="translate(245 640) rotate(0 182.5 45)"><text x="0" y="0" font-family="Virgil, Segoe UI Emoji" font-size="14px" fill="#000000" text-anchor="start" style="white-space: pre;" direction="ltr" dominant-baseline="text-before-edge">Grouped reads:</text><text x="0" y="22.5" font-family="Virgil, Segoe UI Emoji" font-size="14px" fill="#000000" text-anchor="start" style="white-space: pre;" direction="ltr" dominant-baseline="text-before-edge">Algorithm supplies CellCoordinate[]</text><text x="0" y="45" font-family="Virgil, Segoe UI Emoji" font-size="14px" fill="#000000" text-anchor="start" style="white-space: pre;" direction="ltr" dominant-baseline="text-before-edge">Board fills states in the same order</text><text x="0" y="67.5" font-family="Virgil, Segoe UI Emoji" font-size="14px" fill="#000000" text-anchor="start" style="white-space: pre;" direction="ltr" dominant-baseline="text-before-edge">Future backends can batch or stream</text></g></svg>