<svg version="1.1" xmlns="http://www.w3.org/2000/svg" viewBox="0 0 1160 740" width="1160" height="740">
  <!-- svg-source:excalidraw -->
  
  <defs>
    <style class="style-fonts">
      @font-face {
        font-family: "Virgil";
        src: url("https://unpkg.com/@excalidraw/excalidraw@undefined/dist/excalidraw-assets/Virgil.woff2");
      }
      @font-face {
        font-family: "Cascadia";
        src: url("https://unpkg.com/@excalidraw/excalidraw@undefined/dist/excalidraw-assets/Cascadia.woff2");
      }
      @font-face {
        font-family: "Assistant";
        src: url("https://unpkg.com/@excalidraw/excalidraw@undefined/dist/excalidraw-assets/Assistant-Regular.woff2");
      }
    </style>
    
  </defs>
  <rect x="0" y="0" width="1160" height="740" fill="#ffffff"></rect><g transform="translate(10 10) rotate(0 450 25)"><text x="0" y="0" font-family="Virgil, Segoe UI Emoji" font-size="22px" fill="#000000" text-anchor="start" style="white-space: pre;" direction="ltr" dominant-baseline="text-before-edge">Board memory budget + initial-board sources (back-fill for PR #6)</text></g><g transform="translate(10 70) rotate(0 550 20)"><text x="0" y="0" font-family="Virgil, Segoe UI Emoji" font-size="12px" fill="#000000" text-anchor="start" style="white-space: pre;" direction="ltr" dominant-baseline="text-before-edge">--max-board-memory bounds InMemoryBoard allocations. --initial-board picks one of four built-in seeders.</text><text x="0" y="13.333333333333334" font-family="Virgil, Segoe UI Emoji" font-size="12px" fill="#000000" text-anchor="start" style="white-space: pre;" direction="ltr" dominant-baseline="text-before-edge">When the requested size exceeds the cap, the user gets a suggested override (and, since the streaming PR,</text><text x="0" y="26.666666666666668" font-family="Virgil, Segoe UI Emoji" font-size="12px" fill="#000000" text-anchor="start" style="white-space: pre;" direction="ltr" dominant-baseline="text-before-edge">the initializer path auto-promotes to a StreamingBoard instead of failing).</text></g><g stroke-linecap="round" transform="translate(10 150) rotate(0 140 50)"><path d="M6 6.54 C6 6.54, 6 6.54, 6 6.54 M6 6.54 C6 6.54, 6 6.54, 6 6.54 M0.88 24.62 C6.26 18.91, 15.19 8.53, 21.88 0.47 M0.88 24.62 C7.93 16.79, 15.52 8.35, 21.88 0.47 M1.02 36.66 C9.46 27.63, 14.27 20.04, 32.51 0.43 M1.02 36.66 C9.66 28.54, 16.07 19.09, 32.51 0.43 M1.15 48.7 C12.51 33.81, 24.01 22.66, 43.14 0.4 M1.15 48.7 C15.8 32.34, 29.48 15.69, 43.14 0.4 M1.28 60.74 C15.67 42.3, 30.8 27.27, 53.77 0.36 M1.28 60.74 C18.74 40.45, 37 21.29, 53.77 0.36 M1.42 72.78 C23.31 47.57, 40.99 25.54, 64.4 0.33 M1.42 72.78 C17.83 52.79, 34.95 34.49, 64.4 0.33 M1.55 84.82 C20.89 61.14, 41.05 38.3, 75.03 0.29 M1.55 84.82 C28.02 54.8, 54.72 23.63, 75.03 0.29 M5.62 92.33 C22.16 73.48, 40.23 50.12, 85.66 0.26 M5.62 92.33 C36.47 56.58, 69.55 19.43, 85.66 0.26 M11.66 97.58 C30.07 73.54, 49.89 51.56, 95.63 0.98 M11.66 97.58 C43.04 61.05, 73.47 25.28, 95.63 0.98 M20.32 99.81 C41.68 75.22, 63.88 52.36, 106.26 0.95 M20.32 99.81 C46.25 68.18, 74.06 37.42, 106.26 0.95 M30.29 100.53 C51.55 73.15, 78.19 46.79, 116.89 0.91 M30.29 100.53 C53.25 71.09, 79.22 44.66, 116.89 0.91 M40.92 100.5 C58.12 82.29, 73.52 58.6, 127.52 0.88 M40.92 100.5 C59.79 78.56, 80.43 55.35, 127.52 0.88 M51.55 100.46 C74.49 70.69, 100.87 41.94, 138.15 0.84 M51.55 100.46 C82.61 63.42, 114.08 25.99, 138.15 0.84 M62.18 100.43 C92.14 67.01, 124.52 31.14, 148.78 0.81 M62.18 100.43 C84.59 73.41, 109.22 45.64, 148.78 0.81 M72.81 100.4 C101.22 66.25, 130.6 34.6, 159.41 0.77 M72.81 100.4 C107.47 59.31, 141.63 20.16, 159.41 0.77 M83.44 100.36 C109.7 70.07, 133.58 41.23, 170.04 0.74 M83.44 100.36 C101.87 79.92, 119.82 58.32, 170.04 0.74 M94.07 100.33 C114.18 76.35, 135.33 50.27, 180.67 0.7 M94.07 100.33 C120.37 70.59, 147.21 40.94, 180.67 0.7 M104.7 100.29 C130.4 69.18, 156.29 39.4, 191.3 0.67 M104.7 100.29 C132.19 70.13, 159.54 36.84, 191.3 0.67 M115.33 100.26 C143.42 70.05, 171.13 36.03, 201.93 0.64 M115.33 100.26 C139.03 71.31, 164.49 41.61, 201.93 0.64 M125.96 100.22 C142.75 81.14, 163.31 58.93, 212.56 0.6 M125.96 100.22 C153.63 67.88, 180.82 38.4, 212.56 0.6 M136.59 100.19 C162.46 73.3, 186.63 42.46, 223.19 0.57 M136.59 100.19 C165.04 67.29, 194.91 34.28, 223.19 0.57 M147.22 100.15 C169.11 76.79, 191.28 49.17, 233.82 0.53 M147.22 100.15 C165.8 78.42, 185.13 57.89, 233.82 0.53 M157.85 100.12 C194.45 59.38, 228.59 20.52, 244.45 0.5 M157.85 100.12 C182.53 70.69, 208.98 40.5, 244.45 0.5 M168.48 100.08 C190.71 73.5, 213.85 45.69, 255.08 0.46 M168.48 100.08 C193.16 72.44, 217.63 43.86, 255.08 0.46 M179.11 100.05 C203.58 72.05, 225.58 46.66, 264.4 1.94 M179.11 100.05 C195.89 78.71, 213.75 60.4, 264.4 1.94 M189.74 100.02 C215.84 68.37, 245.01 39.43, 271.75 5.68 M189.74 100.02 C213.12 73.25, 235.35 45.01, 271.75 5.68 M200.37 99.98 C219.99 76.33, 240.87 56.88, 277.13 11.68 M200.37 99.98 C226.36 68.2, 253.87 37.72, 277.13 11.68 M211 99.95 C226.52 82.96, 245.69 63.61, 279.89 20.7 M211 99.95 C226.86 81.46, 243.07 62.23, 279.89 20.7 M221.63 99.91 C237.11 83.76, 251.86 64.04, 280.02 32.74 M221.63 99.91 C233.37 84.35, 246.3 70.38, 280.02 32.74 M232.26 99.88 C246.26 85.53, 259.26 67.72, 280.16 44.78 M232.26 99.88 C243.78 86.74, 255.26 72.55, 280.16 44.78 M242.24 100.6 C253.57 86.78, 270.42 71.32, 280.29 56.82 M242.24 100.6 C256.55 85.66, 268.54 71.01, 280.29 56.82 M252.87 100.56 C261.27 89.49, 269.77 81.2, 280.42 68.87 M252.87 100.56 C259.42 92.01, 267.32 83.35, 280.42 68.87 M265.47 98.26 C269.02 94.8, 272.83 88.95, 279.24 82.42 M265.47 98.26 C268.84 94.76, 273.16 90.25, 279.24 82.42" stroke="#a5d8ff" stroke-width="1" fill="none"></path><path d="M25 0 C71.73 0.42, 116.73 0.59, 255 0 M25 0 C87.73 0.11, 149.92 1.14, 255 0 M255 0 C270.37 0.53, 280.88 9.96, 280 25 M255 0 C271.87 0.56, 278.67 10.06, 280 25 M280 25 C281.31 34.13, 280.87 47.98, 280 75 M280 25 C279.16 44.16, 279.9 63.36, 280 75 M280 75 C280.6 90.07, 272.15 98.28, 255 100 M280 75 C278.31 91.73, 272.6 100.81, 255 100 M255 100 C206.29 101.75, 156.67 101.77, 25 100 M255 100 C205.19 102.44, 155.52 101.89, 25 100 M25 100 C6.45 99.71, -0.18 92.19, 0 75 M25 100 C10.16 99.98, 2.16 91.76, 0 75 M0 75 C-1.08 60.38, 0.9 44.79, 0 25 M0 75 C-0.65 61.82, 0.57 46.69, 0 25 M0 25 C0.44 10.33, 6.78 -1.31, 25 0 M0 25 C-0.62 6.26, 9.35 2.27, 25 0" stroke="#1864ab" stroke-width="2" fill="none"></path></g><g transform="translate(10 150) rotate(0 140 50)"><text x="140" y="0" font-family="Virgil, Segoe UI Emoji" font-size="13px" fill="#000000" text-anchor="middle" style="white-space: pre;" direction="ltr" dominant-baseline="text-before-edge">CLI flags</text><text x="140" y="25" font-family="Virgil, Segoe UI Emoji" font-size="13px" fill="#000000" text-anchor="middle" style="white-space: pre;" direction="ltr" dominant-baseline="text-before-edge">--max-board-memory &lt;SIZE&gt;</text><text x="140" y="50" font-family="Virgil, Segoe UI Emoji" font-size="13px" fill="#000000" text-anchor="middle" style="white-space: pre;" direction="ltr" dominant-baseline="text-before-edge">--initial-board &lt;SOURCE&gt;</text><text x="140" y="75" font-family="Virgil, Segoe UI Emoji" font-size="13px" fill="#000000" text-anchor="middle" style="white-space: pre;" direction="ltr" dominant-baseline="text-before-edge">--board-size &lt;WxH&gt;</text></g><g stroke-linecap="round"><g transform="translate(295 200) rotate(0 30 0)"><path d="M0 0 C12.86 0.84, 23.68 1.04, 60 0 M0 0 C16.52 -0.55, 32.41 0.67, 60 0" stroke="#1e1e1e" stroke-width="1" fill="none"></path></g><g transform="translate(295 200) rotate(0 30 0)"><path d="M31.9 10.51 C38.46 9.31, 42.91 7.41, 60 0 M31.9 10.51 C39.83 6.97, 47.05 5.33, 60 0" stroke="#1e1e1e" stroke-width="1" fill="none"></path></g><g transform="translate(295 200) rotate(0 30 0)"><path d="M31.72 -10.01 C38.15 -7.11, 42.63 -4.9, 60 0 M31.72 -10.01 C39.52 -7.96, 46.79 -4.02, 60 0" stroke="#1e1e1e" stroke-width="1" fill="none"></path></g></g><mask></mask><g stroke-linecap="round" transform="translate(360 150) rotate(0 140 50)"><path d="M6 6.54 C6 6.54, 6 6.54, 6 6.54 M6 6.54 C6 6.54, 6 6.54, 6 6.54 M1.8 17.47 C4.9 14.35, 11.62 6.52, 15.58 1.62 M1.8 17.47 C6.47 12.39, 11.64 6.74, 15.58 1.62 M0.88 24.62 C6.96 18.22, 9.49 13.25, 21.88 0.47 M0.88 24.62 C6.94 19.41, 10.85 12.84, 21.88 0.47 M1.28 30.26 C7.78 20.66, 14.58 14.92, 26.86 0.83 M1.28 30.26 C10.41 20.42, 18.56 10.14, 26.86 0.83 M1.02 36.66 C9.72 24.8, 18.96 16.55, 32.51 0.43 M1.02 36.66 C11.38 24.41, 22.76 13.17, 32.51 0.43 M1.41 42.3 C14.32 27.38, 23.27 15.39, 37.49 0.79 M1.41 42.3 C10.65 30.52, 20.5 20.58, 37.49 0.79 M1.15 48.7 C11.92 35.07, 23.26 22.37, 43.14 0.4 M1.15 48.7 C16.48 31.62, 31.85 13.46, 43.14 0.4 M0.89 55.1 C9.84 44.54, 20.51 29.7, 48.12 0.76 M0.89 55.1 C18.96 34.16, 38.94 12.08, 48.12 0.76 M1.28 60.74 C12.35 45.05, 24.81 31.55, 53.77 0.36 M1.28 60.74 C21.02 37.72, 39.72 15.44, 53.77 0.36 M1.02 67.14 C15.53 50.64, 30.72 35.84, 58.75 0.72 M1.02 67.14 C18.15 45.76, 37.12 25.18, 58.75 0.72 M1.42 72.78 C16.36 52.74, 36.78 33.54, 64.4 0.33 M1.42 72.78 C17.85 51.17, 37.21 32.35, 64.4 0.33 M1.15 79.18 C14.84 65.21, 26.54 45.77, 69.38 0.69 M1.15 79.18 C15.87 61.88, 32.37 43.43, 69.38 0.69 M1.55 84.82 C20.73 59.53, 43.29 35.18, 75.03 0.29 M1.55 84.82 C27.88 53.36, 54.51 21.5, 75.03 0.29 M3.26 88.96 C29.74 59.38, 58.72 27.43, 80.01 0.65 M3.26 88.96 C23.06 65.07, 45.04 40.36, 80.01 0.65 M5.62 92.33 C31.83 60.73, 58.96 31.65, 85.66 0.26 M5.62 92.33 C37.69 54.29, 69.24 18.14, 85.66 0.26 M8.64 94.96 C33.52 66.22, 56.05 38.94, 90.64 0.62 M8.64 94.96 C26.11 75.6, 43.1 55.09, 90.64 0.62 M11.66 97.58 C31.14 74.34, 51.67 48.98, 95.63 0.98 M11.66 97.58 C37.17 68.74, 63.21 40, 95.63 0.98 M15.99 98.7 C41.28 68.05, 66.77 38.74, 101.27 0.59 M15.99 98.7 C43.06 69.01, 69.99 36.2, 101.27 0.59 M20.32 99.81 C48.2 69.84, 75.7 36.06, 106.26 0.95 M20.32 99.81 C43.83 71.08, 69.1 41.61, 106.26 0.95 M25.3 100.17 C42.1 81.09, 62.66 58.89, 111.9 0.55 M25.3 100.17 C52.97 67.83, 80.16 38.35, 111.9 0.55 M30.29 100.53 C56.16 73.64, 80.33 42.81, 116.89 0.91 M30.29 100.53 C58.74 67.63, 88.61 34.63, 116.89 0.91 M35.94 100.14 C57.82 76.77, 79.99 49.16, 122.53 0.52 M35.94 100.14 C54.51 78.41, 73.85 57.87, 122.53 0.52 M40.92 100.5 C77.52 59.76, 111.66 20.9, 127.52 0.88 M40.92 100.5 C65.6 71.07, 92.05 40.88, 127.52 0.88 M46.57 100.1 C68.8 73.52, 91.93 45.71, 133.16 0.48 M46.57 100.1 C71.24 72.45, 95.71 43.88, 133.16 0.48 M51.55 100.46 C76.39 72.06, 98.75 46.25, 138.15 0.84 M51.55 100.46 C68.59 78.81, 86.71 60.19, 138.15 0.84 M57.2 100.07 C84.78 66.68, 115.46 36.01, 143.8 0.45 M57.2 100.07 C81.84 71.78, 105.39 42.02, 143.8 0.45 M62.18 100.43 C84.34 73.87, 107.7 51.58, 148.78 0.81 M62.18 100.43 C91.56 64.63, 122.5 30.21, 148.78 0.81 M67.83 100.04 C87.77 78.23, 111.27 53.9, 154.43 0.41 M67.83 100.04 C87.84 76.81, 108.2 52.82, 154.43 0.41 M72.81 100.4 C95.67 75.85, 117.81 47.62, 159.41 0.77 M72.81 100.4 C90.25 77.7, 109.18 56.82, 159.41 0.77 M78.46 100 C103.59 72.73, 128 41.81, 165.06 0.38 M78.46 100 C98.98 76.13, 119.84 51.16, 165.06 0.38 M83.44 100.36 C111.67 67.2, 145.19 32.56, 170.04 0.74 M83.44 100.36 C114.87 66.39, 143.42 32.69, 170.04 0.74 M89.09 99.97 C114.97 68.73, 141.33 39.89, 175.69 0.34 M89.09 99.97 C111.19 74.23, 134.43 47.91, 175.69 0.34 M94.07 100.33 C121.73 68.52, 149.84 34.73, 180.67 0.7 M94.07 100.33 C116.24 76.15, 139.1 50.32, 180.67 0.7 M99.72 99.93 C127.15 63.3, 160.27 32.68, 186.32 0.31 M99.72 99.93 C130.58 64.34, 162.47 28.89, 186.32 0.31 M104.7 100.29 C137.56 64.24, 169.2 27.25, 191.3 0.67 M104.7 100.29 C136.31 66.07, 166.36 31.32, 191.3 0.67 M110.35 99.9 C131.59 75.6, 155.52 50.59, 196.95 0.28 M110.35 99.9 C128.19 76.7, 148.26 54.95, 196.95 0.28 M115.33 100.26 C131.62 80.92, 147.97 60.08, 201.93 0.64 M115.33 100.26 C150.28 61.38, 183.86 22.4, 201.93 0.64 M120.98 99.86 C147.4 69.85, 173.35 43.34, 206.92 1 M120.98 99.86 C144.98 71.23, 169.96 43.24, 206.92 1 M125.96 100.22 C149.33 73.11, 173.56 48.25, 212.56 0.6 M125.96 100.22 C145.18 78.95, 163.93 57.05, 212.56 0.6 M130.95 100.58 C158.74 70.41, 188.01 35.55, 217.55 0.96 M130.95 100.58 C163.59 63.27, 195.79 25.44, 217.55 0.96 M136.59 100.19 C154.23 80.77, 171.36 58.77, 223.19 0.57 M136.59 100.19 C157.25 75.56, 179.25 50.09, 223.19 0.57 M141.58 100.55 C175.05 58.7, 208.64 20.18, 228.18 0.93 M141.58 100.55 C164.39 73.26, 185.39 47.73, 228.18 0.93 M147.22 100.15 C178.84 63.87, 209.46 27.75, 233.82 0.53 M147.22 100.15 C180.57 63.8, 212.29 27.06, 233.82 0.53 M152.21 100.51 C184.79 65.84, 215.7 26.77, 238.81 0.89 M152.21 100.51 C179.98 67.27, 208.9 35.43, 238.81 0.89 M157.85 100.12 C183.75 72.33, 207.93 43.82, 244.45 0.5 M157.85 100.12 C179.15 76.41, 201.29 50.76, 244.45 0.5 M162.84 100.48 C189.45 69.47, 217.24 37.51, 249.44 0.86 M162.84 100.48 C186.38 72.96, 210.59 43.62, 249.44 0.86 M168.48 100.08 C188.58 76.06, 211.57 52.67, 255.08 0.46 M168.48 100.08 C186.8 80.93, 204.11 60.17, 255.08 0.46 M173.47 100.44 C196.02 72.87, 219.61 48.08, 260.07 0.82 M173.47 100.44 C195.75 72.68, 219.05 46.34, 260.07 0.82 M179.11 100.05 C202.59 75.05, 226.35 49.26, 264.4 1.94 M179.11 100.05 C210.71 64.8, 241.4 27.81, 264.4 1.94 M184.1 100.41 C212.1 68.72, 238.62 38.14, 268.73 3.05 M184.1 100.41 C212.49 66.83, 241.3 34.59, 268.73 3.05 M189.74 100.02 C212.84 68.98, 240.42 41.07, 271.75 5.68 M189.74 100.02 C214.59 69.77, 238.77 42.85, 271.75 5.68 M194.73 100.38 C221.84 71.92, 246.51 40.87, 274.77 8.3 M194.73 100.38 C225.36 66.26, 253.17 31.64, 274.77 8.3 M200.37 99.98 C225.93 71.37, 251.02 43.89, 277.13 11.68 M200.37 99.98 C229.45 67.39, 258.61 34.86, 277.13 11.68 M205.36 100.34 C233.77 69.12, 258.67 39.16, 278.84 15.81 M205.36 100.34 C232.4 68.64, 258.81 38.81, 278.84 15.81 M211 99.95 C238.53 70.28, 262.29 41.93, 279.89 20.7 M211 99.95 C225.57 82.66, 239.81 66.38, 279.89 20.7 M215.99 100.31 C235.47 78.46, 251.37 60.4, 279.63 27.1 M215.99 100.31 C239.55 73.48, 262.85 46.49, 279.63 27.1 M221.63 99.91 C242.06 78.38, 256.81 54.4, 280.02 32.74 M221.63 99.91 C245.65 73.74, 267.73 46.44, 280.02 32.74 M226.62 100.27 C245.03 77.59, 264.18 53.99, 279.76 39.14 M226.62 100.27 C242.35 80.47, 259.64 61.69, 279.76 39.14 M232.26 99.88 C246.11 83.1, 261.78 65.57, 280.16 44.78 M232.26 99.88 C242.83 86.79, 254.38 75, 280.16 44.78 M237.25 100.24 C248.02 85.12, 260.49 71.99, 279.89 51.18 M237.25 100.24 C254.64 80.44, 270.11 62.61, 279.89 51.18 M242.24 100.6 C254.74 88.04, 265.13 75.83, 280.29 56.82 M242.24 100.6 C255.98 84.64, 270.07 69.93, 280.29 56.82 M247.88 100.2 C257.43 86.88, 267.71 75.79, 280.03 63.22 M247.88 100.2 C257.83 88.88, 265.39 78.94, 280.03 63.22 M252.87 100.56 C261.16 87.87, 272.81 79.2, 280.42 68.87 M252.87 100.56 C260.24 92.45, 268.55 83.05, 280.42 68.87 M259.17 99.41 C266.87 90.59, 272.39 85.48, 280.16 75.26 M259.17 99.41 C264.93 91.49, 271.69 83.2, 280.16 75.26 M265.47 98.26 C270.73 93.2, 273.4 88.15, 279.24 82.42 M265.47 98.26 C269.15 93.9, 273.98 87.74, 279.24 82.42" stroke="#dee2e6" stroke-width="0.5" fill="none"></path><path d="M25 0 C71.73 0.42, 116.73 0.59, 255 0 M25 0 C87.73 0.11, 149.92 1.14, 255 0 M255 0 C270.37 0.53, 280.88 9.96, 280 25 M255 0 C271.87 0.56, 278.67 10.06, 280 25 M280 25 C281.31 34.13, 280.87 47.98, 280 75 M280 25 C279.16 44.16, 279.9 63.36, 280 75 M280 75 C280.6 90.07, 272.15 98.28, 255 100 M280 75 C278.31 91.73, 272.6 100.81, 255 100 M255 100 C206.29 101.75, 156.67 101.77, 25 100 M255 100 C205.19 102.44, 155.52 101.89, 25 100 M25 100 C6.45 99.71, -0.18 92.19, 0 75 M25 100 C10.16 99.98, 2.16 91.76, 0 75 M0 75 C-1.08 60.38, 0.9 44.79, 0 25 M0 75 C-0.65 61.82, 0.57 46.69, 0 25 M0 25 C0.44 10.33, 6.78 -1.31, 25 0 M0 25 C-0.62 6.26, 9.35 2.27, 25 0" stroke="#495057" stroke-width="1" fill="none"></path></g><g transform="translate(360 150) rotate(0 140 50)"><text x="140" y="0" font-family="Virgil, Segoe UI Emoji" font-size="12px" fill="#000000" text-anchor="middle" style="white-space: pre;" direction="ltr" dominant-baseline="text-before-edge">SimulationConfig</text><text x="140" y="25" font-family="Virgil, Segoe UI Emoji" font-size="12px" fill="#000000" text-anchor="middle" style="white-space: pre;" direction="ltr" dominant-baseline="text-before-edge">max_board_memory_bytes: usize</text><text x="140" y="50" font-family="Virgil, Segoe UI Emoji" font-size="12px" fill="#000000" text-anchor="middle" style="white-space: pre;" direction="ltr" dominant-baseline="text-before-edge">initial_board: InitialBoardSpec</text><text x="140" y="75" font-family="Virgil, Segoe UI Emoji" font-size="12px" fill="#000000" text-anchor="middle" style="white-space: pre;" direction="ltr" dominant-baseline="text-before-edge">board_size: BoardSize</text></g><g stroke-linecap="round"><g transform="translate(645 200) rotate(0 30 0)"><path d="M0 0 C12.86 0.84, 23.68 1.04, 60 0 M0 0 C16.52 -0.55, 32.41 0.67, 60 0" stroke="#1e1e1e" stroke-width="1" fill="none"></path></g><g transform="translate(645 200) rotate(0 30 0)"><path d="M31.9 10.51 C38.46 9.31, 42.91 7.41, 60 0 M31.9 10.51 C39.83 6.97, 47.05 5.33, 60 0" stroke="#1e1e1e" stroke-width="1" fill="none"></path></g><g transform="translate(645 200) rotate(0 30 0)"><path d="M31.72 -10.01 C38.15 -7.11, 42.63 -4.9, 60 0 M31.72 -10.01 C39.52 -7.96, 46.79 -4.02, 60 0" stroke="#1e1e1e" stroke-width="1" fill="none"></path></g></g><mask></mask><g stroke-linecap="round" transform="translate(710 150) rotate(0 175 50)"><path d="M6 6.54 C6 6.54, 6 6.54, 6 6.54 M6 6.54 C6 6.54, 6 6.54, 6 6.54 M0.88 24.62 C6.26 18.91, 15.19 8.53, 21.88 0.47 M0.88 24.62 C7.93 16.79, 15.52 8.35, 21.88 0.47 M1.02 36.66 C9.46 27.63, 14.27 20.04, 32.51 0.43 M1.02 36.66 C9.66 28.54, 16.07 19.09, 32.51 0.43 M1.15 48.7 C12.51 33.81, 24.01 22.66, 43.14 0.4 M1.15 48.7 C15.8 32.34, 29.48 15.69, 43.14 0.4 M1.28 60.74 C15.67 42.3, 30.8 27.27, 53.77 0.36 M1.28 60.74 C18.74 40.45, 37 21.29, 53.77 0.36 M1.42 72.78 C23.31 47.57, 40.99 25.54, 64.4 0.33 M1.42 72.78 C17.83 52.79, 34.95 34.49, 64.4 0.33 M1.55 84.82 C20.89 61.14, 41.05 38.3, 75.03 0.29 M1.55 84.82 C28.02 54.8, 54.72 23.63, 75.03 0.29 M5.62 92.33 C22.16 73.48, 40.23 50.12, 85.66 0.26 M5.62 92.33 C36.47 56.58, 69.55 19.43, 85.66 0.26 M11.66 97.58 C30.07 73.54, 49.89 51.56, 95.63 0.98 M11.66 97.58 C43.04 61.05, 73.47 25.28, 95.63 0.98 M20.32 99.81 C41.68 75.22, 63.88 52.36, 106.26 0.95 M20.32 99.81 C46.25 68.18, 74.06 37.42, 106.26 0.95 M30.29 100.53 C51.55 73.15, 78.19 46.79, 116.89 0.91 M30.29 100.53 C53.25 71.09, 79.22 44.66, 116.89 0.91 M40.92 100.5 C58.12 82.29, 73.52 58.6, 127.52 0.88 M40.92 100.5 C59.79 78.56, 80.43 55.35, 127.52 0.88 M51.55 100.46 C74.49 70.69, 100.87 41.94, 138.15 0.84 M51.55 100.46 C82.61 63.42, 114.08 25.99, 138.15 0.84 M62.18 100.43 C92.14 67.01, 124.52 31.14, 148.78 0.81 M62.18 100.43 C84.59 73.41, 109.22 45.64, 148.78 0.81 M72.81 100.4 C101.22 66.25, 130.6 34.6, 159.41 0.77 M72.81 100.4 C107.47 59.31, 141.63 20.16, 159.41 0.77 M83.44 100.36 C109.7 70.07, 133.58 41.23, 170.04 0.74 M83.44 100.36 C101.87 79.92, 119.82 58.32, 170.04 0.74 M94.07 100.33 C114.18 76.35, 135.33 50.27, 180.67 0.7 M94.07 100.33 C120.37 70.59, 147.21 40.94, 180.67 0.7 M104.7 100.29 C130.4 69.18, 156.29 39.4, 191.3 0.67 M104.7 100.29 C132.19 70.13, 159.54 36.84, 191.3 0.67 M115.33 100.26 C143.42 70.05, 171.13 36.03, 201.93 0.64 M115.33 100.26 C139.03 71.31, 164.49 41.61, 201.93 0.64 M125.96 100.22 C142.75 81.14, 163.31 58.93, 212.56 0.6 M125.96 100.22 C153.63 67.88, 180.82 38.4, 212.56 0.6 M136.59 100.19 C162.46 73.3, 186.63 42.46, 223.19 0.57 M136.59 100.19 C165.04 67.29, 194.91 34.28, 223.19 0.57 M147.22 100.15 C169.11 76.79, 191.28 49.17, 233.82 0.53 M147.22 100.15 C165.8 78.42, 185.13 57.89, 233.82 0.53 M157.85 100.12 C194.45 59.38, 228.59 20.52, 244.45 0.5 M157.85 100.12 C182.53 70.69, 208.98 40.5, 244.45 0.5 M168.48 100.08 C190.71 73.5, 213.85 45.69, 255.08 0.46 M168.48 100.08 C193.16 72.44, 217.63 43.86, 255.08 0.46 M179.11 100.05 C203.95 71.65, 226.32 45.83, 265.71 0.43 M179.11 100.05 C196.15 78.4, 214.27 59.78, 265.71 0.43 M189.74 100.02 C217.33 66.63, 248.01 35.95, 276.34 0.39 M189.74 100.02 C214.39 71.73, 237.94 41.97, 276.34 0.39 M200.37 99.98 C222.54 73.43, 245.9 51.13, 286.97 0.36 M200.37 99.98 C229.75 64.18, 260.69 29.76, 286.97 0.36 M211 99.95 C230.95 78.15, 254.45 53.81, 297.6 0.33 M211 99.95 C231.02 76.72, 251.38 52.73, 297.6 0.33 M221.63 99.91 C244.49 75.37, 266.63 47.14, 308.23 0.29 M221.63 99.91 C239.07 77.21, 258 56.34, 308.23 0.29 M232.26 99.88 C257.4 72.6, 281.8 41.69, 318.86 0.26 M232.26 99.88 C252.79 76, 273.65 51.03, 318.86 0.26 M242.24 100.6 C270.46 67.43, 303.98 32.79, 328.84 0.98 M242.24 100.6 C273.66 66.63, 302.21 32.93, 328.84 0.98 M252.87 100.56 C278.36 69.77, 304.32 41.39, 338.16 2.45 M252.87 100.56 C274.62 75.21, 297.53 49.29, 338.16 2.45 M263.5 100.53 C289.2 71.02, 315.34 39.49, 344.19 7.7 M263.5 100.53 C284.14 78.03, 305.49 53.93, 344.19 7.7 M274.13 100.49 C297.55 68.6, 326.59 42.67, 348.92 14.46 M274.13 100.49 C300.65 69.82, 328.33 39.22, 348.92 14.46 M284.76 100.46 C309.4 73.76, 332.98 46.05, 349.71 25.74 M284.76 100.46 C308.61 75.01, 331.14 48.91, 349.71 25.74 M295.39 100.43 C308.64 85.2, 324.5 69.49, 349.84 37.78 M295.39 100.43 C306.27 85.47, 319.04 72.1, 349.84 37.78 M306.02 100.39 C314.16 90.73, 321.94 79.75, 349.97 49.83 M306.02 100.39 C324.08 80.84, 341.13 60.88, 349.97 49.83 M316.65 100.36 C326.81 87.96, 337.04 79.53, 350.11 61.87 M316.65 100.36 C325.39 88.66, 335.33 77.98, 350.11 61.87 M327.28 100.32 C333.62 92.62, 341.17 86.96, 350.24 73.91 M327.28 100.32 C332.37 94.51, 337.35 88.45, 350.24 73.91" stroke="#b2f2bb" stroke-width="1" fill="none"></path><path d="M25 0 C85.63 0.26, 144.77 0.41, 325 0 M25 0 C106.74 0.3, 188.03 1.19, 325 0 M325 0 C340.37 0.53, 350.88 9.96, 350 25 M325 0 C341.87 0.56, 348.67 10.06, 350 25 M350 25 C351.31 34.13, 350.87 47.98, 350 75 M350 25 C349.16 44.16, 349.9 63.36, 350 75 M350 75 C350.6 90.07, 342.15 98.28, 325 100 M350 75 C348.31 91.73, 342.6 100.81, 325 100 M325 100 C261.07 102.02, 196.35 102.03, 25 100 M325 100 C260.11 102.58, 195.33 102.1, 25 100 M25 100 C6.45 99.71, -0.18 92.19, 0 75 M25 100 C10.16 99.98, 2.16 91.76, 0 75 M0 75 C-1.08 60.38, 0.9 44.79, 0 25 M0 75 C-0.65 61.82, 0.57 46.69, 0 25 M0 25 C0.44 10.33, 6.78 -1.31, 25 0 M0 25 C-0.62 6.26, 9.35 2.27, 25 0" stroke="#2f9e44" stroke-width="2" fill="none"></path></g><g transform="translate(710 150) rotate(0 175 50)"><text x="175" y="0" font-family="Cascadia, Segoe UI Emoji" font-size="12px" fill="#000000" text-anchor="middle" style="white-space: pre;" direction="ltr" dominant-baseline="text-before-edge">InMemoryBoard::try_new(w, h, max_bytes)</text><text x="175" y="25" font-family="Cascadia, Segoe UI Emoji" font-size="12px" fill="#000000" text-anchor="middle" style="white-space: pre;" direction="ltr" dominant-baseline="text-before-edge">allocation_bytes(w, h) =</text><text x="175" y="50" font-family="Cascadia, Segoe UI Emoji" font-size="12px" fill="#000000" text-anchor="middle" style="white-space: pre;" direction="ltr" dominant-baseline="text-before-edge">  w * h * size_of::&lt;CellState&gt;()</text><text x="175" y="75" font-family="Cascadia, Segoe UI Emoji" font-size="12px" fill="#000000" text-anchor="middle" style="white-space: pre;" direction="ltr" dominant-baseline="text-before-edge">reject if &gt; max_bytes</text></g><g transform="translate(10 280) rotate(0 525 15)"><text x="0" y="0" font-family="Virgil, Segoe UI Emoji" font-size="16px" fill="#000000" text-anchor="start" style="white-space: pre;" direction="ltr" dominant-baseline="text-before-edge">Three outcomes</text></g><g stroke-linecap="round" transform="translate(10 320) rotate(0 170 65)"><path d="M0 0 C0 0, 0 0, 0 0 M0 0 C0 0, 0 0, 0 0 M-0.26 6.4 C1.76 4.45, 3.11 2.54, 4.99 0.36 M-0.26 6.4 C2.08 3.89, 3.31 1.91, 4.99 0.36 M0.13 12.04 C1 8.94, 5.32 8.32, 10.63 -0.03 M0.13 12.04 C4.13 7.61, 6.9 5.23, 10.63 -0.03 M-0.13 18.44 C4.2 12.83, 8.54 8.18, 15.62 0.33 M-0.13 18.44 C2.87 14.4, 7.71 9.29, 15.62 0.33 M0.27 24.08 C6.49 14.7, 11.85 8.98, 21.26 -0.07 M0.27 24.08 C7.67 14.69, 15.12 6.76, 21.26 -0.07 M0 30.48 C9.63 18.52, 18.62 5.54, 26.25 0.29 M0 30.48 C7.35 23.63, 13.24 16.76, 26.25 0.29 M-0.26 36.88 C10.94 23.42, 24.08 8.82, 31.89 -0.1 M-0.26 36.88 C10 25.65, 19.11 14.52, 31.89 -0.1 M0.14 42.52 C11.15 31.18, 18.61 21.01, 36.88 0.26 M0.14 42.52 C13.13 28.1, 25.81 13.35, 36.88 0.26 M-0.12 48.92 C12.35 35.88, 23.78 22.96, 42.52 -0.14 M-0.12 48.92 C11.61 36.66, 23.17 22.72, 42.52 -0.14 M0.27 54.56 C15.34 33.85, 32.04 15.13, 47.51 0.22 M0.27 54.56 C8.83 45.06, 19.8 32.35, 47.51 0.22 M0.01 60.96 C14.03 42.83, 28.34 27.02, 53.15 -0.17 M0.01 60.96 C12.78 47.22, 26.41 31.8, 53.15 -0.17 M-0.25 67.36 C18.97 44.23, 39.97 23.06, 58.14 0.19 M-0.25 67.36 C19.51 45.36, 37.66 23.8, 58.14 0.19 M0.14 73 C13.62 56.79, 26.69 43.56, 63.78 -0.21 M0.14 73 C13.11 57.13, 26.84 43.22, 63.78 -0.21 M-0.12 79.4 C16.07 60.68, 30.45 46.16, 68.77 0.15 M-0.12 79.4 C21.11 52.85, 44.81 26.65, 68.77 0.15 M0.28 85.04 C15.53 65.14, 35.01 47.26, 74.41 -0.24 M0.28 85.04 C15.81 68.25, 31.92 49.94, 74.41 -0.24 M0.01 91.44 C21.15 66.71, 44.54 38.28, 79.4 0.12 M0.01 91.44 C20.97 65.5, 43.62 41.68, 79.4 0.12 M-0.25 97.84 C20.28 73.03, 43.66 46.09, 85.04 -0.28 M-0.25 97.84 C23.85 72.8, 46.33 45.91, 85.04 -0.28 M0.15 103.48 C32.16 66.6, 63.82 30.31, 90.03 0.08 M0.15 103.48 C28.81 70.42, 57.29 38.4, 90.03 0.08 M-0.11 109.88 C29.68 71.86, 63.9 37.64, 95.67 -0.31 M-0.11 109.88 C25.82 78.72, 54.14 46.73, 95.67 -0.31 M0.28 115.52 C34.83 75.92, 68.53 36.75, 100.66 0.05 M0.28 115.52 C26.55 87.03, 52.07 56.42, 100.66 0.05 M0.02 121.92 C29.6 85.85, 61.13 49.19, 106.3 -0.34 M0.02 121.92 C32.15 82.49, 67.21 44.46, 106.3 -0.34 M-0.24 128.32 C21.69 99.67, 45.51 73.27, 111.29 0.02 M-0.24 128.32 C22.2 101.14, 45.11 74.81, 111.29 0.02 M3.43 130.19 C40.3 90.53, 71.29 50.98, 116.27 0.38 M3.43 130.19 C37.52 90.18, 73.81 48.56, 116.27 0.38 M8.42 130.55 C44.73 87.65, 80.83 46.7, 121.92 -0.02 M8.42 130.55 C43.03 88.2, 79.03 47.34, 121.92 -0.02 M14.06 130.15 C47.49 94.79, 78.22 55.02, 126.91 0.34 M14.06 130.15 C58.31 79.28, 102.39 28.61, 126.91 0.34 M19.05 130.51 C42.87 101.06, 70.36 72.21, 132.55 -0.05 M19.05 130.51 C46.05 99.82, 73.12 68.63, 132.55 -0.05 M24.69 130.12 C56.75 92.19, 88.29 53.25, 137.54 0.31 M24.69 130.12 C62.29 87.75, 98.94 47.5, 137.54 0.31 M29.68 130.48 C62.89 95.02, 93.35 58.94, 143.18 -0.09 M29.68 130.48 C61.52 94.12, 92.48 58.89, 143.18 -0.09 M34.67 130.84 C74.52 82.84, 116.17 36.95, 148.17 0.27 M34.67 130.84 C68.77 93.16, 100.74 55.93, 148.17 0.27 M40.31 130.44 C69.08 96.32, 96.93 62.72, 153.81 -0.12 M40.31 130.44 C64.53 101.3, 88.01 73.6, 153.81 -0.12 M45.3 130.8 C74.02 95.66, 105.87 60.86, 158.8 0.24 M45.3 130.8 C79.36 89.52, 116.04 50.62, 158.8 0.24 M50.94 130.41 C84.37 91.44, 119.75 52.24, 164.44 -0.16 M50.94 130.41 C85.11 89.83, 121.12 49.75, 164.44 -0.16 M55.93 130.77 C92.5 87.5, 131.25 43.43, 169.43 0.2 M55.93 130.77 C78.73 103.4, 100.52 76.23, 169.43 0.2 M61.57 130.37 C106.44 79.52, 151.38 27.19, 175.07 -0.19 M61.57 130.37 C97.91 88.97, 133.25 47.79, 175.07 -0.19 M66.56 130.73 C91.48 101.28, 119.99 71.63, 180.06 0.17 M66.56 130.73 C94.29 98.73, 121.62 65.73, 180.06 0.17 M72.2 130.34 C103.5 93.75, 136.7 56.75, 185.7 -0.23 M72.2 130.34 C97.39 103.74, 118.51 77.3, 185.7 -0.23 M77.19 130.7 C100.7 105.73, 121.27 78.65, 190.69 0.13 M77.19 130.7 C111.14 92.27, 143.59 53.08, 190.69 0.13 M82.83 130.3 C123.92 81.81, 163.71 34.54, 196.33 -0.26 M82.83 130.3 C115.26 91.18, 148.48 54.15, 196.33 -0.26 M87.82 130.66 C112.31 102.23, 137.82 76.32, 201.32 0.1 M87.82 130.66 C119.91 94.84, 152 57.25, 201.32 0.1 M93.46 130.27 C134.57 81.65, 174.34 32.08, 206.96 -0.3 M93.46 130.27 C128.07 92.3, 159.62 53.93, 206.96 -0.3 M98.45 130.63 C121.4 104.28, 144.47 79.39, 211.95 0.06 M98.45 130.63 C134.4 88.31, 168.81 48.08, 211.95 0.06 M104.09 130.23 C137.12 91.64, 170.82 51.51, 217.59 -0.33 M104.09 130.23 C132.57 95.87, 162.83 60.27, 217.59 -0.33 M109.08 130.6 C136.24 97.83, 165.75 68.78, 222.58 0.03 M109.08 130.6 C147.25 84.45, 187.93 40.37, 222.58 0.03 M114.72 130.2 C147.91 92, 184.31 51.97, 228.22 -0.36 M114.72 130.2 C148.28 92.8, 181.91 56.41, 228.22 -0.36 M119.71 130.56 C165.06 80.94, 211.35 28.33, 233.21 0 M119.71 130.56 C158.8 86.2, 197.47 40.01, 233.21 0 M125.35 130.17 C168.26 82.14, 210.8 30.53, 238.19 0.36 M125.35 130.17 C164.09 84.01, 204.61 38.32, 238.19 0.36 M130.34 130.53 C156.16 102.47, 179.45 72.76, 243.84 -0.04 M130.34 130.53 C167.67 87.76, 203.67 45.11, 243.84 -0.04 M135.98 130.13 C164.36 94.59, 196.81 59.82, 248.82 0.32 M135.98 130.13 C168.26 91.81, 202.28 54.1, 248.82 0.32 M140.97 130.49 C169.89 95.08, 202.95 60.81, 254.47 -0.07 M140.97 130.49 C174.22 90.98, 206.94 53.39, 254.47 -0.07 M146.61 130.1 C190.77 79.29, 231.14 29.01, 259.45 0.29 M146.61 130.1 C174.51 99.46, 201.12 69.94, 259.45 0.29 M151.6 130.46 C177.11 101.92, 200.29 74.03, 265.1 -0.11 M151.6 130.46 C185.7 91.3, 218.47 51.05, 265.1 -0.11 M156.58 130.82 C186.14 96.5, 220.29 58.31, 270.08 0.25 M156.58 130.82 C198.62 83.6, 239.97 36.42, 270.08 0.25 M162.23 130.42 C200.9 86.17, 239.39 42.45, 275.73 -0.14 M162.23 130.42 C186.36 103.65, 210.23 77.86, 275.73 -0.14 M167.22 130.78 C208.91 86.99, 247.2 41.43, 280.71 0.22 M167.22 130.78 C207.78 84.34, 248.09 36.73, 280.71 0.22 M172.86 130.39 C214.82 82.36, 259.13 31.51, 286.36 -0.18 M172.86 130.39 C209.56 89.75, 244.49 47.09, 286.36 -0.18 M177.85 130.75 C217.68 85.91, 255.15 41.2, 291.34 0.18 M177.85 130.75 C217.97 86.4, 257.54 39.45, 291.34 0.18 M183.49 130.35 C223.12 89.91, 256.89 44.26, 296.99 -0.21 M183.49 130.35 C221.46 87.87, 256.77 46.85, 296.99 -0.21 M188.48 130.71 C220.64 92.39, 254.36 54.87, 301.97 0.15 M188.48 130.71 C231.13 84.48, 270.92 35.74, 301.97 0.15 M194.12 130.32 C222.17 99.53, 250.76 68.75, 307.62 -0.25 M194.12 130.32 C237.94 80.53, 283.49 28.19, 307.62 -0.25 M199.11 130.68 C236.87 89.11, 276.12 42.43, 312.6 0.11 M199.11 130.68 C228.76 96.98, 259.95 62.09, 312.6 0.11 M204.75 130.28 C229.55 103.75, 253.16 77.65, 318.25 -0.28 M204.75 130.28 C234.56 94.67, 265.88 60.78, 318.25 -0.28 M209.74 130.64 C245.17 91.26, 276.88 52.89, 323.23 0.08 M209.74 130.64 C237.66 100.35, 265.8 67.24, 323.23 0.08 M215.38 130.25 C261.59 79.56, 303.84 29.85, 328.88 -0.31 M215.38 130.25 C254.53 86.19, 292.71 41.82, 328.88 -0.31 M220.37 130.61 C259.3 86.82, 296.97 45.14, 333.86 0.05 M220.37 130.61 C255.02 90.76, 289.51 51.26, 333.86 0.05 M226.01 130.22 C267.87 84.67, 308.84 34.07, 339.51 -0.35 M226.01 130.22 C251.33 102.84, 274.72 74.76, 339.51 -0.35 M231 130.58 C258.55 99.12, 286.71 67.06, 340.56 4.54 M231 130.58 C273.76 82.65, 315.15 34.65, 340.56 4.54 M236.64 130.18 C257.25 106.8, 281.34 80.95, 340.3 10.94 M236.64 130.18 C270.38 92.76, 304.08 53.6, 340.3 10.94 M241.63 130.54 C262.76 106.57, 286.4 78.1, 340.03 17.33 M241.63 130.54 C262.64 104.97, 284.63 79.11, 340.03 17.33 M247.27 130.15 C265.35 105.72, 285.25 85.16, 340.43 22.98 M247.27 130.15 C275.06 95.17, 304.86 62.54, 340.43 22.98 M252.26 130.51 C277.57 103.64, 299.04 75.28, 340.17 29.38 M252.26 130.51 C281.25 96.78, 310.71 64.62, 340.17 29.38 M257.9 130.11 C287.51 99.96, 313.45 64.89, 340.56 35.02 M257.9 130.11 C282.54 102.77, 305.86 74.67, 340.56 35.02 M262.89 130.47 C291.41 100.41, 320.38 66.35, 340.3 41.42 M262.89 130.47 C292.45 97.28, 321.87 63.31, 340.3 41.42 M267.87 130.83 C292.36 99.4, 319.37 68.4, 340.04 47.81 M267.87 130.83 C292.4 104.55, 315.34 77.23, 340.04 47.81 M273.52 130.44 C293.34 106.54, 315.32 83.35, 340.43 53.46 M273.52 130.44 C287.95 114.19, 303.92 96.21, 340.43 53.46 M278.5 130.8 C289.86 117.35, 302.18 100.74, 340.17 59.86 M278.5 130.8 C300.99 105.17, 322.83 78.33, 340.17 59.86 M284.15 130.4 C298.05 113.37, 314.8 95.51, 340.57 65.5 M284.15 130.4 C300.35 112.48, 315.56 93.21, 340.57 65.5 M289.13 130.76 C304.54 113.48, 320.34 91.21, 340.31 71.9 M289.13 130.76 C306.73 110.12, 324.09 90.6, 340.31 71.9 M294.78 130.37 C310.4 114.02, 322.71 97.21, 340.04 78.29 M294.78 130.37 C311.71 111.88, 328.21 93.26, 340.04 78.29 M299.76 130.73 C310.29 118.1, 325.7 100.24, 340.44 83.94 M299.76 130.73 C310.67 118.69, 319.26 107.83, 340.44 83.94 M305.41 130.33 C316.86 116.82, 331.39 99.47, 340.18 90.33 M305.41 130.33 C314.01 121.35, 321.9 112.16, 340.18 90.33 M310.39 130.69 C320.5 120.65, 330.17 105.52, 340.57 95.98 M310.39 130.69 C317.7 121.78, 325.1 113.82, 340.57 95.98 M316.04 130.3 C322.94 122.21, 330.18 111.98, 340.31 102.38 M316.04 130.3 C322.5 124.19, 326.02 118.84, 340.31 102.38 M321.02 130.66 C325.15 123.49, 333.27 116.75, 340.05 108.77 M321.02 130.66 C326.14 125.43, 329.59 121.77, 340.05 108.77 M326.67 130.27 C329.7 127.95, 333.25 122.55, 340.44 114.42 M326.67 130.27 C330.63 125.48, 335.28 121.74, 340.44 114.42 M331.65 130.63 C334.67 126.94, 338.51 124.16, 340.18 120.81 M331.65 130.63 C334.89 127.17, 337.28 124.7, 340.18 120.81 M337.3 130.23 C338.59 128.95, 338.66 128.03, 340.58 126.46 M337.3 130.23 C338.35 129.18, 339.03 128.18, 340.58 126.46" stroke="#b2f2bb" stroke-width="0.5" fill="none"></path><path d="M0 0 C68.57 0.18, 135.79 0.32, 340 0 M0 0 C92.61 0.38, 184.8 1.19, 340 0 M340 0 C341.97 30.74, 340.83 59.97, 340 130 M340 0 C339.16 49.55, 338.05 98.12, 340 130 M340 130 C218.01 127.56, 93.75 128.56, 0 130 M340 130 C258.25 127.62, 175.69 128.21, 0 130 M0 130 C0.06 87.69, 0.59 41.21, 0 0 M0 130 C-0.24 85.22, -0.08 39.36, 0 0" stroke="#2f9e44" stroke-width="1" fill="none"></path></g><g transform="translate(10 320) rotate(0 170 65)"><text x="170" y="0" font-family="Virgil, Segoe UI Emoji" font-size="13px" fill="#000000" text-anchor="middle" style="white-space: pre;" direction="ltr" dominant-baseline="text-before-edge">1. Fits</text><text x="170" y="43.333333333333336" font-family="Virgil, Segoe UI Emoji" font-size="13px" fill="#000000" text-anchor="middle" style="white-space: pre;" direction="ltr" dominant-baseline="text-before-edge">Allocate Vec&lt;CellState&gt;;</text><text x="170" y="86.66666666666667" font-family="Virgil, Segoe UI Emoji" font-size="13px" fill="#000000" text-anchor="middle" style="white-space: pre;" direction="ltr" dominant-baseline="text-before-edge">run in memory normally.</text></g><g stroke-linecap="round" transform="translate(370 320) rotate(0 170 65)"><path d="M0 0 C0 0, 0 0, 0 0 M0 0 C0 0, 0 0, 0 0 M-0.26 6.4 C1.76 4.45, 3.11 2.54, 4.99 0.36 M-0.26 6.4 C2.08 3.89, 3.31 1.91, 4.99 0.36 M0.13 12.04 C1 8.94, 5.32 8.32, 10.63 -0.03 M0.13 12.04 C4.13 7.61, 6.9 5.23, 10.63 -0.03 M-0.13 18.44 C4.2 12.83, 8.54 8.18, 15.62 0.33 M-0.13 18.44 C2.87 14.4, 7.71 9.29, 15.62 0.33 M0.27 24.08 C6.49 14.7, 11.85 8.98, 21.26 -0.07 M0.27 24.08 C7.67 14.69, 15.12 6.76, 21.26 -0.07 M0 30.48 C9.63 18.52, 18.62 5.54, 26.25 0.29 M0 30.48 C7.35 23.63, 13.24 16.76, 26.25 0.29 M-0.26 36.88 C10.94 23.42, 24.08 8.82, 31.89 -0.1 M-0.26 36.88 C10 25.65, 19.11 14.52, 31.89 -0.1 M0.14 42.52 C11.15 31.18, 18.61 21.01, 36.88 0.26 M0.14 42.52 C13.13 28.1, 25.81 13.35, 36.88 0.26 M-0.12 48.92 C12.35 35.88, 23.78 22.96, 42.52 -0.14 M-0.12 48.92 C11.61 36.66, 23.17 22.72, 42.52 -0.14 M0.27 54.56 C15.34 33.85, 32.04 15.13, 47.51 0.22 M0.27 54.56 C8.83 45.06, 19.8 32.35, 47.51 0.22 M0.01 60.96 C14.03 42.83, 28.34 27.02, 53.15 -0.17 M0.01 60.96 C12.78 47.22, 26.41 31.8, 53.15 -0.17 M-0.25 67.36 C18.97 44.23, 39.97 23.06, 58.14 0.19 M-0.25 67.36 C19.51 45.36, 37.66 23.8, 58.14 0.19 M0.14 73 C13.62 56.79, 26.69 43.56, 63.78 -0.21 M0.14 73 C13.11 57.13, 26.84 43.22, 63.78 -0.21 M-0.12 79.4 C16.07 60.68, 30.45 46.16, 68.77 0.15 M-0.12 79.4 C21.11 52.85, 44.81 26.65, 68.77 0.15 M0.28 85.04 C15.53 65.14, 35.01 47.26, 74.41 -0.24 M0.28 85.04 C15.81 68.25, 31.92 49.94, 74.41 -0.24 M0.01 91.44 C21.15 66.71, 44.54 38.28, 79.4 0.12 M0.01 91.44 C20.97 65.5, 43.62 41.68, 79.4 0.12 M-0.25 97.84 C20.28 73.03, 43.66 46.09, 85.04 -0.28 M-0.25 97.84 C23.85 72.8, 46.33 45.91, 85.04 -0.28 M0.15 103.48 C32.16 66.6, 63.82 30.31, 90.03 0.08 M0.15 103.48 C28.81 70.42, 57.29 38.4, 90.03 0.08 M-0.11 109.88 C29.68 71.86, 63.9 37.64, 95.67 -0.31 M-0.11 109.88 C25.82 78.72, 54.14 46.73, 95.67 -0.31 M0.28 115.52 C34.83 75.92, 68.53 36.75, 100.66 0.05 M0.28 115.52 C26.55 87.03, 52.07 56.42, 100.66 0.05 M0.02 121.92 C29.6 85.85, 61.13 49.19, 106.3 -0.34 M0.02 121.92 C32.15 82.49, 67.21 44.46, 106.3 -0.34 M-0.24 128.32 C21.69 99.67, 45.51 73.27, 111.29 0.02 M-0.24 128.32 C22.2 101.14, 45.11 74.81, 111.29 0.02 M3.43 130.19 C40.3 90.53, 71.29 50.98, 116.27 0.38 M3.43 130.19 C37.52 90.18, 73.81 48.56, 116.27 0.38 M8.42 130.55 C44.73 87.65, 80.83 46.7, 121.92 -0.02 M8.42 130.55 C43.03 88.2, 79.03 47.34, 121.92 -0.02 M14.06 130.15 C47.49 94.79, 78.22 55.02, 126.91 0.34 M14.06 130.15 C58.31 79.28, 102.39 28.61, 126.91 0.34 M19.05 130.51 C42.87 101.06, 70.36 72.21, 132.55 -0.05 M19.05 130.51 C46.05 99.82, 73.12 68.63, 132.55 -0.05 M24.69 130.12 C56.75 92.19, 88.29 53.25, 137.54 0.31 M24.69 130.12 C62.29 87.75, 98.94 47.5, 137.54 0.31 M29.68 130.48 C62.89 95.02, 93.35 58.94, 143.18 -0.09 M29.68 130.48 C61.52 94.12, 92.48 58.89, 143.18 -0.09 M34.67 130.84 C74.52 82.84, 116.17 36.95, 148.17 0.27 M34.67 130.84 C68.77 93.16, 100.74 55.93, 148.17 0.27 M40.31 130.44 C69.08 96.32, 96.93 62.72, 153.81 -0.12 M40.31 130.44 C64.53 101.3, 88.01 73.6, 153.81 -0.12 M45.3 130.8 C74.02 95.66, 105.87 60.86, 158.8 0.24 M45.3 130.8 C79.36 89.52, 116.04 50.62, 158.8 0.24 M50.94 130.41 C84.37 91.44, 119.75 52.24, 164.44 -0.16 M50.94 130.41 C85.11 89.83, 121.12 49.75, 164.44 -0.16 M55.93 130.77 C92.5 87.5, 131.25 43.43, 169.43 0.2 M55.93 130.77 C78.73 103.4, 100.52 76.23, 169.43 0.2 M61.57 130.37 C106.44 79.52, 151.38 27.19, 175.07 -0.19 M61.57 130.37 C97.91 88.97, 133.25 47.79, 175.07 -0.19 M66.56 130.73 C91.48 101.28, 119.99 71.63, 180.06 0.17 M66.56 130.73 C94.29 98.73, 121.62 65.73, 180.06 0.17 M72.2 130.34 C103.5 93.75, 136.7 56.75, 185.7 -0.23 M72.2 130.34 C97.39 103.74, 118.51 77.3, 185.7 -0.23 M77.19 130.7 C100.7 105.73, 121.27 78.65, 190.69 0.13 M77.19 130.7 C111.14 92.27, 143.59 53.08, 190.69 0.13 M82.83 130.3 C123.92 81.81, 163.71 34.54, 196.33 -0.26 M82.83 130.3 C115.26 91.18, 148.48 54.15, 196.33 -0.26 M87.82 130.66 C112.31 102.23, 137.82 76.32, 201.32 0.1 M87.82 130.66 C119.91 94.84, 152 57.25, 201.32 0.1 M93.46 130.27 C134.57 81.65, 174.34 32.08, 206.96 -0.3 M93.46 130.27 C128.07 92.3, 159.62 53.93, 206.96 -0.3 M98.45 130.63 C121.4 104.28, 144.47 79.39, 211.95 0.06 M98.45 130.63 C134.4 88.31, 168.81 48.08, 211.95 0.06 M104.09 130.23 C137.12 91.64, 170.82 51.51, 217.59 -0.33 M104.09 130.23 C132.57 95.87, 162.83 60.27, 217.59 -0.33 M109.08 130.6 C136.24 97.83, 165.75 68.78, 222.58 0.03 M109.08 130.6 C147.25 84.45, 187.93 40.37, 222.58 0.03 M114.72 130.2 C147.91 92, 184.31 51.97, 228.22 -0.36 M114.72 130.2 C148.28 92.8, 181.91 56.41, 228.22 -0.36 M119.71 130.56 C165.06 80.94, 211.35 28.33, 233.21 0 M119.71 130.56 C158.8 86.2, 197.47 40.01, 233.21 0 M125.35 130.17 C168.26 82.14, 210.8 30.53, 238.19 0.36 M125.35 130.17 C164.09 84.01, 204.61 38.32, 238.19 0.36 M130.34 130.53 C156.16 102.47, 179.45 72.76, 243.84 -0.04 M130.34 130.53 C167.67 87.76, 203.67 45.11, 243.84 -0.04 M135.98 130.13 C164.36 94.59, 196.81 59.82, 248.82 0.32 M135.98 130.13 C168.26 91.81, 202.28 54.1, 248.82 0.32 M140.97 130.49 C169.89 95.08, 202.95 60.81, 254.47 -0.07 M140.97 130.49 C174.22 90.98, 206.94 53.39, 254.47 -0.07 M146.61 130.1 C190.77 79.29, 231.14 29.01, 259.45 0.29 M146.61 130.1 C174.51 99.46, 201.12 69.94, 259.45 0.29 M151.6 130.46 C177.11 101.92, 200.29 74.03, 265.1 -0.11 M151.6 130.46 C185.7 91.3, 218.47 51.05, 265.1 -0.11 M156.58 130.82 C186.14 96.5, 220.29 58.31, 270.08 0.25 M156.58 130.82 C198.62 83.6, 239.97 36.42, 270.08 0.25 M162.23 130.42 C200.9 86.17, 239.39 42.45, 275.73 -0.14 M162.23 130.42 C186.36 103.65, 210.23 77.86, 275.73 -0.14 M167.22 130.78 C208.91 86.99, 247.2 41.43, 280.71 0.22 M167.22 130.78 C207.78 84.34, 248.09 36.73, 280.71 0.22 M172.86 130.39 C214.82 82.36, 259.13 31.51, 286.36 -0.18 M172.86 130.39 C209.56 89.75, 244.49 47.09, 286.36 -0.18 M177.85 130.75 C217.68 85.91, 255.15 41.2, 291.34 0.18 M177.85 130.75 C217.97 86.4, 257.54 39.45, 291.34 0.18 M183.49 130.35 C223.12 89.91, 256.89 44.26, 296.99 -0.21 M183.49 130.35 C221.46 87.87, 256.77 46.85, 296.99 -0.21 M188.48 130.71 C220.64 92.39, 254.36 54.87, 301.97 0.15 M188.48 130.71 C231.13 84.48, 270.92 35.74, 301.97 0.15 M194.12 130.32 C222.17 99.53, 250.76 68.75, 307.62 -0.25 M194.12 130.32 C237.94 80.53, 283.49 28.19, 307.62 -0.25 M199.11 130.68 C236.87 89.11, 276.12 42.43, 312.6 0.11 M199.11 130.68 C228.76 96.98, 259.95 62.09, 312.6 0.11 M204.75 130.28 C229.55 103.75, 253.16 77.65, 318.25 -0.28 M204.75 130.28 C234.56 94.67, 265.88 60.78, 318.25 -0.28 M209.74 130.64 C245.17 91.26, 276.88 52.89, 323.23 0.08 M209.74 130.64 C237.66 100.35, 265.8 67.24, 323.23 0.08 M215.38 130.25 C261.59 79.56, 303.84 29.85, 328.88 -0.31 M215.38 130.25 C254.53 86.19, 292.71 41.82, 328.88 -0.31 M220.37 130.61 C259.3 86.82, 296.97 45.14, 333.86 0.05 M220.37 130.61 C255.02 90.76, 289.51 51.26, 333.86 0.05 M226.01 130.22 C267.87 84.67, 308.84 34.07, 339.51 -0.35 M226.01 130.22 C251.33 102.84, 274.72 74.76, 339.51 -0.35 M231 130.58 C258.55 99.12, 286.71 67.06, 340.56 4.54 M231 130.58 C273.76 82.65, 315.15 34.65, 340.56 4.54 M236.64 130.18 C257.25 106.8, 281.34 80.95, 340.3 10.94 M236.64 130.18 C270.38 92.76, 304.08 53.6, 340.3 10.94 M241.63 130.54 C262.76 106.57, 286.4 78.1, 340.03 17.33 M241.63 130.54 C262.64 104.97, 284.63 79.11, 340.03 17.33 M247.27 130.15 C265.35 105.72, 285.25 85.16, 340.43 22.98 M247.27 130.15 C275.06 95.17, 304.86 62.54, 340.43 22.98 M252.26 130.51 C277.57 103.64, 299.04 75.28, 340.17 29.38 M252.26 130.51 C281.25 96.78, 310.71 64.62, 340.17 29.38 M257.9 130.11 C287.51 99.96, 313.45 64.89, 340.56 35.02 M257.9 130.11 C282.54 102.77, 305.86 74.67, 340.56 35.02 M262.89 130.47 C291.41 100.41, 320.38 66.35, 340.3 41.42 M262.89 130.47 C292.45 97.28, 321.87 63.31, 340.3 41.42 M267.87 130.83 C292.36 99.4, 319.37 68.4, 340.04 47.81 M267.87 130.83 C292.4 104.55, 315.34 77.23, 340.04 47.81 M273.52 130.44 C293.34 106.54, 315.32 83.35, 340.43 53.46 M273.52 130.44 C287.95 114.19, 303.92 96.21, 340.43 53.46 M278.5 130.8 C289.86 117.35, 302.18 100.74, 340.17 59.86 M278.5 130.8 C300.99 105.17, 322.83 78.33, 340.17 59.86 M284.15 130.4 C298.05 113.37, 314.8 95.51, 340.57 65.5 M284.15 130.4 C300.35 112.48, 315.56 93.21, 340.57 65.5 M289.13 130.76 C304.54 113.48, 320.34 91.21, 340.31 71.9 M289.13 130.76 C306.73 110.12, 324.09 90.6, 340.31 71.9 M294.78 130.37 C310.4 114.02, 322.71 97.21, 340.04 78.29 M294.78 130.37 C311.71 111.88, 328.21 93.26, 340.04 78.29 M299.76 130.73 C310.29 118.1, 325.7 100.24, 340.44 83.94 M299.76 130.73 C310.67 118.69, 319.26 107.83, 340.44 83.94 M305.41 130.33 C316.86 116.82, 331.39 99.47, 340.18 90.33 M305.41 130.33 C314.01 121.35, 321.9 112.16, 340.18 90.33 M310.39 130.69 C320.5 120.65, 330.17 105.52, 340.57 95.98 M310.39 130.69 C317.7 121.78, 325.1 113.82, 340.57 95.98 M316.04 130.3 C322.94 122.21, 330.18 111.98, 340.31 102.38 M316.04 130.3 C322.5 124.19, 326.02 118.84, 340.31 102.38 M321.02 130.66 C325.15 123.49, 333.27 116.75, 340.05 108.77 M321.02 130.66 C326.14 125.43, 329.59 121.77, 340.05 108.77 M326.67 130.27 C329.7 127.95, 333.25 122.55, 340.44 114.42 M326.67 130.27 C330.63 125.48, 335.28 121.74, 340.44 114.42 M331.65 130.63 C334.67 126.94, 338.51 124.16, 340.18 120.81 M331.65 130.63 C334.89 127.17, 337.28 124.7, 340.18 120.81 M337.3 130.23 C338.59 128.95, 338.66 128.03, 340.58 126.46 M337.3 130.23 C338.35 129.18, 339.03 128.18, 340.58 126.46" stroke="#fff3bf" stroke-width="0.5" fill="none"></path><path d="M0 0 C68.57 0.18, 135.79 0.32, 340 0 M0 0 C92.61 0.38, 184.8 1.19, 340 0 M340 0 C341.97 30.74, 340.83 59.97, 340 130 M340 0 C339.16 49.55, 338.05 98.12, 340 130 M340 130 C218.01 127.56, 93.75 128.56, 0 130 M340 130 C258.25 127.62, 175.69 128.21, 0 130 M0 130 C0.06 87.69, 0.59 41.21, 0 0 M0 130 C-0.24 85.22, -0.08 39.36, 0 0" stroke="#e67700" stroke-width="1" fill="none"></path></g><g transform="translate(370 320) rotate(0 170 65)"><text x="170" y="0" font-family="Virgil, Segoe UI Emoji" font-size="12px" fill="#000000" text-anchor="middle" style="white-space: pre;" direction="ltr" dominant-baseline="text-before-edge">2. Exceeds --max-board-memory</text><text x="170" y="18.571428571428573" font-family="Virgil, Segoe UI Emoji" font-size="12px" fill="#000000" text-anchor="middle" style="white-space: pre;" direction="ltr" dominant-baseline="text-before-edge">MemoryBudgetExceeded</text><text x="170" y="37.142857142857146" font-family="Virgil, Segoe UI Emoji" font-size="12px" fill="#000000" text-anchor="middle" style="white-space: pre;" direction="ltr" dominant-baseline="text-before-edge">with suggest_memory_override</text><text x="170" y="55.71428571428572" font-family="Virgil, Segoe UI Emoji" font-size="12px" fill="#000000" text-anchor="middle" style="white-space: pre;" direction="ltr" dominant-baseline="text-before-edge">(e.g. 'try --max-board-memory 2MB')</text><text x="170" y="74.28571428571429" font-family="Virgil, Segoe UI Emoji" font-size="12px" fill="#000000" text-anchor="middle" style="white-space: pre;" direction="ltr" dominant-baseline="text-before-edge"></text><text x="170" y="92.85714285714286" font-family="Virgil, Segoe UI Emoji" font-size="12px" fill="#000000" text-anchor="middle" style="white-space: pre;" direction="ltr" dominant-baseline="text-before-edge">Streaming PR: --initial-board auto-</text><text x="170" y="111.42857142857144" font-family="Virgil, Segoe UI Emoji" font-size="12px" fill="#000000" text-anchor="middle" style="white-space: pre;" direction="ltr" dominant-baseline="text-before-edge">promotes to StreamingBoard here.</text></g><g stroke-linecap="round" transform="translate(730 320) rotate(0 170 65)"><path d="M0 0 C0 0, 0 0, 0 0 M0 0 C0 0, 0 0, 0 0 M-0.26 6.4 C1.76 4.45, 3.11 2.54, 4.99 0.36 M-0.26 6.4 C2.08 3.89, 3.31 1.91, 4.99 0.36 M0.13 12.04 C1 8.94, 5.32 8.32, 10.63 -0.03 M0.13 12.04 C4.13 7.61, 6.9 5.23, 10.63 -0.03 M-0.13 18.44 C4.2 12.83, 8.54 8.18, 15.62 0.33 M-0.13 18.44 C2.87 14.4, 7.71 9.29, 15.62 0.33 M0.27 24.08 C6.49 14.7, 11.85 8.98, 21.26 -0.07 M0.27 24.08 C7.67 14.69, 15.12 6.76, 21.26 -0.07 M0 30.48 C9.63 18.52, 18.62 5.54, 26.25 0.29 M0 30.48 C7.35 23.63, 13.24 16.76, 26.25 0.29 M-0.26 36.88 C10.94 23.42, 24.08 8.82, 31.89 -0.1 M-0.26 36.88 C10 25.65, 19.11 14.52, 31.89 -0.1 M0.14 42.52 C11.15 31.18, 18.61 21.01, 36.88 0.26 M0.14 42.52 C13.13 28.1, 25.81 13.35, 36.88 0.26 M-0.12 48.92 C12.35 35.88, 23.78 22.96, 42.52 -0.14 M-0.12 48.92 C11.61 36.66, 23.17 22.72, 42.52 -0.14 M0.27 54.56 C15.34 33.85, 32.04 15.13, 47.51 0.22 M0.27 54.56 C8.83 45.06, 19.8 32.35, 47.51 0.22 M0.01 60.96 C14.03 42.83, 28.34 27.02, 53.15 -0.17 M0.01 60.96 C12.78 47.22, 26.41 31.8, 53.15 -0.17 M-0.25 67.36 C18.97 44.23, 39.97 23.06, 58.14 0.19 M-0.25 67.36 C19.51 45.36, 37.66 23.8, 58.14 0.19 M0.14 73 C13.62 56.79, 26.69 43.56, 63.78 -0.21 M0.14 73 C13.11 57.13, 26.84 43.22, 63.78 -0.21 M-0.12 79.4 C16.07 60.68, 30.45 46.16, 68.77 0.15 M-0.12 79.4 C21.11 52.85, 44.81 26.65, 68.77 0.15 M0.28 85.04 C15.53 65.14, 35.01 47.26, 74.41 -0.24 M0.28 85.04 C15.81 68.25, 31.92 49.94, 74.41 -0.24 M0.01 91.44 C21.15 66.71, 44.54 38.28, 79.4 0.12 M0.01 91.44 C20.97 65.5, 43.62 41.68, 79.4 0.12 M-0.25 97.84 C20.28 73.03, 43.66 46.09, 85.04 -0.28 M-0.25 97.84 C23.85 72.8, 46.33 45.91, 85.04 -0.28 M0.15 103.48 C32.16 66.6, 63.82 30.31, 90.03 0.08 M0.15 103.48 C28.81 70.42, 57.29 38.4, 90.03 0.08 M-0.11 109.88 C29.68 71.86, 63.9 37.64, 95.67 -0.31 M-0.11 109.88 C25.82 78.72, 54.14 46.73, 95.67 -0.31 M0.28 115.52 C34.83 75.92, 68.53 36.75, 100.66 0.05 M0.28 115.52 C26.55 87.03, 52.07 56.42, 100.66 0.05 M0.02 121.92 C29.6 85.85, 61.13 49.19, 106.3 -0.34 M0.02 121.92 C32.15 82.49, 67.21 44.46, 106.3 -0.34 M-0.24 128.32 C21.69 99.67, 45.51 73.27, 111.29 0.02 M-0.24 128.32 C22.2 101.14, 45.11 74.81, 111.29 0.02 M3.43 130.19 C40.3 90.53, 71.29 50.98, 116.27 0.38 M3.43 130.19 C37.52 90.18, 73.81 48.56, 116.27 0.38 M8.42 130.55 C44.73 87.65, 80.83 46.7, 121.92 -0.02 M8.42 130.55 C43.03 88.2, 79.03 47.34, 121.92 -0.02 M14.06 130.15 C47.49 94.79, 78.22 55.02, 126.91 0.34 M14.06 130.15 C58.31 79.28, 102.39 28.61, 126.91 0.34 M19.05 130.51 C42.87 101.06, 70.36 72.21, 132.55 -0.05 M19.05 130.51 C46.05 99.82, 73.12 68.63, 132.55 -0.05 M24.69 130.12 C56.75 92.19, 88.29 53.25, 137.54 0.31 M24.69 130.12 C62.29 87.75, 98.94 47.5, 137.54 0.31 M29.68 130.48 C62.89 95.02, 93.35 58.94, 143.18 -0.09 M29.68 130.48 C61.52 94.12, 92.48 58.89, 143.18 -0.09 M34.67 130.84 C74.52 82.84, 116.17 36.95, 148.17 0.27 M34.67 130.84 C68.77 93.16, 100.74 55.93, 148.17 0.27 M40.31 130.44 C69.08 96.32, 96.93 62.72, 153.81 -0.12 M40.31 130.44 C64.53 101.3, 88.01 73.6, 153.81 -0.12 M45.3 130.8 C74.02 95.66, 105.87 60.86, 158.8 0.24 M45.3 130.8 C79.36 89.52, 116.04 50.62, 158.8 0.24 M50.94 130.41 C84.37 91.44, 119.75 52.24, 164.44 -0.16 M50.94 130.41 C85.11 89.83, 121.12 49.75, 164.44 -0.16 M55.93 130.77 C92.5 87.5, 131.25 43.43, 169.43 0.2 M55.93 130.77 C78.73 103.4, 100.52 76.23, 169.43 0.2 M61.57 130.37 C106.44 79.52, 151.38 27.19, 175.07 -0.19 M61.57 130.37 C97.91 88.97, 133.25 47.79, 175.07 -0.19 M66.56 130.73 C91.48 101.28, 119.99 71.63, 180.06 0.17 M66.56 130.73 C94.29 98.73, 121.62 65.73, 180.06 0.17 M72.2 130.34 C103.5 93.75, 136.7 56.75, 185.7 -0.23 M72.2 130.34 C97.39 103.74, 118.51 77.3, 185.7 -0.23 M77.19 130.7 C100.7 105.73, 121.27 78.65, 190.69 0.13 M77.19 130.7 C111.14 92.27, 143.59 53.08, 190.69 0.13 M82.83 130.3 C123.92 81.81, 163.71 34.54, 196.33 -0.26 M82.83 130.3 C115.26 91.18, 148.48 54.15, 196.33 -0.26 M87.82 130.66 C112.31 102.23, 137.82 76.32, 201.32 0.1 M87.82 130.66 C119.91 94.84, 152 57.25, 201.32 0.1 M93.46 130.27 C134.57 81.65, 174.34 32.08, 206.96 -0.3 M93.46 130.27 C128.07 92.3, 159.62 53.93, 206.96 -0.3 M98.45 130.63 C121.4 104.28, 144.47 79.39, 211.95 0.06 M98.45 130.63 C134.4 88.31, 168.81 48.08, 211.95 0.06 M104.09 130.23 C137.12 91.64, 170.82 51.51, 217.59 -0.33 M104.09 130.23 C132.57 95.87, 162.83 60.27, 217.59 -0.33 M109.08 130.6 C136.24 97.83, 165.75 68.78, 222.58 0.03 M109.08 130.6 C147.25 84.45, 187.93 40.37, 222.58 0.03 M114.72 130.2 C147.91 92, 184.31 51.97, 228.22 -0.36 M114.72 130.2 C148.28 92.8, 181.91 56.41, 228.22 -0.36 M119.71 130.56 C165.06 80.94, 211.35 28.33, 233.21 0 M119.71 130.56 C158.8 86.2, 197.47 40.01, 233.21 0 M125.35 130.17 C168.26 82.14, 210.8 30.53, 238.19 0.36 M125.35 130.17 C164.09 84.01, 204.61 38.32, 238.19 0.36 M130.34 130.53 C156.16 102.47, 179.45 72.76, 243.84 -0.04 M130.34 130.53 C167.67 87.76, 203.67 45.11, 243.84 -0.04 M135.98 130.13 C164.36 94.59, 196.81 59.82, 248.82 0.32 M135.98 130.13 C168.26 91.81, 202.28 54.1, 248.82 0.32 M140.97 130.49 C169.89 95.08, 202.95 60.81, 254.47 -0.07 M140.97 130.49 C174.22 90.98, 206.94 53.39, 254.47 -0.07 M146.61 130.1 C190.77 79.29, 231.14 29.01, 259.45 0.29 M146.61 130.1 C174.51 99.46, 201.12 69.94, 259.45 0.29 M151.6 130.46 C177.11 101.92, 200.29 74.03, 265.1 -0.11 M151.6 130.46 C185.7 91.3, 218.47 51.05, 265.1 -0.11 M156.58 130.82 C186.14 96.5, 220.29 58.31, 270.08 0.25 M156.58 130.82 C198.62 83.6, 239.97 36.42, 270.08 0.25 M162.23 130.42 C200.9 86.17, 239.39 42.45, 275.73 -0.14 M162.23 130.42 C186.36 103.65, 210.23 77.86, 275.73 -0.14 M167.22 130.78 C208.91 86.99, 247.2 41.43, 280.71 0.22 M167.22 130.78 C207.78 84.34, 248.09 36.73, 280.71 0.22 M172.86 130.39 C214.82 82.36, 259.13 31.51, 286.36 -0.18 M172.86 130.39 C209.56 89.75, 244.49 47.09, 286.36 -0.18 M177.85 130.75 C217.68 85.91, 255.15 41.2, 291.34 0.18 M177.85 130.75 C217.97 86.4, 257.54 39.45, 291.34 0.18 M183.49 130.35 C223.12 89.91, 256.89 44.26, 296.99 -0.21 M183.49 130.35 C221.46 87.87, 256.77 46.85, 296.99 -0.21 M188.48 130.71 C220.64 92.39, 254.36 54.87, 301.97 0.15 M188.48 130.71 C231.13 84.48, 270.92 35.74, 301.97 0.15 M194.12 130.32 C222.17 99.53, 250.76 68.75, 307.62 -0.25 M194.12 130.32 C237.94 80.53, 283.49 28.19, 307.62 -0.25 M199.11 130.68 C236.87 89.11, 276.12 42.43, 312.6 0.11 M199.11 130.68 C228.76 96.98, 259.95 62.09, 312.6 0.11 M204.75 130.28 C229.55 103.75, 253.16 77.65, 318.25 -0.28 M204.75 130.28 C234.56 94.67, 265.88 60.78, 318.25 -0.28 M209.74 130.64 C245.17 91.26, 276.88 52.89, 323.23 0.08 M209.74 130.64 C237.66 100.35, 265.8 67.24, 323.23 0.08 M215.38 130.25 C261.59 79.56, 303.84 29.85, 328.88 -0.31 M215.38 130.25 C254.53 86.19, 292.71 41.82, 328.88 -0.31 M220.37 130.61 C259.3 86.82, 296.97 45.14, 333.86 0.05 M220.37 130.61 C255.02 90.76, 289.51 51.26, 333.86 0.05 M226.01 130.22 C267.87 84.67, 308.84 34.07, 339.51 -0.35 M226.01 130.22 C251.33 102.84, 274.72 74.76, 339.51 -0.35 M231 130.58 C258.55 99.12, 286.71 67.06, 340.56 4.54 M231 130.58 C273.76 82.65, 315.15 34.65, 340.56 4.54 M236.64 130.18 C257.25 106.8, 281.34 80.95, 340.3 10.94 M236.64 130.18 C270.38 92.76, 304.08 53.6, 340.3 10.94 M241.63 130.54 C262.76 106.57, 286.4 78.1, 340.03 17.33 M241.63 130.54 C262.64 104.97, 284.63 79.11, 340.03 17.33 M247.27 130.15 C265.35 105.72, 285.25 85.16, 340.43 22.98 M247.27 130.15 C275.06 95.17, 304.86 62.54, 340.43 22.98 M252.26 130.51 C277.57 103.64, 299.04 75.28, 340.17 29.38 M252.26 130.51 C281.25 96.78, 310.71 64.62, 340.17 29.38 M257.9 130.11 C287.51 99.96, 313.45 64.89, 340.56 35.02 M257.9 130.11 C282.54 102.77, 305.86 74.67, 340.56 35.02 M262.89 130.47 C291.41 100.41, 320.38 66.35, 340.3 41.42 M262.89 130.47 C292.45 97.28, 321.87 63.31, 340.3 41.42 M267.87 130.83 C292.36 99.4, 319.37 68.4, 340.04 47.81 M267.87 130.83 C292.4 104.55, 315.34 77.23, 340.04 47.81 M273.52 130.44 C293.34 106.54, 315.32 83.35, 340.43 53.46 M273.52 130.44 C287.95 114.19, 303.92 96.21, 340.43 53.46 M278.5 130.8 C289.86 117.35, 302.18 100.74, 340.17 59.86 M278.5 130.8 C300.99 105.17, 322.83 78.33, 340.17 59.86 M284.15 130.4 C298.05 113.37, 314.8 95.51, 340.57 65.5 M284.15 130.4 C300.35 112.48, 315.56 93.21, 340.57 65.5 M289.13 130.76 C304.54 113.48, 320.34 91.21, 340.31 71.9 M289.13 130.76 C306.73 110.12, 324.09 90.6, 340.31 71.9 M294.78 130.37 C310.4 114.02, 322.71 97.21, 340.04 78.29 M294.78 130.37 C311.71 111.88, 328.21 93.26, 340.04 78.29 M299.76 130.73 C310.29 118.1, 325.7 100.24, 340.44 83.94 M299.76 130.73 C310.67 118.69, 319.26 107.83, 340.44 83.94 M305.41 130.33 C316.86 116.82, 331.39 99.47, 340.18 90.33 M305.41 130.33 C314.01 121.35, 321.9 112.16, 340.18 90.33 M310.39 130.69 C320.5 120.65, 330.17 105.52, 340.57 95.98 M310.39 130.69 C317.7 121.78, 325.1 113.82, 340.57 95.98 M316.04 130.3 C322.94 122.21, 330.18 111.98, 340.31 102.38 M316.04 130.3 C322.5 124.19, 326.02 118.84, 340.31 102.38 M321.02 130.66 C325.15 123.49, 333.27 116.75, 340.05 108.77 M321.02 130.66 C326.14 125.43, 329.59 121.77, 340.05 108.77 M326.67 130.27 C329.7 127.95, 333.25 122.55, 340.44 114.42 M326.67 130.27 C330.63 125.48, 335.28 121.74, 340.44 114.42 M331.65 130.63 C334.67 126.94, 338.51 124.16, 340.18 120.81 M331.65 130.63 C334.89 127.17, 337.28 124.7, 340.18 120.81 M337.3 130.23 C338.59 128.95, 338.66 128.03, 340.58 126.46 M337.3 130.23 C338.35 129.18, 339.03 128.18, 340.58 126.46" stroke="#FDE7E9" stroke-width="0.5" fill="none"></path><path d="M0 0 C68.57 0.18, 135.79 0.32, 340 0 M0 0 C92.61 0.38, 184.8 1.19, 340 0 M340 0 C341.97 30.74, 340.83 59.97, 340 130 M340 0 C339.16 49.55, 338.05 98.12, 340 130 M340 130 C218.01 127.56, 93.75 128.56, 0 130 M340 130 C258.25 127.62, 175.69 128.21, 0 130 M0 130 C0.06 87.69, 0.59 41.21, 0 0 M0 130 C-0.24 85.22, -0.08 39.36, 0 0" stroke="#D13438" stroke-width="1" fill="none"></path></g><g transform="translate(730 320) rotate(0 170 65)"><text x="170" y="0" font-family="Virgil, Segoe UI Emoji" font-size="12px" fill="#000000" text-anchor="middle" style="white-space: pre;" direction="ltr" dominant-baseline="text-before-edge">3. Exceeds addressable memory</text><text x="170" y="18.571428571428573" font-family="Virgil, Segoe UI Emoji" font-size="12px" fill="#000000" text-anchor="middle" style="white-space: pre;" direction="ltr" dominant-baseline="text-before-edge">(can't fit on this platform)</text><text x="170" y="37.142857142857146" font-family="Virgil, Segoe UI Emoji" font-size="12px" fill="#000000" text-anchor="middle" style="white-space: pre;" direction="ltr" dominant-baseline="text-before-edge"></text><text x="170" y="55.71428571428572" font-family="Virgil, Segoe UI Emoji" font-size="12px" fill="#000000" text-anchor="middle" style="white-space: pre;" direction="ltr" dominant-baseline="text-before-edge">AllocationAddressSpaceExceeded</text><text x="170" y="74.28571428571429" font-family="Virgil, Segoe UI Emoji" font-size="12px" fill="#000000" text-anchor="middle" style="white-space: pre;" direction="ltr" dominant-baseline="text-before-edge"></text><text x="170" y="92.85714285714286" font-family="Virgil, Segoe UI Emoji" font-size="12px" fill="#000000" text-anchor="middle" style="white-space: pre;" direction="ltr" dominant-baseline="text-before-edge">Future remedy: streaming board</text><text x="170" y="111.42857142857144" font-family="Virgil, Segoe UI Emoji" font-size="12px" fill="#000000" text-anchor="middle" style="white-space: pre;" direction="ltr" dominant-baseline="text-before-edge">(now shipped in the streaming PR).</text></g><g transform="translate(10 490) rotate(0 525 15)"><text x="0" y="0" font-family="Virgil, Segoe UI Emoji" font-size="16px" fill="#000000" text-anchor="start" style="white-space: pre;" direction="ltr" dominant-baseline="text-before-edge">Initial-board source routing (--initial-board)</text></g><g stroke-linecap="round" transform="translate(10 530) rotate(0 130 50)"><path d="M0 0 C0 0, 0 0, 0 0 M0 0 C0 0, 0 0, 0 0 M-0.26 6.4 C1.76 4.45, 3.11 2.54, 4.99 0.36 M-0.26 6.4 C2.08 3.89, 3.31 1.91, 4.99 0.36 M0.13 12.04 C1 8.94, 5.32 8.32, 10.63 -0.03 M0.13 12.04 C4.13 7.61, 6.9 5.23, 10.63 -0.03 M-0.13 18.44 C4.2 12.83, 8.54 8.18, 15.62 0.33 M-0.13 18.44 C2.87 14.4, 7.71 9.29, 15.62 0.33 M0.27 24.08 C6.49 14.7, 11.85 8.98, 21.26 -0.07 M0.27 24.08 C7.67 14.69, 15.12 6.76, 21.26 -0.07 M0 30.48 C9.63 18.52, 18.62 5.54, 26.25 0.29 M0 30.48 C7.35 23.63, 13.24 16.76, 26.25 0.29 M-0.26 36.88 C10.94 23.42, 24.08 8.82, 31.89 -0.1 M-0.26 36.88 C10 25.65, 19.11 14.52, 31.89 -0.1 M0.14 42.52 C11.15 31.18, 18.61 21.01, 36.88 0.26 M0.14 42.52 C13.13 28.1, 25.81 13.35, 36.88 0.26 M-0.12 48.92 C12.35 35.88, 23.78 22.96, 42.52 -0.14 M-0.12 48.92 C11.61 36.66, 23.17 22.72, 42.52 -0.14 M0.27 54.56 C15.34 33.85, 32.04 15.13, 47.51 0.22 M0.27 54.56 C8.83 45.06, 19.8 32.35, 47.51 0.22 M0.01 60.96 C14.03 42.83, 28.34 27.02, 53.15 -0.17 M0.01 60.96 C12.78 47.22, 26.41 31.8, 53.15 -0.17 M-0.25 67.36 C18.97 44.23, 39.97 23.06, 58.14 0.19 M-0.25 67.36 C19.51 45.36, 37.66 23.8, 58.14 0.19 M0.14 73 C13.62 56.79, 26.69 43.56, 63.78 -0.21 M0.14 73 C13.11 57.13, 26.84 43.22, 63.78 -0.21 M-0.12 79.4 C16.07 60.68, 30.45 46.16, 68.77 0.15 M-0.12 79.4 C21.11 52.85, 44.81 26.65, 68.77 0.15 M0.28 85.04 C15.53 65.14, 35.01 47.26, 74.41 -0.24 M0.28 85.04 C15.81 68.25, 31.92 49.94, 74.41 -0.24 M0.01 91.44 C21.15 66.71, 44.54 38.28, 79.4 0.12 M0.01 91.44 C20.97 65.5, 43.62 41.68, 79.4 0.12 M-0.25 97.84 C20.28 73.03, 43.66 46.09, 85.04 -0.28 M-0.25 97.84 C23.85 72.8, 46.33 45.91, 85.04 -0.28 M2.77 100.46 C33.82 64.66, 64.56 29.43, 90.03 0.08 M2.77 100.46 C30.59 68.34, 58.24 37.27, 90.03 0.08 M8.41 100.07 C35.38 65.32, 66.78 34.36, 95.67 -0.31 M8.41 100.07 C31.95 71.69, 57.86 42.47, 95.67 -0.31 M13.4 100.43 C43.5 66.03, 72.79 31.93, 100.66 0.05 M13.4 100.43 C36.28 75.68, 58.44 48.94, 100.66 0.05 M19.05 100.03 C43.13 70.46, 68.95 40.36, 106.3 -0.34 M19.05 100.03 C45.25 67.64, 74.28 36.55, 106.3 -0.34 M24.03 100.39 C40.9 77.58, 59.56 57.1, 111.29 0.02 M24.03 100.39 C41.56 79.16, 59.38 58.68, 111.29 0.02 M29.68 100 C58.41 69.51, 81.48 39.09, 116.27 0.38 M29.68 100 C55.78 69.37, 83.85 37.22, 116.27 0.38 M34.66 100.36 C62.75 67.18, 90.63 35.68, 121.92 -0.02 M34.66 100.36 C61.23 67.61, 88.93 36.3, 121.92 -0.02 M40.31 99.96 C66.11 73.29, 89.41 42.07, 126.91 0.34 M40.31 99.96 C74.21 60.92, 108.16 21.9, 126.91 0.34 M45.29 100.32 C63.19 77.55, 84.85 55.41, 132.55 -0.05 M45.29 100.32 C66.03 76.69, 86.78 52.77, 132.55 -0.05 M50.94 99.93 C75.57 70.71, 99.53 40.49, 137.54 0.31 M50.94 99.93 C79.79 67.19, 107.95 36.7, 137.54 0.31 M55.92 100.29 C81.7 73.16, 105.01 45.31, 143.18 -0.09 M55.92 100.29 C80.57 72.31, 104.43 45.25, 143.18 -0.09 M61.57 99.89 C91.68 63.04, 123.47 28.5, 148.17 0.27 M61.57 99.89 C87.8 71.26, 112.06 42.9, 148.17 0.27 M66.55 100.25 C88.6 73.77, 109.88 47.74, 153.81 -0.12 M66.55 100.25 C85.38 77.69, 103.2 56.51, 153.81 -0.12 M71.54 100.61 C93.27 73.42, 118.15 46.64, 158.8 0.24 M71.54 100.61 C97.63 68.67, 126.14 39.16, 158.8 0.24 M77.18 100.22 C102.67 70.24, 130.34 39.9, 164.44 -0.16 M77.18 100.22 C103.46 68.89, 131.32 38.17, 164.44 -0.16 M82.17 100.58 C109.97 67.51, 139.89 33.59, 169.43 0.2 M82.17 100.58 C99.81 79.63, 116.22 58.64, 169.43 0.2 M87.81 100.18 C122.43 61.1, 157.11 20.56, 175.07 -0.19 M87.81 100.18 C115.71 68.26, 142.85 36.51, 175.07 -0.19 M92.8 100.54 C111.52 78.06, 133.97 55.36, 180.06 0.17 M92.8 100.54 C114.28 75.84, 135.06 50.36, 180.06 0.17 M98.44 100.15 C122.48 72.23, 148.28 43.74, 185.7 -0.23 M98.44 100.15 C118.02 79.83, 133.83 59.51, 185.7 -0.23 M103.43 100.51 C121.77 81.65, 137.04 60.68, 190.69 0.13 M103.43 100.51 C129.7 71.07, 154.26 40.96, 190.69 0.13 M109.07 100.12 C140.99 62.61, 171.36 26.18, 196.33 -0.26 M109.07 100.12 C134.02 69.87, 159.74 41.47, 196.33 -0.26 M114.06 100.48 C132.82 78.16, 152.9 58.5, 201.32 0.1 M114.06 100.48 C138.67 73.14, 163.24 44.2, 201.32 0.1 M119.7 100.08 C151.31 62.7, 181.46 24.2, 206.96 -0.3 M119.7 100.08 C146.53 70.86, 170.48 41.23, 206.96 -0.3 M124.69 100.44 C142.08 80.01, 159.86 61.2, 211.95 0.06 M124.69 100.44 C152.4 67.71, 178.66 36.85, 211.95 0.06 M130.33 100.05 C155.45 70.47, 181.32 39.36, 217.59 -0.33 M130.33 100.05 C152.07 73.81, 175.35 46.23, 217.59 -0.33 M135.32 100.41 C156.09 74.76, 179.2 53.08, 222.58 0.03 M135.32 100.41 C164.55 64.81, 196.13 31.18, 222.58 0.03 M140.96 100.01 C166.39 71.1, 194.84 40.21, 228.22 -0.36 M140.96 100.01 C166.73 71.17, 192.78 43.49, 228.22 -0.36 M145.95 100.37 C180.77 62.51, 216.7 21.83, 233.21 0 M145.95 100.37 C175.98 66.43, 205.62 30.64, 233.21 0 M151.59 99.98 C184.64 63.43, 217.3 23.19, 238.19 0.36 M151.59 99.98 C181.17 64.62, 212.34 29.68, 238.19 0.36 M156.58 100.34 C176.74 78.74, 194.37 55.54, 243.84 -0.04 M156.58 100.34 C185.46 67.33, 212.88 34.55, 243.84 -0.04 M162.22 99.94 C183.59 72.72, 208.95 46.11, 248.82 0.32 M162.22 99.94 C186.89 70.5, 213.28 41.56, 248.82 0.32 M167.21 100.3 C189.28 72.82, 215.28 46.68, 254.47 -0.07 M167.21 100.3 C192.93 69.72, 218.07 40.85, 254.47 -0.07 M172.85 99.91 C207.18 60.77, 237.43 22.13, 259.45 0.29 M172.85 99.91 C194.33 76.33, 214.71 53.97, 259.45 0.29 M177.84 100.27 C196.5 79.3, 212.9 59.21, 260.5 5.18 M177.84 100.27 C202.89 71.93, 226.4 42.34, 260.5 5.18 M182.83 100.63 C202.85 77.2, 227.27 50.19, 260.9 10.82 M182.83 100.63 C211.85 68.27, 240.31 35.91, 260.9 10.82 M188.47 100.23 C213.19 72.17, 237.87 44.34, 260.64 17.22 M188.47 100.23 C203.75 83.23, 219.17 67.15, 260.64 17.22 M193.46 100.59 C218.74 75.02, 241.08 47.8, 260.38 23.61 M193.46 100.59 C217.59 73.49, 241 45.33, 260.38 23.61 M199.1 100.2 C221.48 74.38, 246.08 46.2, 260.77 29.26 M199.1 100.2 C219.49 78.45, 238.02 54.66, 260.77 29.26 M204.09 100.56 C224.14 78.94, 241.92 56.88, 260.51 35.65 M204.09 100.56 C224.38 78.87, 243.99 54.87, 260.51 35.65 M209.73 100.17 C228.4 82.82, 241.78 60.63, 260.9 41.3 M209.73 100.17 C227.38 80.48, 242.34 62.87, 260.9 41.3 M214.72 100.53 C226.76 84.8, 240.9 69.81, 260.64 47.7 M214.72 100.53 C232.37 82.23, 247.65 61.71, 260.64 47.7 M220.36 100.13 C230.23 89.54, 240.76 79.54, 260.38 54.09 M220.36 100.13 C235.17 83.21, 251.51 64.48, 260.38 54.09 M225.35 100.49 C237.68 88.49, 250.67 72.01, 260.77 59.74 M225.35 100.49 C234.14 90.1, 244.65 79, 260.77 59.74 M230.99 100.1 C237.86 93.28, 243.94 87.37, 260.51 66.13 M230.99 100.1 C238.64 90.33, 247.61 82.16, 260.51 66.13 M235.98 100.46 C245.09 91.48, 250.64 83.19, 260.91 71.78 M235.98 100.46 C241.76 94.5, 248.51 86.01, 260.91 71.78 M241.62 100.06 C249.92 91.54, 255.31 84.23, 260.65 78.18 M241.62 100.06 C248.85 93.13, 254.69 85.95, 260.65 78.18 M246.61 100.42 C252.64 95.22, 257.52 91.27, 260.39 84.57 M246.61 100.42 C250.15 95.43, 254.53 90.56, 260.39 84.57 M252.25 100.03 C254.91 97.28, 257.69 91.82, 260.78 90.22 M252.25 100.03 C254.49 97.9, 256.05 95.34, 260.78 90.22 M257.24 100.39 C258.29 99.45, 259.28 98.4, 260.52 96.61 M257.24 100.39 C258.59 98.99, 259.81 97.49, 260.52 96.61" stroke="#f3d9fa" stroke-width="0.5" fill="none"></path><path d="M0 0 C52.69 0.35, 103.75 0.51, 260 0 M0 0 C70.88 0.2, 141.25 1.17, 260 0 M260 0 C261.89 23.69, 260.75 45.87, 260 100 M260 0 C259.4 38.3, 258.3 75.61, 260 100 M260 100 C167.12 97.6, 71.51 98.8, 0 100 M260 100 C197.56 97.65, 134.14 98.36, 0 100 M0 100 C0.17 67.91, 0.7 31.65, 0 0 M0 100 C-0.27 65.77, -0.11 30.45, 0 0" stroke="#862e9c" stroke-width="1" fill="none"></path></g><g transform="translate(10 530) rotate(0 130 50)"><text x="130" y="0" font-family="Virgil, Segoe UI Emoji" font-size="12px" fill="#000000" text-anchor="middle" style="white-space: pre;" direction="ltr" dominant-baseline="text-before-edge">--initial-board demo</text><text x="130" y="25" font-family="Virgil, Segoe UI Emoji" font-size="12px" fill="#000000" text-anchor="middle" style="white-space: pre;" direction="ltr" dominant-baseline="text-before-edge">DemoBoardInitializer</text><text x="130" y="50" font-family="Virgil, Segoe UI Emoji" font-size="12px" fill="#000000" text-anchor="middle" style="white-space: pre;" direction="ltr" dominant-baseline="text-before-edge">10x10 motif tiles</text><text x="130" y="75" font-family="Virgil, Segoe UI Emoji" font-size="12px" fill="#000000" text-anchor="middle" style="white-space: pre;" direction="ltr" dominant-baseline="text-before-edge">(default; deterministic)</text></g><g stroke-linecap="round" transform="translate(290 530) rotate(0 130 50)"><path d="M0 0 C0 0, 0 0, 0 0 M0 0 C0 0, 0 0, 0 0 M-0.26 6.4 C1.76 4.45, 3.11 2.54, 4.99 0.36 M-0.26 6.4 C2.08 3.89, 3.31 1.91, 4.99 0.36 M0.13 12.04 C1 8.94, 5.32 8.32, 10.63 -0.03 M0.13 12.04 C4.13 7.61, 6.9 5.23, 10.63 -0.03 M-0.13 18.44 C4.2 12.83, 8.54 8.18, 15.62 0.33 M-0.13 18.44 C2.87 14.4, 7.71 9.29, 15.62 0.33 M0.27 24.08 C6.49 14.7, 11.85 8.98, 21.26 -0.07 M0.27 24.08 C7.67 14.69, 15.12 6.76, 21.26 -0.07 M0 30.48 C9.63 18.52, 18.62 5.54, 26.25 0.29 M0 30.48 C7.35 23.63, 13.24 16.76, 26.25 0.29 M-0.26 36.88 C10.94 23.42, 24.08 8.82, 31.89 -0.1 M-0.26 36.88 C10 25.65, 19.11 14.52, 31.89 -0.1 M0.14 42.52 C11.15 31.18, 18.61 21.01, 36.88 0.26 M0.14 42.52 C13.13 28.1, 25.81 13.35, 36.88 0.26 M-0.12 48.92 C12.35 35.88, 23.78 22.96, 42.52 -0.14 M-0.12 48.92 C11.61 36.66, 23.17 22.72, 42.52 -0.14 M0.27 54.56 C15.34 33.85, 32.04 15.13, 47.51 0.22 M0.27 54.56 C8.83 45.06, 19.8 32.35, 47.51 0.22 M0.01 60.96 C14.03 42.83, 28.34 27.02, 53.15 -0.17 M0.01 60.96 C12.78 47.22, 26.41 31.8, 53.15 -0.17 M-0.25 67.36 C18.97 44.23, 39.97 23.06, 58.14 0.19 M-0.25 67.36 C19.51 45.36, 37.66 23.8, 58.14 0.19 M0.14 73 C13.62 56.79, 26.69 43.56, 63.78 -0.21 M0.14 73 C13.11 57.13, 26.84 43.22, 63.78 -0.21 M-0.12 79.4 C16.07 60.68, 30.45 46.16, 68.77 0.15 M-0.12 79.4 C21.11 52.85, 44.81 26.65, 68.77 0.15 M0.28 85.04 C15.53 65.14, 35.01 47.26, 74.41 -0.24 M0.28 85.04 C15.81 68.25, 31.92 49.94, 74.41 -0.24 M0.01 91.44 C21.15 66.71, 44.54 38.28, 79.4 0.12 M0.01 91.44 C20.97 65.5, 43.62 41.68, 79.4 0.12 M-0.25 97.84 C20.28 73.03, 43.66 46.09, 85.04 -0.28 M-0.25 97.84 C23.85 72.8, 46.33 45.91, 85.04 -0.28 M2.77 100.46 C33.82 64.66, 64.56 29.43, 90.03 0.08 M2.77 100.46 C30.59 68.34, 58.24 37.27, 90.03 0.08 M8.41 100.07 C35.38 65.32, 66.78 34.36, 95.67 -0.31 M8.41 100.07 C31.95 71.69, 57.86 42.47, 95.67 -0.31 M13.4 100.43 C43.5 66.03, 72.79 31.93, 100.66 0.05 M13.4 100.43 C36.28 75.68, 58.44 48.94, 100.66 0.05 M19.05 100.03 C43.13 70.46, 68.95 40.36, 106.3 -0.34 M19.05 100.03 C45.25 67.64, 74.28 36.55, 106.3 -0.34 M24.03 100.39 C40.9 77.58, 59.56 57.1, 111.29 0.02 M24.03 100.39 C41.56 79.16, 59.38 58.68, 111.29 0.02 M29.68 100 C58.41 69.51, 81.48 39.09, 116.27 0.38 M29.68 100 C55.78 69.37, 83.85 37.22, 116.27 0.38 M34.66 100.36 C62.75 67.18, 90.63 35.68, 121.92 -0.02 M34.66 100.36 C61.23 67.61, 88.93 36.3, 121.92 -0.02 M40.31 99.96 C66.11 73.29, 89.41 42.07, 126.91 0.34 M40.31 99.96 C74.21 60.92, 108.16 21.9, 126.91 0.34 M45.29 100.32 C63.19 77.55, 84.85 55.41, 132.55 -0.05 M45.29 100.32 C66.03 76.69, 86.78 52.77, 132.55 -0.05 M50.94 99.93 C75.57 70.71, 99.53 40.49, 137.54 0.31 M50.94 99.93 C79.79 67.19, 107.95 36.7, 137.54 0.31 M55.92 100.29 C81.7 73.16, 105.01 45.31, 143.18 -0.09 M55.92 100.29 C80.57 72.31, 104.43 45.25, 143.18 -0.09 M61.57 99.89 C91.68 63.04, 123.47 28.5, 148.17 0.27 M61.57 99.89 C87.8 71.26, 112.06 42.9, 148.17 0.27 M66.55 100.25 C88.6 73.77, 109.88 47.74, 153.81 -0.12 M66.55 100.25 C85.38 77.69, 103.2 56.51, 153.81 -0.12 M71.54 100.61 C93.27 73.42, 118.15 46.64, 158.8 0.24 M71.54 100.61 C97.63 68.67, 126.14 39.16, 158.8 0.24 M77.18 100.22 C102.67 70.24, 130.34 39.9, 164.44 -0.16 M77.18 100.22 C103.46 68.89, 131.32 38.17, 164.44 -0.16 M82.17 100.58 C109.97 67.51, 139.89 33.59, 169.43 0.2 M82.17 100.58 C99.81 79.63, 116.22 58.64, 169.43 0.2 M87.81 100.18 C122.43 61.1, 157.11 20.56, 175.07 -0.19 M87.81 100.18 C115.71 68.26, 142.85 36.51, 175.07 -0.19 M92.8 100.54 C111.52 78.06, 133.97 55.36, 180.06 0.17 M92.8 100.54 C114.28 75.84, 135.06 50.36, 180.06 0.17 M98.44 100.15 C122.48 72.23, 148.28 43.74, 185.7 -0.23 M98.44 100.15 C118.02 79.83, 133.83 59.51, 185.7 -0.23 M103.43 100.51 C121.77 81.65, 137.04 60.68, 190.69 0.13 M103.43 100.51 C129.7 71.07, 154.26 40.96, 190.69 0.13 M109.07 100.12 C140.99 62.61, 171.36 26.18, 196.33 -0.26 M109.07 100.12 C134.02 69.87, 159.74 41.47, 196.33 -0.26 M114.06 100.48 C132.82 78.16, 152.9 58.5, 201.32 0.1 M114.06 100.48 C138.67 73.14, 163.24 44.2, 201.32 0.1 M119.7 100.08 C151.31 62.7, 181.46 24.2, 206.96 -0.3 M119.7 100.08 C146.53 70.86, 170.48 41.23, 206.96 -0.3 M124.69 100.44 C142.08 80.01, 159.86 61.2, 211.95 0.06 M124.69 100.44 C152.4 67.71, 178.66 36.85, 211.95 0.06 M130.33 100.05 C155.45 70.47, 181.32 39.36, 217.59 -0.33 M130.33 100.05 C152.07 73.81, 175.35 46.23, 217.59 -0.33 M135.32 100.41 C156.09 74.76, 179.2 53.08, 222.58 0.03 M135.32 100.41 C164.55 64.81, 196.13 31.18, 222.58 0.03 M140.96 100.01 C166.39 71.1, 194.84 40.21, 228.22 -0.36 M140.96 100.01 C166.73 71.17, 192.78 43.49, 228.22 -0.36 M145.95 100.37 C180.77 62.51, 216.7 21.83, 233.21 0 M145.95 100.37 C175.98 66.43, 205.62 30.64, 233.21 0 M151.59 99.98 C184.64 63.43, 217.3 23.19, 238.19 0.36 M151.59 99.98 C181.17 64.62, 212.34 29.68, 238.19 0.36 M156.58 100.34 C176.74 78.74, 194.37 55.54, 243.84 -0.04 M156.58 100.34 C185.46 67.33, 212.88 34.55, 243.84 -0.04 M162.22 99.94 C183.59 72.72, 208.95 46.11, 248.82 0.32 M162.22 99.94 C186.89 70.5, 213.28 41.56, 248.82 0.32 M167.21 100.3 C189.28 72.82, 215.28 46.68, 254.47 -0.07 M167.21 100.3 C192.93 69.72, 218.07 40.85, 254.47 -0.07 M172.85 99.91 C207.18 60.77, 237.43 22.13, 259.45 0.29 M172.85 99.91 C194.33 76.33, 214.71 53.97, 259.45 0.29 M177.84 100.27 C196.5 79.3, 212.9 59.21, 260.5 5.18 M177.84 100.27 C202.89 71.93, 226.4 42.34, 260.5 5.18 M182.83 100.63 C202.85 77.2, 227.27 50.19, 260.9 10.82 M182.83 100.63 C211.85 68.27, 240.31 35.91, 260.9 10.82 M188.47 100.23 C213.19 72.17, 237.87 44.34, 260.64 17.22 M188.47 100.23 C203.75 83.23, 219.17 67.15, 260.64 17.22 M193.46 100.59 C218.74 75.02, 241.08 47.8, 260.38 23.61 M193.46 100.59 C217.59 73.49, 241 45.33, 260.38 23.61 M199.1 100.2 C221.48 74.38, 246.08 46.2, 260.77 29.26 M199.1 100.2 C219.49 78.45, 238.02 54.66, 260.77 29.26 M204.09 100.56 C224.14 78.94, 241.92 56.88, 260.51 35.65 M204.09 100.56 C224.38 78.87, 243.99 54.87, 260.51 35.65 M209.73 100.17 C228.4 82.82, 241.78 60.63, 260.9 41.3 M209.73 100.17 C227.38 80.48, 242.34 62.87, 260.9 41.3 M214.72 100.53 C226.76 84.8, 240.9 69.81, 260.64 47.7 M214.72 100.53 C232.37 82.23, 247.65 61.71, 260.64 47.7 M220.36 100.13 C230.23 89.54, 240.76 79.54, 260.38 54.09 M220.36 100.13 C235.17 83.21, 251.51 64.48, 260.38 54.09 M225.35 100.49 C237.68 88.49, 250.67 72.01, 260.77 59.74 M225.35 100.49 C234.14 90.1, 244.65 79, 260.77 59.74 M230.99 100.1 C237.86 93.28, 243.94 87.37, 260.51 66.13 M230.99 100.1 C238.64 90.33, 247.61 82.16, 260.51 66.13 M235.98 100.46 C245.09 91.48, 250.64 83.19, 260.91 71.78 M235.98 100.46 C241.76 94.5, 248.51 86.01, 260.91 71.78 M241.62 100.06 C249.92 91.54, 255.31 84.23, 260.65 78.18 M241.62 100.06 C248.85 93.13, 254.69 85.95, 260.65 78.18 M246.61 100.42 C252.64 95.22, 257.52 91.27, 260.39 84.57 M246.61 100.42 C250.15 95.43, 254.53 90.56, 260.39 84.57 M252.25 100.03 C254.91 97.28, 257.69 91.82, 260.78 90.22 M252.25 100.03 C254.49 97.9, 256.05 95.34, 260.78 90.22 M257.24 100.39 C258.29 99.45, 259.28 98.4, 260.52 96.61 M257.24 100.39 C258.59 98.99, 259.81 97.49, 260.52 96.61" stroke="#f3d9fa" stroke-width="0.5" fill="none"></path><path d="M0 0 C52.69 0.35, 103.75 0.51, 260 0 M0 0 C70.88 0.2, 141.25 1.17, 260 0 M260 0 C261.89 23.69, 260.75 45.87, 260 100 M260 0 C259.4 38.3, 258.3 75.61, 260 100 M260 100 C167.12 97.6, 71.51 98.8, 0 100 M260 100 C197.56 97.65, 134.14 98.36, 0 100 M0 100 C0.17 67.91, 0.7 31.65, 0 0 M0 100 C-0.27 65.77, -0.11 30.45, 0 0" stroke="#862e9c" stroke-width="1" fill="none"></path></g><g transform="translate(290 530) rotate(0 130 50)"><text x="130" y="0" font-family="Virgil, Segoe UI Emoji" font-size="12px" fill="#000000" text-anchor="middle" style="white-space: pre;" direction="ltr" dominant-baseline="text-before-edge">--initial-board alive</text><text x="130" y="25" font-family="Virgil, Segoe UI Emoji" font-size="12px" fill="#000000" text-anchor="middle" style="white-space: pre;" direction="ltr" dominant-baseline="text-before-edge">FullyAliveInitializer</text><text x="130" y="50" font-family="Virgil, Segoe UI Emoji" font-size="12px" fill="#000000" text-anchor="middle" style="white-space: pre;" direction="ltr" dominant-baseline="text-before-edge">every cell starts Alive</text><text x="130" y="75" font-family="Virgil, Segoe UI Emoji" font-size="12px" fill="#000000" text-anchor="middle" style="white-space: pre;" direction="ltr" dominant-baseline="text-before-edge">(overpopulation demo)</text></g><g stroke-linecap="round" transform="translate(570 530) rotate(0 130 50)"><path d="M0 0 C0 0, 0 0, 0 0 M0 0 C0 0, 0 0, 0 0 M-0.26 6.4 C1.76 4.45, 3.11 2.54, 4.99 0.36 M-0.26 6.4 C2.08 3.89, 3.31 1.91, 4.99 0.36 M0.13 12.04 C1 8.94, 5.32 8.32, 10.63 -0.03 M0.13 12.04 C4.13 7.61, 6.9 5.23, 10.63 -0.03 M-0.13 18.44 C4.2 12.83, 8.54 8.18, 15.62 0.33 M-0.13 18.44 C2.87 14.4, 7.71 9.29, 15.62 0.33 M0.27 24.08 C6.49 14.7, 11.85 8.98, 21.26 -0.07 M0.27 24.08 C7.67 14.69, 15.12 6.76, 21.26 -0.07 M0 30.48 C9.63 18.52, 18.62 5.54, 26.25 0.29 M0 30.48 C7.35 23.63, 13.24 16.76, 26.25 0.29 M-0.26 36.88 C10.94 23.42, 24.08 8.82, 31.89 -0.1 M-0.26 36.88 C10 25.65, 19.11 14.52, 31.89 -0.1 M0.14 42.52 C11.15 31.18, 18.61 21.01, 36.88 0.26 M0.14 42.52 C13.13 28.1, 25.81 13.35, 36.88 0.26 M-0.12 48.92 C12.35 35.88, 23.78 22.96, 42.52 -0.14 M-0.12 48.92 C11.61 36.66, 23.17 22.72, 42.52 -0.14 M0.27 54.56 C15.34 33.85, 32.04 15.13, 47.51 0.22 M0.27 54.56 C8.83 45.06, 19.8 32.35, 47.51 0.22 M0.01 60.96 C14.03 42.83, 28.34 27.02, 53.15 -0.17 M0.01 60.96 C12.78 47.22, 26.41 31.8, 53.15 -0.17 M-0.25 67.36 C18.97 44.23, 39.97 23.06, 58.14 0.19 M-0.25 67.36 C19.51 45.36, 37.66 23.8, 58.14 0.19 M0.14 73 C13.62 56.79, 26.69 43.56, 63.78 -0.21 M0.14 73 C13.11 57.13, 26.84 43.22, 63.78 -0.21 M-0.12 79.4 C16.07 60.68, 30.45 46.16, 68.77 0.15 M-0.12 79.4 C21.11 52.85, 44.81 26.65, 68.77 0.15 M0.28 85.04 C15.53 65.14, 35.01 47.26, 74.41 -0.24 M0.28 85.04 C15.81 68.25, 31.92 49.94, 74.41 -0.24 M0.01 91.44 C21.15 66.71, 44.54 38.28, 79.4 0.12 M0.01 91.44 C20.97 65.5, 43.62 41.68, 79.4 0.12 M-0.25 97.84 C20.28 73.03, 43.66 46.09, 85.04 -0.28 M-0.25 97.84 C23.85 72.8, 46.33 45.91, 85.04 -0.28 M2.77 100.46 C33.82 64.66, 64.56 29.43, 90.03 0.08 M2.77 100.46 C30.59 68.34, 58.24 37.27, 90.03 0.08 M8.41 100.07 C35.38 65.32, 66.78 34.36, 95.67 -0.31 M8.41 100.07 C31.95 71.69, 57.86 42.47, 95.67 -0.31 M13.4 100.43 C43.5 66.03, 72.79 31.93, 100.66 0.05 M13.4 100.43 C36.28 75.68, 58.44 48.94, 100.66 0.05 M19.05 100.03 C43.13 70.46, 68.95 40.36, 106.3 -0.34 M19.05 100.03 C45.25 67.64, 74.28 36.55, 106.3 -0.34 M24.03 100.39 C40.9 77.58, 59.56 57.1, 111.29 0.02 M24.03 100.39 C41.56 79.16, 59.38 58.68, 111.29 0.02 M29.68 100 C58.41 69.51, 81.48 39.09, 116.27 0.38 M29.68 100 C55.78 69.37, 83.85 37.22, 116.27 0.38 M34.66 100.36 C62.75 67.18, 90.63 35.68, 121.92 -0.02 M34.66 100.36 C61.23 67.61, 88.93 36.3, 121.92 -0.02 M40.31 99.96 C66.11 73.29, 89.41 42.07, 126.91 0.34 M40.31 99.96 C74.21 60.92, 108.16 21.9, 126.91 0.34 M45.29 100.32 C63.19 77.55, 84.85 55.41, 132.55 -0.05 M45.29 100.32 C66.03 76.69, 86.78 52.77, 132.55 -0.05 M50.94 99.93 C75.57 70.71, 99.53 40.49, 137.54 0.31 M50.94 99.93 C79.79 67.19, 107.95 36.7, 137.54 0.31 M55.92 100.29 C81.7 73.16, 105.01 45.31, 143.18 -0.09 M55.92 100.29 C80.57 72.31, 104.43 45.25, 143.18 -0.09 M61.57 99.89 C91.68 63.04, 123.47 28.5, 148.17 0.27 M61.57 99.89 C87.8 71.26, 112.06 42.9, 148.17 0.27 M66.55 100.25 C88.6 73.77, 109.88 47.74, 153.81 -0.12 M66.55 100.25 C85.38 77.69, 103.2 56.51, 153.81 -0.12 M71.54 100.61 C93.27 73.42, 118.15 46.64, 158.8 0.24 M71.54 100.61 C97.63 68.67, 126.14 39.16, 158.8 0.24 M77.18 100.22 C102.67 70.24, 130.34 39.9, 164.44 -0.16 M77.18 100.22 C103.46 68.89, 131.32 38.17, 164.44 -0.16 M82.17 100.58 C109.97 67.51, 139.89 33.59, 169.43 0.2 M82.17 100.58 C99.81 79.63, 116.22 58.64, 169.43 0.2 M87.81 100.18 C122.43 61.1, 157.11 20.56, 175.07 -0.19 M87.81 100.18 C115.71 68.26, 142.85 36.51, 175.07 -0.19 M92.8 100.54 C111.52 78.06, 133.97 55.36, 180.06 0.17 M92.8 100.54 C114.28 75.84, 135.06 50.36, 180.06 0.17 M98.44 100.15 C122.48 72.23, 148.28 43.74, 185.7 -0.23 M98.44 100.15 C118.02 79.83, 133.83 59.51, 185.7 -0.23 M103.43 100.51 C121.77 81.65, 137.04 60.68, 190.69 0.13 M103.43 100.51 C129.7 71.07, 154.26 40.96, 190.69 0.13 M109.07 100.12 C140.99 62.61, 171.36 26.18, 196.33 -0.26 M109.07 100.12 C134.02 69.87, 159.74 41.47, 196.33 -0.26 M114.06 100.48 C132.82 78.16, 152.9 58.5, 201.32 0.1 M114.06 100.48 C138.67 73.14, 163.24 44.2, 201.32 0.1 M119.7 100.08 C151.31 62.7, 181.46 24.2, 206.96 -0.3 M119.7 100.08 C146.53 70.86, 170.48 41.23, 206.96 -0.3 M124.69 100.44 C142.08 80.01, 159.86 61.2, 211.95 0.06 M124.69 100.44 C152.4 67.71, 178.66 36.85, 211.95 0.06 M130.33 100.05 C155.45 70.47, 181.32 39.36, 217.59 -0.33 M130.33 100.05 C152.07 73.81, 175.35 46.23, 217.59 -0.33 M135.32 100.41 C156.09 74.76, 179.2 53.08, 222.58 0.03 M135.32 100.41 C164.55 64.81, 196.13 31.18, 222.58 0.03 M140.96 100.01 C166.39 71.1, 194.84 40.21, 228.22 -0.36 M140.96 100.01 C166.73 71.17, 192.78 43.49, 228.22 -0.36 M145.95 100.37 C180.77 62.51, 216.7 21.83, 233.21 0 M145.95 100.37 C175.98 66.43, 205.62 30.64, 233.21 0 M151.59 99.98 C184.64 63.43, 217.3 23.19, 238.19 0.36 M151.59 99.98 C181.17 64.62, 212.34 29.68, 238.19 0.36 M156.58 100.34 C176.74 78.74, 194.37 55.54, 243.84 -0.04 M156.58 100.34 C185.46 67.33, 212.88 34.55, 243.84 -0.04 M162.22 99.94 C183.59 72.72, 208.95 46.11, 248.82 0.32 M162.22 99.94 C186.89 70.5, 213.28 41.56, 248.82 0.32 M167.21 100.3 C189.28 72.82, 215.28 46.68, 254.47 -0.07 M167.21 100.3 C192.93 69.72, 218.07 40.85, 254.47 -0.07 M172.85 99.91 C207.18 60.77, 237.43 22.13, 259.45 0.29 M172.85 99.91 C194.33 76.33, 214.71 53.97, 259.45 0.29 M177.84 100.27 C196.5 79.3, 212.9 59.21, 260.5 5.18 M177.84 100.27 C202.89 71.93, 226.4 42.34, 260.5 5.18 M182.83 100.63 C202.85 77.2, 227.27 50.19, 260.9 10.82 M182.83 100.63 C211.85 68.27, 240.31 35.91, 260.9 10.82 M188.47 100.23 C213.19 72.17, 237.87 44.34, 260.64 17.22 M188.47 100.23 C203.75 83.23, 219.17 67.15, 260.64 17.22 M193.46 100.59 C218.74 75.02, 241.08 47.8, 260.38 23.61 M193.46 100.59 C217.59 73.49, 241 45.33, 260.38 23.61 M199.1 100.2 C221.48 74.38, 246.08 46.2, 260.77 29.26 M199.1 100.2 C219.49 78.45, 238.02 54.66, 260.77 29.26 M204.09 100.56 C224.14 78.94, 241.92 56.88, 260.51 35.65 M204.09 100.56 C224.38 78.87, 243.99 54.87, 260.51 35.65 M209.73 100.17 C228.4 82.82, 241.78 60.63, 260.9 41.3 M209.73 100.17 C227.38 80.48, 242.34 62.87, 260.9 41.3 M214.72 100.53 C226.76 84.8, 240.9 69.81, 260.64 47.7 M214.72 100.53 C232.37 82.23, 247.65 61.71, 260.64 47.7 M220.36 100.13 C230.23 89.54, 240.76 79.54, 260.38 54.09 M220.36 100.13 C235.17 83.21, 251.51 64.48, 260.38 54.09 M225.35 100.49 C237.68 88.49, 250.67 72.01, 260.77 59.74 M225.35 100.49 C234.14 90.1, 244.65 79, 260.77 59.74 M230.99 100.1 C237.86 93.28, 243.94 87.37, 260.51 66.13 M230.99 100.1 C238.64 90.33, 247.61 82.16, 260.51 66.13 M235.98 100.46 C245.09 91.48, 250.64 83.19, 260.91 71.78 M235.98 100.46 C241.76 94.5, 248.51 86.01, 260.91 71.78 M241.62 100.06 C249.92 91.54, 255.31 84.23, 260.65 78.18 M241.62 100.06 C248.85 93.13, 254.69 85.95, 260.65 78.18 M246.61 100.42 C252.64 95.22, 257.52 91.27, 260.39 84.57 M246.61 100.42 C250.15 95.43, 254.53 90.56, 260.39 84.57 M252.25 100.03 C254.91 97.28, 257.69 91.82, 260.78 90.22 M252.25 100.03 C254.49 97.9, 256.05 95.34, 260.78 90.22 M257.24 100.39 C258.29 99.45, 259.28 98.4, 260.52 96.61 M257.24 100.39 C258.59 98.99, 259.81 97.49, 260.52 96.61" stroke="#f3d9fa" stroke-width="0.5" fill="none"></path><path d="M0 0 C52.69 0.35, 103.75 0.51, 260 0 M0 0 C70.88 0.2, 141.25 1.17, 260 0 M260 0 C261.89 23.69, 260.75 45.87, 260 100 M260 0 C259.4 38.3, 258.3 75.61, 260 100 M260 100 C167.12 97.6, 71.51 98.8, 0 100 M260 100 C197.56 97.65, 134.14 98.36, 0 100 M0 100 C0.17 67.91, 0.7 31.65, 0 0 M0 100 C-0.27 65.77, -0.11 30.45, 0 0" stroke="#862e9c" stroke-width="1" fill="none"></path></g><g transform="translate(570 530) rotate(0 130 50)"><text x="130" y="0" font-family="Virgil, Segoe UI Emoji" font-size="12px" fill="#000000" text-anchor="middle" style="white-space: pre;" direction="ltr" dominant-baseline="text-before-edge">--initial-board blinker</text><text x="130" y="25" font-family="Virgil, Segoe UI Emoji" font-size="12px" fill="#000000" text-anchor="middle" style="white-space: pre;" direction="ltr" dominant-baseline="text-before-edge">BlinkerBoardInitializer</text><text x="130" y="50" font-family="Virgil, Segoe UI Emoji" font-size="12px" fill="#000000" text-anchor="middle" style="white-space: pre;" direction="ltr" dominant-baseline="text-before-edge">single centered horizontal</text><text x="130" y="75" font-family="Virgil, Segoe UI Emoji" font-size="12px" fill="#000000" text-anchor="middle" style="white-space: pre;" direction="ltr" dominant-baseline="text-before-edge">3-cell oscillator</text></g><g stroke-linecap="round" transform="translate(850 530) rotate(0 130 50)"><path d="M0 0 C0 0, 0 0, 0 0 M0 0 C0 0, 0 0, 0 0 M-0.26 6.4 C1.76 4.45, 3.11 2.54, 4.99 0.36 M-0.26 6.4 C2.08 3.89, 3.31 1.91, 4.99 0.36 M0.13 12.04 C1 8.94, 5.32 8.32, 10.63 -0.03 M0.13 12.04 C4.13 7.61, 6.9 5.23, 10.63 -0.03 M-0.13 18.44 C4.2 12.83, 8.54 8.18, 15.62 0.33 M-0.13 18.44 C2.87 14.4, 7.71 9.29, 15.62 0.33 M0.27 24.08 C6.49 14.7, 11.85 8.98, 21.26 -0.07 M0.27 24.08 C7.67 14.69, 15.12 6.76, 21.26 -0.07 M0 30.48 C9.63 18.52, 18.62 5.54, 26.25 0.29 M0 30.48 C7.35 23.63, 13.24 16.76, 26.25 0.29 M-0.26 36.88 C10.94 23.42, 24.08 8.82, 31.89 -0.1 M-0.26 36.88 C10 25.65, 19.11 14.52, 31.89 -0.1 M0.14 42.52 C11.15 31.18, 18.61 21.01, 36.88 0.26 M0.14 42.52 C13.13 28.1, 25.81 13.35, 36.88 0.26 M-0.12 48.92 C12.35 35.88, 23.78 22.96, 42.52 -0.14 M-0.12 48.92 C11.61 36.66, 23.17 22.72, 42.52 -0.14 M0.27 54.56 C15.34 33.85, 32.04 15.13, 47.51 0.22 M0.27 54.56 C8.83 45.06, 19.8 32.35, 47.51 0.22 M0.01 60.96 C14.03 42.83, 28.34 27.02, 53.15 -0.17 M0.01 60.96 C12.78 47.22, 26.41 31.8, 53.15 -0.17 M-0.25 67.36 C18.97 44.23, 39.97 23.06, 58.14 0.19 M-0.25 67.36 C19.51 45.36, 37.66 23.8, 58.14 0.19 M0.14 73 C13.62 56.79, 26.69 43.56, 63.78 -0.21 M0.14 73 C13.11 57.13, 26.84 43.22, 63.78 -0.21 M-0.12 79.4 C16.07 60.68, 30.45 46.16, 68.77 0.15 M-0.12 79.4 C21.11 52.85, 44.81 26.65, 68.77 0.15 M0.28 85.04 C15.53 65.14, 35.01 47.26, 74.41 -0.24 M0.28 85.04 C15.81 68.25, 31.92 49.94, 74.41 -0.24 M0.01 91.44 C21.15 66.71, 44.54 38.28, 79.4 0.12 M0.01 91.44 C20.97 65.5, 43.62 41.68, 79.4 0.12 M-0.25 97.84 C20.28 73.03, 43.66 46.09, 85.04 -0.28 M-0.25 97.84 C23.85 72.8, 46.33 45.91, 85.04 -0.28 M2.77 100.46 C33.82 64.66, 64.56 29.43, 90.03 0.08 M2.77 100.46 C30.59 68.34, 58.24 37.27, 90.03 0.08 M8.41 100.07 C35.38 65.32, 66.78 34.36, 95.67 -0.31 M8.41 100.07 C31.95 71.69, 57.86 42.47, 95.67 -0.31 M13.4 100.43 C43.5 66.03, 72.79 31.93, 100.66 0.05 M13.4 100.43 C36.28 75.68, 58.44 48.94, 100.66 0.05 M19.05 100.03 C43.13 70.46, 68.95 40.36, 106.3 -0.34 M19.05 100.03 C45.25 67.64, 74.28 36.55, 106.3 -0.34 M24.03 100.39 C40.9 77.58, 59.56 57.1, 111.29 0.02 M24.03 100.39 C41.56 79.16, 59.38 58.68, 111.29 0.02 M29.68 100 C58.41 69.51, 81.48 39.09, 116.27 0.38 M29.68 100 C55.78 69.37, 83.85 37.22, 116.27 0.38 M34.66 100.36 C62.75 67.18, 90.63 35.68, 121.92 -0.02 M34.66 100.36 C61.23 67.61, 88.93 36.3, 121.92 -0.02 M40.31 99.96 C66.11 73.29, 89.41 42.07, 126.91 0.34 M40.31 99.96 C74.21 60.92, 108.16 21.9, 126.91 0.34 M45.29 100.32 C63.19 77.55, 84.85 55.41, 132.55 -0.05 M45.29 100.32 C66.03 76.69, 86.78 52.77, 132.55 -0.05 M50.94 99.93 C75.57 70.71, 99.53 40.49, 137.54 0.31 M50.94 99.93 C79.79 67.19, 107.95 36.7, 137.54 0.31 M55.92 100.29 C81.7 73.16, 105.01 45.31, 143.18 -0.09 M55.92 100.29 C80.57 72.31, 104.43 45.25, 143.18 -0.09 M61.57 99.89 C91.68 63.04, 123.47 28.5, 148.17 0.27 M61.57 99.89 C87.8 71.26, 112.06 42.9, 148.17 0.27 M66.55 100.25 C88.6 73.77, 109.88 47.74, 153.81 -0.12 M66.55 100.25 C85.38 77.69, 103.2 56.51, 153.81 -0.12 M71.54 100.61 C93.27 73.42, 118.15 46.64, 158.8 0.24 M71.54 100.61 C97.63 68.67, 126.14 39.16, 158.8 0.24 M77.18 100.22 C102.67 70.24, 130.34 39.9, 164.44 -0.16 M77.18 100.22 C103.46 68.89, 131.32 38.17, 164.44 -0.16 M82.17 100.58 C109.97 67.51, 139.89 33.59, 169.43 0.2 M82.17 100.58 C99.81 79.63, 116.22 58.64, 169.43 0.2 M87.81 100.18 C122.43 61.1, 157.11 20.56, 175.07 -0.19 M87.81 100.18 C115.71 68.26, 142.85 36.51, 175.07 -0.19 M92.8 100.54 C111.52 78.06, 133.97 55.36, 180.06 0.17 M92.8 100.54 C114.28 75.84, 135.06 50.36, 180.06 0.17 M98.44 100.15 C122.48 72.23, 148.28 43.74, 185.7 -0.23 M98.44 100.15 C118.02 79.83, 133.83 59.51, 185.7 -0.23 M103.43 100.51 C121.77 81.65, 137.04 60.68, 190.69 0.13 M103.43 100.51 C129.7 71.07, 154.26 40.96, 190.69 0.13 M109.07 100.12 C140.99 62.61, 171.36 26.18, 196.33 -0.26 M109.07 100.12 C134.02 69.87, 159.74 41.47, 196.33 -0.26 M114.06 100.48 C132.82 78.16, 152.9 58.5, 201.32 0.1 M114.06 100.48 C138.67 73.14, 163.24 44.2, 201.32 0.1 M119.7 100.08 C151.31 62.7, 181.46 24.2, 206.96 -0.3 M119.7 100.08 C146.53 70.86, 170.48 41.23, 206.96 -0.3 M124.69 100.44 C142.08 80.01, 159.86 61.2, 211.95 0.06 M124.69 100.44 C152.4 67.71, 178.66 36.85, 211.95 0.06 M130.33 100.05 C155.45 70.47, 181.32 39.36, 217.59 -0.33 M130.33 100.05 C152.07 73.81, 175.35 46.23, 217.59 -0.33 M135.32 100.41 C156.09 74.76, 179.2 53.08, 222.58 0.03 M135.32 100.41 C164.55 64.81, 196.13 31.18, 222.58 0.03 M140.96 100.01 C166.39 71.1, 194.84 40.21, 228.22 -0.36 M140.96 100.01 C166.73 71.17, 192.78 43.49, 228.22 -0.36 M145.95 100.37 C180.77 62.51, 216.7 21.83, 233.21 0 M145.95 100.37 C175.98 66.43, 205.62 30.64, 233.21 0 M151.59 99.98 C184.64 63.43, 217.3 23.19, 238.19 0.36 M151.59 99.98 C181.17 64.62, 212.34 29.68, 238.19 0.36 M156.58 100.34 C176.74 78.74, 194.37 55.54, 243.84 -0.04 M156.58 100.34 C185.46 67.33, 212.88 34.55, 243.84 -0.04 M162.22 99.94 C183.59 72.72, 208.95 46.11, 248.82 0.32 M162.22 99.94 C186.89 70.5, 213.28 41.56, 248.82 0.32 M167.21 100.3 C189.28 72.82, 215.28 46.68, 254.47 -0.07 M167.21 100.3 C192.93 69.72, 218.07 40.85, 254.47 -0.07 M172.85 99.91 C207.18 60.77, 237.43 22.13, 259.45 0.29 M172.85 99.91 C194.33 76.33, 214.71 53.97, 259.45 0.29 M177.84 100.27 C196.5 79.3, 212.9 59.21, 260.5 5.18 M177.84 100.27 C202.89 71.93, 226.4 42.34, 260.5 5.18 M182.83 100.63 C202.85 77.2, 227.27 50.19, 260.9 10.82 M182.83 100.63 C211.85 68.27, 240.31 35.91, 260.9 10.82 M188.47 100.23 C213.19 72.17, 237.87 44.34, 260.64 17.22 M188.47 100.23 C203.75 83.23, 219.17 67.15, 260.64 17.22 M193.46 100.59 C218.74 75.02, 241.08 47.8, 260.38 23.61 M193.46 100.59 C217.59 73.49, 241 45.33, 260.38 23.61 M199.1 100.2 C221.48 74.38, 246.08 46.2, 260.77 29.26 M199.1 100.2 C219.49 78.45, 238.02 54.66, 260.77 29.26 M204.09 100.56 C224.14 78.94, 241.92 56.88, 260.51 35.65 M204.09 100.56 C224.38 78.87, 243.99 54.87, 260.51 35.65 M209.73 100.17 C228.4 82.82, 241.78 60.63, 260.9 41.3 M209.73 100.17 C227.38 80.48, 242.34 62.87, 260.9 41.3 M214.72 100.53 C226.76 84.8, 240.9 69.81, 260.64 47.7 M214.72 100.53 C232.37 82.23, 247.65 61.71, 260.64 47.7 M220.36 100.13 C230.23 89.54, 240.76 79.54, 260.38 54.09 M220.36 100.13 C235.17 83.21, 251.51 64.48, 260.38 54.09 M225.35 100.49 C237.68 88.49, 250.67 72.01, 260.77 59.74 M225.35 100.49 C234.14 90.1, 244.65 79, 260.77 59.74 M230.99 100.1 C237.86 93.28, 243.94 87.37, 260.51 66.13 M230.99 100.1 C238.64 90.33, 247.61 82.16, 260.51 66.13 M235.98 100.46 C245.09 91.48, 250.64 83.19, 260.91 71.78 M235.98 100.46 C241.76 94.5, 248.51 86.01, 260.91 71.78 M241.62 100.06 C249.92 91.54, 255.31 84.23, 260.65 78.18 M241.62 100.06 C248.85 93.13, 254.69 85.95, 260.65 78.18 M246.61 100.42 C252.64 95.22, 257.52 91.27, 260.39 84.57 M246.61 100.42 C250.15 95.43, 254.53 90.56, 260.39 84.57 M252.25 100.03 C254.91 97.28, 257.69 91.82, 260.78 90.22 M252.25 100.03 C254.49 97.9, 256.05 95.34, 260.78 90.22 M257.24 100.39 C258.29 99.45, 259.28 98.4, 260.52 96.61 M257.24 100.39 C258.59 98.99, 259.81 97.49, 260.52 96.61" stroke="#f3d9fa" stroke-width="0.5" fill="none"></path><path d="M0 0 C52.69 0.35, 103.75 0.51, 260 0 M0 0 C70.88 0.2, 141.25 1.17, 260 0 M260 0 C261.89 23.69, 260.75 45.87, 260 100 M260 0 C259.4 38.3, 258.3 75.61, 260 100 M260 100 C167.12 97.6, 71.51 98.8, 0 100 M260 100 C197.56 97.65, 134.14 98.36, 0 100 M0 100 C0.17 67.91, 0.7 31.65, 0 0 M0 100 C-0.27 65.77, -0.11 30.45, 0 0" stroke="#862e9c" stroke-width="1" fill="none"></path></g><g transform="translate(850 530) rotate(0 130 50)"><text x="130" y="0" font-family="Virgil, Segoe UI Emoji" font-size="12px" fill="#000000" text-anchor="middle" style="white-space: pre;" direction="ltr" dominant-baseline="text-before-edge">--initial-board random</text><text x="130" y="25" font-family="Virgil, Segoe UI Emoji" font-size="12px" fill="#000000" text-anchor="middle" style="white-space: pre;" direction="ltr" dominant-baseline="text-before-edge">RandomBoardInitializer</text><text x="130" y="50" font-family="Virgil, Segoe UI Emoji" font-size="12px" fill="#000000" text-anchor="middle" style="white-space: pre;" direction="ltr" dominant-baseline="text-before-edge">seeded LCG; configurable</text><text x="130" y="75" font-family="Virgil, Segoe UI Emoji" font-size="12px" fill="#000000" text-anchor="middle" style="white-space: pre;" direction="ltr" dominant-baseline="text-before-edge">density</text></g><g transform="translate(10 670) rotate(0 570 30)"><text x="0" y="0" font-family="Virgil, Segoe UI Emoji" font-size="12px" fill="#000000" text-anchor="start" style="white-space: pre;" direction="ltr" dominant-baseline="text-before-edge">All initializers implement BoardInitializer::initialize&lt;B: BoardEditor + ?Sized&gt;, so they work uniformly on</text><text x="0" y="30" font-family="Virgil, Segoe UI Emoji" font-size="12px" fill="#000000" text-anchor="start" style="white-space: pre;" direction="ltr" dominant-baseline="text-before-edge">InMemoryBoard and StreamingBoard. New seeders can be added without touching board storage.</text></g></svg>