<svg version="1.1" xmlns="http://www.w3.org/2000/svg" viewBox="0 0 960 590" width="960" height="590">
  <!-- svg-source:excalidraw -->
  
  <defs>
    <style class="style-fonts">
      @font-face {
        font-family: "Virgil";
        src: url("https://unpkg.com/@excalidraw/excalidraw@undefined/dist/excalidraw-assets/Virgil.woff2");
      }
      @font-face {
        font-family: "Cascadia";
        src: url("https://unpkg.com/@excalidraw/excalidraw@undefined/dist/excalidraw-assets/Cascadia.woff2");
      }
      @font-face {
        font-family: "Assistant";
        src: url("https://unpkg.com/@excalidraw/excalidraw@undefined/dist/excalidraw-assets/Assistant-Regular.woff2");
      }
    </style>
    
  </defs>
  <rect x="0" y="0" width="960" height="590" fill="#ffffff"></rect><g transform="translate(210 40) rotate(0 300 25)"><text x="300" y="0" font-family="Virgil, Segoe UI Emoji" font-size="32px" fill="#000000" text-anchor="middle" style="white-space: pre;" direction="ltr" dominant-baseline="text-before-edge">CLI binary vs. desktop app</text></g><g transform="translate(210 100) rotate(0 300 15)"><text x="300" y="0" font-family="Virgil, Segoe UI Emoji" font-size="16px" fill="#000000" text-anchor="middle" style="white-space: pre;" direction="ltr" dominant-baseline="text-before-edge">Both binaries consume the shared game_of_life library</text></g><g stroke-linecap="round" transform="translate(390 290) rotate(0 120 70)"><path d="M7.86 8.16 C7.86 8.16, 7.86 8.16, 7.86 8.16 M7.86 8.16 C7.86 8.16, 7.86 8.16, 7.86 8.16 M1.43 27.75 C7.44 21.33, 16.97 10.26, 24.4 1.33 M1.43 27.75 C9.13 19.17, 17.38 9.97, 24.4 1.33 M0.91 40.54 C10.25 30.52, 15.91 21.95, 36.34 -0.21 M0.91 40.54 C10.52 31.33, 17.87 20.8, 36.34 -0.21 M1.04 52.58 C13.57 36.42, 26.2 23.98, 46.97 -0.25 M1.04 52.58 C17.02 34.66, 32.03 16.49, 46.97 -0.25 M1.18 64.62 C16.63 44.95, 32.87 28.64, 57.6 -0.28 M1.18 64.62 C19.96 42.83, 39.52 22.18, 57.6 -0.28 M1.31 76.67 C24.3 50.2, 43.05 26.94, 67.57 0.44 M1.31 76.67 C18.6 55.67, 36.61 36.35, 67.57 0.44 M1.44 88.71 C21.68 63.97, 42.75 40.08, 78.2 0.41 M1.44 88.71 C29.08 57.34, 56.95 24.81, 78.2 0.41 M0.92 101.5 C19.28 80.65, 39.13 55.25, 88.83 0.37 M0.92 101.5 C34.84 62.19, 71.06 21.42, 88.83 0.37 M1.05 113.54 C22.84 85.67, 46.04 59.81, 99.46 0.34 M1.05 113.54 C37.77 70.82, 73.58 28.86, 99.46 0.34 M3.16 123.32 C29.62 92.71, 57.04 63.85, 110.09 0.3 M3.16 123.32 C35.64 84.04, 70.03 45.71, 110.09 0.3 M7.22 130.83 C35.67 95.09, 69.4 60.58, 120.72 0.27 M7.22 130.83 C37.61 92.47, 71.12 57.37, 120.72 0.27 M13.26 136.08 C36.48 110.61, 58.23 79.62, 131.35 0.23 M13.26 136.08 C39.26 106.19, 66.99 74.82, 131.35 0.23 M21.27 139.06 C53.96 97.62, 90.28 57.44, 141.98 0.2 M21.27 139.06 C64.61 87.5, 108.67 35.6, 141.98 0.2 M31.24 139.78 C73.45 92.76, 117.86 43.06, 152.61 0.16 M31.24 139.78 C62.83 101.7, 96.85 63.13, 152.61 0.16 M41.22 140.51 C81.51 92.65, 122.97 47.09, 163.24 0.13 M41.22 140.51 C89.83 83, 138.12 27.61, 163.24 0.13 M51.85 140.47 C88.71 98.16, 123 57.35, 173.87 0.09 M51.85 140.47 C77.69 111.68, 102.98 81.63, 173.87 0.09 M62.48 140.44 C90.95 106.52, 120.58 70.69, 184.5 0.06 M62.48 140.44 C99.39 98.65, 136.96 56.66, 184.5 0.06 M73.11 140.4 C109.68 96.71, 146.53 54.32, 195.13 0.03 M73.11 140.4 C111.84 97.53, 150.5 51.23, 195.13 0.03 M83.74 140.37 C123.18 97.4, 161.94 50.66, 205.76 -0.01 M83.74 140.37 C117.49 99.45, 153.16 58.01, 205.76 -0.01 M94.37 140.33 C118.63 113.12, 146.42 82.59, 215.74 0.71 M94.37 140.33 C133.13 95.27, 171.18 53.3, 215.74 0.71 M105 140.3 C140.37 102.82, 173.83 61.3, 223.74 3.7 M105 140.3 C143.95 95.19, 184.6 49.79, 223.74 3.7 M115.63 140.26 C144.7 108.52, 174.27 72.4, 231.09 7.43 M115.63 140.26 C140.45 111.49, 166.01 83.8, 231.09 7.43 M126.26 140.23 C172.37 88.75, 215.94 39.04, 236.48 13.44 M126.26 140.23 C157.87 102.86, 191.35 64.6, 236.48 13.44 M136.89 140.19 C163.37 108.69, 190.81 75.94, 239.23 22.46 M136.89 140.19 C166.07 107.42, 194.98 73.73, 239.23 22.46 M147.52 140.16 C174.02 109.94, 198.01 82.25, 240.02 33.75 M147.52 140.16 C165.74 117.1, 185.05 97.11, 240.02 33.75 M158.15 140.13 C184.24 108.48, 213.41 79.54, 240.15 45.79 M158.15 140.13 C181.52 113.36, 203.75 85.12, 240.15 45.79 M168.78 140.09 C187.03 117.99, 206.59 100.07, 240.29 57.83 M168.78 140.09 C192.95 110.45, 218.63 82.08, 240.29 57.83 M179.41 140.06 C192.96 125.21, 210.2 108.07, 240.42 69.87 M179.41 140.06 C193.41 123.67, 207.78 106.57, 240.42 69.87 M190.04 140.02 C203.29 126.4, 215.8 109.26, 239.9 82.66 M190.04 140.02 C200.05 126.62, 211.17 114.74, 239.9 82.66 M200.67 139.99 C212.21 128.48, 222.7 113.57, 240.03 94.71 M200.67 139.99 C210.2 129.21, 219.61 117.41, 240.03 94.71 M211.3 139.95 C219.44 129.79, 233.13 117.96, 240.16 106.75 M211.3 139.95 C222.38 128.62, 231.23 117.57, 240.16 106.75 M224.55 136.9 C228.88 130.53, 233.2 127.03, 238.33 121.05 M224.55 136.9 C227.48 132.35, 231.8 127.81, 238.33 121.05" stroke="#CFE4FA" stroke-width="1" fill="none"></path><path d="M32 0 C68.06 0.61, 102.08 0.81, 208 0 M32 0 C80.07 -0.09, 127.51 1.13, 208 0 M208 0 C228.04 0.53, 240.88 12.29, 240 32 M208 0 C229.53 0.56, 238.67 12.4, 240 32 M240 32 C241.19 46.78, 240.75 66.29, 240 108 M240 32 C238.94 61.29, 239.69 90.62, 240 108 M240 108 C240.6 127.73, 229.82 138.28, 208 140 M240 108 C238.31 129.4, 230.27 140.81, 208 140 M208 140 C171.09 141.53, 133.11 141.55, 32 140 M208 140 C169.81 142.38, 131.79 141.73, 32 140 M32 140 C8.78 139.71, -0.18 129.86, 0 108 M32 140 C12.5 139.98, 2.16 129.43, 0 108 M0 108 C-1.27 85.92, 0.71 62.88, 0 32 M0 108 C-0.67 87.63, 0.55 65.31, 0 32 M0 32 C0.44 12.66, 9.12 -1.31, 32 0 M0 32 C-0.62 8.6, 11.68 2.27, 32 0" stroke="#0078D4" stroke-width="2" fill="none"></path></g><g transform="translate(10 10) rotate(0 120 30)"><text x="120" y="0" font-family="Cascadia, Segoe UI Emoji" font-size="18px" fill="#000000" text-anchor="middle" style="white-space: pre;" direction="ltr" dominant-baseline="text-before-edge">game_of_life</text><text x="120" y="30" font-family="Cascadia, Segoe UI Emoji" font-size="18px" fill="#000000" text-anchor="middle" style="white-space: pre;" direction="ltr" dominant-baseline="text-before-edge">(library crate)</text></g><g stroke-linecap="round" transform="translate(70 210) rotate(0 120 70)"><path d="M7.86 8.16 C7.86 8.16, 7.86 8.16, 7.86 8.16 M7.86 8.16 C7.86 8.16, 7.86 8.16, 7.86 8.16 M1.43 27.75 C7.44 21.33, 16.97 10.26, 24.4 1.33 M1.43 27.75 C9.13 19.17, 17.38 9.97, 24.4 1.33 M0.91 40.54 C10.25 30.52, 15.91 21.95, 36.34 -0.21 M0.91 40.54 C10.52 31.33, 17.87 20.8, 36.34 -0.21 M1.04 52.58 C13.57 36.42, 26.2 23.98, 46.97 -0.25 M1.04 52.58 C17.02 34.66, 32.03 16.49, 46.97 -0.25 M1.18 64.62 C16.63 44.95, 32.87 28.64, 57.6 -0.28 M1.18 64.62 C19.96 42.83, 39.52 22.18, 57.6 -0.28 M1.31 76.67 C24.3 50.2, 43.05 26.94, 67.57 0.44 M1.31 76.67 C18.6 55.67, 36.61 36.35, 67.57 0.44 M1.44 88.71 C21.68 63.97, 42.75 40.08, 78.2 0.41 M1.44 88.71 C29.08 57.34, 56.95 24.81, 78.2 0.41 M0.92 101.5 C19.28 80.65, 39.13 55.25, 88.83 0.37 M0.92 101.5 C34.84 62.19, 71.06 21.42, 88.83 0.37 M1.05 113.54 C22.84 85.67, 46.04 59.81, 99.46 0.34 M1.05 113.54 C37.77 70.82, 73.58 28.86, 99.46 0.34 M3.16 123.32 C29.62 92.71, 57.04 63.85, 110.09 0.3 M3.16 123.32 C35.64 84.04, 70.03 45.71, 110.09 0.3 M7.22 130.83 C35.67 95.09, 69.4 60.58, 120.72 0.27 M7.22 130.83 C37.61 92.47, 71.12 57.37, 120.72 0.27 M13.26 136.08 C36.48 110.61, 58.23 79.62, 131.35 0.23 M13.26 136.08 C39.26 106.19, 66.99 74.82, 131.35 0.23 M21.27 139.06 C53.96 97.62, 90.28 57.44, 141.98 0.2 M21.27 139.06 C64.61 87.5, 108.67 35.6, 141.98 0.2 M31.24 139.78 C73.45 92.76, 117.86 43.06, 152.61 0.16 M31.24 139.78 C62.83 101.7, 96.85 63.13, 152.61 0.16 M41.22 140.51 C81.51 92.65, 122.97 47.09, 163.24 0.13 M41.22 140.51 C89.83 83, 138.12 27.61, 163.24 0.13 M51.85 140.47 C88.71 98.16, 123 57.35, 173.87 0.09 M51.85 140.47 C77.69 111.68, 102.98 81.63, 173.87 0.09 M62.48 140.44 C90.95 106.52, 120.58 70.69, 184.5 0.06 M62.48 140.44 C99.39 98.65, 136.96 56.66, 184.5 0.06 M73.11 140.4 C109.68 96.71, 146.53 54.32, 195.13 0.03 M73.11 140.4 C111.84 97.53, 150.5 51.23, 195.13 0.03 M83.74 140.37 C123.18 97.4, 161.94 50.66, 205.76 -0.01 M83.74 140.37 C117.49 99.45, 153.16 58.01, 205.76 -0.01 M94.37 140.33 C118.63 113.12, 146.42 82.59, 215.74 0.71 M94.37 140.33 C133.13 95.27, 171.18 53.3, 215.74 0.71 M105 140.3 C140.37 102.82, 173.83 61.3, 223.74 3.7 M105 140.3 C143.95 95.19, 184.6 49.79, 223.74 3.7 M115.63 140.26 C144.7 108.52, 174.27 72.4, 231.09 7.43 M115.63 140.26 C140.45 111.49, 166.01 83.8, 231.09 7.43 M126.26 140.23 C172.37 88.75, 215.94 39.04, 236.48 13.44 M126.26 140.23 C157.87 102.86, 191.35 64.6, 236.48 13.44 M136.89 140.19 C163.37 108.69, 190.81 75.94, 239.23 22.46 M136.89 140.19 C166.07 107.42, 194.98 73.73, 239.23 22.46 M147.52 140.16 C174.02 109.94, 198.01 82.25, 240.02 33.75 M147.52 140.16 C165.74 117.1, 185.05 97.11, 240.02 33.75 M158.15 140.13 C184.24 108.48, 213.41 79.54, 240.15 45.79 M158.15 140.13 C181.52 113.36, 203.75 85.12, 240.15 45.79 M168.78 140.09 C187.03 117.99, 206.59 100.07, 240.29 57.83 M168.78 140.09 C192.95 110.45, 218.63 82.08, 240.29 57.83 M179.41 140.06 C192.96 125.21, 210.2 108.07, 240.42 69.87 M179.41 140.06 C193.41 123.67, 207.78 106.57, 240.42 69.87 M190.04 140.02 C203.29 126.4, 215.8 109.26, 239.9 82.66 M190.04 140.02 C200.05 126.62, 211.17 114.74, 239.9 82.66 M200.67 139.99 C212.21 128.48, 222.7 113.57, 240.03 94.71 M200.67 139.99 C210.2 129.21, 219.61 117.41, 240.03 94.71 M211.3 139.95 C219.44 129.79, 233.13 117.96, 240.16 106.75 M211.3 139.95 C222.38 128.62, 231.23 117.57, 240.16 106.75 M224.55 136.9 C228.88 130.53, 233.2 127.03, 238.33 121.05 M224.55 136.9 C227.48 132.35, 231.8 127.81, 238.33 121.05" stroke="#DFF6DD" stroke-width="1" fill="none"></path><path d="M32 0 C68.06 0.61, 102.08 0.81, 208 0 M32 0 C80.07 -0.09, 127.51 1.13, 208 0 M208 0 C228.04 0.53, 240.88 12.29, 240 32 M208 0 C229.53 0.56, 238.67 12.4, 240 32 M240 32 C241.19 46.78, 240.75 66.29, 240 108 M240 32 C238.94 61.29, 239.69 90.62, 240 108 M240 108 C240.6 127.73, 229.82 138.28, 208 140 M240 108 C238.31 129.4, 230.27 140.81, 208 140 M208 140 C171.09 141.53, 133.11 141.55, 32 140 M208 140 C169.81 142.38, 131.79 141.73, 32 140 M32 140 C8.78 139.71, -0.18 129.86, 0 108 M32 140 C12.5 139.98, 2.16 129.43, 0 108 M0 108 C-1.27 85.92, 0.71 62.88, 0 32 M0 108 C-0.67 87.63, 0.55 65.31, 0 32 M0 32 C0.44 12.66, 9.12 -1.31, 32 0 M0 32 C-0.62 8.6, 11.68 2.27, 32 0" stroke="#107C10" stroke-width="2" fill="none"></path></g><g transform="translate(10 10) rotate(0 120 30)"><text x="120" y="0" font-family="Cascadia, Segoe UI Emoji" font-size="18px" fill="#000000" text-anchor="middle" style="white-space: pre;" direction="ltr" dominant-baseline="text-before-edge">game-of-life</text><text x="120" y="30" font-family="Cascadia, Segoe UI Emoji" font-size="18px" fill="#000000" text-anchor="middle" style="white-space: pre;" direction="ltr" dominant-baseline="text-before-edge">(CLI binary)</text></g><g stroke-linecap="round" transform="translate(710 210) rotate(0 120 70)"><path d="M7.86 8.16 C7.86 8.16, 7.86 8.16, 7.86 8.16 M7.86 8.16 C7.86 8.16, 7.86 8.16, 7.86 8.16 M1.43 27.75 C7.44 21.33, 16.97 10.26, 24.4 1.33 M1.43 27.75 C9.13 19.17, 17.38 9.97, 24.4 1.33 M0.91 40.54 C10.25 30.52, 15.91 21.95, 36.34 -0.21 M0.91 40.54 C10.52 31.33, 17.87 20.8, 36.34 -0.21 M1.04 52.58 C13.57 36.42, 26.2 23.98, 46.97 -0.25 M1.04 52.58 C17.02 34.66, 32.03 16.49, 46.97 -0.25 M1.18 64.62 C16.63 44.95, 32.87 28.64, 57.6 -0.28 M1.18 64.62 C19.96 42.83, 39.52 22.18, 57.6 -0.28 M1.31 76.67 C24.3 50.2, 43.05 26.94, 67.57 0.44 M1.31 76.67 C18.6 55.67, 36.61 36.35, 67.57 0.44 M1.44 88.71 C21.68 63.97, 42.75 40.08, 78.2 0.41 M1.44 88.71 C29.08 57.34, 56.95 24.81, 78.2 0.41 M0.92 101.5 C19.28 80.65, 39.13 55.25, 88.83 0.37 M0.92 101.5 C34.84 62.19, 71.06 21.42, 88.83 0.37 M1.05 113.54 C22.84 85.67, 46.04 59.81, 99.46 0.34 M1.05 113.54 C37.77 70.82, 73.58 28.86, 99.46 0.34 M3.16 123.32 C29.62 92.71, 57.04 63.85, 110.09 0.3 M3.16 123.32 C35.64 84.04, 70.03 45.71, 110.09 0.3 M7.22 130.83 C35.67 95.09, 69.4 60.58, 120.72 0.27 M7.22 130.83 C37.61 92.47, 71.12 57.37, 120.72 0.27 M13.26 136.08 C36.48 110.61, 58.23 79.62, 131.35 0.23 M13.26 136.08 C39.26 106.19, 66.99 74.82, 131.35 0.23 M21.27 139.06 C53.96 97.62, 90.28 57.44, 141.98 0.2 M21.27 139.06 C64.61 87.5, 108.67 35.6, 141.98 0.2 M31.24 139.78 C73.45 92.76, 117.86 43.06, 152.61 0.16 M31.24 139.78 C62.83 101.7, 96.85 63.13, 152.61 0.16 M41.22 140.51 C81.51 92.65, 122.97 47.09, 163.24 0.13 M41.22 140.51 C89.83 83, 138.12 27.61, 163.24 0.13 M51.85 140.47 C88.71 98.16, 123 57.35, 173.87 0.09 M51.85 140.47 C77.69 111.68, 102.98 81.63, 173.87 0.09 M62.48 140.44 C90.95 106.52, 120.58 70.69, 184.5 0.06 M62.48 140.44 C99.39 98.65, 136.96 56.66, 184.5 0.06 M73.11 140.4 C109.68 96.71, 146.53 54.32, 195.13 0.03 M73.11 140.4 C111.84 97.53, 150.5 51.23, 195.13 0.03 M83.74 140.37 C123.18 97.4, 161.94 50.66, 205.76 -0.01 M83.74 140.37 C117.49 99.45, 153.16 58.01, 205.76 -0.01 M94.37 140.33 C118.63 113.12, 146.42 82.59, 215.74 0.71 M94.37 140.33 C133.13 95.27, 171.18 53.3, 215.74 0.71 M105 140.3 C140.37 102.82, 173.83 61.3, 223.74 3.7 M105 140.3 C143.95 95.19, 184.6 49.79, 223.74 3.7 M115.63 140.26 C144.7 108.52, 174.27 72.4, 231.09 7.43 M115.63 140.26 C140.45 111.49, 166.01 83.8, 231.09 7.43 M126.26 140.23 C172.37 88.75, 215.94 39.04, 236.48 13.44 M126.26 140.23 C157.87 102.86, 191.35 64.6, 236.48 13.44 M136.89 140.19 C163.37 108.69, 190.81 75.94, 239.23 22.46 M136.89 140.19 C166.07 107.42, 194.98 73.73, 239.23 22.46 M147.52 140.16 C174.02 109.94, 198.01 82.25, 240.02 33.75 M147.52 140.16 C165.74 117.1, 185.05 97.11, 240.02 33.75 M158.15 140.13 C184.24 108.48, 213.41 79.54, 240.15 45.79 M158.15 140.13 C181.52 113.36, 203.75 85.12, 240.15 45.79 M168.78 140.09 C187.03 117.99, 206.59 100.07, 240.29 57.83 M168.78 140.09 C192.95 110.45, 218.63 82.08, 240.29 57.83 M179.41 140.06 C192.96 125.21, 210.2 108.07, 240.42 69.87 M179.41 140.06 C193.41 123.67, 207.78 106.57, 240.42 69.87 M190.04 140.02 C203.29 126.4, 215.8 109.26, 239.9 82.66 M190.04 140.02 C200.05 126.62, 211.17 114.74, 239.9 82.66 M200.67 139.99 C212.21 128.48, 222.7 113.57, 240.03 94.71 M200.67 139.99 C210.2 129.21, 219.61 117.41, 240.03 94.71 M211.3 139.95 C219.44 129.79, 233.13 117.96, 240.16 106.75 M211.3 139.95 C222.38 128.62, 231.23 117.57, 240.16 106.75 M224.55 136.9 C228.88 130.53, 233.2 127.03, 238.33 121.05 M224.55 136.9 C227.48 132.35, 231.8 127.81, 238.33 121.05" stroke="#E8DAEF" stroke-width="1" fill="none"></path><path d="M32 0 C68.06 0.61, 102.08 0.81, 208 0 M32 0 C80.07 -0.09, 127.51 1.13, 208 0 M208 0 C228.04 0.53, 240.88 12.29, 240 32 M208 0 C229.53 0.56, 238.67 12.4, 240 32 M240 32 C241.19 46.78, 240.75 66.29, 240 108 M240 32 C238.94 61.29, 239.69 90.62, 240 108 M240 108 C240.6 127.73, 229.82 138.28, 208 140 M240 108 C238.31 129.4, 230.27 140.81, 208 140 M208 140 C171.09 141.53, 133.11 141.55, 32 140 M208 140 C169.81 142.38, 131.79 141.73, 32 140 M32 140 C8.78 139.71, -0.18 129.86, 0 108 M32 140 C12.5 139.98, 2.16 129.43, 0 108 M0 108 C-1.27 85.92, 0.71 62.88, 0 32 M0 108 C-0.67 87.63, 0.55 65.31, 0 32 M0 32 C0.44 12.66, 9.12 -1.31, 32 0 M0 32 C-0.62 8.6, 11.68 2.27, 32 0" stroke="#5C2D91" stroke-width="2" fill="none"></path></g><g transform="translate(10 10) rotate(0 120 30)"><text x="120" y="0" font-family="Cascadia, Segoe UI Emoji" font-size="18px" fill="#000000" text-anchor="middle" style="white-space: pre;" direction="ltr" dominant-baseline="text-before-edge">desktop</text><text x="120" y="30" font-family="Cascadia, Segoe UI Emoji" font-size="18px" fill="#000000" text-anchor="middle" style="white-space: pre;" direction="ltr" dominant-baseline="text-before-edge">(Tauri app)</text></g><g stroke-linecap="round"><g transform="translate(310 290) rotate(0 40 30)"><path d="M0 0 C16.36 12.8, 31.18 25, 80 60 M0 0 C21.44 15.85, 42.77 33.39, 80 60" stroke="#495057" stroke-width="2" fill="none"></path></g><g transform="translate(310 290) rotate(0 40 30)"><path d="M51.19 51.63 C57.74 54.21, 62.33 56.08, 80 60 M51.19 51.63 C59.15 53.23, 66.56 56.73, 80 60" stroke="#495057" stroke-width="2" fill="none"></path></g><g transform="translate(310 290) rotate(0 40 30)"><path d="M63.31 35.07 C67.3 40.99, 69.46 46.17, 80 60 M63.31 35.07 C67.83 41.13, 71.95 49.13, 80 60" stroke="#495057" stroke-width="2" fill="none"></path></g></g><mask></mask><g stroke-linecap="round"><g transform="translate(710 350) rotate(0 -40 -30)"><path d="M0 0 C-14.65 -10.87, -31.82 -22.68, -80 -60 M0 0 C-21.04 -17.42, -43.23 -32.52, -80 -60" stroke="#495057" stroke-width="2" fill="none"></path></g><g transform="translate(710 350) rotate(0 -40 -30)"><path d="M-51.22 -51.52 C-56.05 -52.19, -62.98 -53.69, -80 -60 M-51.22 -51.52 C-58.78 -54.73, -67.03 -55.81, -80 -60" stroke="#495057" stroke-width="2" fill="none"></path></g><g transform="translate(710 350) rotate(0 -40 -30)"><path d="M-63.41 -35.01 C-65.66 -39.01, -70.16 -43.81, -80 -60 M-63.41 -35.01 C-67.51 -42.66, -72.45 -48.24, -80 -60" stroke="#495057" stroke-width="2" fill="none"></path></g></g><mask></mask><g transform="translate(70 480) rotate(0 120 50)"><text x="0" y="0" font-family="Virgil, Segoe UI Emoji" font-size="13px" fill="#000000" text-anchor="start" style="white-space: pre;" direction="ltr" dominant-baseline="text-before-edge">CLI-only:</text><text x="0" y="25" font-family="Virgil, Segoe UI Emoji" font-size="13px" fill="#000000" text-anchor="start" style="white-space: pre;" direction="ltr" dominant-baseline="text-before-edge">• flag parsing</text><text x="0" y="50" font-family="Virgil, Segoe UI Emoji" font-size="13px" fill="#000000" text-anchor="start" style="white-space: pre;" direction="ltr" dominant-baseline="text-before-edge">• stdout rendering</text><text x="0" y="75" font-family="Virgil, Segoe UI Emoji" font-size="13px" fill="#000000" text-anchor="start" style="white-space: pre;" direction="ltr" dominant-baseline="text-before-edge">• run record IO</text></g><g transform="translate(390 480) rotate(0 120 50)"><text x="0" y="0" font-family="Virgil, Segoe UI Emoji" font-size="13px" fill="#000000" text-anchor="start" style="white-space: pre;" direction="ltr" dominant-baseline="text-before-edge">Library provides:</text><text x="0" y="16.666666666666668" font-family="Virgil, Segoe UI Emoji" font-size="13px" fill="#000000" text-anchor="start" style="white-space: pre;" direction="ltr" dominant-baseline="text-before-edge">• SimulationConfig</text><text x="0" y="33.333333333333336" font-family="Virgil, Segoe UI Emoji" font-size="13px" fill="#000000" text-anchor="start" style="white-space: pre;" direction="ltr" dominant-baseline="text-before-edge">• Board + algorithms</text><text x="0" y="50" font-family="Virgil, Segoe UI Emoji" font-size="13px" fill="#000000" text-anchor="start" style="white-space: pre;" direction="ltr" dominant-baseline="text-before-edge">• Persistence</text><text x="0" y="66.66666666666667" font-family="Virgil, Segoe UI Emoji" font-size="13px" fill="#000000" text-anchor="start" style="white-space: pre;" direction="ltr" dominant-baseline="text-before-edge">• Streaming</text><text x="0" y="83.33333333333334" font-family="Virgil, Segoe UI Emoji" font-size="13px" fill="#000000" text-anchor="start" style="white-space: pre;" direction="ltr" dominant-baseline="text-before-edge">• Stats</text></g><g transform="translate(710 480) rotate(0 120 50)"><text x="0" y="0" font-family="Virgil, Segoe UI Emoji" font-size="13px" fill="#000000" text-anchor="start" style="white-space: pre;" direction="ltr" dominant-baseline="text-before-edge">Desktop-only:</text><text x="0" y="20" font-family="Virgil, Segoe UI Emoji" font-size="13px" fill="#000000" text-anchor="start" style="white-space: pre;" direction="ltr" dominant-baseline="text-before-edge">• Tauri IPC</text><text x="0" y="40" font-family="Virgil, Segoe UI Emoji" font-size="13px" fill="#000000" text-anchor="start" style="white-space: pre;" direction="ltr" dominant-baseline="text-before-edge">• Session lifecycle</text><text x="0" y="60" font-family="Virgil, Segoe UI Emoji" font-size="13px" fill="#000000" text-anchor="start" style="white-space: pre;" direction="ltr" dominant-baseline="text-before-edge">• TypeScript UI</text><text x="0" y="80" font-family="Virgil, Segoe UI Emoji" font-size="13px" fill="#000000" text-anchor="start" style="white-space: pre;" direction="ltr" dominant-baseline="text-before-edge">• Webview events</text></g></svg>