<svg version="1.1" xmlns="http://www.w3.org/2000/svg" viewBox="0 0 1160 860" width="1160" height="860">
  <!-- svg-source:excalidraw -->
  
  <defs>
    <style class="style-fonts">
      @font-face {
        font-family: "Virgil";
        src: url("https://unpkg.com/@excalidraw/excalidraw@undefined/dist/excalidraw-assets/Virgil.woff2");
      }
      @font-face {
        font-family: "Cascadia";
        src: url("https://unpkg.com/@excalidraw/excalidraw@undefined/dist/excalidraw-assets/Cascadia.woff2");
      }
      @font-face {
        font-family: "Assistant";
        src: url("https://unpkg.com/@excalidraw/excalidraw@undefined/dist/excalidraw-assets/Assistant-Regular.woff2");
      }
    </style>
    
  </defs>
  <rect x="0" y="0" width="1160" height="860" fill="#ffffff"></rect><g transform="translate(10 10) rotate(0 450 25)"><text x="0" y="0" font-family="Virgil, Segoe UI Emoji" font-size="24px" fill="#000000" text-anchor="start" style="white-space: pre;" direction="ltr" dominant-baseline="text-before-edge">Persistence: snapshot vs run record (back-fill for PR #7)</text></g><g transform="translate(10 70) rotate(0 550 20)"><text x="0" y="0" font-family="Virgil, Segoe UI Emoji" font-size="13px" fill="#000000" text-anchor="start" style="white-space: pre;" direction="ltr" dominant-baseline="text-before-edge">Two file kinds share one parser pair. Snapshots are hand-editable, hash-free. Run records carry config + stats +</text><text x="0" y="20" font-family="Virgil, Segoe UI Emoji" font-size="13px" fill="#000000" text-anchor="start" style="white-space: pre;" direction="ltr" dominant-baseline="text-before-edge">board blocks and are protected by a content_hash trailer (FNV-1a 64-bit).</text></g><g stroke-linecap="round" transform="translate(10 140) rotate(0 240 140)"><path d="M32 0 C115.66 0.07, 198.23 0.17, 448 0 M32 0 C145.26 0.47, 258.18 1.12, 448 0 M448 0 C468.04 0.53, 480.88 12.29, 480 32 M448 0 C469.53 0.56, 478.67 12.4, 480 32 M480 32 C480.47 77.45, 480.09 127.04, 480 248 M480 32 C478.07 115.86, 478.73 199.76, 480 248 M480 248 C480.6 267.73, 469.82 278.28, 448 280 M480 248 C478.31 269.4, 470.27 280.81, 448 280 M448 280 C358.85 282.11, 269.12 282.12, 32 280 M448 280 C358.11 282.47, 268.31 282.12, 32 280 M32 280 C8.78 279.71, -0.18 269.86, 0 248 M32 280 C12.5 279.98, 2.16 269.43, 0 248 M0 248 C-2 185.8, -0.27 122.76, 0 32 M0 248 C-0.7 188.85, 0.37 128, 0 32 M0 32 C0.44 12.66, 9.12 -1.31, 32 0 M0 32 C-0.62 8.6, 11.68 2.27, 32 0" stroke="#1864ab" stroke-width="2" fill="none"></path></g><g transform="translate(30 155) rotate(0 220 15)"><text x="0" y="0" font-family="Virgil, Segoe UI Emoji" font-size="16px" fill="#000000" text-anchor="start" style="white-space: pre;" direction="ltr" dominant-baseline="text-before-edge">Board snapshot (GOL-BOARD-SNAPSHOT v1)</text></g><g stroke-linecap="round" transform="translate(30 200) rotate(0 220 100)"><path d="M0 0 C0 0, 0 0, 0 0 M0 0 C0 0, 0 0, 0 0 M-0.26 6.4 C1.76 4.45, 3.11 2.54, 4.99 0.36 M-0.26 6.4 C2.08 3.89, 3.31 1.91, 4.99 0.36 M0.13 12.04 C1 8.94, 5.32 8.32, 10.63 -0.03 M0.13 12.04 C4.13 7.61, 6.9 5.23, 10.63 -0.03 M-0.13 18.44 C4.2 12.83, 8.54 8.18, 15.62 0.33 M-0.13 18.44 C2.87 14.4, 7.71 9.29, 15.62 0.33 M0.27 24.08 C6.49 14.7, 11.85 8.98, 21.26 -0.07 M0.27 24.08 C7.67 14.69, 15.12 6.76, 21.26 -0.07 M0 30.48 C9.63 18.52, 18.62 5.54, 26.25 0.29 M0 30.48 C7.35 23.63, 13.24 16.76, 26.25 0.29 M-0.26 36.88 C10.94 23.42, 24.08 8.82, 31.89 -0.1 M-0.26 36.88 C10 25.65, 19.11 14.52, 31.89 -0.1 M0.14 42.52 C11.15 31.18, 18.61 21.01, 36.88 0.26 M0.14 42.52 C13.13 28.1, 25.81 13.35, 36.88 0.26 M-0.12 48.92 C12.35 35.88, 23.78 22.96, 42.52 -0.14 M-0.12 48.92 C11.61 36.66, 23.17 22.72, 42.52 -0.14 M0.27 54.56 C15.34 33.85, 32.04 15.13, 47.51 0.22 M0.27 54.56 C8.83 45.06, 19.8 32.35, 47.51 0.22 M0.01 60.96 C14.03 42.83, 28.34 27.02, 53.15 -0.17 M0.01 60.96 C12.78 47.22, 26.41 31.8, 53.15 -0.17 M-0.25 67.36 C18.97 44.23, 39.97 23.06, 58.14 0.19 M-0.25 67.36 C19.51 45.36, 37.66 23.8, 58.14 0.19 M0.14 73 C13.62 56.79, 26.69 43.56, 63.78 -0.21 M0.14 73 C13.11 57.13, 26.84 43.22, 63.78 -0.21 M-0.12 79.4 C16.07 60.68, 30.45 46.16, 68.77 0.15 M-0.12 79.4 C21.11 52.85, 44.81 26.65, 68.77 0.15 M0.28 85.04 C15.53 65.14, 35.01 47.26, 74.41 -0.24 M0.28 85.04 C15.81 68.25, 31.92 49.94, 74.41 -0.24 M0.01 91.44 C21.15 66.71, 44.54 38.28, 79.4 0.12 M0.01 91.44 C20.97 65.5, 43.62 41.68, 79.4 0.12 M-0.25 97.84 C20.28 73.03, 43.66 46.09, 85.04 -0.28 M-0.25 97.84 C23.85 72.8, 46.33 45.91, 85.04 -0.28 M0.15 103.48 C32.16 66.6, 63.82 30.31, 90.03 0.08 M0.15 103.48 C28.81 70.42, 57.29 38.4, 90.03 0.08 M-0.11 109.88 C29.68 71.86, 63.9 37.64, 95.67 -0.31 M-0.11 109.88 C25.82 78.72, 54.14 46.73, 95.67 -0.31 M0.28 115.52 C34.83 75.92, 68.53 36.75, 100.66 0.05 M0.28 115.52 C26.55 87.03, 52.07 56.42, 100.66 0.05 M0.02 121.92 C29.6 85.85, 61.13 49.19, 106.3 -0.34 M0.02 121.92 C32.15 82.49, 67.21 44.46, 106.3 -0.34 M-0.24 128.32 C21.69 99.67, 45.51 73.27, 111.29 0.02 M-0.24 128.32 C22.2 101.14, 45.11 74.81, 111.29 0.02 M0.15 133.96 C38.04 93.16, 70.02 52.47, 116.27 0.38 M0.15 133.96 C35.23 92.78, 72.55 49.98, 116.27 0.38 M-0.11 140.36 C38.88 94.31, 77.65 50.28, 121.92 -0.02 M-0.11 140.36 C37.11 94.9, 75.81 50.93, 121.92 -0.02 M0.29 146 C37.71 106.08, 72.35 61.81, 126.91 0.34 M0.29 146 C49.96 88.92, 99.36 32.13, 126.91 0.34 M0.02 152.4 C28.27 118.14, 59.75 84.42, 132.55 -0.05 M0.02 152.4 C31.6 116.49, 63.29 79.99, 132.55 -0.05 M-0.24 158.8 C38.95 112.64, 77.83 65.57, 137.54 0.31 M-0.24 158.8 C45.51 107.32, 90.21 57.59, 137.54 0.31 M0.16 164.44 C41.39 119.61, 79.96 74.33, 143.18 -0.09 M0.16 164.44 C39.92 118.82, 78.84 74.39, 143.18 -0.09 M-0.1 170.84 C52.61 108.41, 107.02 47.56, 148.17 0.27 M-0.1 170.84 C43.92 121.54, 85.94 72.8, 148.17 0.27 M0.29 176.48 C39.22 130.95, 77.2 85.95, 153.81 -0.12 M0.29 176.48 C32.84 137.47, 65.1 99.78, 153.81 -0.12 M0.03 182.88 C41.06 134.08, 84.64 85.47, 158.8 0.24 M0.03 182.88 C48.12 125.58, 98.65 70.19, 158.8 0.24 M-0.23 189.27 C48.59 132.95, 98.62 76.61, 164.44 -0.16 M-0.23 189.27 C49.61 130.63, 101.35 72.21, 164.44 -0.16 M0.16 194.92 C55.72 129.86, 113.08 64.28, 169.43 0.2 M0.16 194.92 C34.12 154.13, 67.6 113.92, 169.43 0.2 M0.56 200.56 C69.16 122.3, 137.8 42.84, 175.07 -0.19 M0.56 200.56 C56.22 137.28, 110.63 74.27, 175.07 -0.19 M6.2 200.17 C45.58 154.57, 87.5 108.84, 180.06 0.17 M6.2 200.17 C48.59 151.16, 91.18 100.93, 180.06 0.17 M11.19 200.53 C59.59 143.82, 109.72 87.1, 185.7 -0.23 M11.19 200.53 C48.81 159.43, 82.68 118.77, 185.7 -0.23 M16.17 200.89 C51.64 161.42, 85.06 120.28, 190.69 0.13 M16.17 200.89 C68.12 141.33, 119.25 81.03, 190.69 0.13 M21.82 200.49 C84.27 126.86, 146.18 54.47, 196.33 -0.26 M21.82 200.49 C71.64 141.23, 122.14 84.08, 196.33 -0.26 M26.8 200.85 C64.28 158.43, 102 117.75, 201.32 0.1 M26.8 200.85 C76.4 144.87, 126.09 87.18, 201.32 0.1 M32.45 200.46 C95.81 125.96, 158.31 51.03, 206.96 -0.3 M32.45 200.46 C84.69 142.19, 134.19 83.59, 206.96 -0.3 M37.43 200.82 C73.16 160.63, 108.49 121.29, 211.95 0.06 M37.43 200.82 C92.35 136.68, 145.86 74.62, 211.95 0.06 M43.08 200.42 C94.64 140.77, 146.61 79.91, 217.59 -0.33 M43.08 200.42 C87.7 147.16, 134.14 93.11, 217.59 -0.33 M48.06 200.78 C90.2 151.53, 134.24 104.74, 222.58 0.03 M48.06 200.78 C107.36 130.35, 168.89 61.71, 222.58 0.03 M53.71 200.39 C105.28 140.38, 159.72 79.22, 228.22 -0.36 M53.71 200.39 C105.11 142.97, 156.15 86.07, 228.22 -0.36 M58.69 200.75 C128.34 123.29, 198.44 43.17, 233.21 0 M58.69 200.75 C118.84 132.05, 178.61 61.94, 233.21 0 M64.34 200.35 C130.09 125.51, 195.61 48.02, 238.19 0.36 M64.34 200.35 C124.78 129.1, 186.97 58.29, 238.19 0.36 M69.32 200.71 C108.02 157.6, 144.71 113.08, 243.84 -0.04 M69.32 200.71 C126.33 135.23, 182.47 69.66, 243.84 -0.04 M74.97 200.32 C120.13 145.62, 168.68 91.79, 248.82 0.32 M74.97 200.32 C125.06 141.53, 176.57 83.39, 248.82 0.32 M79.95 200.68 C125.24 146.79, 174.18 93.47, 254.47 -0.07 M79.95 200.68 C130.66 140.9, 181.02 83.01, 254.47 -0.07 M85.6 200.28 C152.62 122.54, 217.15 45.25, 259.45 0.29 M85.6 200.28 C128.09 153.17, 169.2 106.74, 259.45 0.29 M90.58 200.65 C129.52 157, 166.47 113.52, 265.1 -0.11 M90.58 200.65 C142.69 140.13, 194.08 78.99, 265.1 -0.11 M96.23 200.25 C142.43 146.97, 192.53 90.2, 270.08 0.25 M96.23 200.25 C160.23 127.68, 223.54 55.16, 270.08 0.25 M101.21 200.61 C160.29 132.68, 219.06 65.52, 275.73 -0.14 M101.21 200.61 C138.09 159.46, 174.28 119.14, 275.73 -0.14 M106.86 200.22 C169.1 132.6, 228.17 63.44, 280.71 0.22 M106.86 200.22 C168.96 128.48, 231.37 55.73, 280.71 0.22 M111.84 200.58 C177.15 125.95, 244.42 48.66, 286.36 -0.18 M111.84 200.58 C167.6 137.57, 222.05 72.98, 286.36 -0.18 M117.49 200.18 C178.08 130.88, 236.72 62.15, 291.34 0.18 M117.49 200.18 C178.52 131.54, 239.21 60.58, 291.34 0.18 M122.47 200.54 C181.98 136.93, 236.43 68.93, 296.99 -0.21 M122.47 200.54 C180.15 135.58, 235.75 71.31, 296.99 -0.21 M128.12 200.15 C178.31 141.75, 229.36 84.03, 301.97 0.15 M128.12 200.15 C192.7 128.66, 254.69 55.02, 301.97 0.15 M133.1 200.51 C176.2 152.57, 219.65 104.25, 307.62 -0.25 M133.1 200.51 C201.32 122.85, 271.04 42.69, 307.62 -0.25 M138.09 200.87 C195.96 135.6, 255.51 65.88, 312.6 0.11 M138.09 200.87 C184.1 148.68, 231.23 95.26, 312.6 0.11 M143.73 200.47 C181.27 159.38, 217.65 118.38, 318.25 -0.28 M143.73 200.47 C189.76 146.28, 237.09 93.53, 318.25 -0.28 M148.72 200.83 C201.87 140.73, 251.97 81.59, 323.23 0.08 M148.72 200.83 C191.68 153.47, 234.41 103.74, 323.23 0.08 M154.37 200.44 C224.51 122.43, 291 45.07, 328.88 -0.31 M154.37 200.44 C214.13 132.26, 273.32 63.8, 328.88 -0.31 M159.35 200.8 C218.07 133.69, 275.73 68.66, 333.86 0.05 M159.35 200.8 C212.83 139.74, 265.69 79.07, 333.86 0.05 M165 200.4 C229.59 129.18, 292.97 53.53, 339.51 -0.35 M165 200.4 C203.17 158.38, 239.38 115.8, 339.51 -0.35 M169.98 200.76 C213.37 150.58, 257.7 99.85, 344.49 0.01 M169.98 200.76 C237.52 124.41, 303.51 48.19, 344.49 0.01 M175.63 200.37 C211.54 159.95, 250.05 117.12, 349.48 0.37 M175.63 200.37 C231.87 137.05, 288.24 71.88, 349.48 0.37 M180.61 200.73 C218.75 156.74, 259.41 108.96, 355.12 -0.02 M180.61 200.73 C218.58 155.05, 257.96 109.29, 355.12 -0.02 M186.26 200.33 C221.77 156.42, 258.35 116.19, 360.11 0.34 M186.26 200.33 C239.15 135.88, 294.37 73.67, 360.11 0.34 M191.24 200.69 C240.05 146.13, 285.85 90.56, 365.75 -0.06 M191.24 200.69 C248.51 134.55, 306.27 69.47, 365.75 -0.06 M196.89 200.3 C256.72 134.63, 313.51 65.15, 370.74 0.3 M196.89 200.3 C247.88 142.02, 297.76 83.63, 370.74 0.3 M201.87 200.66 C265.98 130.51, 329.82 56.48, 376.38 -0.09 M201.87 200.66 C268.47 124.82, 335.2 47.95, 376.38 -0.09 M207.52 200.27 C269.87 125.49, 334.76 50.9, 381.37 0.27 M207.52 200.27 C264.94 136.18, 320.74 71.26, 381.37 0.27 M212.5 200.63 C266.43 139.22, 321.26 77.8, 387.01 -0.13 M212.5 200.63 C251.42 157.24, 290.82 112.21, 387.01 -0.13 M218.15 200.23 C252.16 160.24, 287.74 117.38, 392 0.23 M218.15 200.23 C281.95 127.25, 344.78 53.6, 392 0.23 M223.13 200.59 C270.28 145.04, 320.7 88.15, 397.64 -0.16 M223.13 200.59 C272.77 143.87, 322.14 85.68, 397.64 -0.16 M228.78 200.2 C284.04 136.68, 339.31 69.84, 402.63 0.2 M228.78 200.2 C288.63 132, 347.64 64.48, 402.63 0.2 M233.76 200.56 C290.83 137.5, 344.82 73.31, 408.27 -0.2 M233.76 200.56 C297 128.86, 359.82 56.87, 408.27 -0.2 M239.41 200.16 C290.58 140.26, 345.55 76.91, 413.26 0.16 M239.41 200.16 C283.15 151.05, 324.69 102.49, 413.26 0.16 M244.39 200.52 C308.36 124.79, 375.93 46.57, 418.9 -0.23 M244.39 200.52 C286.32 154.33, 326.5 108.01, 418.9 -0.23 M249.38 200.88 C308.13 133.39, 366.72 62.81, 423.89 0.13 M249.38 200.88 C294.48 150.72, 338.39 100.65, 423.89 0.13 M255.02 200.49 C306.52 140.12, 358.82 78.45, 429.53 -0.26 M255.02 200.49 C295.04 156.32, 332.58 112.11, 429.53 -0.26 M260.01 200.85 C313.71 135.61, 371.03 71.73, 434.52 0.1 M260.01 200.85 C298.24 159.08, 333.8 118.42, 434.52 0.1 M265.65 200.45 C308.97 152.25, 353.04 100.51, 440.16 -0.3 M265.65 200.45 C314.96 143.64, 364.59 87.81, 440.16 -0.3 M270.64 200.81 C326.92 134.78, 385.24 69.71, 440.56 5.34 M270.64 200.81 C327.02 137.3, 381.42 75.07, 440.56 5.34 M276.28 200.42 C321.16 149.71, 362.65 99.28, 440.95 10.99 M276.28 200.42 C322.59 149.61, 366.28 98.62, 440.95 10.99 M281.27 200.78 C342.38 130.91, 401.16 59.93, 440.69 17.38 M281.27 200.78 C327.1 146.52, 374.52 92.76, 440.69 17.38 M286.91 200.38 C337.95 141.11, 386.79 82.84, 440.43 23.78 M286.91 200.38 C328.85 150.23, 371.89 100.84, 440.43 23.78 M291.9 200.74 C327.81 157.18, 367.37 115.98, 440.83 29.43 M291.9 200.74 C349.52 134.2, 408.19 67.98, 440.83 29.43 M297.54 200.35 C336.22 157.24, 371.97 113.06, 440.56 35.82 M297.54 200.35 C344.62 146.63, 391.1 93.16, 440.56 35.82 M302.53 200.71 C335.02 165.21, 370.27 124.55, 440.96 41.47 M302.53 200.71 C350.02 149.05, 396.43 95.35, 440.96 41.47 M308.17 200.32 C342.15 159.41, 377.79 120.82, 440.7 47.86 M308.17 200.32 C339.79 161.65, 372.48 124.81, 440.7 47.86 M313.16 200.68 C343.39 165.91, 374.21 127.58, 440.44 54.26 M313.16 200.68 C343.28 163.37, 375.57 128.07, 440.44 54.26 M318.8 200.28 C362.46 150.08, 405.48 99.67, 440.83 59.9 M318.8 200.28 C367.2 146.28, 416.38 90.19, 440.83 59.9 M323.79 200.64 C354.85 165.15, 383.9 129.3, 440.57 66.3 M323.79 200.64 C362.09 158.24, 400.6 113.74, 440.57 66.3 M329.43 200.25 C366.36 155.74, 405.06 110.33, 440.96 71.95 M329.43 200.25 C370.95 152.66, 411.81 106.22, 440.96 71.95 M334.42 200.61 C364.7 163.93, 398.99 126.63, 440.7 78.34 M334.42 200.61 C366.3 162.44, 399.19 125.8, 440.7 78.34 M340.06 200.21 C363.59 169.93, 386.89 141.15, 440.44 84.74 M340.06 200.21 C365.13 170.43, 391.65 141.22, 440.44 84.74 M345.05 200.57 C370.33 171.6, 392.65 146.9, 440.84 90.38 M345.05 200.57 C366.82 175.5, 390.11 148.9, 440.84 90.38 M350.69 200.18 C375.11 171.72, 398.05 146.31, 440.57 96.78 M350.69 200.18 C370.79 178.8, 389.37 155.7, 440.57 96.78 M355.68 200.54 C375.81 177.68, 395 156.1, 440.97 102.43 M355.68 200.54 C383.59 169.73, 410.12 139.5, 440.97 102.43 M361.32 200.14 C381.71 178.74, 398.09 155.38, 440.71 108.82 M361.32 200.14 C382.84 173.99, 403.46 149.8, 440.71 108.82 M366.31 200.5 C384.2 180.56, 400.28 157.75, 440.45 115.22 M366.31 200.5 C382.6 181.45, 399.39 163.98, 440.45 115.22 M371.3 200.86 C395.17 170.29, 421.93 142.55, 440.84 120.86 M371.3 200.86 C395.25 175.41, 417.04 149.42, 440.84 120.86 M376.94 200.47 C394.37 182.38, 411.86 161.76, 440.58 127.26 M376.94 200.47 C388.55 185.24, 403.1 171.01, 440.58 127.26 M381.93 200.83 C398.6 183.65, 415.85 162.07, 440.97 132.9 M381.93 200.83 C403.89 175.27, 426.3 150.32, 440.97 132.9 M387.57 200.43 C402.35 186.6, 413.33 169.22, 440.71 139.3 M387.57 200.43 C408.08 176.6, 429.89 151.38, 440.71 139.3 M392.56 200.79 C412.88 177.82, 428.5 157.54, 440.45 145.7 M392.56 200.79 C401.96 188.37, 414.09 176.75, 440.45 145.7 M398.2 200.4 C409.65 185.23, 423.32 170.26, 440.84 151.34 M398.2 200.4 C411.61 186.92, 423.87 172.83, 440.84 151.34 M403.19 200.76 C416.11 186.18, 426.27 173.17, 440.58 157.74 M403.19 200.76 C412.23 190.54, 421.85 180.83, 440.58 157.74 M408.83 200.36 C419.95 185.58, 431.87 170.31, 440.98 163.38 M408.83 200.36 C416.14 189.57, 426.39 181.08, 440.98 163.38 M413.82 200.73 C423.38 190.83, 430.62 179.38, 440.72 169.78 M413.82 200.73 C424.78 188.28, 434.33 175.21, 440.72 169.78 M419.46 200.33 C426.43 191.47, 434.49 184.03, 440.46 176.18 M419.46 200.33 C425.02 193.72, 429.56 186.95, 440.46 176.18 M424.45 200.69 C429.67 194.12, 437.29 186.09, 440.85 181.82 M424.45 200.69 C431.46 192.65, 436.44 187.12, 440.85 181.82 M430.09 200.3 C434.76 195.29, 436.55 191.81, 440.59 188.22 M430.09 200.3 C433.69 197.39, 436.73 192.78, 440.59 188.22 M435.08 200.66 C437.37 198.7, 439.2 195.51, 440.98 193.86 M435.08 200.66 C437.19 198.17, 438.98 196.14, 440.98 193.86" stroke="#a5d8ff" stroke-width="0.5" fill="none"></path><path d="M0 0 C88.43 0.04, 175.84 0.14, 440 0 M0 0 C119.78 0.48, 239.24 1.09, 440 0 M440 0 C441.94 47.18, 440.92 93.01, 440 200 M440 0 C438.72 75.75, 437.73 150.61, 440 200 M440 200 C281.63 197.76, 121.55 198.51, 0 200 M440 200 C334.12 197.81, 227.63 198.26, 0 200 M0 200 C-0.16 133.64, 0.31 63.53, 0 0 M0 200 C-0.16 130.52, -0.01 60.07, 0 0" stroke="#1864ab" stroke-width="1" fill="none"></path></g><g transform="translate(30 200) rotate(0 220 100)"><text x="220" y="0" font-family="Cascadia, Segoe UI Emoji" font-size="12px" fill="#000000" text-anchor="middle" style="white-space: pre;" direction="ltr" dominant-baseline="text-before-edge">GOL-BOARD-SNAPSHOT v1</text><text x="220" y="16.666666666666668" font-family="Cascadia, Segoe UI Emoji" font-size="12px" fill="#000000" text-anchor="middle" style="white-space: pre;" direction="ltr" dominant-baseline="text-before-edge">schema_version: 1</text><text x="220" y="33.333333333333336" font-family="Cascadia, Segoe UI Emoji" font-size="12px" fill="#000000" text-anchor="middle" style="white-space: pre;" direction="ltr" dominant-baseline="text-before-edge">created_at: 2026-06-12T22:55:20Z</text><text x="220" y="50" font-family="Cascadia, Segoe UI Emoji" font-size="12px" fill="#000000" text-anchor="middle" style="white-space: pre;" direction="ltr" dominant-baseline="text-before-edge"></text><text x="220" y="66.66666666666667" font-family="Cascadia, Segoe UI Emoji" font-size="12px" fill="#000000" text-anchor="middle" style="white-space: pre;" direction="ltr" dominant-baseline="text-before-edge">----- BEGIN BOARD -----</text><text x="220" y="83.33333333333334" font-family="Cascadia, Segoe UI Emoji" font-size="12px" fill="#000000" text-anchor="middle" style="white-space: pre;" direction="ltr" dominant-baseline="text-before-edge">size: WxH</text><text x="220" y="100" font-family="Cascadia, Segoe UI Emoji" font-size="12px" fill="#000000" text-anchor="middle" style="white-space: pre;" direction="ltr" dominant-baseline="text-before-edge">encoding: ascii</text><text x="220" y="116.66666666666667" font-family="Cascadia, Segoe UI Emoji" font-size="12px" fill="#000000" text-anchor="middle" style="white-space: pre;" direction="ltr" dominant-baseline="text-before-edge">alive_count / dead_count</text><text x="220" y="133.33333333333334" font-family="Cascadia, Segoe UI Emoji" font-size="12px" fill="#000000" text-anchor="middle" style="white-space: pre;" direction="ltr" dominant-baseline="text-before-edge">#./# grid rows</text><text x="220" y="150" font-family="Cascadia, Segoe UI Emoji" font-size="12px" fill="#000000" text-anchor="middle" style="white-space: pre;" direction="ltr" dominant-baseline="text-before-edge">----- END BOARD -----</text><text x="220" y="166.66666666666669" font-family="Cascadia, Segoe UI Emoji" font-size="12px" fill="#000000" text-anchor="middle" style="white-space: pre;" direction="ltr" dominant-baseline="text-before-edge"></text><text x="220" y="183.33333333333334" font-family="Cascadia, Segoe UI Emoji" font-size="12px" fill="#000000" text-anchor="middle" style="white-space: pre;" direction="ltr" dominant-baseline="text-before-edge">No content_hash. Hand-editable.</text></g><g stroke-linecap="round" transform="translate(550 140) rotate(0 300 140)"><path d="M32 0 C139.55 -0.05, 246.28 0.03, 568 0 M32 0 C177.87 0.54, 323.49 1.02, 568 0 M568 0 C588.04 0.53, 600.88 12.29, 600 32 M568 0 C589.53 0.56, 598.67 12.4, 600 32 M600 32 C600.47 77.45, 600.09 127.04, 600 248 M600 32 C598.07 115.86, 598.73 199.76, 600 248 M600 248 C600.6 267.73, 589.82 278.28, 568 280 M600 248 C598.31 269.4, 590.27 280.81, 568 280 M568 280 C452.82 282.04, 337.21 282.04, 32 280 M568 280 C452.24 282.27, 336.55 282.01, 32 280 M32 280 C8.78 279.71, -0.18 269.86, 0 248 M32 280 C12.5 279.98, 2.16 269.43, 0 248 M0 248 C-2 185.8, -0.27 122.76, 0 32 M0 248 C-0.7 188.85, 0.37 128, 0 32 M0 32 C0.44 12.66, 9.12 -1.31, 32 0 M0 32 C-0.62 8.6, 11.68 2.27, 32 0" stroke="#862e9c" stroke-width="2" fill="none"></path></g><g transform="translate(570 155) rotate(0 280 15)"><text x="0" y="0" font-family="Virgil, Segoe UI Emoji" font-size="16px" fill="#000000" text-anchor="start" style="white-space: pre;" direction="ltr" dominant-baseline="text-before-edge">Run record (GOL-RUN-RECORD v1)</text></g><g stroke-linecap="round" transform="translate(570 200) rotate(0 280 100)"><path d="M0 0 C0 0, 0 0, 0 0 M0 0 C0 0, 0 0, 0 0 M-0.26 6.4 C1.76 4.45, 3.11 2.54, 4.99 0.36 M-0.26 6.4 C2.08 3.89, 3.31 1.91, 4.99 0.36 M0.13 12.04 C1 8.94, 5.32 8.32, 10.63 -0.03 M0.13 12.04 C4.13 7.61, 6.9 5.23, 10.63 -0.03 M-0.13 18.44 C4.2 12.83, 8.54 8.18, 15.62 0.33 M-0.13 18.44 C2.87 14.4, 7.71 9.29, 15.62 0.33 M0.27 24.08 C6.49 14.7, 11.85 8.98, 21.26 -0.07 M0.27 24.08 C7.67 14.69, 15.12 6.76, 21.26 -0.07 M0 30.48 C9.63 18.52, 18.62 5.54, 26.25 0.29 M0 30.48 C7.35 23.63, 13.24 16.76, 26.25 0.29 M-0.26 36.88 C10.94 23.42, 24.08 8.82, 31.89 -0.1 M-0.26 36.88 C10 25.65, 19.11 14.52, 31.89 -0.1 M0.14 42.52 C11.15 31.18, 18.61 21.01, 36.88 0.26 M0.14 42.52 C13.13 28.1, 25.81 13.35, 36.88 0.26 M-0.12 48.92 C12.35 35.88, 23.78 22.96, 42.52 -0.14 M-0.12 48.92 C11.61 36.66, 23.17 22.72, 42.52 -0.14 M0.27 54.56 C15.34 33.85, 32.04 15.13, 47.51 0.22 M0.27 54.56 C8.83 45.06, 19.8 32.35, 47.51 0.22 M0.01 60.96 C14.03 42.83, 28.34 27.02, 53.15 -0.17 M0.01 60.96 C12.78 47.22, 26.41 31.8, 53.15 -0.17 M-0.25 67.36 C18.97 44.23, 39.97 23.06, 58.14 0.19 M-0.25 67.36 C19.51 45.36, 37.66 23.8, 58.14 0.19 M0.14 73 C13.62 56.79, 26.69 43.56, 63.78 -0.21 M0.14 73 C13.11 57.13, 26.84 43.22, 63.78 -0.21 M-0.12 79.4 C16.07 60.68, 30.45 46.16, 68.77 0.15 M-0.12 79.4 C21.11 52.85, 44.81 26.65, 68.77 0.15 M0.28 85.04 C15.53 65.14, 35.01 47.26, 74.41 -0.24 M0.28 85.04 C15.81 68.25, 31.92 49.94, 74.41 -0.24 M0.01 91.44 C21.15 66.71, 44.54 38.28, 79.4 0.12 M0.01 91.44 C20.97 65.5, 43.62 41.68, 79.4 0.12 M-0.25 97.84 C20.28 73.03, 43.66 46.09, 85.04 -0.28 M-0.25 97.84 C23.85 72.8, 46.33 45.91, 85.04 -0.28 M0.15 103.48 C32.16 66.6, 63.82 30.31, 90.03 0.08 M0.15 103.48 C28.81 70.42, 57.29 38.4, 90.03 0.08 M-0.11 109.88 C29.68 71.86, 63.9 37.64, 95.67 -0.31 M-0.11 109.88 C25.82 78.72, 54.14 46.73, 95.67 -0.31 M0.28 115.52 C34.83 75.92, 68.53 36.75, 100.66 0.05 M0.28 115.52 C26.55 87.03, 52.07 56.42, 100.66 0.05 M0.02 121.92 C29.6 85.85, 61.13 49.19, 106.3 -0.34 M0.02 121.92 C32.15 82.49, 67.21 44.46, 106.3 -0.34 M-0.24 128.32 C21.69 99.67, 45.51 73.27, 111.29 0.02 M-0.24 128.32 C22.2 101.14, 45.11 74.81, 111.29 0.02 M0.15 133.96 C38.04 93.16, 70.02 52.47, 116.27 0.38 M0.15 133.96 C35.23 92.78, 72.55 49.98, 116.27 0.38 M-0.11 140.36 C38.88 94.31, 77.65 50.28, 121.92 -0.02 M-0.11 140.36 C37.11 94.9, 75.81 50.93, 121.92 -0.02 M0.29 146 C37.71 106.08, 72.35 61.81, 126.91 0.34 M0.29 146 C49.96 88.92, 99.36 32.13, 126.91 0.34 M0.02 152.4 C28.27 118.14, 59.75 84.42, 132.55 -0.05 M0.02 152.4 C31.6 116.49, 63.29 79.99, 132.55 -0.05 M-0.24 158.8 C38.95 112.64, 77.83 65.57, 137.54 0.31 M-0.24 158.8 C45.51 107.32, 90.21 57.59, 137.54 0.31 M0.16 164.44 C41.39 119.61, 79.96 74.33, 143.18 -0.09 M0.16 164.44 C39.92 118.82, 78.84 74.39, 143.18 -0.09 M-0.1 170.84 C52.61 108.41, 107.02 47.56, 148.17 0.27 M-0.1 170.84 C43.92 121.54, 85.94 72.8, 148.17 0.27 M0.29 176.48 C39.22 130.95, 77.2 85.95, 153.81 -0.12 M0.29 176.48 C32.84 137.47, 65.1 99.78, 153.81 -0.12 M0.03 182.88 C41.06 134.08, 84.64 85.47, 158.8 0.24 M0.03 182.88 C48.12 125.58, 98.65 70.19, 158.8 0.24 M-0.23 189.27 C48.59 132.95, 98.62 76.61, 164.44 -0.16 M-0.23 189.27 C49.61 130.63, 101.35 72.21, 164.44 -0.16 M0.16 194.92 C55.72 129.86, 113.08 64.28, 169.43 0.2 M0.16 194.92 C34.12 154.13, 67.6 113.92, 169.43 0.2 M0.56 200.56 C69.16 122.3, 137.8 42.84, 175.07 -0.19 M0.56 200.56 C56.22 137.28, 110.63 74.27, 175.07 -0.19 M6.2 200.17 C45.58 154.57, 87.5 108.84, 180.06 0.17 M6.2 200.17 C48.59 151.16, 91.18 100.93, 180.06 0.17 M11.19 200.53 C59.59 143.82, 109.72 87.1, 185.7 -0.23 M11.19 200.53 C48.81 159.43, 82.68 118.77, 185.7 -0.23 M16.17 200.89 C51.64 161.42, 85.06 120.28, 190.69 0.13 M16.17 200.89 C68.12 141.33, 119.25 81.03, 190.69 0.13 M21.82 200.49 C84.27 126.86, 146.18 54.47, 196.33 -0.26 M21.82 200.49 C71.64 141.23, 122.14 84.08, 196.33 -0.26 M26.8 200.85 C64.28 158.43, 102 117.75, 201.32 0.1 M26.8 200.85 C76.4 144.87, 126.09 87.18, 201.32 0.1 M32.45 200.46 C95.81 125.96, 158.31 51.03, 206.96 -0.3 M32.45 200.46 C84.69 142.19, 134.19 83.59, 206.96 -0.3 M37.43 200.82 C73.16 160.63, 108.49 121.29, 211.95 0.06 M37.43 200.82 C92.35 136.68, 145.86 74.62, 211.95 0.06 M43.08 200.42 C94.64 140.77, 146.61 79.91, 217.59 -0.33 M43.08 200.42 C87.7 147.16, 134.14 93.11, 217.59 -0.33 M48.06 200.78 C90.2 151.53, 134.24 104.74, 222.58 0.03 M48.06 200.78 C107.36 130.35, 168.89 61.71, 222.58 0.03 M53.71 200.39 C105.28 140.38, 159.72 79.22, 228.22 -0.36 M53.71 200.39 C105.11 142.97, 156.15 86.07, 228.22 -0.36 M58.69 200.75 C128.34 123.29, 198.44 43.17, 233.21 0 M58.69 200.75 C118.84 132.05, 178.61 61.94, 233.21 0 M64.34 200.35 C130.09 125.51, 195.61 48.02, 238.19 0.36 M64.34 200.35 C124.78 129.1, 186.97 58.29, 238.19 0.36 M69.32 200.71 C108.02 157.6, 144.71 113.08, 243.84 -0.04 M69.32 200.71 C126.33 135.23, 182.47 69.66, 243.84 -0.04 M74.97 200.32 C120.13 145.62, 168.68 91.79, 248.82 0.32 M74.97 200.32 C125.06 141.53, 176.57 83.39, 248.82 0.32 M79.95 200.68 C125.24 146.79, 174.18 93.47, 254.47 -0.07 M79.95 200.68 C130.66 140.9, 181.02 83.01, 254.47 -0.07 M85.6 200.28 C152.62 122.54, 217.15 45.25, 259.45 0.29 M85.6 200.28 C128.09 153.17, 169.2 106.74, 259.45 0.29 M90.58 200.65 C129.52 157, 166.47 113.52, 265.1 -0.11 M90.58 200.65 C142.69 140.13, 194.08 78.99, 265.1 -0.11 M96.23 200.25 C142.43 146.97, 192.53 90.2, 270.08 0.25 M96.23 200.25 C160.23 127.68, 223.54 55.16, 270.08 0.25 M101.21 200.61 C160.29 132.68, 219.06 65.52, 275.73 -0.14 M101.21 200.61 C138.09 159.46, 174.28 119.14, 275.73 -0.14 M106.86 200.22 C169.1 132.6, 228.17 63.44, 280.71 0.22 M106.86 200.22 C168.96 128.48, 231.37 55.73, 280.71 0.22 M111.84 200.58 C177.15 125.95, 244.42 48.66, 286.36 -0.18 M111.84 200.58 C167.6 137.57, 222.05 72.98, 286.36 -0.18 M117.49 200.18 C178.08 130.88, 236.72 62.15, 291.34 0.18 M117.49 200.18 C178.52 131.54, 239.21 60.58, 291.34 0.18 M122.47 200.54 C181.98 136.93, 236.43 68.93, 296.99 -0.21 M122.47 200.54 C180.15 135.58, 235.75 71.31, 296.99 -0.21 M128.12 200.15 C178.31 141.75, 229.36 84.03, 301.97 0.15 M128.12 200.15 C192.7 128.66, 254.69 55.02, 301.97 0.15 M133.1 200.51 C176.2 152.57, 219.65 104.25, 307.62 -0.25 M133.1 200.51 C201.32 122.85, 271.04 42.69, 307.62 -0.25 M138.09 200.87 C195.96 135.6, 255.51 65.88, 312.6 0.11 M138.09 200.87 C184.1 148.68, 231.23 95.26, 312.6 0.11 M143.73 200.47 C181.27 159.38, 217.65 118.38, 318.25 -0.28 M143.73 200.47 C189.76 146.28, 237.09 93.53, 318.25 -0.28 M148.72 200.83 C201.87 140.73, 251.97 81.59, 323.23 0.08 M148.72 200.83 C191.68 153.47, 234.41 103.74, 323.23 0.08 M154.37 200.44 C224.51 122.43, 291 45.07, 328.88 -0.31 M154.37 200.44 C214.13 132.26, 273.32 63.8, 328.88 -0.31 M159.35 200.8 C218.07 133.69, 275.73 68.66, 333.86 0.05 M159.35 200.8 C212.83 139.74, 265.69 79.07, 333.86 0.05 M165 200.4 C229.59 129.18, 292.97 53.53, 339.51 -0.35 M165 200.4 C203.17 158.38, 239.38 115.8, 339.51 -0.35 M169.98 200.76 C213.37 150.58, 257.7 99.85, 344.49 0.01 M169.98 200.76 C237.52 124.41, 303.51 48.19, 344.49 0.01 M175.63 200.37 C211.54 159.95, 250.05 117.12, 349.48 0.37 M175.63 200.37 C231.87 137.05, 288.24 71.88, 349.48 0.37 M180.61 200.73 C218.75 156.74, 259.41 108.96, 355.12 -0.02 M180.61 200.73 C218.58 155.05, 257.96 109.29, 355.12 -0.02 M186.26 200.33 C221.77 156.42, 258.35 116.19, 360.11 0.34 M186.26 200.33 C239.15 135.88, 294.37 73.67, 360.11 0.34 M191.24 200.69 C240.05 146.13, 285.85 90.56, 365.75 -0.06 M191.24 200.69 C248.51 134.55, 306.27 69.47, 365.75 -0.06 M196.89 200.3 C256.72 134.63, 313.51 65.15, 370.74 0.3 M196.89 200.3 C247.88 142.02, 297.76 83.63, 370.74 0.3 M201.87 200.66 C265.98 130.51, 329.82 56.48, 376.38 -0.09 M201.87 200.66 C268.47 124.82, 335.2 47.95, 376.38 -0.09 M207.52 200.27 C269.87 125.49, 334.76 50.9, 381.37 0.27 M207.52 200.27 C264.94 136.18, 320.74 71.26, 381.37 0.27 M212.5 200.63 C266.43 139.22, 321.26 77.8, 387.01 -0.13 M212.5 200.63 C251.42 157.24, 290.82 112.21, 387.01 -0.13 M218.15 200.23 C252.16 160.24, 287.74 117.38, 392 0.23 M218.15 200.23 C281.95 127.25, 344.78 53.6, 392 0.23 M223.13 200.59 C270.28 145.04, 320.7 88.15, 397.64 -0.16 M223.13 200.59 C272.77 143.87, 322.14 85.68, 397.64 -0.16 M228.78 200.2 C284.04 136.68, 339.31 69.84, 402.63 0.2 M228.78 200.2 C288.63 132, 347.64 64.48, 402.63 0.2 M233.76 200.56 C290.83 137.5, 344.82 73.31, 408.27 -0.2 M233.76 200.56 C297 128.86, 359.82 56.87, 408.27 -0.2 M239.41 200.16 C290.58 140.26, 345.55 76.91, 413.26 0.16 M239.41 200.16 C283.15 151.05, 324.69 102.49, 413.26 0.16 M244.39 200.52 C308.36 124.79, 375.93 46.57, 418.9 -0.23 M244.39 200.52 C286.32 154.33, 326.5 108.01, 418.9 -0.23 M249.38 200.88 C308.13 133.39, 366.72 62.81, 423.89 0.13 M249.38 200.88 C294.48 150.72, 338.39 100.65, 423.89 0.13 M255.02 200.49 C306.52 140.12, 358.82 78.45, 429.53 -0.26 M255.02 200.49 C295.04 156.32, 332.58 112.11, 429.53 -0.26 M260.01 200.85 C313.71 135.61, 371.03 71.73, 434.52 0.1 M260.01 200.85 C298.24 159.08, 333.8 118.42, 434.52 0.1 M265.65 200.45 C308.97 152.25, 353.04 100.51, 440.16 -0.3 M265.65 200.45 C314.96 143.64, 364.59 87.81, 440.16 -0.3 M270.64 200.81 C328.45 133.01, 388.29 66.15, 445.15 0.06 M270.64 200.81 C328.51 135.6, 384.4 71.65, 445.15 0.06 M276.28 200.42 C323.74 146.74, 367.95 93.26, 450.79 -0.33 M276.28 200.42 C325.27 146.58, 371.63 92.54, 450.79 -0.33 M281.27 200.78 C348.03 124.3, 412.67 46.74, 455.78 0.03 M281.27 200.78 C331.52 141.41, 383.35 82.52, 455.78 0.03 M286.91 200.38 C344.87 133.27, 400.71 67.09, 461.42 -0.37 M286.91 200.38 C334.61 143.4, 383.51 87.26, 461.42 -0.37 M291.9 200.74 C334.31 149.92, 380.12 101.21, 466.41 -0.01 M291.9 200.74 C359.5 122.76, 427.94 45.21, 466.41 -0.01 M297.54 200.35 C344.28 147.57, 388.42 94.01, 471.4 0.35 M297.54 200.35 C354.73 135.23, 411.24 70.23, 471.4 0.35 M302.53 200.71 C343.78 155.24, 387.42 104.95, 477.04 -0.04 M302.53 200.71 C362.09 135.25, 420.54 67.73, 477.04 -0.04 M308.17 200.32 C353.38 146.89, 399.88 95.53, 482.03 0.32 M308.17 200.32 C349.77 149.97, 392.49 101.52, 482.03 0.32 M313.16 200.68 C354.71 152.49, 397.05 101.51, 487.67 -0.08 M313.16 200.68 C355.28 149.86, 399.4 100.56, 487.67 -0.08 M318.8 200.28 C381.06 128.46, 442.96 56.53, 492.66 0.28 M318.8 200.28 C387.79 122.62, 457.29 43.06, 492.66 0.28 M323.79 200.64 C370.21 147.82, 414.82 94.58, 498.3 -0.11 M323.79 200.64 C380.91 136.74, 437.92 71, 498.3 -0.11 M329.43 200.25 C387.69 131.22, 447.48 61.74, 503.29 0.25 M329.43 200.25 C394.09 126.3, 457.7 53.57, 503.29 0.25 M334.42 200.61 C384.96 140.67, 439.19 80, 508.93 -0.15 M334.42 200.61 C386.98 138.48, 440.77 77.54, 508.93 -0.15 M340.06 200.21 C381.33 149.34, 422.85 100.01, 513.92 0.21 M340.06 200.21 C384.16 148.52, 429.73 97.14, 513.92 0.21 M345.05 200.57 C389.91 149.16, 432.68 100.73, 519.56 -0.18 M345.05 200.57 C385.44 154.29, 427.07 106.54, 519.56 -0.18 M350.69 200.18 C397.17 146.11, 442.23 95.05, 524.55 0.18 M350.69 200.18 C388.65 157.91, 425.09 114.62, 524.55 0.18 M355.68 200.54 C396.16 153.59, 436.08 108.06, 530.19 -0.22 M355.68 200.54 C411.73 138.16, 466.16 75.78, 530.19 -0.22 M361.32 200.14 C404.31 153.27, 443.4 104.74, 535.18 0.14 M361.32 200.14 C408.25 144.01, 454.96 89.92, 535.18 0.14 M366.31 200.5 C407.9 152.58, 447.88 103.17, 540.82 -0.25 M366.31 200.5 C405.07 156.96, 443.59 114.12, 540.82 -0.25 M371.3 200.86 C433.32 126.7, 497.26 55.54, 545.81 0.11 M371.3 200.86 C429.92 135.78, 485.93 70.63, 545.81 0.11 M376.94 200.47 C424.06 147.06, 471.9 91.64, 551.45 -0.28 M376.94 200.47 C410.65 159.54, 447.41 119.25, 551.45 -0.28 M381.93 200.83 C430.91 147.07, 479.73 89.53, 556.44 0.08 M381.93 200.83 C446.81 126.96, 511.2 53.53, 556.44 0.08 M387.57 200.43 C433.04 151.73, 474.99 99.7, 560.11 1.95 M387.57 200.43 C455.94 121.89, 524.69 42.7, 560.11 1.95 M392.56 200.79 C459.08 124.6, 521.31 51.16, 560.51 7.59 M392.56 200.79 C427.88 157.86, 466.21 115.64, 560.51 7.59 M398.2 200.4 C444.85 144.93, 492.76 90.44, 560.25 13.99 M398.2 200.4 C447.06 147.77, 494.04 93.74, 560.25 13.99 M403.19 200.76 C454.73 140.44, 504.87 81.65, 559.99 20.38 M403.19 200.76 C440.99 158.33, 479.09 115.64, 559.99 20.38 M408.83 200.36 C465.4 132.54, 523.59 64.27, 560.38 26.03 M408.83 200.36 C446.79 152.82, 488.27 107.91, 560.38 26.03 M413.82 200.73 C460.55 146.87, 506.08 91.82, 560.12 32.42 M413.82 200.73 C471.36 133.39, 527.94 66.51, 560.12 32.42 M419.46 200.33 C470.06 141.06, 521.55 83.42, 560.51 38.07 M419.46 200.33 C457.01 157.3, 492.88 114.68, 560.51 38.07 M424.45 200.69 C476.74 139.62, 531.65 77.09, 560.25 44.47 M424.45 200.69 C476.11 141.09, 526.09 83.77, 560.25 44.47 M430.09 200.3 C473.52 149.81, 514.26 101.17, 559.99 50.86 M430.09 200.3 C468.84 157.52, 507.51 111.65, 559.99 50.86 M435.08 200.66 C481.57 148.69, 527.03 93.99, 560.39 56.51 M435.08 200.66 C475.16 155.14, 513.61 110.99, 560.39 56.51 M440.72 200.26 C464.79 171.63, 487.8 142.04, 560.12 62.9 M440.72 200.26 C485.52 149.37, 529.67 99.51, 560.12 62.9 M445.71 200.62 C480.68 162.21, 514.02 124.64, 560.52 68.55 M445.71 200.62 C472.83 171.83, 498.82 140.94, 560.52 68.55 M451.35 200.23 C473.54 174.6, 497.93 148.53, 560.26 74.95 M451.35 200.23 C489.35 158.69, 528.77 115.11, 560.26 74.95 M456.34 200.59 C495.18 156.72, 532.9 111.31, 560 81.34 M456.34 200.59 C477.72 177.81, 499.99 151.48, 560 81.34 M461.98 200.19 C499.64 159.33, 531.08 119.24, 560.39 86.99 M461.98 200.19 C487.05 170.87, 513.09 141.09, 560.39 86.99 M466.97 200.55 C491.46 174.79, 514.78 149.57, 560.13 93.38 M466.97 200.55 C489.08 176.12, 510.13 152.15, 560.13 93.38 M472.61 200.16 C504.83 165.62, 537.54 126.07, 560.52 99.03 M472.61 200.16 C493.11 178.41, 512.99 154.19, 560.52 99.03 M477.6 200.52 C506.13 167.12, 537.95 130.75, 560.26 105.42 M477.6 200.52 C501.86 171.74, 527.47 142.61, 560.26 105.42 M482.59 200.88 C510.61 167.34, 539.12 136.74, 560 111.82 M482.59 200.88 C508.77 169.27, 536.22 138.96, 560 111.82 M488.23 200.48 C514.18 171.16, 537.1 141.55, 560.4 117.47 M488.23 200.48 C516.58 168.87, 543.39 137.01, 560.4 117.47 M493.22 200.84 C520.27 170.75, 544.72 139.88, 560.13 123.86 M493.22 200.84 C515.94 173.82, 539.29 146.14, 560.13 123.86 M498.86 200.45 C511.83 184.78, 529.09 166.81, 560.53 129.51 M498.86 200.45 C511.48 187.31, 524.33 173.07, 560.53 129.51 M503.85 200.81 C518.5 186.78, 529.43 169.8, 560.27 135.9 M503.85 200.81 C526.29 174.78, 549.08 149.53, 560.27 135.9 M509.49 200.41 C521.46 186.73, 538.08 169.23, 560.01 142.3 M509.49 200.41 C522.86 185.84, 535.22 169.9, 560.01 142.3 M514.48 200.77 C527.05 186.3, 536.75 172.85, 560.4 147.95 M514.48 200.77 C527.95 185.08, 541.84 171.29, 560.4 147.95 M520.12 200.38 C532 188.58, 543.01 172.45, 560.14 154.34 M520.12 200.38 C531.18 187.62, 541.36 176.6, 560.14 154.34 M525.11 200.74 C537.03 185.74, 552.69 171.98, 560.53 159.99 M525.11 200.74 C537.95 185.51, 552.64 169.26, 560.53 159.99 M530.75 200.35 C539.68 190.24, 549.9 178.42, 560.27 166.38 M530.75 200.35 C536.31 193.14, 544.53 185.21, 560.27 166.38 M535.74 200.71 C541.99 196.38, 546.12 189.25, 560.01 172.78 M535.74 200.71 C544.49 190.84, 554.9 179.26, 560.01 172.78 M541.38 200.31 C544.41 196.77, 550.09 189.78, 560.4 178.42 M541.38 200.31 C544.76 195.24, 550 191.38, 560.4 178.42 M546.37 200.67 C549.27 198.31, 552.2 194.89, 560.14 184.82 M546.37 200.67 C549.95 196.11, 552.47 191.98, 560.14 184.82 M552.01 200.28 C555.37 197.54, 557.08 195, 560.54 190.47 M552.01 200.28 C554.1 198.23, 555.11 196.13, 560.54 190.47 M557 200.64 C557.68 199.95, 558.47 198.68, 560.28 196.86 M557 200.64 C558.27 199.58, 559.33 198.02, 560.28 196.86" stroke="#f3d9fa" stroke-width="0.5" fill="none"></path><path d="M0 0 C112.35 -0.07, 223.88 0.01, 560 0 M0 0 C152.4 0.57, 304.54 1.06, 560 0 M560 0 C561.94 47.18, 560.92 93.01, 560 200 M560 0 C558.72 75.75, 557.73 150.61, 560 200 M560 200 C358.11 197.81, 154.85 198.41, 0 200 M560 200 C425.19 197.87, 289.89 198.22, 0 200 M0 200 C-0.16 133.64, 0.31 63.53, 0 0 M0 200 C-0.16 130.52, -0.01 60.07, 0 0" stroke="#862e9c" stroke-width="1" fill="none"></path></g><g transform="translate(570 200) rotate(0 280 100)"><text x="280" y="0" font-family="Cascadia, Segoe UI Emoji" font-size="12px" fill="#000000" text-anchor="middle" style="white-space: pre;" direction="ltr" dominant-baseline="text-before-edge">GOL-RUN-RECORD v1</text><text x="280" y="22.22222222222222" font-family="Cascadia, Segoe UI Emoji" font-size="12px" fill="#000000" text-anchor="middle" style="white-space: pre;" direction="ltr" dominant-baseline="text-before-edge">[config] / [tool] / [result] / [continuation]</text><text x="280" y="44.44444444444444" font-family="Cascadia, Segoe UI Emoji" font-size="12px" fill="#000000" text-anchor="middle" style="white-space: pre;" direction="ltr" dominant-baseline="text-before-edge">----- BEGIN INITIAL BOARD ----- ... END</text><text x="280" y="66.66666666666666" font-family="Cascadia, Segoe UI Emoji" font-size="12px" fill="#000000" text-anchor="middle" style="white-space: pre;" direction="ltr" dominant-baseline="text-before-edge">----- BEGIN FINAL BOARD -----   ... END</text><text x="280" y="88.88888888888889" font-family="Cascadia, Segoe UI Emoji" font-size="12px" fill="#000000" text-anchor="middle" style="white-space: pre;" direction="ltr" dominant-baseline="text-before-edge"></text><text x="280" y="111.11111111111111" font-family="Cascadia, Segoe UI Emoji" font-size="12px" fill="#000000" text-anchor="middle" style="white-space: pre;" direction="ltr" dominant-baseline="text-before-edge">content_hash: &lt;FNV-1a 64-bit, over canonicalized bytes&gt;</text><text x="280" y="133.33333333333331" font-family="Cascadia, Segoe UI Emoji" font-size="12px" fill="#000000" text-anchor="middle" style="white-space: pre;" direction="ltr" dominant-baseline="text-before-edge"></text><text x="280" y="155.55555555555554" font-family="Cascadia, Segoe UI Emoji" font-size="12px" fill="#000000" text-anchor="middle" style="white-space: pre;" direction="ltr" dominant-baseline="text-before-edge">Per-grid hashes (initial_board_hash, final_board_hash)</text><text x="280" y="177.77777777777777" font-family="Cascadia, Segoe UI Emoji" font-size="12px" fill="#000000" text-anchor="middle" style="white-space: pre;" direction="ltr" dominant-baseline="text-before-edge">for cross-reference / dedup.</text></g><g stroke-linecap="round" transform="translate(10 460) rotate(0 570 90)"><path d="M32 0 C247.55 -0.49, 462.28 -0.41, 1108 0 M32 0 C324.74 1.39, 617.24 1.88, 1108 0 M1108 0 C1128.04 0.53, 1140.88 12.29, 1140 32 M1108 0 C1129.53 0.56, 1138.67 12.4, 1140 32 M1140 32 C1141 55.48, 1140.56 83.69, 1140 148 M1140 32 C1138.61 76.87, 1139.36 121.78, 1140 148 M1140 148 C1140.6 167.73, 1129.82 178.28, 1108 180 M1140 148 C1138.31 169.4, 1130.27 180.81, 1108 180 M1108 180 C876.36 184.17, 644.29 184.18, 32 180 M1108 180 C875.7 184.26, 643.46 184, 32 180 M32 180 C8.78 179.71, -0.18 169.86, 0 148 M32 180 C12.5 179.98, 2.16 169.43, 0 148 M0 148 C-1.56 114.45, 0.42 79.93, 0 32 M0 148 C-0.71 116.57, 0.51 83.2, 0 32 M0 32 C0.44 12.66, 9.12 -1.31, 32 0 M0 32 C-0.62 8.6, 11.68 2.27, 32 0" stroke="#0c8599" stroke-width="2" fill="none"></path></g><g transform="translate(30 475) rotate(0 550 15)"><text x="0" y="0" font-family="Virgil, Segoe UI Emoji" font-size="16px" fill="#000000" text-anchor="start" style="white-space: pre;" direction="ltr" dominant-baseline="text-before-edge">Read pipeline (both file types)</text></g><g stroke-linecap="round" transform="translate(30 530) rotate(0 100 40)"><path d="M0 0 C0 0, 0 0, 0 0 M0 0 C0 0, 0 0, 0 0 M-0.26 6.4 C1.76 4.45, 3.11 2.54, 4.99 0.36 M-0.26 6.4 C2.08 3.89, 3.31 1.91, 4.99 0.36 M0.13 12.04 C1 8.94, 5.32 8.32, 10.63 -0.03 M0.13 12.04 C4.13 7.61, 6.9 5.23, 10.63 -0.03 M-0.13 18.44 C4.2 12.83, 8.54 8.18, 15.62 0.33 M-0.13 18.44 C2.87 14.4, 7.71 9.29, 15.62 0.33 M0.27 24.08 C6.49 14.7, 11.85 8.98, 21.26 -0.07 M0.27 24.08 C7.67 14.69, 15.12 6.76, 21.26 -0.07 M0 30.48 C9.63 18.52, 18.62 5.54, 26.25 0.29 M0 30.48 C7.35 23.63, 13.24 16.76, 26.25 0.29 M-0.26 36.88 C10.94 23.42, 24.08 8.82, 31.89 -0.1 M-0.26 36.88 C10 25.65, 19.11 14.52, 31.89 -0.1 M0.14 42.52 C11.15 31.18, 18.61 21.01, 36.88 0.26 M0.14 42.52 C13.13 28.1, 25.81 13.35, 36.88 0.26 M-0.12 48.92 C12.35 35.88, 23.78 22.96, 42.52 -0.14 M-0.12 48.92 C11.61 36.66, 23.17 22.72, 42.52 -0.14 M0.27 54.56 C15.34 33.85, 32.04 15.13, 47.51 0.22 M0.27 54.56 C8.83 45.06, 19.8 32.35, 47.51 0.22 M0.01 60.96 C14.03 42.83, 28.34 27.02, 53.15 -0.17 M0.01 60.96 C12.78 47.22, 26.41 31.8, 53.15 -0.17 M-0.25 67.36 C18.97 44.23, 39.97 23.06, 58.14 0.19 M-0.25 67.36 C19.51 45.36, 37.66 23.8, 58.14 0.19 M0.14 73 C13.62 56.79, 26.69 43.56, 63.78 -0.21 M0.14 73 C13.11 57.13, 26.84 43.22, 63.78 -0.21 M-0.12 79.4 C16.07 60.68, 30.45 46.16, 68.77 0.15 M-0.12 79.4 C21.11 52.85, 44.81 26.65, 68.77 0.15 M4.21 80.51 C18.57 61.66, 37.15 44.81, 74.41 -0.24 M4.21 80.51 C18.93 64.65, 34.22 47.28, 74.41 -0.24 M9.86 80.12 C28.16 58.57, 48.72 33.38, 79.4 0.12 M9.86 80.12 C28.15 57.36, 48.12 36.62, 79.4 0.12 M14.84 80.48 C31.63 60.2, 51.16 37.68, 85.04 -0.28 M14.84 80.48 C34.83 60.04, 53.25 37.82, 85.04 -0.28 M20.49 80.08 C45.07 51.52, 69.53 23.51, 90.03 0.08 M20.49 80.08 C42.61 54.29, 64.66 29.67, 90.03 0.08 M25.47 80.44 C46.78 52.25, 72.53 27.79, 95.67 -0.31 M25.47 80.44 C44.22 57.62, 65.31 33.94, 95.67 -0.31 M31.12 80.05 C55.2 52.67, 78.54 25.43, 100.66 0.05 M31.12 80.05 C49.42 60.37, 67.04 38.85, 100.66 0.05 M36.1 80.41 C55.25 56.67, 75.97 32.45, 106.3 -0.34 M36.1 80.41 C56.99 54.33, 80.61 29.46, 106.3 -0.34 M41.75 80.01 C54.91 61.46, 69.82 45.31, 111.29 0.02 M41.75 80.01 C55.68 63.12, 69.79 46.91, 111.29 0.02 M46.73 80.37 C70.19 55.85, 88.09 31.35, 116.27 0.38 M46.73 80.37 C67.66 55.85, 90.38 29.85, 116.27 0.38 M52.38 79.98 C74.91 53.36, 97.24 28.25, 121.92 -0.02 M52.38 79.98 C73.52 53.71, 95.61 28.85, 121.92 -0.02 M57.36 80.34 C78.22 59.31, 96.68 33.65, 126.91 0.34 M57.36 80.34 C84.54 48.98, 111.91 17.54, 126.91 0.34 M62.35 80.7 C76.4 62.28, 94.27 44.49, 132.55 -0.05 M62.35 80.7 C79.02 61.65, 95.66 42.47, 132.55 -0.05 M67.99 80.31 C87.8 56.75, 106.83 32.2, 137.54 0.31 M67.99 80.31 C91.16 53.82, 113.81 29.68, 137.54 0.31 M72.98 80.67 C93.92 58.96, 112.58 36.45, 143.18 -0.09 M72.98 80.67 C92.95 58.14, 112.2 36.38, 143.18 -0.09 M78.62 80.27 C102.56 50.49, 128.1 23.15, 148.17 0.27 M78.62 80.27 C99.87 57.38, 119.24 34.64, 148.17 0.27 M83.61 80.63 C101.3 59.11, 118.29 37.99, 153.81 -0.12 M83.61 80.63 C98.93 62.35, 113.08 45.39, 153.81 -0.12 M89.25 80.24 C106.26 58.41, 126.43 37.04, 158.8 0.24 M89.25 80.24 C109.95 54.6, 132.96 31.43, 158.8 0.24 M94.24 80.6 C114.57 56.45, 137.23 31.88, 164.44 -0.16 M94.24 80.6 C115.38 55.28, 137.96 30.65, 164.44 -0.16 M99.88 80.2 C121.76 54.02, 145.73 26.95, 169.43 0.2 M99.88 80.2 C114.04 63.59, 126.82 46.77, 169.43 0.2 M104.87 80.56 C132.82 49.13, 160.84 16.25, 175.07 -0.19 M104.87 80.56 C127.28 54.8, 149.09 29.18, 175.07 -0.19 M110.51 80.17 C125.04 62.38, 143.42 44.38, 180.06 0.17 M110.51 80.17 C127.77 60.38, 144.13 39.99, 180.06 0.17 M115.5 80.53 C134.81 58.25, 155.8 35.28, 185.7 -0.23 M115.5 80.53 C131.44 64.29, 143.78 47.95, 185.7 -0.23 M121.14 80.13 C136 65.39, 147.68 48.54, 190.69 0.13 M121.14 80.13 C142.23 56.77, 161.47 32.78, 190.69 0.13 M126.13 80.49 C152.09 50.13, 176.33 20.75, 196.33 -0.26 M126.13 80.49 C146.22 56.02, 167.06 33.22, 196.33 -0.26 M131.77 80.1 C146.38 62.21, 162.52 47.09, 200 1.61 M131.77 80.1 C150.96 58.91, 170.07 36.25, 200 1.61 M136.76 80.46 C159.58 53.47, 180.83 25.2, 199.74 8.01 M136.76 80.46 C156.39 59.33, 173.31 37.79, 199.74 8.01 M142.4 80.06 C153.54 66.29, 165.37 54.33, 200.14 13.65 M142.4 80.06 C160.83 58.12, 177.94 37.8, 200.14 13.65 M147.39 80.42 C162.03 62.8, 177.51 43.64, 199.88 20.05 M147.39 80.42 C160.19 64.95, 174.24 47.99, 199.88 20.05 M153.03 80.03 C164.07 65.23, 177.4 54.8, 200.27 25.69 M153.03 80.03 C168.61 60.52, 186.34 42.84, 200.27 25.69 M158.02 80.39 C170.05 67.5, 184.8 52.38, 200.01 32.09 M158.02 80.39 C170.34 66.31, 183.34 53.64, 200.01 32.09 M163.66 80 C177.94 65.07, 193.65 47.64, 199.75 38.49 M163.66 80 C176.03 66.37, 188.04 50.86, 199.75 38.49 M168.65 80.36 C181.01 67.91, 192.91 51.55, 200.14 44.13 M168.65 80.36 C178.98 67.66, 190.52 55.32, 200.14 44.13 M173.64 80.72 C180.63 74.13, 185.11 66.06, 199.88 50.53 M173.64 80.72 C182.85 70.41, 190.34 60.55, 199.88 50.53 M179.28 80.32 C183.13 73.88, 190.74 67.68, 200.27 56.17 M179.28 80.32 C184.93 73.06, 192.23 66.08, 200.27 56.17 M184.27 80.68 C187.67 74.82, 194.44 70.8, 200.01 62.57 M184.27 80.68 C189.45 74.41, 193.93 69.31, 200.01 62.57 M189.91 80.29 C195 75.43, 196.45 70.88, 199.75 68.97 M189.91 80.29 C192.54 77.4, 194.75 75.67, 199.75 68.97 M194.9 80.65 C196.17 79.09, 196.62 78.08, 200.15 74.61 M194.9 80.65 C196.75 79.07, 197.79 76.85, 200.15 74.61" stroke="#99e9f2" stroke-width="0.5" fill="none"></path><path d="M0 0 C40.77 0.5, 79.71 0.68, 200 0 M0 0 C54.58 0.01, 108.59 1.1, 200 0 M200 0 C201.84 18.98, 200.7 36.46, 200 80 M200 0 C199.57 30.79, 198.47 60.59, 200 80 M200 80 C128.95 77.74, 54.83 79.09, 0 80 M200 80 C152.04 77.79, 102.98 78.59, 0 80 M0 80 C0.24 54.72, 0.77 25.28, 0 0 M0 80 C-0.29 52.8, -0.12 24.52, 0 0" stroke="#0c8599" stroke-width="1" fill="none"></path></g><g transform="translate(30 530) rotate(0 100 40)"><text x="100" y="0" font-family="Virgil, Segoe UI Emoji" font-size="12px" fill="#000000" text-anchor="middle" style="white-space: pre;" direction="ltr" dominant-baseline="text-before-edge">Magic sniff</text><text x="100" y="26.666666666666668" font-family="Virgil, Segoe UI Emoji" font-size="12px" fill="#000000" text-anchor="middle" style="white-space: pre;" direction="ltr" dominant-baseline="text-before-edge">(first 128 bytes)</text><text x="100" y="53.333333333333336" font-family="Virgil, Segoe UI Emoji" font-size="12px" fill="#000000" text-anchor="middle" style="white-space: pre;" direction="ltr" dominant-baseline="text-before-edge">identify FileKind</text></g><g stroke-linecap="round"><g transform="translate(235 570) rotate(0 30 0)"><path d="M0 0 C12.86 0.84, 23.68 1.04, 60 0 M0 0 C16.52 -0.55, 32.41 0.67, 60 0" stroke="#1e1e1e" stroke-width="1" fill="none"></path></g><g transform="translate(235 570) rotate(0 30 0)"><path d="M31.9 10.51 C38.46 9.31, 42.91 7.41, 60 0 M31.9 10.51 C39.83 6.97, 47.05 5.33, 60 0" stroke="#1e1e1e" stroke-width="1" fill="none"></path></g><g transform="translate(235 570) rotate(0 30 0)"><path d="M31.72 -10.01 C38.15 -7.11, 42.63 -4.9, 60 0 M31.72 -10.01 C39.52 -7.96, 46.79 -4.02, 60 0" stroke="#1e1e1e" stroke-width="1" fill="none"></path></g></g><mask></mask><g stroke-linecap="round" transform="translate(300 530) rotate(0 100 40)"><path d="M0 0 C0 0, 0 0, 0 0 M0 0 C0 0, 0 0, 0 0 M-0.26 6.4 C1.76 4.45, 3.11 2.54, 4.99 0.36 M-0.26 6.4 C2.08 3.89, 3.31 1.91, 4.99 0.36 M0.13 12.04 C1 8.94, 5.32 8.32, 10.63 -0.03 M0.13 12.04 C4.13 7.61, 6.9 5.23, 10.63 -0.03 M-0.13 18.44 C4.2 12.83, 8.54 8.18, 15.62 0.33 M-0.13 18.44 C2.87 14.4, 7.71 9.29, 15.62 0.33 M0.27 24.08 C6.49 14.7, 11.85 8.98, 21.26 -0.07 M0.27 24.08 C7.67 14.69, 15.12 6.76, 21.26 -0.07 M0 30.48 C9.63 18.52, 18.62 5.54, 26.25 0.29 M0 30.48 C7.35 23.63, 13.24 16.76, 26.25 0.29 M-0.26 36.88 C10.94 23.42, 24.08 8.82, 31.89 -0.1 M-0.26 36.88 C10 25.65, 19.11 14.52, 31.89 -0.1 M0.14 42.52 C11.15 31.18, 18.61 21.01, 36.88 0.26 M0.14 42.52 C13.13 28.1, 25.81 13.35, 36.88 0.26 M-0.12 48.92 C12.35 35.88, 23.78 22.96, 42.52 -0.14 M-0.12 48.92 C11.61 36.66, 23.17 22.72, 42.52 -0.14 M0.27 54.56 C15.34 33.85, 32.04 15.13, 47.51 0.22 M0.27 54.56 C8.83 45.06, 19.8 32.35, 47.51 0.22 M0.01 60.96 C14.03 42.83, 28.34 27.02, 53.15 -0.17 M0.01 60.96 C12.78 47.22, 26.41 31.8, 53.15 -0.17 M-0.25 67.36 C18.97 44.23, 39.97 23.06, 58.14 0.19 M-0.25 67.36 C19.51 45.36, 37.66 23.8, 58.14 0.19 M0.14 73 C13.62 56.79, 26.69 43.56, 63.78 -0.21 M0.14 73 C13.11 57.13, 26.84 43.22, 63.78 -0.21 M-0.12 79.4 C16.07 60.68, 30.45 46.16, 68.77 0.15 M-0.12 79.4 C21.11 52.85, 44.81 26.65, 68.77 0.15 M4.21 80.51 C18.57 61.66, 37.15 44.81, 74.41 -0.24 M4.21 80.51 C18.93 64.65, 34.22 47.28, 74.41 -0.24 M9.86 80.12 C28.16 58.57, 48.72 33.38, 79.4 0.12 M9.86 80.12 C28.15 57.36, 48.12 36.62, 79.4 0.12 M14.84 80.48 C31.63 60.2, 51.16 37.68, 85.04 -0.28 M14.84 80.48 C34.83 60.04, 53.25 37.82, 85.04 -0.28 M20.49 80.08 C45.07 51.52, 69.53 23.51, 90.03 0.08 M20.49 80.08 C42.61 54.29, 64.66 29.67, 90.03 0.08 M25.47 80.44 C46.78 52.25, 72.53 27.79, 95.67 -0.31 M25.47 80.44 C44.22 57.62, 65.31 33.94, 95.67 -0.31 M31.12 80.05 C55.2 52.67, 78.54 25.43, 100.66 0.05 M31.12 80.05 C49.42 60.37, 67.04 38.85, 100.66 0.05 M36.1 80.41 C55.25 56.67, 75.97 32.45, 106.3 -0.34 M36.1 80.41 C56.99 54.33, 80.61 29.46, 106.3 -0.34 M41.75 80.01 C54.91 61.46, 69.82 45.31, 111.29 0.02 M41.75 80.01 C55.68 63.12, 69.79 46.91, 111.29 0.02 M46.73 80.37 C70.19 55.85, 88.09 31.35, 116.27 0.38 M46.73 80.37 C67.66 55.85, 90.38 29.85, 116.27 0.38 M52.38 79.98 C74.91 53.36, 97.24 28.25, 121.92 -0.02 M52.38 79.98 C73.52 53.71, 95.61 28.85, 121.92 -0.02 M57.36 80.34 C78.22 59.31, 96.68 33.65, 126.91 0.34 M57.36 80.34 C84.54 48.98, 111.91 17.54, 126.91 0.34 M62.35 80.7 C76.4 62.28, 94.27 44.49, 132.55 -0.05 M62.35 80.7 C79.02 61.65, 95.66 42.47, 132.55 -0.05 M67.99 80.31 C87.8 56.75, 106.83 32.2, 137.54 0.31 M67.99 80.31 C91.16 53.82, 113.81 29.68, 137.54 0.31 M72.98 80.67 C93.92 58.96, 112.58 36.45, 143.18 -0.09 M72.98 80.67 C92.95 58.14, 112.2 36.38, 143.18 -0.09 M78.62 80.27 C102.56 50.49, 128.1 23.15, 148.17 0.27 M78.62 80.27 C99.87 57.38, 119.24 34.64, 148.17 0.27 M83.61 80.63 C101.3 59.11, 118.29 37.99, 153.81 -0.12 M83.61 80.63 C98.93 62.35, 113.08 45.39, 153.81 -0.12 M89.25 80.24 C106.26 58.41, 126.43 37.04, 158.8 0.24 M89.25 80.24 C109.95 54.6, 132.96 31.43, 158.8 0.24 M94.24 80.6 C114.57 56.45, 137.23 31.88, 164.44 -0.16 M94.24 80.6 C115.38 55.28, 137.96 30.65, 164.44 -0.16 M99.88 80.2 C121.76 54.02, 145.73 26.95, 169.43 0.2 M99.88 80.2 C114.04 63.59, 126.82 46.77, 169.43 0.2 M104.87 80.56 C132.82 49.13, 160.84 16.25, 175.07 -0.19 M104.87 80.56 C127.28 54.8, 149.09 29.18, 175.07 -0.19 M110.51 80.17 C125.04 62.38, 143.42 44.38, 180.06 0.17 M110.51 80.17 C127.77 60.38, 144.13 39.99, 180.06 0.17 M115.5 80.53 C134.81 58.25, 155.8 35.28, 185.7 -0.23 M115.5 80.53 C131.44 64.29, 143.78 47.95, 185.7 -0.23 M121.14 80.13 C136 65.39, 147.68 48.54, 190.69 0.13 M121.14 80.13 C142.23 56.77, 161.47 32.78, 190.69 0.13 M126.13 80.49 C152.09 50.13, 176.33 20.75, 196.33 -0.26 M126.13 80.49 C146.22 56.02, 167.06 33.22, 196.33 -0.26 M131.77 80.1 C146.38 62.21, 162.52 47.09, 200 1.61 M131.77 80.1 C150.96 58.91, 170.07 36.25, 200 1.61 M136.76 80.46 C159.58 53.47, 180.83 25.2, 199.74 8.01 M136.76 80.46 C156.39 59.33, 173.31 37.79, 199.74 8.01 M142.4 80.06 C153.54 66.29, 165.37 54.33, 200.14 13.65 M142.4 80.06 C160.83 58.12, 177.94 37.8, 200.14 13.65 M147.39 80.42 C162.03 62.8, 177.51 43.64, 199.88 20.05 M147.39 80.42 C160.19 64.95, 174.24 47.99, 199.88 20.05 M153.03 80.03 C164.07 65.23, 177.4 54.8, 200.27 25.69 M153.03 80.03 C168.61 60.52, 186.34 42.84, 200.27 25.69 M158.02 80.39 C170.05 67.5, 184.8 52.38, 200.01 32.09 M158.02 80.39 C170.34 66.31, 183.34 53.64, 200.01 32.09 M163.66 80 C177.94 65.07, 193.65 47.64, 199.75 38.49 M163.66 80 C176.03 66.37, 188.04 50.86, 199.75 38.49 M168.65 80.36 C181.01 67.91, 192.91 51.55, 200.14 44.13 M168.65 80.36 C178.98 67.66, 190.52 55.32, 200.14 44.13 M173.64 80.72 C180.63 74.13, 185.11 66.06, 199.88 50.53 M173.64 80.72 C182.85 70.41, 190.34 60.55, 199.88 50.53 M179.28 80.32 C183.13 73.88, 190.74 67.68, 200.27 56.17 M179.28 80.32 C184.93 73.06, 192.23 66.08, 200.27 56.17 M184.27 80.68 C187.67 74.82, 194.44 70.8, 200.01 62.57 M184.27 80.68 C189.45 74.41, 193.93 69.31, 200.01 62.57 M189.91 80.29 C195 75.43, 196.45 70.88, 199.75 68.97 M189.91 80.29 C192.54 77.4, 194.75 75.67, 199.75 68.97 M194.9 80.65 C196.17 79.09, 196.62 78.08, 200.15 74.61 M194.9 80.65 C196.75 79.07, 197.79 76.85, 200.15 74.61" stroke="#99e9f2" stroke-width="0.5" fill="none"></path><path d="M0 0 C40.77 0.5, 79.71 0.68, 200 0 M0 0 C54.58 0.01, 108.59 1.1, 200 0 M200 0 C201.84 18.98, 200.7 36.46, 200 80 M200 0 C199.57 30.79, 198.47 60.59, 200 80 M200 80 C128.95 77.74, 54.83 79.09, 0 80 M200 80 C152.04 77.79, 102.98 78.59, 0 80 M0 80 C0.24 54.72, 0.77 25.28, 0 0 M0 80 C-0.29 52.8, -0.12 24.52, 0 0" stroke="#0c8599" stroke-width="1" fill="none"></path></g><g transform="translate(300 530) rotate(0 100 40)"><text x="100" y="0" font-family="Virgil, Segoe UI Emoji" font-size="12px" fill="#000000" text-anchor="middle" style="white-space: pre;" direction="ltr" dominant-baseline="text-before-edge">File-size guard</text><text x="100" y="26.666666666666668" font-family="Virgil, Segoe UI Emoji" font-size="12px" fill="#000000" text-anchor="middle" style="white-space: pre;" direction="ltr" dominant-baseline="text-before-edge">--max-input-file-bytes</text><text x="100" y="53.333333333333336" font-family="Virgil, Segoe UI Emoji" font-size="12px" fill="#000000" text-anchor="middle" style="white-space: pre;" direction="ltr" dominant-baseline="text-before-edge">(default 256MB)</text></g><g stroke-linecap="round"><g transform="translate(505 570) rotate(0 30 0)"><path d="M0 0 C12.86 0.84, 23.68 1.04, 60 0 M0 0 C16.52 -0.55, 32.41 0.67, 60 0" stroke="#1e1e1e" stroke-width="1" fill="none"></path></g><g transform="translate(505 570) rotate(0 30 0)"><path d="M31.9 10.51 C38.46 9.31, 42.91 7.41, 60 0 M31.9 10.51 C39.83 6.97, 47.05 5.33, 60 0" stroke="#1e1e1e" stroke-width="1" fill="none"></path></g><g transform="translate(505 570) rotate(0 30 0)"><path d="M31.72 -10.01 C38.15 -7.11, 42.63 -4.9, 60 0 M31.72 -10.01 C39.52 -7.96, 46.79 -4.02, 60 0" stroke="#1e1e1e" stroke-width="1" fill="none"></path></g></g><mask></mask><g stroke-linecap="round" transform="translate(570 530) rotate(0 100 40)"><path d="M0 0 C0 0, 0 0, 0 0 M0 0 C0 0, 0 0, 0 0 M-0.26 6.4 C1.76 4.45, 3.11 2.54, 4.99 0.36 M-0.26 6.4 C2.08 3.89, 3.31 1.91, 4.99 0.36 M0.13 12.04 C1 8.94, 5.32 8.32, 10.63 -0.03 M0.13 12.04 C4.13 7.61, 6.9 5.23, 10.63 -0.03 M-0.13 18.44 C4.2 12.83, 8.54 8.18, 15.62 0.33 M-0.13 18.44 C2.87 14.4, 7.71 9.29, 15.62 0.33 M0.27 24.08 C6.49 14.7, 11.85 8.98, 21.26 -0.07 M0.27 24.08 C7.67 14.69, 15.12 6.76, 21.26 -0.07 M0 30.48 C9.63 18.52, 18.62 5.54, 26.25 0.29 M0 30.48 C7.35 23.63, 13.24 16.76, 26.25 0.29 M-0.26 36.88 C10.94 23.42, 24.08 8.82, 31.89 -0.1 M-0.26 36.88 C10 25.65, 19.11 14.52, 31.89 -0.1 M0.14 42.52 C11.15 31.18, 18.61 21.01, 36.88 0.26 M0.14 42.52 C13.13 28.1, 25.81 13.35, 36.88 0.26 M-0.12 48.92 C12.35 35.88, 23.78 22.96, 42.52 -0.14 M-0.12 48.92 C11.61 36.66, 23.17 22.72, 42.52 -0.14 M0.27 54.56 C15.34 33.85, 32.04 15.13, 47.51 0.22 M0.27 54.56 C8.83 45.06, 19.8 32.35, 47.51 0.22 M0.01 60.96 C14.03 42.83, 28.34 27.02, 53.15 -0.17 M0.01 60.96 C12.78 47.22, 26.41 31.8, 53.15 -0.17 M-0.25 67.36 C18.97 44.23, 39.97 23.06, 58.14 0.19 M-0.25 67.36 C19.51 45.36, 37.66 23.8, 58.14 0.19 M0.14 73 C13.62 56.79, 26.69 43.56, 63.78 -0.21 M0.14 73 C13.11 57.13, 26.84 43.22, 63.78 -0.21 M-0.12 79.4 C16.07 60.68, 30.45 46.16, 68.77 0.15 M-0.12 79.4 C21.11 52.85, 44.81 26.65, 68.77 0.15 M4.21 80.51 C18.57 61.66, 37.15 44.81, 74.41 -0.24 M4.21 80.51 C18.93 64.65, 34.22 47.28, 74.41 -0.24 M9.86 80.12 C28.16 58.57, 48.72 33.38, 79.4 0.12 M9.86 80.12 C28.15 57.36, 48.12 36.62, 79.4 0.12 M14.84 80.48 C31.63 60.2, 51.16 37.68, 85.04 -0.28 M14.84 80.48 C34.83 60.04, 53.25 37.82, 85.04 -0.28 M20.49 80.08 C45.07 51.52, 69.53 23.51, 90.03 0.08 M20.49 80.08 C42.61 54.29, 64.66 29.67, 90.03 0.08 M25.47 80.44 C46.78 52.25, 72.53 27.79, 95.67 -0.31 M25.47 80.44 C44.22 57.62, 65.31 33.94, 95.67 -0.31 M31.12 80.05 C55.2 52.67, 78.54 25.43, 100.66 0.05 M31.12 80.05 C49.42 60.37, 67.04 38.85, 100.66 0.05 M36.1 80.41 C55.25 56.67, 75.97 32.45, 106.3 -0.34 M36.1 80.41 C56.99 54.33, 80.61 29.46, 106.3 -0.34 M41.75 80.01 C54.91 61.46, 69.82 45.31, 111.29 0.02 M41.75 80.01 C55.68 63.12, 69.79 46.91, 111.29 0.02 M46.73 80.37 C70.19 55.85, 88.09 31.35, 116.27 0.38 M46.73 80.37 C67.66 55.85, 90.38 29.85, 116.27 0.38 M52.38 79.98 C74.91 53.36, 97.24 28.25, 121.92 -0.02 M52.38 79.98 C73.52 53.71, 95.61 28.85, 121.92 -0.02 M57.36 80.34 C78.22 59.31, 96.68 33.65, 126.91 0.34 M57.36 80.34 C84.54 48.98, 111.91 17.54, 126.91 0.34 M62.35 80.7 C76.4 62.28, 94.27 44.49, 132.55 -0.05 M62.35 80.7 C79.02 61.65, 95.66 42.47, 132.55 -0.05 M67.99 80.31 C87.8 56.75, 106.83 32.2, 137.54 0.31 M67.99 80.31 C91.16 53.82, 113.81 29.68, 137.54 0.31 M72.98 80.67 C93.92 58.96, 112.58 36.45, 143.18 -0.09 M72.98 80.67 C92.95 58.14, 112.2 36.38, 143.18 -0.09 M78.62 80.27 C102.56 50.49, 128.1 23.15, 148.17 0.27 M78.62 80.27 C99.87 57.38, 119.24 34.64, 148.17 0.27 M83.61 80.63 C101.3 59.11, 118.29 37.99, 153.81 -0.12 M83.61 80.63 C98.93 62.35, 113.08 45.39, 153.81 -0.12 M89.25 80.24 C106.26 58.41, 126.43 37.04, 158.8 0.24 M89.25 80.24 C109.95 54.6, 132.96 31.43, 158.8 0.24 M94.24 80.6 C114.57 56.45, 137.23 31.88, 164.44 -0.16 M94.24 80.6 C115.38 55.28, 137.96 30.65, 164.44 -0.16 M99.88 80.2 C121.76 54.02, 145.73 26.95, 169.43 0.2 M99.88 80.2 C114.04 63.59, 126.82 46.77, 169.43 0.2 M104.87 80.56 C132.82 49.13, 160.84 16.25, 175.07 -0.19 M104.87 80.56 C127.28 54.8, 149.09 29.18, 175.07 -0.19 M110.51 80.17 C125.04 62.38, 143.42 44.38, 180.06 0.17 M110.51 80.17 C127.77 60.38, 144.13 39.99, 180.06 0.17 M115.5 80.53 C134.81 58.25, 155.8 35.28, 185.7 -0.23 M115.5 80.53 C131.44 64.29, 143.78 47.95, 185.7 -0.23 M121.14 80.13 C136 65.39, 147.68 48.54, 190.69 0.13 M121.14 80.13 C142.23 56.77, 161.47 32.78, 190.69 0.13 M126.13 80.49 C152.09 50.13, 176.33 20.75, 196.33 -0.26 M126.13 80.49 C146.22 56.02, 167.06 33.22, 196.33 -0.26 M131.77 80.1 C146.38 62.21, 162.52 47.09, 200 1.61 M131.77 80.1 C150.96 58.91, 170.07 36.25, 200 1.61 M136.76 80.46 C159.58 53.47, 180.83 25.2, 199.74 8.01 M136.76 80.46 C156.39 59.33, 173.31 37.79, 199.74 8.01 M142.4 80.06 C153.54 66.29, 165.37 54.33, 200.14 13.65 M142.4 80.06 C160.83 58.12, 177.94 37.8, 200.14 13.65 M147.39 80.42 C162.03 62.8, 177.51 43.64, 199.88 20.05 M147.39 80.42 C160.19 64.95, 174.24 47.99, 199.88 20.05 M153.03 80.03 C164.07 65.23, 177.4 54.8, 200.27 25.69 M153.03 80.03 C168.61 60.52, 186.34 42.84, 200.27 25.69 M158.02 80.39 C170.05 67.5, 184.8 52.38, 200.01 32.09 M158.02 80.39 C170.34 66.31, 183.34 53.64, 200.01 32.09 M163.66 80 C177.94 65.07, 193.65 47.64, 199.75 38.49 M163.66 80 C176.03 66.37, 188.04 50.86, 199.75 38.49 M168.65 80.36 C181.01 67.91, 192.91 51.55, 200.14 44.13 M168.65 80.36 C178.98 67.66, 190.52 55.32, 200.14 44.13 M173.64 80.72 C180.63 74.13, 185.11 66.06, 199.88 50.53 M173.64 80.72 C182.85 70.41, 190.34 60.55, 199.88 50.53 M179.28 80.32 C183.13 73.88, 190.74 67.68, 200.27 56.17 M179.28 80.32 C184.93 73.06, 192.23 66.08, 200.27 56.17 M184.27 80.68 C187.67 74.82, 194.44 70.8, 200.01 62.57 M184.27 80.68 C189.45 74.41, 193.93 69.31, 200.01 62.57 M189.91 80.29 C195 75.43, 196.45 70.88, 199.75 68.97 M189.91 80.29 C192.54 77.4, 194.75 75.67, 199.75 68.97 M194.9 80.65 C196.17 79.09, 196.62 78.08, 200.15 74.61 M194.9 80.65 C196.75 79.07, 197.79 76.85, 200.15 74.61" stroke="#99e9f2" stroke-width="0.5" fill="none"></path><path d="M0 0 C40.77 0.5, 79.71 0.68, 200 0 M0 0 C54.58 0.01, 108.59 1.1, 200 0 M200 0 C201.84 18.98, 200.7 36.46, 200 80 M200 0 C199.57 30.79, 198.47 60.59, 200 80 M200 80 C128.95 77.74, 54.83 79.09, 0 80 M200 80 C152.04 77.79, 102.98 78.59, 0 80 M0 80 C0.24 54.72, 0.77 25.28, 0 0 M0 80 C-0.29 52.8, -0.12 24.52, 0 0" stroke="#0c8599" stroke-width="1" fill="none"></path></g><g transform="translate(570 530) rotate(0 100 40)"><text x="100" y="0" font-family="Virgil, Segoe UI Emoji" font-size="12px" fill="#000000" text-anchor="middle" style="white-space: pre;" direction="ltr" dominant-baseline="text-before-edge">Line-oriented parser</text><text x="100" y="26.666666666666668" font-family="Virgil, Segoe UI Emoji" font-size="12px" fill="#000000" text-anchor="middle" style="white-space: pre;" direction="ltr" dominant-baseline="text-before-edge">fences + key/value</text><text x="100" y="53.333333333333336" font-family="Virgil, Segoe UI Emoji" font-size="12px" fill="#000000" text-anchor="middle" style="white-space: pre;" direction="ltr" dominant-baseline="text-before-edge">memory-budget check</text></g><g stroke-linecap="round"><g transform="translate(775 570) rotate(0 30 0)"><path d="M0 0 C12.86 0.84, 23.68 1.04, 60 0 M0 0 C16.52 -0.55, 32.41 0.67, 60 0" stroke="#1e1e1e" stroke-width="1" fill="none"></path></g><g transform="translate(775 570) rotate(0 30 0)"><path d="M31.9 10.51 C38.46 9.31, 42.91 7.41, 60 0 M31.9 10.51 C39.83 6.97, 47.05 5.33, 60 0" stroke="#1e1e1e" stroke-width="1" fill="none"></path></g><g transform="translate(775 570) rotate(0 30 0)"><path d="M31.72 -10.01 C38.15 -7.11, 42.63 -4.9, 60 0 M31.72 -10.01 C39.52 -7.96, 46.79 -4.02, 60 0" stroke="#1e1e1e" stroke-width="1" fill="none"></path></g></g><mask></mask><g stroke-linecap="round" transform="translate(840 530) rotate(0 145 40)"><path d="M0 0 C0 0, 0 0, 0 0 M0 0 C0 0, 0 0, 0 0 M-0.26 6.4 C1.76 4.45, 3.11 2.54, 4.99 0.36 M-0.26 6.4 C2.08 3.89, 3.31 1.91, 4.99 0.36 M0.13 12.04 C1 8.94, 5.32 8.32, 10.63 -0.03 M0.13 12.04 C4.13 7.61, 6.9 5.23, 10.63 -0.03 M-0.13 18.44 C4.2 12.83, 8.54 8.18, 15.62 0.33 M-0.13 18.44 C2.87 14.4, 7.71 9.29, 15.62 0.33 M0.27 24.08 C6.49 14.7, 11.85 8.98, 21.26 -0.07 M0.27 24.08 C7.67 14.69, 15.12 6.76, 21.26 -0.07 M0 30.48 C9.63 18.52, 18.62 5.54, 26.25 0.29 M0 30.48 C7.35 23.63, 13.24 16.76, 26.25 0.29 M-0.26 36.88 C10.94 23.42, 24.08 8.82, 31.89 -0.1 M-0.26 36.88 C10 25.65, 19.11 14.52, 31.89 -0.1 M0.14 42.52 C11.15 31.18, 18.61 21.01, 36.88 0.26 M0.14 42.52 C13.13 28.1, 25.81 13.35, 36.88 0.26 M-0.12 48.92 C12.35 35.88, 23.78 22.96, 42.52 -0.14 M-0.12 48.92 C11.61 36.66, 23.17 22.72, 42.52 -0.14 M0.27 54.56 C15.34 33.85, 32.04 15.13, 47.51 0.22 M0.27 54.56 C8.83 45.06, 19.8 32.35, 47.51 0.22 M0.01 60.96 C14.03 42.83, 28.34 27.02, 53.15 -0.17 M0.01 60.96 C12.78 47.22, 26.41 31.8, 53.15 -0.17 M-0.25 67.36 C18.97 44.23, 39.97 23.06, 58.14 0.19 M-0.25 67.36 C19.51 45.36, 37.66 23.8, 58.14 0.19 M0.14 73 C13.62 56.79, 26.69 43.56, 63.78 -0.21 M0.14 73 C13.11 57.13, 26.84 43.22, 63.78 -0.21 M-0.12 79.4 C16.07 60.68, 30.45 46.16, 68.77 0.15 M-0.12 79.4 C21.11 52.85, 44.81 26.65, 68.77 0.15 M4.21 80.51 C18.57 61.66, 37.15 44.81, 74.41 -0.24 M4.21 80.51 C18.93 64.65, 34.22 47.28, 74.41 -0.24 M9.86 80.12 C28.16 58.57, 48.72 33.38, 79.4 0.12 M9.86 80.12 C28.15 57.36, 48.12 36.62, 79.4 0.12 M14.84 80.48 C31.63 60.2, 51.16 37.68, 85.04 -0.28 M14.84 80.48 C34.83 60.04, 53.25 37.82, 85.04 -0.28 M20.49 80.08 C45.07 51.52, 69.53 23.51, 90.03 0.08 M20.49 80.08 C42.61 54.29, 64.66 29.67, 90.03 0.08 M25.47 80.44 C46.78 52.25, 72.53 27.79, 95.67 -0.31 M25.47 80.44 C44.22 57.62, 65.31 33.94, 95.67 -0.31 M31.12 80.05 C55.2 52.67, 78.54 25.43, 100.66 0.05 M31.12 80.05 C49.42 60.37, 67.04 38.85, 100.66 0.05 M36.1 80.41 C55.25 56.67, 75.97 32.45, 106.3 -0.34 M36.1 80.41 C56.99 54.33, 80.61 29.46, 106.3 -0.34 M41.75 80.01 C54.91 61.46, 69.82 45.31, 111.29 0.02 M41.75 80.01 C55.68 63.12, 69.79 46.91, 111.29 0.02 M46.73 80.37 C70.19 55.85, 88.09 31.35, 116.27 0.38 M46.73 80.37 C67.66 55.85, 90.38 29.85, 116.27 0.38 M52.38 79.98 C74.91 53.36, 97.24 28.25, 121.92 -0.02 M52.38 79.98 C73.52 53.71, 95.61 28.85, 121.92 -0.02 M57.36 80.34 C78.22 59.31, 96.68 33.65, 126.91 0.34 M57.36 80.34 C84.54 48.98, 111.91 17.54, 126.91 0.34 M62.35 80.7 C76.4 62.28, 94.27 44.49, 132.55 -0.05 M62.35 80.7 C79.02 61.65, 95.66 42.47, 132.55 -0.05 M67.99 80.31 C87.8 56.75, 106.83 32.2, 137.54 0.31 M67.99 80.31 C91.16 53.82, 113.81 29.68, 137.54 0.31 M72.98 80.67 C93.92 58.96, 112.58 36.45, 143.18 -0.09 M72.98 80.67 C92.95 58.14, 112.2 36.38, 143.18 -0.09 M78.62 80.27 C102.56 50.49, 128.1 23.15, 148.17 0.27 M78.62 80.27 C99.87 57.38, 119.24 34.64, 148.17 0.27 M83.61 80.63 C101.3 59.11, 118.29 37.99, 153.81 -0.12 M83.61 80.63 C98.93 62.35, 113.08 45.39, 153.81 -0.12 M89.25 80.24 C106.26 58.41, 126.43 37.04, 158.8 0.24 M89.25 80.24 C109.95 54.6, 132.96 31.43, 158.8 0.24 M94.24 80.6 C114.57 56.45, 137.23 31.88, 164.44 -0.16 M94.24 80.6 C115.38 55.28, 137.96 30.65, 164.44 -0.16 M99.88 80.2 C121.76 54.02, 145.73 26.95, 169.43 0.2 M99.88 80.2 C114.04 63.59, 126.82 46.77, 169.43 0.2 M104.87 80.56 C132.82 49.13, 160.84 16.25, 175.07 -0.19 M104.87 80.56 C127.28 54.8, 149.09 29.18, 175.07 -0.19 M110.51 80.17 C125.04 62.38, 143.42 44.38, 180.06 0.17 M110.51 80.17 C127.77 60.38, 144.13 39.99, 180.06 0.17 M115.5 80.53 C134.81 58.25, 155.8 35.28, 185.7 -0.23 M115.5 80.53 C131.44 64.29, 143.78 47.95, 185.7 -0.23 M121.14 80.13 C136 65.39, 147.68 48.54, 190.69 0.13 M121.14 80.13 C142.23 56.77, 161.47 32.78, 190.69 0.13 M126.13 80.49 C152.09 50.13, 176.33 20.75, 196.33 -0.26 M126.13 80.49 C146.22 56.02, 167.06 33.22, 196.33 -0.26 M131.77 80.1 C146.67 61.91, 163.08 46.47, 201.32 0.1 M131.77 80.1 C151.34 58.49, 170.82 35.4, 201.32 0.1 M136.76 80.46 C162.19 50.38, 186.09 19.07, 206.96 -0.3 M136.76 80.46 C158.53 56.93, 177.54 32.98, 206.96 -0.3 M142.4 80.06 C156.04 63.63, 170.25 48.93, 211.95 0.06 M142.4 80.06 C164.54 53.81, 185.32 29.26, 211.95 0.06 M147.39 80.42 C167.37 56.71, 188.14 31.46, 217.59 -0.33 M147.39 80.42 C164.74 59.46, 183.49 37.1, 217.59 -0.33 M153.03 80.03 C169.5 59.18, 188.28 42.48, 222.58 0.03 M153.03 80.03 C176.22 51.56, 201.67 24.99, 222.58 0.03 M158.02 80.39 C178.4 57.51, 201.69 32.57, 228.22 -0.36 M158.02 80.39 C178.72 57.11, 199.85 35.08, 228.22 -0.36 M163.66 80 C191.37 50.07, 220.3 17.44, 233.21 0 M163.66 80 C187.58 53.09, 211.12 24.32, 233.21 0 M168.65 80.36 C195.3 51.27, 221.53 18.42, 238.19 0.36 M168.65 80.36 C192.27 52.01, 217.36 24.07, 238.19 0.36 M173.64 80.72 C190.11 63.31, 204.07 44.34, 243.84 -0.04 M173.64 80.72 C197.02 54.06, 218.87 27.68, 243.84 -0.04 M179.28 80.32 C196.1 58.5, 216.84 37.2, 248.82 0.32 M179.28 80.32 C199 56.64, 220.43 33.41, 248.82 0.32 M184.27 80.68 C201.88 58.36, 223.3 37.49, 254.47 -0.07 M184.27 80.68 C205.09 55.9, 225.3 32.7, 254.47 -0.07 M189.91 80.29 C217.84 48.73, 241.52 17.65, 259.45 0.29 M189.91 80.29 C207.21 61.29, 223.55 43.58, 259.45 0.29 M194.9 80.65 C210.78 62.74, 224.44 45.8, 265.1 -0.11 M194.9 80.65 C216.29 56.69, 236.05 31.4, 265.1 -0.11 M200.54 80.25 C218.27 59.44, 240.35 35.13, 270.08 0.25 M200.54 80.25 C226.43 51.46, 251.79 22.68, 270.08 0.25 M205.53 80.61 C229.58 53.32, 253.6 26.25, 275.73 -0.14 M205.53 80.61 C220.39 64.07, 235.4 48.45, 275.73 -0.14 M211.17 80.22 C237.38 53.61, 260.62 25.37, 280.71 0.22 M211.17 80.22 C236.23 52.03, 260.6 22.77, 280.71 0.22 M216.16 80.58 C241.76 51.1, 269.6 19.2, 286.36 -0.18 M216.16 80.58 C239.23 55.72, 260.46 28.82, 286.36 -0.18 M221.8 80.18 C245.95 53.76, 267.8 27.01, 290.03 1.69 M221.8 80.18 C246.2 53.81, 269.93 25.06, 290.03 1.69 M226.79 80.54 C249.65 58.58, 267.11 31.7, 290.43 7.34 M226.79 80.54 C248.5 56.3, 267.53 34.01, 290.43 7.34 M232.43 80.15 C247.99 60.47, 265.55 41.55, 290.16 13.73 M232.43 80.15 C254.45 56.97, 274.01 31.52, 290.16 13.73 M237.42 80.51 C250.38 66.49, 263.96 52.97, 289.9 20.13 M237.42 80.51 C257.15 58.01, 278.44 33.58, 289.9 20.13 M243.06 80.11 C259.24 63.64, 276.2 42.6, 290.3 25.77 M243.06 80.11 C255.01 66.19, 268.65 51.5, 290.3 25.77 M248.05 80.47 C257.58 70.73, 266.26 61.82, 290.04 32.17 M248.05 80.47 C258.99 66.87, 271.27 54.88, 290.04 32.17 M253.69 80.08 C266.12 67.28, 274.96 55.2, 289.77 38.57 M253.69 80.08 C262.26 71.06, 271.71 59.47, 289.77 38.57 M258.68 80.44 C271.98 66.35, 282.23 53.45, 290.17 44.21 M258.68 80.44 C270.12 68.61, 280.22 56.52, 290.17 44.21 M264.32 80.04 C274.25 70.27, 283.01 61.85, 289.91 50.61 M264.32 80.04 C271.55 70.93, 279.49 61.95, 289.91 50.61 M269.31 80.4 C276.36 72.94, 283.52 61.22, 290.3 56.25 M269.31 80.4 C274.47 75.24, 278.52 69.41, 290.3 56.25 M274.95 80.01 C279.64 75.71, 284.08 70.94, 290.04 62.65 M274.95 80.01 C281.11 73.58, 286.73 66.71, 290.04 62.65 M279.94 80.37 C280.83 78.82, 284.51 75.97, 289.78 69.05 M279.94 80.37 C283.48 77, 286.79 72.9, 289.78 69.05 M285.58 79.98 C286.47 79.26, 287.96 77.1, 290.17 74.69 M285.58 79.98 C286.46 78.92, 287.37 77.68, 290.17 74.69" stroke="#fff3bf" stroke-width="0.5" fill="none"></path><path d="M0 0 C58.64 0.28, 115.76 0.43, 290 0 M0 0 C79.03 0.27, 157.59 1.19, 290 0 M290 0 C291.84 18.98, 290.7 36.46, 290 80 M290 0 C289.57 30.79, 288.47 60.59, 290 80 M290 80 C186.2 77.56, 79.85 78.69, 0 80 M290 80 C220.32 77.62, 149.72 78.28, 0 80 M0 80 C0.24 54.72, 0.77 25.28, 0 0 M0 80 C-0.29 52.8, -0.12 24.52, 0 0" stroke="#e67700" stroke-width="1" fill="none"></path></g><g transform="translate(840 530) rotate(0 145 40)"><text x="145" y="0" font-family="Virgil, Segoe UI Emoji" font-size="12px" fill="#000000" text-anchor="middle" style="white-space: pre;" direction="ltr" dominant-baseline="text-before-edge">content_hash check (run records only)</text><text x="145" y="26.666666666666668" font-family="Virgil, Segoe UI Emoji" font-size="12px" fill="#000000" text-anchor="middle" style="white-space: pre;" direction="ltr" dominant-baseline="text-before-edge">IntegrityMode: Enforce / Warn / Ignore</text><text x="145" y="53.333333333333336" font-family="Virgil, Segoe UI Emoji" font-size="12px" fill="#000000" text-anchor="middle" style="white-space: pre;" direction="ltr" dominant-baseline="text-before-edge">Mismatch -&gt; Corrupted error or warning</text></g><g transform="translate(10 670) rotate(0 570 15)"><text x="0" y="0" font-family="Virgil, Segoe UI Emoji" font-size="16px" fill="#000000" text-anchor="start" style="white-space: pre;" direction="ltr" dominant-baseline="text-before-edge">CLI verbs and load paths</text></g><g stroke-linecap="round" transform="translate(10 710) rotate(0 570 70)"><path d="M32 0 C247.55 -0.49, 462.28 -0.41, 1108 0 M32 0 C324.74 1.39, 617.24 1.88, 1108 0 M1108 0 C1128.04 0.53, 1140.88 12.29, 1140 32 M1108 0 C1129.53 0.56, 1138.67 12.4, 1140 32 M1140 32 C1141.19 46.78, 1140.75 66.29, 1140 108 M1140 32 C1138.94 61.29, 1139.69 90.62, 1140 108 M1140 108 C1140.6 127.73, 1129.82 138.28, 1108 140 M1140 108 C1138.31 129.4, 1130.27 140.81, 1108 140 M1108 140 C876.36 144.17, 644.29 144.18, 32 140 M1108 140 C875.7 144.26, 643.46 144, 32 140 M32 140 C8.78 139.71, -0.18 129.86, 0 108 M32 140 C12.5 139.98, 2.16 129.43, 0 108 M0 108 C-1.27 85.92, 0.71 62.88, 0 32 M0 108 C-0.67 87.63, 0.55 65.31, 0 32 M0 32 C0.44 12.66, 9.12 -1.31, 32 0 M0 32 C-0.62 8.6, 11.68 2.27, 32 0" stroke="#495057" stroke-width="1" fill="none"></path></g><g transform="translate(30 725) rotate(0 550 57.5)"><text x="0" y="0" font-family="Cascadia, Segoe UI Emoji" font-size="12px" fill="#000000" text-anchor="start" style="white-space: pre;" direction="ltr" dominant-baseline="text-before-edge">--load-board &lt;PATH&gt;     load snapshot OR run record (--load-from initial|final) as initial board</text><text x="0" y="19.166666666666668" font-family="Cascadia, Segoe UI Emoji" font-size="12px" fill="#000000" text-anchor="start" style="white-space: pre;" direction="ltr" dominant-baseline="text-before-edge">--continue &lt;PATH&gt;       load run record's FINAL board, chain into a new run; records continued_from</text><text x="0" y="38.333333333333336" font-family="Cascadia, Segoe UI Emoji" font-size="12px" fill="#000000" text-anchor="start" style="white-space: pre;" direction="ltr" dominant-baseline="text-before-edge">--replay &lt;PATH&gt;         re-execute and diff the saved final board + key stats</text><text x="0" y="57.5" font-family="Cascadia, Segoe UI Emoji" font-size="12px" fill="#000000" text-anchor="start" style="white-space: pre;" direction="ltr" dominant-baseline="text-before-edge">--extract-board &lt;PATH&gt;  copy a run record's INITIAL/FINAL block out as a hand-editable snapshot</text><text x="0" y="76.66666666666667" font-family="Cascadia, Segoe UI Emoji" font-size="12px" fill="#000000" text-anchor="start" style="white-space: pre;" direction="ltr" dominant-baseline="text-before-edge">--ignore-integrity      bypass content_hash check (warns on stderr)</text><text x="0" y="95.83333333333334" font-family="Cascadia, Segoe UI Emoji" font-size="12px" fill="#000000" text-anchor="start" style="white-space: pre;" direction="ltr" dominant-baseline="text-before-edge">Auto-save: every successful run records its config + stats + boards into ./runs/&lt;UTC&gt;-&lt;short-id&gt;.gol</text></g></svg>