<svg version="1.1" xmlns="http://www.w3.org/2000/svg" viewBox="0 0 1160 960" width="1160" height="960">
  <!-- svg-source:excalidraw -->
  
  <defs>
    <style class="style-fonts">
      @font-face {
        font-family: "Virgil";
        src: url("https://unpkg.com/@excalidraw/excalidraw@undefined/dist/excalidraw-assets/Virgil.woff2");
      }
      @font-face {
        font-family: "Cascadia";
        src: url("https://unpkg.com/@excalidraw/excalidraw@undefined/dist/excalidraw-assets/Cascadia.woff2");
      }
      @font-face {
        font-family: "Assistant";
        src: url("https://unpkg.com/@excalidraw/excalidraw@undefined/dist/excalidraw-assets/Assistant-Regular.woff2");
      }
    </style>
    
  </defs>
  <rect x="0" y="0" width="1160" height="960" fill="#ffffff"></rect><g transform="translate(10 10) rotate(0 450 25)"><text x="0" y="0" font-family="Virgil, Segoe UI Emoji" font-size="24px" fill="#000000" text-anchor="start" style="white-space: pre;" direction="ltr" dominant-baseline="text-before-edge">Streaming Board: 2D chunked sliding window over a scratch file</text></g><g transform="translate(10 70) rotate(0 550 30)"><text x="0" y="0" font-family="Virgil, Segoe UI Emoji" font-size="14px" fill="#000000" text-anchor="start" style="white-space: pre;" direction="ltr" dominant-baseline="text-before-edge">Auto-promotes when an --initial-board run exceeds --max-board-memory. Keeps RAM bounded by paging</text><text x="0" y="30" font-family="Virgil, Segoe UI Emoji" font-size="14px" fill="#000000" text-anchor="start" style="white-space: pre;" direction="ltr" dominant-baseline="text-before-edge">a small chunk of cells in and out of a binary scratch file on disk.</text></g><g stroke-linecap="round" transform="translate(10 160) rotate(0 130 45)"><path d="M5.33 5.96 C5.33 5.96, 5.33 5.96, 5.33 5.96 M5.33 5.96 C5.33 5.96, 5.33 5.96, 5.33 5.96 M0.87 23.28 C5.84 18.05, 14.37 8.14, 20.56 0.64 M0.87 23.28 C7.49 15.95, 14.64 8.03, 20.56 0.64 M0.35 36.08 C8.65 27.21, 13.32 19.79, 31.19 0.61 M0.35 36.08 C8.83 28.14, 15.08 18.87, 31.19 0.61 M0.48 48.12 C11.65 33.44, 22.96 22.51, 41.82 0.57 M0.48 48.12 C14.91 32.02, 28.37 15.63, 41.82 0.57 M0.62 60.16 C14.83 41.93, 29.78 27.11, 52.45 0.54 M0.62 60.16 C17.85 40.13, 35.9 21.21, 52.45 0.54 M0.75 72.2 C22.42 47.25, 39.9 25.45, 63.08 0.51 M0.75 72.2 C16.99 52.41, 33.94 34.31, 63.08 0.51 M4.16 80.47 C22.43 58.04, 41.49 36.47, 73.71 0.47 M4.16 80.47 C29.25 52.07, 54.52 22.52, 73.71 0.47 M9.55 86.47 C24.87 68.94, 41.76 46.95, 84.34 0.44 M9.55 86.47 C38.35 53.09, 69.33 18.35, 84.34 0.44 M17.55 89.46 C34.44 67.15, 52.72 46.94, 94.97 0.4 M17.55 89.46 C46.51 55.74, 74.49 22.78, 94.97 0.4 M26.87 90.93 C46.48 68.41, 66.89 47.61, 105.6 0.37 M26.87 90.93 C50.55 61.92, 76.1 33.77, 105.6 0.37 M37.5 90.9 C56.65 65.96, 81.22 41.99, 116.23 0.33 M37.5 90.9 C58.28 64.06, 82.05 40.17, 116.23 0.33 M48.13 90.86 C63.82 74.47, 77.64 52.6, 126.86 0.3 M48.13 90.86 C65.22 70.91, 84.09 49.74, 126.86 0.3 M58.76 90.83 C79.44 63.75, 103.53 37.64, 137.49 0.26 M58.76 90.83 C86.98 57.13, 115.55 23.05, 137.49 0.26 M69.39 90.79 C96.34 60.71, 125.77 28.23, 147.46 0.98 M69.39 90.79 C89.54 66.49, 111.88 41.37, 147.46 0.98 M80.02 90.76 C105.57 59.91, 132.03 31.61, 158.09 0.95 M80.02 90.76 C111.32 53.63, 142.08 18.38, 158.09 0.95 M90.65 90.73 C114.35 63.32, 135.72 37.37, 168.72 0.92 M90.65 90.73 C107.3 72.3, 123.48 52.73, 168.72 0.92 M101.28 90.69 C119.37 69.11, 138.49 45.37, 179.35 0.88 M101.28 90.69 C125.03 63.85, 149.28 37.18, 179.35 0.88 M111.91 90.66 C134.99 62.58, 158.24 35.83, 189.98 0.85 M111.91 90.66 C136.69 63.56, 161.32 33.4, 189.98 0.85 M122.54 90.62 C147.9 63.49, 172.94 32.53, 200.61 0.81 M122.54 90.62 C143.82 64.55, 166.82 37.69, 200.61 0.81 M133.17 90.59 C148.13 73.51, 166.92 53.34, 211.24 0.78 M133.17 90.59 C158.11 61.37, 182.64 34.95, 211.24 0.78 M143.8 90.55 C167.15 66.47, 188.86 38.47, 221.87 0.74 M143.8 90.55 C169.46 60.89, 196.47 31.17, 221.87 0.74 M154.43 90.52 C174.2 69.63, 194.18 44.53, 232.5 0.71 M154.43 90.52 C171.16 70.87, 188.66 52.45, 232.5 0.71 M165.06 90.48 C197.96 53.92, 228.43 19.28, 242.48 1.43 M165.06 90.48 C187.04 64.14, 210.76 37.1, 242.48 1.43 M175.69 90.45 C194.73 67.55, 214.64 43.46, 250.48 4.41 M175.69 90.45 C196.98 66.65, 218.13 41.9, 250.48 4.41 M186.32 90.42 C206.73 66.86, 224.74 46.05, 257.17 8.91 M186.32 90.42 C200.21 72.53, 215.16 57.56, 257.17 8.91 M196.95 90.38 C216.85 65.93, 239.77 44.19, 259.93 17.93 M196.95 90.38 C215.06 69.92, 231.8 48, 259.93 17.93 M207.58 90.35 C220.91 73.86, 235.67 61.45, 260.07 29.97 M207.58 90.35 C225.19 68.47, 244.24 47.73, 260.07 29.97 M218.21 90.31 C227.01 80.63, 239.59 68.85, 260.2 42.01 M218.21 90.31 C227.74 79, 237.65 67.02, 260.2 42.01 M228.84 90.28 C237.29 82.12, 244.98 70.52, 260.33 54.05 M228.84 90.28 C235.14 81.53, 242.35 74.14, 260.33 54.05 M239.47 90.24 C245.72 84.87, 250.81 76.18, 260.46 66.09 M239.47 90.24 C244.72 84.56, 249.68 77.88, 260.46 66.09" stroke="#b2f2bb" stroke-width="1" fill="none"></path><path d="M22.5 0 C66.25 0.46, 108.22 0.64, 237.5 0 M22.5 0 C81.15 0.06, 139.26 1.12, 237.5 0 M237.5 0 C251.2 0.53, 260.88 9.13, 260 22.5 M237.5 0 C252.7 0.56, 258.67 9.23, 260 22.5 M260 22.5 C261.33 30.54, 260.89 43.31, 260 67.5 M260 22.5 C259.2 39.71, 259.95 56.97, 260 67.5 M260 67.5 C260.6 80.9, 252.98 88.28, 237.5 90 M260 67.5 C258.31 82.56, 253.44 90.81, 237.5 90 M237.5 90 C192.05 91.67, 145.66 91.69, 22.5 90 M237.5 90 C190.92 92.39, 144.49 91.83, 22.5 90 M22.5 90 C5.61 89.71, -0.18 83.03, 0 67.5 M22.5 90 C9.33 89.98, 2.16 82.6, 0 67.5 M0 67.5 C-1.05 54.31, 0.93 40.16, 0 22.5 M0 67.5 C-0.64 55.7, 0.57 41.95, 0 22.5 M0 22.5 C0.44 9.5, 5.95 -1.31, 22.5 0 M0 22.5 C-0.62 5.43, 8.51 2.27, 22.5 0" stroke="#2f9e44" stroke-width="2" fill="none"></path></g><g transform="translate(10 160) rotate(0 130 45)"><text x="130" y="0" font-family="Virgil, Segoe UI Emoji" font-size="13px" fill="#000000" text-anchor="middle" style="white-space: pre;" direction="ltr" dominant-baseline="text-before-edge">CellRule</text><text x="130" y="29.999999999999996" font-family="Virgil, Segoe UI Emoji" font-size="13px" fill="#000000" text-anchor="middle" style="white-space: pre;" direction="ltr" dominant-baseline="text-before-edge">(InPlaceTransitionalUpdater)</text><text x="130" y="59.99999999999999" font-family="Virgil, Segoe UI Emoji" font-size="13px" fill="#000000" text-anchor="middle" style="white-space: pre;" direction="ltr" dominant-baseline="text-before-edge">next_state(alive, neighbors) -&gt; alive</text></g><g stroke-linecap="round"><g transform="translate(275 205) rotate(0 40 0)"><path d="M0 0 C16.86 0.8, 31.68 1, 80 0 M0 0 C21.96 -0.47, 43.29 0.75, 80 0" stroke="#1e1e1e" stroke-width="2" fill="none"></path></g><g transform="translate(275 205) rotate(0 40 0)"><path d="M51.89 10.49 C58.46 9.3, 62.9 7.4, 80 0 M51.89 10.49 C59.83 6.96, 67.05 5.33, 80 0" stroke="#1e1e1e" stroke-width="2" fill="none"></path></g><g transform="translate(275 205) rotate(0 40 0)"><path d="M51.73 -10.03 C58.15 -7.12, 62.63 -4.91, 80 0 M51.73 -10.03 C59.53 -7.97, 66.79 -4.03, 80 0" stroke="#1e1e1e" stroke-width="2" fill="none"></path></g></g><mask></mask><g transform="translate(275 170) rotate(0 100 15)"><text x="0" y="0" font-family="Virgil, Segoe UI Emoji" font-size="11px" fill="#000000" text-anchor="start" style="white-space: pre;" direction="ltr" dominant-baseline="text-before-edge">advance_with_rule(&amp;dyn CellRule)</text></g><g stroke-linecap="round" transform="translate(360 160) rotate(0 130 45)"><path d="M5.33 5.96 C5.33 5.96, 5.33 5.96, 5.33 5.96 M5.33 5.96 C5.33 5.96, 5.33 5.96, 5.33 5.96 M0.87 23.28 C5.84 18.05, 14.37 8.14, 20.56 0.64 M0.87 23.28 C7.49 15.95, 14.64 8.03, 20.56 0.64 M0.35 36.08 C8.65 27.21, 13.32 19.79, 31.19 0.61 M0.35 36.08 C8.83 28.14, 15.08 18.87, 31.19 0.61 M0.48 48.12 C11.65 33.44, 22.96 22.51, 41.82 0.57 M0.48 48.12 C14.91 32.02, 28.37 15.63, 41.82 0.57 M0.62 60.16 C14.83 41.93, 29.78 27.11, 52.45 0.54 M0.62 60.16 C17.85 40.13, 35.9 21.21, 52.45 0.54 M0.75 72.2 C22.42 47.25, 39.9 25.45, 63.08 0.51 M0.75 72.2 C16.99 52.41, 33.94 34.31, 63.08 0.51 M4.16 80.47 C22.43 58.04, 41.49 36.47, 73.71 0.47 M4.16 80.47 C29.25 52.07, 54.52 22.52, 73.71 0.47 M9.55 86.47 C24.87 68.94, 41.76 46.95, 84.34 0.44 M9.55 86.47 C38.35 53.09, 69.33 18.35, 84.34 0.44 M17.55 89.46 C34.44 67.15, 52.72 46.94, 94.97 0.4 M17.55 89.46 C46.51 55.74, 74.49 22.78, 94.97 0.4 M26.87 90.93 C46.48 68.41, 66.89 47.61, 105.6 0.37 M26.87 90.93 C50.55 61.92, 76.1 33.77, 105.6 0.37 M37.5 90.9 C56.65 65.96, 81.22 41.99, 116.23 0.33 M37.5 90.9 C58.28 64.06, 82.05 40.17, 116.23 0.33 M48.13 90.86 C63.82 74.47, 77.64 52.6, 126.86 0.3 M48.13 90.86 C65.22 70.91, 84.09 49.74, 126.86 0.3 M58.76 90.83 C79.44 63.75, 103.53 37.64, 137.49 0.26 M58.76 90.83 C86.98 57.13, 115.55 23.05, 137.49 0.26 M69.39 90.79 C96.34 60.71, 125.77 28.23, 147.46 0.98 M69.39 90.79 C89.54 66.49, 111.88 41.37, 147.46 0.98 M80.02 90.76 C105.57 59.91, 132.03 31.61, 158.09 0.95 M80.02 90.76 C111.32 53.63, 142.08 18.38, 158.09 0.95 M90.65 90.73 C114.35 63.32, 135.72 37.37, 168.72 0.92 M90.65 90.73 C107.3 72.3, 123.48 52.73, 168.72 0.92 M101.28 90.69 C119.37 69.11, 138.49 45.37, 179.35 0.88 M101.28 90.69 C125.03 63.85, 149.28 37.18, 179.35 0.88 M111.91 90.66 C134.99 62.58, 158.24 35.83, 189.98 0.85 M111.91 90.66 C136.69 63.56, 161.32 33.4, 189.98 0.85 M122.54 90.62 C147.9 63.49, 172.94 32.53, 200.61 0.81 M122.54 90.62 C143.82 64.55, 166.82 37.69, 200.61 0.81 M133.17 90.59 C148.13 73.51, 166.92 53.34, 211.24 0.78 M133.17 90.59 C158.11 61.37, 182.64 34.95, 211.24 0.78 M143.8 90.55 C167.15 66.47, 188.86 38.47, 221.87 0.74 M143.8 90.55 C169.46 60.89, 196.47 31.17, 221.87 0.74 M154.43 90.52 C174.2 69.63, 194.18 44.53, 232.5 0.71 M154.43 90.52 C171.16 70.87, 188.66 52.45, 232.5 0.71 M165.06 90.48 C197.96 53.92, 228.43 19.28, 242.48 1.43 M165.06 90.48 C187.04 64.14, 210.76 37.1, 242.48 1.43 M175.69 90.45 C194.73 67.55, 214.64 43.46, 250.48 4.41 M175.69 90.45 C196.98 66.65, 218.13 41.9, 250.48 4.41 M186.32 90.42 C206.73 66.86, 224.74 46.05, 257.17 8.91 M186.32 90.42 C200.21 72.53, 215.16 57.56, 257.17 8.91 M196.95 90.38 C216.85 65.93, 239.77 44.19, 259.93 17.93 M196.95 90.38 C215.06 69.92, 231.8 48, 259.93 17.93 M207.58 90.35 C220.91 73.86, 235.67 61.45, 260.07 29.97 M207.58 90.35 C225.19 68.47, 244.24 47.73, 260.07 29.97 M218.21 90.31 C227.01 80.63, 239.59 68.85, 260.2 42.01 M218.21 90.31 C227.74 79, 237.65 67.02, 260.2 42.01 M228.84 90.28 C237.29 82.12, 244.98 70.52, 260.33 54.05 M228.84 90.28 C235.14 81.53, 242.35 74.14, 260.33 54.05 M239.47 90.24 C245.72 84.87, 250.81 76.18, 260.46 66.09 M239.47 90.24 C244.72 84.56, 249.68 77.88, 260.46 66.09" stroke="#99e9f2" stroke-width="1" fill="none"></path><path d="M22.5 0 C66.25 0.46, 108.22 0.64, 237.5 0 M22.5 0 C81.15 0.06, 139.26 1.12, 237.5 0 M237.5 0 C251.2 0.53, 260.88 9.13, 260 22.5 M237.5 0 C252.7 0.56, 258.67 9.23, 260 22.5 M260 22.5 C261.33 30.54, 260.89 43.31, 260 67.5 M260 22.5 C259.2 39.71, 259.95 56.97, 260 67.5 M260 67.5 C260.6 80.9, 252.98 88.28, 237.5 90 M260 67.5 C258.31 82.56, 253.44 90.81, 237.5 90 M237.5 90 C192.05 91.67, 145.66 91.69, 22.5 90 M237.5 90 C190.92 92.39, 144.49 91.83, 22.5 90 M22.5 90 C5.61 89.71, -0.18 83.03, 0 67.5 M22.5 90 C9.33 89.98, 2.16 82.6, 0 67.5 M0 67.5 C-1.05 54.31, 0.93 40.16, 0 22.5 M0 67.5 C-0.64 55.7, 0.57 41.95, 0 22.5 M0 22.5 C0.44 9.5, 5.95 -1.31, 22.5 0 M0 22.5 C-0.62 5.43, 8.51 2.27, 22.5 0" stroke="#0c8599" stroke-width="2" fill="none"></path></g><g transform="translate(360 160) rotate(0 130 45)"><text x="130" y="0" font-family="Virgil, Segoe UI Emoji" font-size="13px" fill="#000000" text-anchor="middle" style="white-space: pre;" direction="ltr" dominant-baseline="text-before-edge">BoardEditor (trait)</text><text x="130" y="29.999999999999996" font-family="Virgil, Segoe UI Emoji" font-size="13px" fill="#000000" text-anchor="middle" style="white-space: pre;" direction="ltr" dominant-baseline="text-before-edge">object-safe via &amp;dyn CellRule</text><text x="130" y="59.99999999999999" font-family="Virgil, Segoe UI Emoji" font-size="13px" fill="#000000" text-anchor="middle" style="white-space: pre;" direction="ltr" dominant-baseline="text-before-edge">board owns iteration</text></g><g stroke-linecap="round" transform="translate(690 120) rotate(0 120 30)"><path d="M3.99 3.47 C3.99 3.47, 3.99 3.47, 3.99 3.47 M3.99 3.47 C3.99 3.47, 3.99 3.47, 3.99 3.47 M0.45 13.64 C2.91 11.19, 8.45 4.74, 11.6 0.81 M0.45 13.64 C4.24 9.54, 8.44 4.95, 11.6 0.81 M0.19 20.04 C5.37 14.63, 7.05 10.64, 17.25 0.42 M0.19 20.04 C5.28 15.92, 8.24 10.43, 17.25 0.42 M0.58 25.68 C5.92 17.35, 11.59 12.91, 22.23 0.78 M0.58 25.68 C8.4 17.41, 15.21 8.66, 22.23 0.78 M0.98 31.33 C8.44 20.91, 16.38 14.14, 27.88 0.38 M0.98 31.33 C9.79 20.84, 19.66 11.32, 27.88 0.38 M0.72 37.72 C12.31 24.31, 19.99 13.78, 32.86 0.74 M0.72 37.72 C8.9 27.14, 17.69 18.42, 32.86 0.74 M1.11 43.37 C10.63 31.2, 20.68 19.99, 38.51 0.35 M1.11 43.37 C14.82 28.18, 28.54 11.92, 38.51 0.35 M1.51 49.01 C9.25 39.78, 18.73 26.3, 43.49 0.71 M1.51 49.01 C17.54 30.44, 35.42 10.77, 43.49 0.71 M2.56 53.9 C12.25 39.77, 23.32 27.86, 49.14 0.31 M2.56 53.9 C20.11 33.41, 36.61 13.66, 49.14 0.31 M5.58 56.52 C17.85 42.65, 30.76 30.48, 54.12 0.67 M5.58 56.52 C19.84 38.49, 35.93 21.22, 54.12 0.67 M8.59 59.15 C20.21 42.98, 37.34 27.56, 59.11 1.03 M8.59 59.15 C21.59 41.67, 37.46 26.87, 59.11 1.03 M12.93 60.26 C23.47 50.07, 31.87 34.44, 64.75 0.64 M12.93 60.26 C23.93 47.1, 36.74 32.9, 64.75 0.64 M18.57 59.87 C31.37 42.21, 47.43 25.33, 69.74 1 M18.57 59.87 C36.86 37.89, 55.27 15.5, 69.74 1 M23.56 60.23 C41.26 40.4, 61.62 18.37, 75.38 0.61 M23.56 60.23 C36.78 44.28, 52.03 27.31, 75.38 0.61 M29.2 59.83 C45.73 39.39, 63.01 21.65, 80.37 0.97 M29.2 59.83 C49.9 35.16, 69.94 12.25, 80.37 0.97 M34.19 60.19 C50.03 41.69, 63.69 24.61, 86.01 0.57 M34.19 60.19 C45.34 47.95, 56.09 34.64, 86.01 0.57 M39.83 59.8 C51.57 45.76, 64.25 29.43, 91 0.93 M39.83 59.8 C55.52 42.11, 71.63 24.8, 91 0.93 M44.82 60.16 C59.84 41.4, 74.97 23.99, 96.64 0.54 M44.82 60.16 C61.27 42.48, 77.52 21.96, 96.64 0.54 M50.46 59.76 C67.2 42.32, 83.85 21.02, 101.63 0.9 M50.46 59.76 C64.1 42.78, 79.35 24.83, 101.63 0.9 M55.45 60.12 C64.77 49.18, 78.1 35.29, 107.27 0.5 M55.45 60.12 C72.01 40.5, 88.35 23.51, 107.27 0.5 M61.09 59.73 C76.49 44.51, 90.43 25.44, 112.26 0.86 M61.09 59.73 C77.95 40.28, 95.95 20.93, 112.26 0.86 M66.08 60.09 C79.31 46.81, 92.57 29.45, 117.9 0.47 M66.08 60.09 C77.13 46.84, 88.97 34.93, 117.9 0.47 M71.06 60.45 C93.66 35.51, 113.9 12.63, 122.89 0.83 M71.06 60.45 C85.52 42.71, 101.64 24.41, 122.89 0.83 M76.71 60.05 C89.54 44.33, 103.17 27.45, 128.53 0.43 M76.71 60.05 C91.43 43.73, 106.09 26.43, 128.53 0.43 M81.69 60.41 C96.75 42.73, 109.51 27.95, 133.52 0.79 M81.69 60.41 C91.78 47.08, 102.89 36.53, 133.52 0.79 M87.34 60.02 C103.61 39.79, 122.86 22.27, 139.17 0.4 M87.34 60.02 C102.35 43.26, 115.88 25.03, 139.17 0.4 M92.32 60.38 C105.48 44.09, 120.08 31.87, 144.15 0.76 M92.32 60.38 C109.71 38.77, 128.53 18.3, 144.15 0.76 M97.97 59.99 C109.06 47.81, 123.89 33.45, 149.14 1.12 M97.97 59.99 C109.65 46.23, 121.72 31.77, 149.14 1.12 M102.95 60.35 C116.72 46.14, 129.74 28.4, 154.78 0.72 M102.95 60.35 C113.36 46.45, 124.9 34.08, 154.78 0.72 M108.6 59.95 C123.54 44.5, 137.51 25.59, 159.77 1.08 M108.6 59.95 C120.87 45.9, 133.15 30.8, 159.77 1.08 M113.58 60.31 C129.71 41, 151.29 20.1, 165.41 0.69 M113.58 60.31 C132.75 39.97, 149.44 19.92, 165.41 0.69 M119.23 59.92 C134.62 40.78, 150.26 24.27, 170.4 1.05 M119.23 59.92 C132 44.49, 146.04 28.77, 170.4 1.05 M124.21 60.28 C140.36 42, 156.87 21.55, 176.04 0.65 M124.21 60.28 C137.41 45.97, 151.41 30.32, 176.04 0.65 M129.86 59.88 C145.27 37.45, 166.15 20.91, 181.03 1.01 M129.86 59.88 C147.7 39.04, 166.94 18.15, 181.03 1.01 M134.84 60.24 C154.51 39.21, 173.21 17.12, 186.67 0.62 M134.84 60.24 C154 40.1, 171.97 19.25, 186.67 0.62 M140.49 59.85 C152.92 45.55, 167.96 30.79, 191.66 0.98 M140.49 59.85 C150.65 45.73, 162.68 33.22, 191.66 0.98 M145.47 60.21 C155.12 48.76, 164.48 35.96, 197.3 0.59 M145.47 60.21 C166.65 37.09, 186.76 13.61, 197.3 0.59 M151.12 59.81 C166.77 41.47, 182.31 26.94, 202.29 0.95 M151.12 59.81 C165.01 42.4, 180.03 25.88, 202.29 0.95 M156.1 60.17 C170.17 43.67, 185.29 29.3, 207.93 0.55 M156.1 60.17 C167.6 47.35, 178.83 34.1, 207.93 0.55 M161.09 60.53 C177.45 43.08, 195.56 21.06, 212.92 0.91 M161.09 60.53 C180.4 38.24, 199.51 15.47, 212.92 0.91 M166.73 60.14 C177.67 48.9, 187.81 34.93, 218.56 0.52 M166.73 60.14 C179.11 45.64, 192.5 30.08, 218.56 0.52 M171.72 60.5 C191.66 34.85, 211.39 12.28, 223.55 0.88 M171.72 60.5 C185.75 43.95, 197.69 28.84, 223.55 0.88 M177.36 60.1 C196.64 38.34, 214.67 16.7, 229.19 0.48 M177.36 60.1 C197.63 38.38, 216.47 16.47, 229.19 0.48 M182.35 60.46 C201.83 40.75, 219.51 16.89, 232.87 2.35 M182.35 60.46 C198.2 41.07, 215.34 22.78, 232.87 2.35 M187.99 60.07 C202.75 44.82, 215.74 29.17, 236.54 4.22 M187.99 60.07 C199.81 46.91, 212.59 32.01, 236.54 4.22 M192.98 60.43 C207.01 44.06, 222.17 26.62, 238.91 7.6 M192.98 60.43 C205.32 46.15, 217.98 30.11, 238.91 7.6 M198.62 60.04 C207.95 48.91, 219.68 38.46, 239.3 13.24 M198.62 60.04 C207.68 51.54, 215.41 41.79, 239.3 13.24 M203.61 60.4 C212.27 48.16, 222.34 38.92, 239.69 18.89 M203.61 60.4 C212.43 48.69, 222.18 37.93, 239.69 18.89 M209.25 60 C217.57 51.94, 226.63 43.04, 239.43 25.28 M209.25 60 C220.27 47.84, 230.73 34.12, 239.43 25.28 M214.24 60.36 C223.6 50.37, 230.8 42.01, 239.83 30.93 M214.24 60.36 C223.06 50, 232.04 40.58, 239.83 30.93 M219.88 59.97 C223.97 51.21, 232.22 45.55, 239.57 37.33 M219.88 59.97 C226.17 52.05, 231.43 46.9, 239.57 37.33 M224.87 60.33 C231 56.4, 234.28 49.97, 239.96 42.97 M224.87 60.33 C231.3 54.07, 235.16 46.99, 239.96 42.97 M231.17 59.18 C234.42 55.93, 237.28 53.6, 240.36 48.61 M231.17 59.18 C234.91 55.19, 238.72 51.53, 240.36 48.61" stroke="#dee2e6" stroke-width="0.5" fill="none"></path><path d="M15 0 C57.76 0.48, 98.72 0.65, 225 0 M15 0 C72.29 0.04, 129.04 1.12, 225 0 M225 0 C233.7 0.53, 240.88 6.63, 240 15 M225 0 C235.2 0.56, 238.67 6.73, 240 15 M240 15 C241.4 19.78, 240.96 29.28, 240 45 M240 15 C239.32 26.37, 240.07 37.78, 240 45 M240 45 C240.6 53.4, 235.48 58.28, 225 60 M240 45 C238.31 55.06, 235.94 60.81, 225 60 M225 60 C180.64 61.65, 135.33 61.66, 15 60 M225 60 C179.5 62.37, 134.15 61.8, 15 60 M15 60 C3.11 59.71, -0.18 55.53, 0 45 M15 60 C6.83 59.98, 2.16 55.1, 0 45 M0 45 C-0.94 36.11, 1.04 26.26, 0 15 M0 45 C-0.63 37.35, 0.59 27.74, 0 15 M0 15 C0.44 7, 3.45 -1.31, 15 0 M0 15 C-0.62 2.93, 6.01 2.27, 15 0" stroke="#495057" stroke-width="1" fill="none"></path></g><g transform="translate(690 120) rotate(0 120 30)"><text x="120" y="0" font-family="Virgil, Segoe UI Emoji" font-size="12px" fill="#000000" text-anchor="middle" style="white-space: pre;" direction="ltr" dominant-baseline="text-before-edge">InMemoryBoard</text><text x="120" y="30" font-family="Virgil, Segoe UI Emoji" font-size="12px" fill="#000000" text-anchor="middle" style="white-space: pre;" direction="ltr" dominant-baseline="text-before-edge">(when board fits in cap)</text></g><g stroke-linecap="round" transform="translate(690 220) rotate(0 120 30)"><path d="M3.99 3.47 C3.99 3.47, 3.99 3.47, 3.99 3.47 M3.99 3.47 C3.99 3.47, 3.99 3.47, 3.99 3.47 M0.19 20.04 C4.32 15.74, 12.05 6.76, 17.25 0.42 M0.19 20.04 C5.94 13.71, 12.21 6.8, 17.25 0.42 M0.98 31.33 C8.39 23.44, 12.2 17, 27.88 0.38 M0.98 31.33 C8.49 24.48, 13.8 16.29, 27.88 0.38 M1.11 43.37 C11.11 29.96, 21.3 20.33, 38.51 0.35 M1.11 43.37 C14.22 28.83, 26.35 13.97, 38.51 0.35 M2.56 53.9 C15.34 37.31, 28.82 24.18, 49.14 0.31 M2.56 53.9 C18.02 35.87, 34.34 18.93, 49.14 0.31 M8.59 59.15 C26.32 38.71, 39.96 21.32, 59.11 1.03 M8.59 59.15 C21.68 42.96, 35.44 28.53, 59.11 1.03 M18.57 59.87 C31.84 43.3, 45.75 27.65, 69.74 1 M18.57 59.87 C37.15 39.01, 55.82 17.06, 69.74 1 M29.2 59.83 C39.06 48.28, 50.62 32.42, 80.37 0.97 M29.2 59.83 C48.81 37.11, 70.36 13.23, 80.37 0.97 M39.83 59.8 C50.59 44.45, 62.74 31.3, 91 0.93 M39.83 59.8 C59.08 37.34, 77.29 15.62, 91 0.93 M50.46 59.76 C63.37 45.14, 76.93 32.22, 101.63 0.9 M50.46 59.76 C65.54 40.78, 82.45 22.56, 101.63 0.9 M61.09 59.73 C72.88 43.35, 90.18 27.74, 112.26 0.86 M61.09 59.73 C74.27 42.04, 90.31 27.02, 112.26 0.86 M71.06 60.45 C81.61 50.26, 90 34.63, 122.89 0.83 M71.06 60.45 C82.07 47.29, 94.88 33.09, 122.89 0.83 M81.69 60.41 C94.68 42.53, 110.93 25.43, 133.52 0.79 M81.69 60.41 C100.22 38.16, 118.87 15.49, 133.52 0.79 M92.32 60.38 C110.03 40.55, 130.39 18.53, 144.15 0.76 M92.32 60.38 C105.55 44.43, 120.79 27.47, 144.15 0.76 M102.95 60.35 C119.71 39.65, 137.21 21.65, 154.78 0.72 M102.95 60.35 C123.91 35.37, 144.21 12.16, 154.78 0.72 M113.58 60.31 C129.43 41.81, 143.09 24.73, 165.41 0.69 M113.58 60.31 C124.74 48.07, 135.48 34.75, 165.41 0.69 M124.21 60.28 C136.11 46.05, 148.94 29.54, 176.04 0.65 M124.21 60.28 C140.1 42.37, 156.41 24.83, 176.04 0.65 M134.84 60.24 C149.87 41.48, 165 24.08, 186.67 0.62 M134.84 60.24 C151.29 42.56, 167.54 22.04, 186.67 0.62 M145.47 60.21 C162.42 42.52, 179.28 20.99, 197.3 0.59 M145.47 60.21 C159.3 43, 174.74 24.84, 197.3 0.59 M156.1 60.17 C165.43 49.23, 178.76 35.34, 207.93 0.55 M156.1 60.17 C172.67 40.55, 189.01 23.56, 207.93 0.55 M166.73 60.14 C182.32 44.7, 196.46 25.42, 218.56 0.52 M166.73 60.14 C183.81 40.44, 202.03 20.84, 218.56 0.52 M177.36 60.1 C190.6 46.83, 203.85 29.47, 229.19 0.48 M177.36 60.1 C188.42 46.86, 200.25 34.94, 229.19 0.48 M187.99 60.07 C209.27 36.62, 228.2 15.25, 236.54 4.22 M187.99 60.07 C201.48 43.43, 216.63 26.26, 236.54 4.22 M198.62 60.04 C208.44 47.79, 219.03 34.42, 239.3 13.24 M198.62 60.04 C210.16 47.34, 221.67 33.66, 239.3 13.24 M209.25 60 C218.22 48.98, 225 41.09, 239.43 25.28 M209.25 60 C215.01 51.85, 221.76 46.31, 239.43 25.28 M219.88 59.97 C225.7 51.91, 234.38 46.55, 239.57 37.33 M219.88 59.97 C226 53.86, 230.26 46.3, 239.57 37.33 M231.17 59.18 C233.36 55.77, 236.75 55.07, 240.36 48.61 M231.17 59.18 C233.99 55.11, 237.72 51.65, 240.36 48.61" stroke="#fff3bf" stroke-width="1" fill="none"></path><path d="M15 0 C57.76 0.48, 98.72 0.65, 225 0 M15 0 C72.29 0.04, 129.04 1.12, 225 0 M225 0 C233.7 0.53, 240.88 6.63, 240 15 M225 0 C235.2 0.56, 238.67 6.73, 240 15 M240 15 C241.4 19.78, 240.96 29.28, 240 45 M240 15 C239.32 26.37, 240.07 37.78, 240 45 M240 45 C240.6 53.4, 235.48 58.28, 225 60 M240 45 C238.31 55.06, 235.94 60.81, 225 60 M225 60 C180.64 61.65, 135.33 61.66, 15 60 M225 60 C179.5 62.37, 134.15 61.8, 15 60 M15 60 C3.11 59.71, -0.18 55.53, 0 45 M15 60 C6.83 59.98, 2.16 55.1, 0 45 M0 45 C-0.94 36.11, 1.04 26.26, 0 15 M0 45 C-0.63 37.35, 0.59 27.74, 0 15 M0 15 C0.44 7, 3.45 -1.31, 15 0 M0 15 C-0.62 2.93, 6.01 2.27, 15 0" stroke="#e67700" stroke-width="2" fill="none"></path></g><g transform="translate(690 220) rotate(0 120 30)"><text x="120" y="0" font-family="Virgil, Segoe UI Emoji" font-size="12px" fill="#000000" text-anchor="middle" style="white-space: pre;" direction="ltr" dominant-baseline="text-before-edge">StreamingBoard</text><text x="120" y="30" font-family="Virgil, Segoe UI Emoji" font-size="12px" fill="#000000" text-anchor="middle" style="white-space: pre;" direction="ltr" dominant-baseline="text-before-edge">(when board &gt; cap)</text></g><g stroke-linecap="round"><g transform="translate(625 190) rotate(0 32.5 -17.5)"><path d="M0 0 C14.15 -6.17, 25.97 -12.97, 65 -35 M0 0 C18.18 -10.05, 35.43 -18.35, 65 -35" stroke="#495057" stroke-width="1" fill="none"></path></g><g transform="translate(625 190) rotate(0 32.5 -17.5)"><path d="M45.24 -12.42 C50.24 -16.02, 53.01 -20.33, 65 -35 M45.24 -12.42 C51.01 -19.27, 55.96 -24.19, 65 -35" stroke="#495057" stroke-width="1" fill="none"></path></g><g transform="translate(625 190) rotate(0 32.5 -17.5)"><path d="M35.35 -30.4 C42.18 -30.42, 46.93 -31.14, 65 -35 M35.35 -30.4 C43.65 -32.32, 51.29 -32.36, 65 -35" stroke="#495057" stroke-width="1" fill="none"></path></g></g><mask></mask><g stroke-linecap="round"><g transform="translate(625 220) rotate(0 32.5 15)"><path d="M0 0 C13.61 6.83, 25.43 13.03, 65 30 M0 0 C17.62 7.63, 34.87 17.01, 65 30" stroke="#e67700" stroke-width="2" fill="none"></path></g><g transform="translate(625 220) rotate(0 32.5 15)"><path d="M35.08 27.82 C41.9 29.16, 46.71 29.8, 65 30 M35.08 27.82 C43.39 27.75, 51.11 29.56, 65 30" stroke="#e67700" stroke-width="2" fill="none"></path></g><g transform="translate(625 220) rotate(0 32.5 15)"><path d="M43.48 9.1 C48.47 14.2, 51.59 18.58, 65 30 M43.48 9.1 C49.35 14.08, 54.78 20.99, 65 30" stroke="#e67700" stroke-width="2" fill="none"></path></g></g><mask></mask><g transform="translate(10 310) rotate(0 550 15)"><text x="0" y="0" font-family="Virgil, Segoe UI Emoji" font-size="13px" fill="#000000" text-anchor="start" style="white-space: pre;" direction="ltr" dominant-baseline="text-before-edge">Auto-promote when: --initial-board AND (width * height * size_of::&lt;CellState&gt;()) &gt; --max-board-memory</text></g><g stroke-linecap="round" transform="translate(10 370) rotate(0 300 230)"><path d="M32 0 C139.55 -0.05, 246.28 0.03, 568 0 M32 0 C177.87 0.54, 323.49 1.02, 568 0 M568 0 C588.04 0.53, 600.88 12.29, 600 32 M568 0 C589.53 0.56, 598.67 12.4, 600 32 M600 32 C599.83 117.13, 599.58 204.97, 600 428 M600 32 C597.89 186.07, 598.32 340.16, 600 428 M600 428 C600.6 447.73, 589.82 458.28, 568 460 M600 428 C598.31 449.4, 590.27 460.81, 568 460 M568 460 C452.82 462.04, 337.21 462.04, 32 460 M568 460 C452.24 462.27, 336.55 462.01, 32 460 M32 460 C8.78 459.71, -0.18 449.86, 0 428 M32 460 C12.5 459.98, 2.16 449.43, 0 428 M0 428 C-2.06 314.26, -0.92 199.97, 0 32 M0 428 C-0.55 318.9, 0.15 208.69, 0 32 M0 32 C0.44 12.66, 9.12 -1.31, 32 0 M0 32 C-0.62 8.6, 11.68 2.27, 32 0" stroke="#e67700" stroke-width="2" fill="none"></path></g><g transform="translate(30 385) rotate(0 290 15)"><text x="0" y="0" font-family="Virgil, Segoe UI Emoji" font-size="18px" fill="#000000" text-anchor="start" style="white-space: pre;" direction="ltr" dominant-baseline="text-before-edge">StreamingBoard internals</text></g><g stroke-linecap="round" transform="translate(40 435) rotate(0 140 110)"><path d="M32 0 C75.95 0.46, 118.12 0.63, 248 0 M32 0 C90.92 0.06, 149.3 1.13, 248 0 M248 0 C268.04 0.53, 280.88 12.29, 280 32 M248 0 C269.53 0.56, 278.67 12.4, 280 32 M280 32 C280.82 64.18, 280.38 101.09, 280 188 M280 32 C278.29 92.45, 279.03 152.94, 280 188 M280 188 C280.6 207.73, 269.82 218.28, 248 220 M280 188 C278.31 209.4, 270.27 220.81, 248 220 M248 220 C202.33 221.68, 155.73 221.7, 32 220 M248 220 C201.21 222.4, 154.56 221.83, 32 220 M32 220 C8.78 219.71, -0.18 209.86, 0 188 M32 220 C12.5 219.98, 2.16 209.43, 0 188 M0 188 C-1.85 142.98, 0.13 96.99, 0 32 M0 188 C-0.74 145.52, 0.47 101.09, 0 32 M0 32 C0.44 12.66, 9.12 -1.31, 32 0 M0 32 C-0.62 8.6, 11.68 2.27, 32 0" stroke="#1864ab" stroke-width="2" fill="none"></path></g><g transform="translate(50 445) rotate(0 130 15)"><text x="0" y="0" font-family="Virgil, Segoe UI Emoji" font-size="12px" fill="#000000" text-anchor="start" style="white-space: pre;" direction="ltr" dominant-baseline="text-before-edge">Chunk InMemoryBoard (max loaded extent)</text></g><g stroke-linecap="round" transform="translate(60 485) rotate(0 120 15)"><path d="M0 0 C0 0, 0 0, 0 0 M0 0 C0 0, 0 0, 0 0 M-0.26 6.4 C1.76 4.45, 3.11 2.54, 4.99 0.36 M-0.26 6.4 C2.08 3.89, 3.31 1.91, 4.99 0.36 M0.13 12.04 C1 8.94, 5.32 8.32, 10.63 -0.03 M0.13 12.04 C4.13 7.61, 6.9 5.23, 10.63 -0.03 M-0.13 18.44 C4.2 12.83, 8.54 8.18, 15.62 0.33 M-0.13 18.44 C2.87 14.4, 7.71 9.29, 15.62 0.33 M0.27 24.08 C6.49 14.7, 11.85 8.98, 21.26 -0.07 M0.27 24.08 C7.67 14.69, 15.12 6.76, 21.26 -0.07 M0 30.48 C9.63 18.52, 18.62 5.54, 26.25 0.29 M0 30.48 C7.35 23.63, 13.24 16.76, 26.25 0.29 M5.65 30.08 C14.78 19.03, 25.84 6.83, 31.89 -0.1 M5.65 30.08 C14.02 20.97, 21.3 11.93, 31.89 -0.1 M10.63 30.45 C18.76 22.48, 23.35 15.61, 36.88 0.26 M10.63 30.45 C19.97 20.06, 29.05 9.45, 36.88 0.26 M16.28 30.05 C24.34 21.87, 31.51 13.86, 42.52 -0.14 M16.28 30.05 C23.61 22.74, 30.8 13.82, 42.52 -0.14 M21.27 30.41 C29.09 18.24, 38.5 7.91, 47.51 0.22 M21.27 30.41 C25.76 25.57, 32.49 17.73, 47.51 0.22 M26.91 30.02 C33.85 20.4, 40.94 12.87, 53.15 -0.17 M26.91 30.02 C32.93 23.6, 40.07 15.64, 53.15 -0.17 M31.9 30.38 C40.21 19.41, 50.49 10.58, 58.14 0.19 M31.9 30.38 C41.26 20.57, 49 10.97, 58.14 0.19 M37.54 29.98 C42.95 22.87, 48.1 18.74, 63.78 -0.21 M37.54 29.98 C42.72 23.32, 48.75 18.25, 63.78 -0.21 M42.53 30.34 C49.63 21.99, 55.28 17.52, 68.77 0.15 M42.53 30.34 C50.04 19.76, 59.59 9.84, 68.77 0.15 M48.17 29.95 C52.48 22.79, 61.05 17.46, 74.41 -0.24 M48.17 29.95 C53.7 24.45, 59.86 17.59, 74.41 -0.24 M53.16 30.31 C58.96 22.75, 67.14 11.81, 79.4 0.12 M53.16 30.31 C59.76 21.53, 67.93 14.37, 79.4 0.12 M58.8 29.91 C64.68 22.85, 73.03 13.19, 85.04 -0.28 M58.8 29.91 C66.8 22.89, 73.41 14.26, 85.04 -0.28 M63.79 30.27 C72.56 19.42, 81.7 9.04, 90.03 0.08 M63.79 30.27 C71.98 19.96, 80.35 11.09, 90.03 0.08 M69.43 29.88 C76.16 18.58, 87.35 10.87, 95.67 -0.31 M69.43 29.88 C75.83 21.36, 84.5 11.98, 95.67 -0.31 M74.42 30.24 C83.8 20.02, 92.59 9.52, 100.66 0.05 M74.42 30.24 C81.54 22.93, 88.07 14.17, 100.66 0.05 M80.06 29.84 C86.51 21.12, 94.06 12.05, 106.3 -0.34 M80.06 29.84 C87.26 20.02, 96.94 11.18, 106.3 -0.34 M85.05 30.2 C89.17 22.05, 94.89 16.47, 111.29 0.02 M85.05 30.2 C90.21 23.9, 95.25 18.13, 111.29 0.02 M90.03 30.56 C100.07 21.17, 104.89 11.73, 116.27 0.38 M90.03 30.56 C97.79 21.53, 106.95 11.13, 116.27 0.38 M95.68 30.17 C104.63 19.58, 113.39 10.08, 121.92 -0.02 M95.68 30.17 C103.55 19.73, 111.94 10.64, 121.92 -0.02 M100.66 30.53 C108.95 23.83, 115.15 12.29, 126.91 0.34 M100.66 30.53 C110.78 18.68, 121.42 6.48, 126.91 0.34 M106.31 30.13 C110.44 22.91, 118.55 16.35, 132.55 -0.05 M106.31 30.13 C112.5 22.9, 118.54 15.91, 132.55 -0.05 M111.29 30.49 C118.86 21.31, 125.37 11.16, 137.54 0.31 M111.29 30.49 C120.02 19.89, 128.67 11.85, 137.54 0.31 M116.94 30.1 C125.43 22.35, 132.11 13.62, 143.18 -0.09 M116.94 30.1 C124.86 21.6, 132.22 13.53, 143.18 -0.09 M121.92 30.46 C130.19 18.62, 139.84 9.55, 148.17 0.27 M121.92 30.46 C130.5 22.12, 137.46 13.67, 148.17 0.27 M127.57 30.07 C134 21.33, 139.98 12.89, 153.81 -0.12 M127.57 30.07 C133.85 22.82, 138.52 16.76, 153.81 -0.12 M132.55 30.43 C138.01 21.72, 146.68 13.58, 158.8 0.24 M132.55 30.43 C140.09 20.21, 149.62 12.53, 158.8 0.24 M138.2 30.03 C145.22 20.93, 154.97 11.22, 164.44 -0.16 M138.2 30.03 C146.12 20.21, 155.05 11.26, 164.44 -0.16 M143.18 30.39 C150.57 21.05, 159.99 10.72, 169.43 0.2 M143.18 30.39 C148.81 24.38, 152.74 17.75, 169.43 0.2 M148.83 30 C159.6 18.28, 170.45 5.15, 175.07 -0.19 M148.83 30 C157.09 20.12, 165.18 10.28, 175.07 -0.19 M153.81 30.36 C158.1 24.06, 166.5 17.54, 180.06 0.17 M153.81 30.36 C160.74 22.61, 166.31 14.64, 180.06 0.17 M159.46 29.96 C166.59 22.2, 175.2 13.48, 185.7 -0.23 M159.46 29.96 C166 24.25, 169.44 18.15, 185.7 -0.23 M164.44 30.32 C170.78 25.66, 173.7 18.89, 190.69 0.13 M164.44 30.32 C172.86 21.8, 179.08 12.78, 190.69 0.13 M170.09 29.93 C180.69 17.97, 189.14 6.74, 196.33 -0.26 M170.09 29.93 C177.65 20.32, 185.93 11.97, 196.33 -0.26 M175.07 30.29 C180.5 22.19, 187.95 17.07, 201.32 0.1 M175.07 30.29 C182.3 22.68, 189.36 13.87, 201.32 0.1 M180.72 29.89 C190.23 18.64, 198.02 5.86, 206.96 -0.3 M180.72 29.89 C189.46 21.01, 195.74 11.71, 206.96 -0.3 M185.7 30.25 C190.17 23.58, 195.65 18.92, 211.95 0.06 M185.7 30.25 C194.24 19.82, 201.58 10.73, 211.95 0.06 M191.35 29.86 C198.08 21.26, 205.72 11.11, 217.59 -0.33 M191.35 29.86 C197.4 22.5, 204.48 13.57, 217.59 -0.33 M196.33 30.22 C202.26 21.12, 210.47 16.58, 222.58 0.03 M196.33 30.22 C204.75 19.15, 215.2 9.84, 222.58 0.03 M201.32 30.58 C208.89 23.03, 219.07 13.16, 228.22 -0.36 M201.32 30.58 C209.16 21.42, 217.8 13.76, 228.22 -0.36 M206.96 30.18 C217.29 19.66, 229.12 6.71, 233.21 0 M206.96 30.18 C215.93 20.47, 224.56 8.85, 233.21 0 M211.95 30.54 C222.33 20.4, 232.26 6.31, 238.19 0.36 M211.95 30.54 C220.45 20.01, 230.12 9.82, 238.19 0.36 M217.59 30.15 C223.88 24.37, 227.65 17.12, 240.56 3.73 M217.59 30.15 C225.75 21.06, 232.17 12.44, 240.56 3.73 M222.58 30.51 C225.73 24.9, 232.63 19.52, 240.95 9.38 M222.58 30.51 C227.46 24.14, 234.01 18.03, 240.95 9.38 M228.22 30.12 C230.8 25.3, 236.56 22.25, 240.69 15.78 M228.22 30.12 C232.43 25.01, 235.96 20.99, 240.69 15.78 M233.21 30.48 C236.95 26.91, 238.01 23.58, 240.43 22.17 M233.21 30.48 C235.14 28.36, 236.76 27.09, 240.43 22.17 M238.85 30.08 C239.33 29.5, 239.5 29.12, 240.82 27.82 M238.85 30.08 C239.55 29.49, 239.94 28.66, 240.82 27.82" stroke="#f3d9fa" stroke-width="0.5" fill="none"></path><path d="M0 0 C48.72 0.4, 95.74 0.56, 240 0 M0 0 C65.44 0.14, 130.37 1.15, 240 0 M240 0 C241.71 7.23, 240.57 12.95, 240 30 M240 0 C239.98 12.03, 238.88 23.07, 240 30 M240 30 C154.4 27.63, 65.95 28.88, 0 30 M240 30 C182.38 27.68, 123.75 28.42, 0 30 M0 30 C0.42 21.76, 0.95 9.35, 0 0 M0 30 C-0.34 20.37, -0.17 9.67, 0 0" stroke="#862e9c" stroke-width="1" fill="none"></path></g><g transform="translate(60 485) rotate(0 120 15)"><text x="120" y="0" font-family="Virgil, Segoe UI Emoji" font-size="11px" fill="#000000" text-anchor="middle" style="white-space: pre;" direction="ltr" dominant-baseline="text-before-edge">halo (read-only)</text></g><g stroke-linecap="round" transform="translate(60 515) rotate(0 15 50)"><path d="M0 0 C0 0, 0 0, 0 0 M0 0 C0 0, 0 0, 0 0 M-0.26 6.4 C1.76 4.45, 3.11 2.54, 4.99 0.36 M-0.26 6.4 C2.08 3.89, 3.31 1.91, 4.99 0.36 M0.13 12.04 C1 8.94, 5.32 8.32, 10.63 -0.03 M0.13 12.04 C4.13 7.61, 6.9 5.23, 10.63 -0.03 M-0.13 18.44 C4.2 12.83, 8.54 8.18, 15.62 0.33 M-0.13 18.44 C2.87 14.4, 7.71 9.29, 15.62 0.33 M0.27 24.08 C6.49 14.7, 11.85 8.98, 21.26 -0.07 M0.27 24.08 C7.67 14.69, 15.12 6.76, 21.26 -0.07 M0 30.48 C9.63 18.52, 18.62 5.54, 26.25 0.29 M0 30.48 C7.35 23.63, 13.24 16.76, 26.25 0.29 M-0.26 36.88 C10.48 23.95, 23.16 9.89, 30.58 1.41 M-0.26 36.88 C9.58 26.12, 18.29 15.45, 30.58 1.41 M0.14 42.52 C9.34 33.29, 15.01 25.18, 30.32 7.8 M0.14 42.52 C10.84 30.62, 21.28 18.46, 30.32 7.8 M-0.12 48.92 C8.99 39.58, 17.19 30.38, 30.06 14.2 M-0.12 48.92 C8.27 40.42, 16.5 30.3, 30.06 14.2 M0.27 54.56 C9.45 40.79, 20.23 28.89, 30.45 19.84 M0.27 54.56 C5.53 48.85, 13.05 40.09, 30.45 19.84 M0.01 60.96 C7.98 50.09, 16.14 41.35, 30.19 26.24 M0.01 60.96 C7.02 53.47, 15.11 44.42, 30.19 26.24 M-0.25 67.36 C9.62 54.66, 21.43 44.06, 30.58 31.89 M-0.25 67.36 C10.6 55.81, 19.83 44.5, 30.58 31.89 M0.14 73 C6.4 64.93, 12.39 59.85, 30.32 38.28 M0.14 73 C6.14 65.37, 12.99 59.37, 30.32 38.28 M-0.12 79.4 C7.83 70.09, 14.28 64.69, 30.06 44.68 M-0.12 79.4 C8.66 67.35, 19.51 55.92, 30.06 44.68 M0.28 85.04 C5.49 76.84, 14.95 70.47, 30.45 50.32 M0.28 85.04 C6.63 78.62, 13.61 70.82, 30.45 50.32 M0.01 91.44 C6.96 82.61, 16.26 70.37, 30.19 56.72 M0.01 91.44 C7.68 81.39, 16.92 73, 30.19 56.72 M-0.25 97.84 C6.78 89.39, 16.3 78.39, 30.59 62.36 M-0.25 97.84 C9.01 89.41, 16.85 79.36, 30.59 62.36 M2.77 100.46 C12.03 89.07, 21.63 78.16, 30.33 68.76 M2.77 100.46 C11.39 89.68, 20.17 80.33, 30.33 68.76 M8.41 100.07 C13.63 90.53, 23.29 84.57, 30.06 75.16 M8.41 100.07 C13.53 93.05, 20.9 85.15, 30.06 75.16 M13.4 100.43 C19.67 93.85, 25.37 86.9, 30.46 80.8 M13.4 100.43 C18.15 95.74, 22.33 89.69, 30.46 80.8 M19.05 100.03 C21.3 96.43, 24.38 92.56, 30.2 87.2 M19.05 100.03 C21.69 95.81, 26.39 92.36, 30.2 87.2 M24.03 100.39 C24.73 97.89, 26.19 96.71, 30.59 92.84 M24.03 100.39 C25.28 98.85, 26.43 97.54, 30.59 92.84 M29.68 100 C29.97 99.76, 30.02 99.51, 30.33 99.24 M29.68 100 C29.86 99.78, 30.12 99.5, 30.33 99.24" stroke="#f3d9fa" stroke-width="0.5" fill="none"></path><path d="M0 0 C6.86 0.9, 11.68 1.1, 30 0 M0 0 C8.36 -0.67, 16.09 0.55, 30 0 M30 0 C31.89 23.69, 30.75 45.87, 30 100 M30 0 C29.4 38.3, 28.3 75.61, 30 100 M30 100 C20.55 98.88, 7.68 100.38, 0 100 M30 100 C23.01 98.9, 14.81 99.79, 0 100 M0 100 C0.17 67.91, 0.7 31.65, 0 0 M0 100 C-0.27 65.77, -0.11 30.45, 0 0" stroke="#862e9c" stroke-width="1" fill="none"></path></g><g stroke-linecap="round" transform="translate(90 515) rotate(0 90 50)"><path d="M0 0 C0 0, 0 0, 0 0 M0 0 C0 0, 0 0, 0 0 M0.13 12.04 C4.18 8.16, 6.88 4.32, 10.63 -0.03 M0.13 12.04 C4.81 7.03, 7.28 3.07, 10.63 -0.03 M0.27 24.08 C2.97 18.23, 10.02 15.54, 21.26 -0.07 M0.27 24.08 C7.81 15.68, 13.73 9.87, 21.26 -0.07 M-0.26 36.88 C9.49 25.29, 19.18 14.5, 31.89 -0.1 M-0.26 36.88 C6.46 28.27, 15.19 18.68, 31.89 -0.1 M-0.12 48.92 C12.85 31.58, 25.01 18.04, 42.52 -0.14 M-0.12 48.92 C15.35 30.48, 30.73 13.43, 42.52 -0.14 M0.01 60.96 C19.91 37.01, 39.38 11.99, 53.15 -0.17 M0.01 60.96 C14.19 46.7, 26.71 32.2, 53.15 -0.17 M0.14 73 C22.34 46.73, 46.61 19.34, 63.78 -0.21 M0.14 73 C20.48 50.5, 39.31 28.18, 63.78 -0.21 M0.28 85.04 C21.58 61.66, 39.26 39.74, 74.41 -0.24 M0.28 85.04 C26.32 56.24, 51.81 26.76, 74.41 -0.24 M-0.25 97.84 C23.7 72.17, 46.23 46.48, 85.04 -0.28 M-0.25 97.84 C22.91 72.73, 45.85 45.7, 85.04 -0.28 M8.41 100.07 C37.31 63.06, 67.91 28.36, 95.67 -0.31 M8.41 100.07 C24.72 81.68, 43.76 59.68, 95.67 -0.31 M19.05 100.03 C42.05 71.12, 65.5 44.79, 106.3 -0.34 M19.05 100.03 C40.39 77, 62.24 52.13, 106.3 -0.34 M29.68 100 C58.47 66.2, 88.87 34.21, 116.27 0.38 M29.68 100 C58.55 67.31, 85.84 35.24, 116.27 0.38 M40.31 99.96 C58.74 78.17, 76.67 59.35, 126.91 0.34 M40.31 99.96 C58.06 78.44, 76.5 59.1, 126.91 0.34 M50.94 99.93 C70.9 76.9, 88.91 58.21, 137.54 0.31 M50.94 99.93 C77.86 66.74, 107.43 33.78, 137.54 0.31 M61.57 99.89 C79.67 76.67, 101.98 55.53, 148.17 0.27 M61.57 99.89 C79.71 80.17, 98.41 58.88, 148.17 0.27 M71.54 100.61 C94.95 73.35, 120.58 42.32, 158.8 0.24 M71.54 100.61 C94.62 72.14, 119.42 45.84, 158.8 0.24 M82.17 100.58 C103.19 75.18, 127.06 47.66, 169.43 0.2 M82.17 100.58 C106.8 74.94, 129.81 47.44, 169.43 0.2 M92.8 100.54 C123.85 64.74, 154.58 29.52, 180.06 0.17 M92.8 100.54 C120.62 68.42, 148.27 37.35, 180.06 0.17 M103.43 100.51 C126.91 69.8, 154.83 42.84, 180.19 12.21 M103.43 100.51 C124.02 75.55, 146.97 49.74, 180.19 12.21 M114.06 100.48 C137.03 74.4, 159.27 48.42, 180.32 24.25 M114.06 100.48 C131.52 81.73, 148.3 61.18, 180.32 24.25 M124.69 100.44 C139.48 81.85, 155.68 62.84, 179.8 37.05 M124.69 100.44 C140.88 79.94, 159.72 60.57, 179.8 37.05 M135.32 100.41 C143.28 87.84, 152.9 77.78, 179.93 49.09 M135.32 100.41 C144.2 89.61, 153.09 79.41, 179.93 49.09 M145.95 100.37 C158.43 88.23, 165.63 76.05, 180.07 61.13 M145.95 100.37 C156.1 88.52, 167.72 75.29, 180.07 61.13 M156.58 100.34 C164.71 90.72, 172.65 82.16, 180.2 73.17 M156.58 100.34 C163.66 90.86, 171.21 82.72, 180.2 73.17 M167.21 100.3 C171.69 97.95, 174.17 90.68, 180.33 85.21 M167.21 100.3 C172.16 94.36, 177.73 87.99, 180.33 85.21 M177.84 100.27 C178.02 99.69, 178.8 99.21, 179.81 98 M177.84 100.27 C178.3 99.71, 178.73 99.21, 179.81 98" stroke="#b2f2bb" stroke-width="1" fill="none"></path><path d="M0 0 C36.86 0.6, 71.68 0.8, 180 0 M0 0 C49.16 -0.07, 97.69 1.15, 180 0 M180 0 C181.89 23.69, 180.75 45.87, 180 100 M180 0 C179.4 38.3, 178.3 75.61, 180 100 M180 100 C116.32 97.65, 49.22 99.15, 0 100 M180 100 C136.88 97.7, 92.54 98.59, 0 100 M0 100 C0.17 67.91, 0.7 31.65, 0 0 M0 100 C-0.27 65.77, -0.11 30.45, 0 0" stroke="#2f9e44" stroke-width="2" fill="none"></path></g><g transform="translate(90 515) rotate(0 90 50)"><text x="90" y="0" font-family="Virgil, Segoe UI Emoji" font-size="12px" fill="#000000" text-anchor="middle" style="white-space: pre;" direction="ltr" dominant-baseline="text-before-edge">owned</text><text x="90" y="25" font-family="Virgil, Segoe UI Emoji" font-size="12px" fill="#000000" text-anchor="middle" style="white-space: pre;" direction="ltr" dominant-baseline="text-before-edge">cells</text><text x="90" y="50" font-family="Virgil, Segoe UI Emoji" font-size="12px" fill="#000000" text-anchor="middle" style="white-space: pre;" direction="ltr" dominant-baseline="text-before-edge">(updatable</text><text x="90" y="75" font-family="Virgil, Segoe UI Emoji" font-size="12px" fill="#000000" text-anchor="middle" style="white-space: pre;" direction="ltr" dominant-baseline="text-before-edge">this pass)</text></g><g stroke-linecap="round" transform="translate(270 515) rotate(0 15 50)"><path d="M0 0 C0 0, 0 0, 0 0 M0 0 C0 0, 0 0, 0 0 M-0.26 6.4 C1.76 4.45, 3.11 2.54, 4.99 0.36 M-0.26 6.4 C2.08 3.89, 3.31 1.91, 4.99 0.36 M0.13 12.04 C1 8.94, 5.32 8.32, 10.63 -0.03 M0.13 12.04 C4.13 7.61, 6.9 5.23, 10.63 -0.03 M-0.13 18.44 C4.2 12.83, 8.54 8.18, 15.62 0.33 M-0.13 18.44 C2.87 14.4, 7.71 9.29, 15.62 0.33 M0.27 24.08 C6.49 14.7, 11.85 8.98, 21.26 -0.07 M0.27 24.08 C7.67 14.69, 15.12 6.76, 21.26 -0.07 M0 30.48 C9.63 18.52, 18.62 5.54, 26.25 0.29 M0 30.48 C7.35 23.63, 13.24 16.76, 26.25 0.29 M-0.26 36.88 C10.48 23.95, 23.16 9.89, 30.58 1.41 M-0.26 36.88 C9.58 26.12, 18.29 15.45, 30.58 1.41 M0.14 42.52 C9.34 33.29, 15.01 25.18, 30.32 7.8 M0.14 42.52 C10.84 30.62, 21.28 18.46, 30.32 7.8 M-0.12 48.92 C8.99 39.58, 17.19 30.38, 30.06 14.2 M-0.12 48.92 C8.27 40.42, 16.5 30.3, 30.06 14.2 M0.27 54.56 C9.45 40.79, 20.23 28.89, 30.45 19.84 M0.27 54.56 C5.53 48.85, 13.05 40.09, 30.45 19.84 M0.01 60.96 C7.98 50.09, 16.14 41.35, 30.19 26.24 M0.01 60.96 C7.02 53.47, 15.11 44.42, 30.19 26.24 M-0.25 67.36 C9.62 54.66, 21.43 44.06, 30.58 31.89 M-0.25 67.36 C10.6 55.81, 19.83 44.5, 30.58 31.89 M0.14 73 C6.4 64.93, 12.39 59.85, 30.32 38.28 M0.14 73 C6.14 65.37, 12.99 59.37, 30.32 38.28 M-0.12 79.4 C7.83 70.09, 14.28 64.69, 30.06 44.68 M-0.12 79.4 C8.66 67.35, 19.51 55.92, 30.06 44.68 M0.28 85.04 C5.49 76.84, 14.95 70.47, 30.45 50.32 M0.28 85.04 C6.63 78.62, 13.61 70.82, 30.45 50.32 M0.01 91.44 C6.96 82.61, 16.26 70.37, 30.19 56.72 M0.01 91.44 C7.68 81.39, 16.92 73, 30.19 56.72 M-0.25 97.84 C6.78 89.39, 16.3 78.39, 30.59 62.36 M-0.25 97.84 C9.01 89.41, 16.85 79.36, 30.59 62.36 M2.77 100.46 C12.03 89.07, 21.63 78.16, 30.33 68.76 M2.77 100.46 C11.39 89.68, 20.17 80.33, 30.33 68.76 M8.41 100.07 C13.63 90.53, 23.29 84.57, 30.06 75.16 M8.41 100.07 C13.53 93.05, 20.9 85.15, 30.06 75.16 M13.4 100.43 C19.67 93.85, 25.37 86.9, 30.46 80.8 M13.4 100.43 C18.15 95.74, 22.33 89.69, 30.46 80.8 M19.05 100.03 C21.3 96.43, 24.38 92.56, 30.2 87.2 M19.05 100.03 C21.69 95.81, 26.39 92.36, 30.2 87.2 M24.03 100.39 C24.73 97.89, 26.19 96.71, 30.59 92.84 M24.03 100.39 C25.28 98.85, 26.43 97.54, 30.59 92.84 M29.68 100 C29.97 99.76, 30.02 99.51, 30.33 99.24 M29.68 100 C29.86 99.78, 30.12 99.5, 30.33 99.24" stroke="#f3d9fa" stroke-width="0.5" fill="none"></path><path d="M0 0 C6.86 0.9, 11.68 1.1, 30 0 M0 0 C8.36 -0.67, 16.09 0.55, 30 0 M30 0 C31.89 23.69, 30.75 45.87, 30 100 M30 0 C29.4 38.3, 28.3 75.61, 30 100 M30 100 C20.55 98.88, 7.68 100.38, 0 100 M30 100 C23.01 98.9, 14.81 99.79, 0 100 M0 100 C0.17 67.91, 0.7 31.65, 0 0 M0 100 C-0.27 65.77, -0.11 30.45, 0 0" stroke="#862e9c" stroke-width="1" fill="none"></path></g><g stroke-linecap="round" transform="translate(60 615) rotate(0 120 15)"><path d="M0 0 C0 0, 0 0, 0 0 M0 0 C0 0, 0 0, 0 0 M-0.26 6.4 C1.76 4.45, 3.11 2.54, 4.99 0.36 M-0.26 6.4 C2.08 3.89, 3.31 1.91, 4.99 0.36 M0.13 12.04 C1 8.94, 5.32 8.32, 10.63 -0.03 M0.13 12.04 C4.13 7.61, 6.9 5.23, 10.63 -0.03 M-0.13 18.44 C4.2 12.83, 8.54 8.18, 15.62 0.33 M-0.13 18.44 C2.87 14.4, 7.71 9.29, 15.62 0.33 M0.27 24.08 C6.49 14.7, 11.85 8.98, 21.26 -0.07 M0.27 24.08 C7.67 14.69, 15.12 6.76, 21.26 -0.07 M0 30.48 C9.63 18.52, 18.62 5.54, 26.25 0.29 M0 30.48 C7.35 23.63, 13.24 16.76, 26.25 0.29 M5.65 30.08 C14.78 19.03, 25.84 6.83, 31.89 -0.1 M5.65 30.08 C14.02 20.97, 21.3 11.93, 31.89 -0.1 M10.63 30.45 C18.76 22.48, 23.35 15.61, 36.88 0.26 M10.63 30.45 C19.97 20.06, 29.05 9.45, 36.88 0.26 M16.28 30.05 C24.34 21.87, 31.51 13.86, 42.52 -0.14 M16.28 30.05 C23.61 22.74, 30.8 13.82, 42.52 -0.14 M21.27 30.41 C29.09 18.24, 38.5 7.91, 47.51 0.22 M21.27 30.41 C25.76 25.57, 32.49 17.73, 47.51 0.22 M26.91 30.02 C33.85 20.4, 40.94 12.87, 53.15 -0.17 M26.91 30.02 C32.93 23.6, 40.07 15.64, 53.15 -0.17 M31.9 30.38 C40.21 19.41, 50.49 10.58, 58.14 0.19 M31.9 30.38 C41.26 20.57, 49 10.97, 58.14 0.19 M37.54 29.98 C42.95 22.87, 48.1 18.74, 63.78 -0.21 M37.54 29.98 C42.72 23.32, 48.75 18.25, 63.78 -0.21 M42.53 30.34 C49.63 21.99, 55.28 17.52, 68.77 0.15 M42.53 30.34 C50.04 19.76, 59.59 9.84, 68.77 0.15 M48.17 29.95 C52.48 22.79, 61.05 17.46, 74.41 -0.24 M48.17 29.95 C53.7 24.45, 59.86 17.59, 74.41 -0.24 M53.16 30.31 C58.96 22.75, 67.14 11.81, 79.4 0.12 M53.16 30.31 C59.76 21.53, 67.93 14.37, 79.4 0.12 M58.8 29.91 C64.68 22.85, 73.03 13.19, 85.04 -0.28 M58.8 29.91 C66.8 22.89, 73.41 14.26, 85.04 -0.28 M63.79 30.27 C72.56 19.42, 81.7 9.04, 90.03 0.08 M63.79 30.27 C71.98 19.96, 80.35 11.09, 90.03 0.08 M69.43 29.88 C76.16 18.58, 87.35 10.87, 95.67 -0.31 M69.43 29.88 C75.83 21.36, 84.5 11.98, 95.67 -0.31 M74.42 30.24 C83.8 20.02, 92.59 9.52, 100.66 0.05 M74.42 30.24 C81.54 22.93, 88.07 14.17, 100.66 0.05 M80.06 29.84 C86.51 21.12, 94.06 12.05, 106.3 -0.34 M80.06 29.84 C87.26 20.02, 96.94 11.18, 106.3 -0.34 M85.05 30.2 C89.17 22.05, 94.89 16.47, 111.29 0.02 M85.05 30.2 C90.21 23.9, 95.25 18.13, 111.29 0.02 M90.03 30.56 C100.07 21.17, 104.89 11.73, 116.27 0.38 M90.03 30.56 C97.79 21.53, 106.95 11.13, 116.27 0.38 M95.68 30.17 C104.63 19.58, 113.39 10.08, 121.92 -0.02 M95.68 30.17 C103.55 19.73, 111.94 10.64, 121.92 -0.02 M100.66 30.53 C108.95 23.83, 115.15 12.29, 126.91 0.34 M100.66 30.53 C110.78 18.68, 121.42 6.48, 126.91 0.34 M106.31 30.13 C110.44 22.91, 118.55 16.35, 132.55 -0.05 M106.31 30.13 C112.5 22.9, 118.54 15.91, 132.55 -0.05 M111.29 30.49 C118.86 21.31, 125.37 11.16, 137.54 0.31 M111.29 30.49 C120.02 19.89, 128.67 11.85, 137.54 0.31 M116.94 30.1 C125.43 22.35, 132.11 13.62, 143.18 -0.09 M116.94 30.1 C124.86 21.6, 132.22 13.53, 143.18 -0.09 M121.92 30.46 C130.19 18.62, 139.84 9.55, 148.17 0.27 M121.92 30.46 C130.5 22.12, 137.46 13.67, 148.17 0.27 M127.57 30.07 C134 21.33, 139.98 12.89, 153.81 -0.12 M127.57 30.07 C133.85 22.82, 138.52 16.76, 153.81 -0.12 M132.55 30.43 C138.01 21.72, 146.68 13.58, 158.8 0.24 M132.55 30.43 C140.09 20.21, 149.62 12.53, 158.8 0.24 M138.2 30.03 C145.22 20.93, 154.97 11.22, 164.44 -0.16 M138.2 30.03 C146.12 20.21, 155.05 11.26, 164.44 -0.16 M143.18 30.39 C150.57 21.05, 159.99 10.72, 169.43 0.2 M143.18 30.39 C148.81 24.38, 152.74 17.75, 169.43 0.2 M148.83 30 C159.6 18.28, 170.45 5.15, 175.07 -0.19 M148.83 30 C157.09 20.12, 165.18 10.28, 175.07 -0.19 M153.81 30.36 C158.1 24.06, 166.5 17.54, 180.06 0.17 M153.81 30.36 C160.74 22.61, 166.31 14.64, 180.06 0.17 M159.46 29.96 C166.59 22.2, 175.2 13.48, 185.7 -0.23 M159.46 29.96 C166 24.25, 169.44 18.15, 185.7 -0.23 M164.44 30.32 C170.78 25.66, 173.7 18.89, 190.69 0.13 M164.44 30.32 C172.86 21.8, 179.08 12.78, 190.69 0.13 M170.09 29.93 C180.69 17.97, 189.14 6.74, 196.33 -0.26 M170.09 29.93 C177.65 20.32, 185.93 11.97, 196.33 -0.26 M175.07 30.29 C180.5 22.19, 187.95 17.07, 201.32 0.1 M175.07 30.29 C182.3 22.68, 189.36 13.87, 201.32 0.1 M180.72 29.89 C190.23 18.64, 198.02 5.86, 206.96 -0.3 M180.72 29.89 C189.46 21.01, 195.74 11.71, 206.96 -0.3 M185.7 30.25 C190.17 23.58, 195.65 18.92, 211.95 0.06 M185.7 30.25 C194.24 19.82, 201.58 10.73, 211.95 0.06 M191.35 29.86 C198.08 21.26, 205.72 11.11, 217.59 -0.33 M191.35 29.86 C197.4 22.5, 204.48 13.57, 217.59 -0.33 M196.33 30.22 C202.26 21.12, 210.47 16.58, 222.58 0.03 M196.33 30.22 C204.75 19.15, 215.2 9.84, 222.58 0.03 M201.32 30.58 C208.89 23.03, 219.07 13.16, 228.22 -0.36 M201.32 30.58 C209.16 21.42, 217.8 13.76, 228.22 -0.36 M206.96 30.18 C217.29 19.66, 229.12 6.71, 233.21 0 M206.96 30.18 C215.93 20.47, 224.56 8.85, 233.21 0 M211.95 30.54 C222.33 20.4, 232.26 6.31, 238.19 0.36 M211.95 30.54 C220.45 20.01, 230.12 9.82, 238.19 0.36 M217.59 30.15 C223.88 24.37, 227.65 17.12, 240.56 3.73 M217.59 30.15 C225.75 21.06, 232.17 12.44, 240.56 3.73 M222.58 30.51 C225.73 24.9, 232.63 19.52, 240.95 9.38 M222.58 30.51 C227.46 24.14, 234.01 18.03, 240.95 9.38 M228.22 30.12 C230.8 25.3, 236.56 22.25, 240.69 15.78 M228.22 30.12 C232.43 25.01, 235.96 20.99, 240.69 15.78 M233.21 30.48 C236.95 26.91, 238.01 23.58, 240.43 22.17 M233.21 30.48 C235.14 28.36, 236.76 27.09, 240.43 22.17 M238.85 30.08 C239.33 29.5, 239.5 29.12, 240.82 27.82 M238.85 30.08 C239.55 29.49, 239.94 28.66, 240.82 27.82" stroke="#f3d9fa" stroke-width="0.5" fill="none"></path><path d="M0 0 C48.72 0.4, 95.74 0.56, 240 0 M0 0 C65.44 0.14, 130.37 1.15, 240 0 M240 0 C241.71 7.23, 240.57 12.95, 240 30 M240 0 C239.98 12.03, 238.88 23.07, 240 30 M240 30 C154.4 27.63, 65.95 28.88, 0 30 M240 30 C182.38 27.68, 123.75 28.42, 0 30 M0 30 C0.42 21.76, 0.95 9.35, 0 0 M0 30 C-0.34 20.37, -0.17 9.67, 0 0" stroke="#862e9c" stroke-width="1" fill="none"></path></g><g transform="translate(40 670) rotate(0 140 30)"><text x="0" y="0" font-family="Virgil, Segoe UI Emoji" font-size="11px" fill="#000000" text-anchor="start" style="white-space: pre;" direction="ltr" dominant-baseline="text-before-edge">Halo = real in-board neighbors</text><text x="0" y="12" font-family="Virgil, Segoe UI Emoji" font-size="11px" fill="#000000" text-anchor="start" style="white-space: pre;" direction="ltr" dominant-baseline="text-before-edge">for the 3x3 Conway stencil.</text><text x="0" y="24" font-family="Virgil, Segoe UI Emoji" font-size="11px" fill="#000000" text-anchor="start" style="white-space: pre;" direction="ltr" dominant-baseline="text-before-edge">Out-of-board halo is NEVER stored;</text><text x="0" y="36" font-family="Virgil, Segoe UI Emoji" font-size="11px" fill="#000000" text-anchor="start" style="white-space: pre;" direction="ltr" dominant-baseline="text-before-edge">the streaming board's bounds</text><text x="0" y="48" font-family="Virgil, Segoe UI Emoji" font-size="11px" fill="#000000" text-anchor="start" style="white-space: pre;" direction="ltr" dominant-baseline="text-before-edge">check returns Dead directly.</text></g><g stroke-linecap="round" transform="translate(340 435) rotate(0 125 115)"><path d="M32 0 C70.06 0.59, 106.08 0.79, 218 0 M32 0 C82.79 -0.05, 132.95 1.17, 218 0 M218 0 C238.04 0.53, 250.88 12.29, 250 32 M218 0 C239.53 0.56, 248.67 12.4, 250 32 M250 32 C250.77 66.36, 250.33 105.44, 250 198 M250 32 C248.2 96.34, 248.95 160.73, 250 198 M250 198 C250.6 217.73, 239.82 228.28, 218 230 M250 198 C248.31 219.4, 240.27 230.81, 218 230 M218 230 C178.94 231.63, 138.8 231.65, 32 230 M218 230 C177.66 232.47, 137.48 231.82, 32 230 M32 230 C8.78 229.71, -0.18 219.86, 0 198 M32 230 C12.5 229.98, 2.16 219.43, 0 198 M0 198 C-1.93 150.11, 0.06 101.25, 0 32 M0 198 C-0.75 152.75, 0.47 105.56, 0 32 M0 32 C0.44 12.66, 9.12 -1.31, 32 0 M0 32 C-0.62 8.6, 11.68 2.27, 32 0" stroke="#0c8599" stroke-width="2" fill="none"></path></g><g transform="translate(350 445) rotate(0 115 15)"><text x="0" y="0" font-family="Virgil, Segoe UI Emoji" font-size="13px" fill="#000000" text-anchor="start" style="white-space: pre;" direction="ltr" dominant-baseline="text-before-edge">Chunk position metadata</text></g><g transform="translate(350 485) rotate(0 115 85)"><text x="0" y="0" font-family="Virgil, Segoe UI Emoji" font-size="11px" fill="#000000" text-anchor="start" style="white-space: pre;" direction="ltr" dominant-baseline="text-before-edge">owned_origin (y, x)</text><text x="0" y="15.454545454545455" font-family="Virgil, Segoe UI Emoji" font-size="11px" fill="#000000" text-anchor="start" style="white-space: pre;" direction="ltr" dominant-baseline="text-before-edge">owned_size (rows, cols)</text><text x="0" y="30.90909090909091" font-family="Virgil, Segoe UI Emoji" font-size="11px" fill="#000000" text-anchor="start" style="white-space: pre;" direction="ltr" dominant-baseline="text-before-edge">loaded_origin (y, x)</text><text x="0" y="46.36363636363637" font-family="Virgil, Segoe UI Emoji" font-size="11px" fill="#000000" text-anchor="start" style="white-space: pre;" direction="ltr" dominant-baseline="text-before-edge">loaded_size (rows, cols)</text><text x="0" y="61.81818181818182" font-family="Virgil, Segoe UI Emoji" font-size="11px" fill="#000000" text-anchor="start" style="white-space: pre;" direction="ltr" dominant-baseline="text-before-edge"></text><text x="0" y="77.27272727272728" font-family="Virgil, Segoe UI Emoji" font-size="11px" fill="#000000" text-anchor="start" style="white-space: pre;" direction="ltr" dominant-baseline="text-before-edge">All usize (no negative coords).</text><text x="0" y="92.72727272727273" font-family="Virgil, Segoe UI Emoji" font-size="11px" fill="#000000" text-anchor="start" style="white-space: pre;" direction="ltr" dominant-baseline="text-before-edge">Dirty bits per owned row.</text><text x="0" y="108.18181818181819" font-family="Virgil, Segoe UI Emoji" font-size="11px" fill="#000000" text-anchor="start" style="white-space: pre;" direction="ltr" dominant-baseline="text-before-edge"></text><text x="0" y="123.63636363636364" font-family="Virgil, Segoe UI Emoji" font-size="11px" fill="#000000" text-anchor="start" style="white-space: pre;" direction="ltr" dominant-baseline="text-before-edge">Global -&gt; local:</text><text x="0" y="139.0909090909091" font-family="Virgil, Segoe UI Emoji" font-size="11px" fill="#000000" text-anchor="start" style="white-space: pre;" direction="ltr" dominant-baseline="text-before-edge">  (x - loaded_origin.1,</text><text x="0" y="154.54545454545456" font-family="Virgil, Segoe UI Emoji" font-size="11px" fill="#000000" text-anchor="start" style="white-space: pre;" direction="ltr" dominant-baseline="text-before-edge">   y - loaded_origin.0)</text></g><g transform="translate(340 680) rotate(0 125 65)"><text x="0" y="0" font-family="Virgil, Segoe UI Emoji" font-size="11px" fill="#000000" text-anchor="start" style="white-space: pre;" direction="ltr" dominant-baseline="text-before-edge">Slide pattern (mark pass):</text><text x="0" y="13" font-family="Virgil, Segoe UI Emoji" font-size="11px" fill="#000000" text-anchor="start" style="white-space: pre;" direction="ltr" dominant-baseline="text-before-edge">for y in chunk row-bands:</text><text x="0" y="26" font-family="Virgil, Segoe UI Emoji" font-size="11px" fill="#000000" text-anchor="start" style="white-space: pre;" direction="ltr" dominant-baseline="text-before-edge">  for x in chunk cols (if 2D):</text><text x="0" y="39" font-family="Virgil, Segoe UI Emoji" font-size="11px" fill="#000000" text-anchor="start" style="white-space: pre;" direction="ltr" dominant-baseline="text-before-edge">    flush dirty rows</text><text x="0" y="52" font-family="Virgil, Segoe UI Emoji" font-size="11px" fill="#000000" text-anchor="start" style="white-space: pre;" direction="ltr" dominant-baseline="text-before-edge">    load new chunk</text><text x="0" y="65" font-family="Virgil, Segoe UI Emoji" font-size="11px" fill="#000000" text-anchor="start" style="white-space: pre;" direction="ltr" dominant-baseline="text-before-edge">    mark owned cells</text><text x="0" y="78" font-family="Virgil, Segoe UI Emoji" font-size="11px" fill="#000000" text-anchor="start" style="white-space: pre;" direction="ltr" dominant-baseline="text-before-edge"></text><text x="0" y="91" font-family="Virgil, Segoe UI Emoji" font-size="11px" fill="#000000" text-anchor="start" style="white-space: pre;" direction="ltr" dominant-baseline="text-before-edge">Row-band fast path:</text><text x="0" y="104" font-family="Virgil, Segoe UI Emoji" font-size="11px" fill="#000000" text-anchor="start" style="white-space: pre;" direction="ltr" dominant-baseline="text-before-edge">chunk_cols == width =&gt; no</text><text x="0" y="117" font-family="Virgil, Segoe UI Emoji" font-size="11px" fill="#000000" text-anchor="start" style="white-space: pre;" direction="ltr" dominant-baseline="text-before-edge">horizontal sliding.</text></g><g stroke-linecap="round" transform="translate(670 370) rotate(0 240 230)"><path d="M32 0 C115.66 0.07, 198.23 0.17, 448 0 M32 0 C145.26 0.47, 258.18 1.12, 448 0 M448 0 C468.04 0.53, 480.88 12.29, 480 32 M448 0 C469.53 0.56, 478.67 12.4, 480 32 M480 32 C479.83 117.13, 479.58 204.97, 480 428 M480 32 C477.89 186.07, 478.32 340.16, 480 428 M480 428 C480.6 447.73, 469.82 458.28, 448 460 M480 428 C478.31 449.4, 470.27 460.81, 448 460 M448 460 C358.85 462.11, 269.12 462.12, 32 460 M448 460 C358.11 462.47, 268.31 462.12, 32 460 M32 460 C8.78 459.71, -0.18 449.86, 0 428 M32 460 C12.5 459.98, 2.16 449.43, 0 428 M0 428 C-2.06 314.26, -0.92 199.97, 0 32 M0 428 C-0.55 318.9, 0.15 208.69, 0 32 M0 32 C0.44 12.66, 9.12 -1.31, 32 0 M0 32 C-0.62 8.6, 11.68 2.27, 32 0" stroke="#e67700" stroke-width="2" fill="none"></path></g><g transform="translate(690 385) rotate(0 220 15)"><text x="0" y="0" font-family="Virgil, Segoe UI Emoji" font-size="18px" fill="#000000" text-anchor="start" style="white-space: pre;" direction="ltr" dominant-baseline="text-before-edge">Scratch file (GOL-SCRATCH v1, binary)</text></g><g stroke-linecap="round" transform="translate(690 435) rotate(0 220 70)"><path d="M0 0 C0 0, 0 0, 0 0 M0 0 C0 0, 0 0, 0 0 M-0.26 6.4 C1.76 4.45, 3.11 2.54, 4.99 0.36 M-0.26 6.4 C2.08 3.89, 3.31 1.91, 4.99 0.36 M0.13 12.04 C1 8.94, 5.32 8.32, 10.63 -0.03 M0.13 12.04 C4.13 7.61, 6.9 5.23, 10.63 -0.03 M-0.13 18.44 C4.2 12.83, 8.54 8.18, 15.62 0.33 M-0.13 18.44 C2.87 14.4, 7.71 9.29, 15.62 0.33 M0.27 24.08 C6.49 14.7, 11.85 8.98, 21.26 -0.07 M0.27 24.08 C7.67 14.69, 15.12 6.76, 21.26 -0.07 M0 30.48 C9.63 18.52, 18.62 5.54, 26.25 0.29 M0 30.48 C7.35 23.63, 13.24 16.76, 26.25 0.29 M-0.26 36.88 C10.94 23.42, 24.08 8.82, 31.89 -0.1 M-0.26 36.88 C10 25.65, 19.11 14.52, 31.89 -0.1 M0.14 42.52 C11.15 31.18, 18.61 21.01, 36.88 0.26 M0.14 42.52 C13.13 28.1, 25.81 13.35, 36.88 0.26 M-0.12 48.92 C12.35 35.88, 23.78 22.96, 42.52 -0.14 M-0.12 48.92 C11.61 36.66, 23.17 22.72, 42.52 -0.14 M0.27 54.56 C15.34 33.85, 32.04 15.13, 47.51 0.22 M0.27 54.56 C8.83 45.06, 19.8 32.35, 47.51 0.22 M0.01 60.96 C14.03 42.83, 28.34 27.02, 53.15 -0.17 M0.01 60.96 C12.78 47.22, 26.41 31.8, 53.15 -0.17 M-0.25 67.36 C18.97 44.23, 39.97 23.06, 58.14 0.19 M-0.25 67.36 C19.51 45.36, 37.66 23.8, 58.14 0.19 M0.14 73 C13.62 56.79, 26.69 43.56, 63.78 -0.21 M0.14 73 C13.11 57.13, 26.84 43.22, 63.78 -0.21 M-0.12 79.4 C16.07 60.68, 30.45 46.16, 68.77 0.15 M-0.12 79.4 C21.11 52.85, 44.81 26.65, 68.77 0.15 M0.28 85.04 C15.53 65.14, 35.01 47.26, 74.41 -0.24 M0.28 85.04 C15.81 68.25, 31.92 49.94, 74.41 -0.24 M0.01 91.44 C21.15 66.71, 44.54 38.28, 79.4 0.12 M0.01 91.44 C20.97 65.5, 43.62 41.68, 79.4 0.12 M-0.25 97.84 C20.28 73.03, 43.66 46.09, 85.04 -0.28 M-0.25 97.84 C23.85 72.8, 46.33 45.91, 85.04 -0.28 M0.15 103.48 C32.16 66.6, 63.82 30.31, 90.03 0.08 M0.15 103.48 C28.81 70.42, 57.29 38.4, 90.03 0.08 M-0.11 109.88 C29.68 71.86, 63.9 37.64, 95.67 -0.31 M-0.11 109.88 C25.82 78.72, 54.14 46.73, 95.67 -0.31 M0.28 115.52 C34.83 75.92, 68.53 36.75, 100.66 0.05 M0.28 115.52 C26.55 87.03, 52.07 56.42, 100.66 0.05 M0.02 121.92 C29.6 85.85, 61.13 49.19, 106.3 -0.34 M0.02 121.92 C32.15 82.49, 67.21 44.46, 106.3 -0.34 M-0.24 128.32 C21.69 99.67, 45.51 73.27, 111.29 0.02 M-0.24 128.32 C22.2 101.14, 45.11 74.81, 111.29 0.02 M0.15 133.96 C38.04 93.16, 70.02 52.47, 116.27 0.38 M0.15 133.96 C35.23 92.78, 72.55 49.98, 116.27 0.38 M-0.11 140.36 C38.88 94.31, 77.65 50.28, 121.92 -0.02 M-0.11 140.36 C37.11 94.9, 75.81 50.93, 121.92 -0.02 M5.53 139.96 C41.43 101.78, 74.58 59.22, 126.91 0.34 M5.53 139.96 C53.14 85.25, 100.52 30.79, 126.91 0.34 M10.52 140.32 C36.27 108.7, 65.65 77.67, 132.55 -0.05 M10.52 140.32 C39.55 107.34, 68.68 73.78, 132.55 -0.05 M16.16 139.93 C50.63 99.17, 84.64 57.39, 137.54 0.31 M16.16 139.93 C56.61 94.44, 96.02 51.01, 137.54 0.31 M21.15 140.29 C56.77 102.13, 89.56 63.37, 143.18 -0.09 M21.15 140.29 C55.32 101.21, 88.6 63.33, 143.18 -0.09 M26.79 139.89 C69.5 88.63, 114.04 39.42, 148.17 0.27 M26.79 139.89 C63.2 99.57, 97.43 59.74, 148.17 0.27 M31.78 140.25 C62.73 103.65, 92.72 67.6, 153.81 -0.12 M31.78 140.25 C57.75 108.97, 83.07 79.16, 153.81 -0.12 M37.42 139.86 C68.25 102.33, 102.19 65.12, 158.8 0.24 M37.42 139.86 C73.89 95.77, 113.01 54.05, 158.8 0.24 M42.41 140.22 C78.43 98.33, 116.31 56.25, 164.44 -0.16 M42.41 140.22 C79.14 96.63, 117.8 53.51, 164.44 -0.16 M48.05 139.82 C87.27 93.49, 128.65 46.38, 169.43 0.2 M48.05 139.82 C72.41 110.53, 95.81 81.51, 169.43 0.2 M53.04 140.18 C101.25 85.51, 149.51 29.34, 175.07 -0.19 M53.04 140.18 C92.13 95.7, 130.13 51.46, 175.07 -0.19 M58.68 139.79 C85.47 108.25, 115.79 76.51, 180.06 0.17 M58.68 139.79 C88.3 105.6, 117.59 70.34, 180.06 0.17 M63.67 140.15 C97.34 100.75, 132.93 60.98, 185.7 -0.23 M63.67 140.15 C90.68 111.51, 113.53 83.09, 185.7 -0.23 M69.31 139.76 C94.37 112.95, 116.54 84.04, 190.69 0.13 M69.31 139.76 C105.57 98.62, 140.39 56.71, 190.69 0.13 M74.3 140.12 C118.37 88.05, 161.22 37.26, 196.33 -0.26 M74.3 140.12 C109.16 98.11, 144.81 58.27, 196.33 -0.26 M79.29 140.48 C105.65 110.05, 132.92 82.11, 201.32 0.1 M79.29 140.48 C113.81 101.89, 148.35 61.49, 201.32 0.1 M84.93 140.08 C129.13 87.81, 172.02 34.65, 206.96 -0.3 M84.93 140.08 C122.07 99.27, 156.09 58.05, 206.96 -0.3 M89.92 140.44 C114.68 112.17, 139.46 85.3, 211.95 0.06 M89.92 140.44 C128.55 95, 165.61 51.73, 211.95 0.06 M95.56 140.05 C131.16 98.52, 167.41 55.46, 217.59 -0.33 M95.56 140.05 C126.23 103.04, 158.76 64.84, 217.59 -0.33 M100.55 140.41 C129.78 105.33, 161.38 73.88, 222.58 0.03 M100.55 140.41 C141.63 90.84, 185.27 43.35, 222.58 0.03 M106.19 140.01 C141.91 98.79, 180.88 55.8, 228.22 -0.36 M106.19 140.01 C142.29 99.83, 178.37 60.61, 228.22 -0.36 M111.18 140.37 C159.95 86.93, 209.62 30.44, 233.21 0 M111.18 140.37 C153.21 92.63, 194.83 43.06, 233.21 0 M116.82 139.98 C162.93 88.22, 208.69 32.91, 238.19 0.36 M116.82 139.98 C158.54 90.31, 202.1 41.13, 238.19 0.36 M121.81 140.34 C149.47 110.18, 174.6 78.35, 243.84 -0.04 M121.81 140.34 C161.89 94.4, 200.67 48.55, 243.84 -0.04 M127.45 139.94 C158.11 101.7, 192.87 64.28, 248.82 0.32 M127.45 139.94 C162.2 98.74, 198.7 58.17, 248.82 0.32 M132.44 140.3 C163.59 102.31, 198.94 65.41, 254.47 -0.07 M132.44 140.3 C168.15 97.89, 203.33 57.47, 254.47 -0.07 M138.08 139.91 C185.44 85.32, 229.09 31.25, 259.45 0.29 M138.08 139.91 C168.06 106.98, 196.7 75.14, 259.45 0.29 M143.07 140.27 C170.48 109.63, 195.53 79.59, 265.1 -0.11 M143.07 140.27 C179.68 98.12, 215.01 54.92, 265.1 -0.11 M148.71 139.87 C180.38 103.14, 216.7 62.46, 270.08 0.25 M148.71 139.87 C193.63 89.36, 237.85 38.88, 270.08 0.25 M153.7 140.23 C195.25 92.64, 236.59 45.64, 275.73 -0.14 M153.7 140.23 C179.66 111.45, 205.27 83.65, 275.73 -0.14 M159.34 139.84 C203.81 92.97, 244.79 44.31, 280.71 0.22 M159.34 139.84 C202.68 90.13, 245.86 39.24, 280.71 0.22 M164.33 140.2 C209.52 88.51, 257.07 33.94, 286.36 -0.18 M164.33 140.2 C203.71 96.46, 241.34 50.69, 286.36 -0.18 M169.97 139.8 C212.53 91.76, 252.72 43.93, 291.34 0.18 M169.97 139.8 C212.84 92.33, 255.15 42.21, 291.34 0.18 M174.96 140.16 C217.46 96.56, 254.02 47.7, 296.99 -0.21 M174.96 140.16 C215.71 94.56, 253.8 50.34, 296.99 -0.21 M180.6 139.77 C215.11 98.81, 251.12 58.67, 301.97 0.15 M180.6 139.77 C226.17 90.28, 268.82 38.26, 301.97 0.15 M185.59 140.13 C215.75 106.99, 246.44 73.8, 307.62 -0.25 M185.59 140.13 C232.77 86.52, 281.72 30.29, 307.62 -0.25 M191.23 139.74 C231.57 95.19, 273.46 45.46, 312.6 0.11 M191.23 139.74 C222.99 103.68, 256.27 66.39, 312.6 0.11 M196.22 140.1 C222.84 111.56, 248.24 83.41, 318.25 -0.28 M196.22 140.1 C228.29 101.85, 261.87 65.36, 318.25 -0.28 M201.21 140.46 C239.18 98.15, 273.41 56.88, 323.23 0.08 M201.21 140.46 C231.26 107.82, 261.47 72.34, 323.23 0.08 M206.85 140.06 C256.48 85.57, 302.06 32.02, 328.88 -0.31 M206.85 140.06 C248.89 92.65, 289.98 44.92, 328.88 -0.31 M211.84 140.42 C253.59 93.33, 294.06 48.42, 333.86 0.05 M211.84 140.42 C249.15 97.59, 286.21 55.13, 333.86 0.05 M217.48 140.03 C262.55 90.97, 306.64 36.78, 339.51 -0.35 M217.48 140.03 C244.66 110.6, 269.84 80.47, 339.51 -0.35 M222.47 140.39 C253.04 105.35, 284.33 69.69, 344.49 0.01 M222.47 140.39 C270.06 86.99, 316.17 33.56, 344.49 0.01 M228.11 139.99 C252.52 112.44, 280.36 82.27, 349.48 0.37 M228.11 139.99 C267.53 96.13, 306.96 50.37, 349.48 0.37 M233.1 140.35 C259.39 110.3, 288.39 75.66, 355.12 -0.02 M233.1 140.35 C259.23 108.54, 286.59 76.5, 355.12 -0.02 M238.74 139.96 C262.86 108.5, 288.62 81.2, 360.11 0.34 M238.74 139.96 C275.12 94.56, 313.84 51.68, 360.11 0.34 M243.73 140.32 C278.39 102.6, 309.23 63.47, 365.75 -0.06 M243.73 140.32 C283.86 93.79, 324.51 48.75, 365.75 -0.06 M249.37 139.92 C292 94.83, 330.88 44.86, 370.74 0.3 M249.37 139.92 C285.26 99.41, 319.8 58.41, 370.74 0.3 M254.36 140.28 C299.36 92.1, 344.44 39.49, 376.38 -0.09 M254.36 140.28 C300.89 87.64, 347.42 33.98, 376.38 -0.09 M260 139.89 C302.5 87.45, 347.85 35.36, 381.37 0.27 M260 139.89 C300.62 95.37, 339.43 49.8, 381.37 0.27 M264.99 140.25 C302.3 97.2, 341.25 54.48, 387.01 -0.13 M264.99 140.25 C292.03 110.21, 320.13 78.26, 387.01 -0.13 M270.63 139.85 C293.78 112.47, 318.43 81.67, 392 0.23 M270.63 139.85 C315.17 89.01, 358.75 37.15, 392 0.23 M275.62 140.21 C307.58 102.06, 343.11 62.6, 397.64 -0.16 M275.62 140.21 C310.32 100.89, 344.38 59.92, 397.64 -0.16 M281.26 139.82 C319.4 96.18, 357.71 48.01, 402.63 0.2 M281.26 139.82 C323.17 91.92, 364.36 44.99, 402.63 0.2 M286.25 140.18 C326.71 96.25, 363.5 51.27, 408.27 -0.2 M286.25 140.18 C330.78 90.14, 374.82 39.83, 408.27 -0.2 M291.89 139.79 C326.84 98.59, 366.61 52.7, 413.26 0.16 M291.89 139.79 C322.87 105.28, 351.25 71.65, 413.26 0.16 M296.88 140.15 C340.69 87.92, 388.5 32.29, 418.9 -0.23 M296.88 140.15 C326.56 107.95, 354.59 75.59, 418.9 -0.23 M302.52 139.75 C343.31 93.48, 383.82 42.86, 423.89 0.13 M302.52 139.75 C333.88 104.87, 364.32 70.41, 423.89 0.13 M307.51 140.11 C343.29 97.97, 379.83 54.02, 429.53 -0.26 M307.51 140.11 C335.97 109.36, 361.37 78.86, 429.53 -0.26 M312.49 140.47 C349.11 94.63, 390.1 50.07, 434.52 0.1 M312.49 140.47 C339.95 110.96, 364.61 82.91, 434.52 0.1 M318.14 140.08 C348.18 107.29, 379.03 70.49, 440.16 -0.3 M318.14 140.08 C352.69 100.18, 387.74 61.46, 440.16 -0.3 M323.12 140.44 C361.98 94.55, 402.95 49.94, 440.56 5.34 M323.12 140.44 C362.55 96.33, 399.9 53.8, 440.56 5.34 M328.77 140.04 C360 105.12, 386.83 70.94, 440.95 10.99 M328.77 140.04 C360.78 105.41, 390.18 70.69, 440.95 10.99 M333.75 140.4 C375.31 93.48, 413.61 45.37, 440.69 17.38 M333.75 140.4 C364.26 103.94, 396.32 68, 440.69 17.38 M339.4 140.01 C373.09 100.3, 404.42 61.8, 440.43 23.78 M339.4 140.01 C367.01 107, 395.41 74.48, 440.43 23.78 M344.38 140.37 C366.95 111.64, 393.72 85.89, 440.83 29.43 M344.38 140.37 C381.47 97.35, 420.11 54.37, 440.83 29.43 M350.03 139.97 C375.02 113.42, 396.5 85.2, 440.56 35.82 M350.03 139.97 C379.81 105.6, 409.23 71.77, 440.56 35.82 M355.01 140.33 C374.73 119.22, 397.75 92.62, 440.96 41.47 M355.01 140.33 C384.88 108.63, 413.77 75.04, 440.96 41.47 M360.66 139.94 C380.34 114.95, 402.18 92.53, 440.7 47.86 M360.66 139.94 C379.66 116.24, 399.62 94.15, 440.7 47.86 M365.65 140.3 C383.56 120.25, 401.61 96.61, 440.44 54.26 M365.65 140.3 C382.97 118.09, 402.04 97.98, 440.44 54.26 M371.29 139.9 C396.22 111.54, 420.33 82.88, 440.83 59.9 M371.29 139.9 C398.77 109.47, 427.18 77.27, 440.83 59.9 M376.28 140.26 C393.26 120.52, 408.49 100.57, 440.57 66.3 M376.28 140.26 C397.3 117.16, 418.84 92.18, 440.57 66.3 M381.92 139.87 C401.09 116.2, 421.91 91.37, 440.96 71.95 M381.92 139.87 C403.7 114.68, 425.38 90.3, 440.96 71.95 M386.91 140.23 C401.95 121.4, 420.52 102.2, 440.7 78.34 M386.91 140.23 C403.09 120.59, 419.86 102.49, 440.7 78.34 M392.55 139.84 C403.64 124.64, 414.11 110.61, 440.44 84.74 M392.55 139.84 C404.23 125.62, 417.1 112.14, 440.44 84.74 M397.54 140.2 C409.67 126.25, 418.65 116.91, 440.84 90.38 M397.54 140.2 C407.01 129.11, 417.96 116.7, 440.84 90.38 M403.18 139.8 C413.65 127.63, 422.84 118.04, 440.57 96.78 M403.18 139.8 C411.92 131.47, 419.39 121.15, 440.57 96.78 M408.17 140.16 C416.31 131.56, 423.37 123.93, 440.97 102.43 M408.17 140.16 C419.28 127.87, 429.41 116.5, 440.97 102.43 M413.81 139.77 C421.33 132.48, 425.37 123.33, 440.71 108.82 M413.81 139.77 C421.3 130.46, 427.56 122.8, 440.71 108.82 M418.8 140.13 C424.23 134.91, 427.96 126.3, 440.45 115.22 M418.8 140.13 C423.22 133.86, 428.59 129.53, 440.45 115.22 M424.44 139.73 C429.05 131.54, 436.79 125.68, 440.84 120.86 M424.44 139.73 C430.57 134.33, 435.11 128.18, 440.84 120.86 M429.43 140.09 C432.8 138.24, 435.92 134.23, 440.58 127.26 M429.43 140.09 C430.91 137.11, 434.56 135.06, 440.58 127.26 M434.41 140.45 C436.27 139.06, 438.58 135.54, 440.97 132.9 M434.41 140.45 C436.8 137.31, 439.62 134.48, 440.97 132.9" stroke="#a5d8ff" stroke-width="0.5" fill="none"></path><path d="M0 0 C88.43 0.04, 175.84 0.14, 440 0 M0 0 C119.78 0.48, 239.24 1.09, 440 0 M440 0 C442 33.09, 440.86 64.68, 440 140 M440 0 C439.07 53.31, 437.97 105.63, 440 140 M440 140 C281.63 137.76, 121.55 138.51, 0 140 M440 140 C334.12 137.81, 227.63 138.26, 0 140 M0 140 C0.03 94.28, 0.56 44.39, 0 0 M0 140 C-0.23 91.71, -0.07 42.33, 0 0" stroke="#1864ab" stroke-width="1" fill="none"></path></g><g transform="translate(690 435) rotate(0 220 70)"><text x="220" y="0" font-family="Cascadia, Segoe UI Emoji" font-size="12px" fill="#000000" text-anchor="middle" style="white-space: pre;" direction="ltr" dominant-baseline="text-before-edge">Header (64 bytes)</text><text x="220" y="20" font-family="Cascadia, Segoe UI Emoji" font-size="12px" fill="#000000" text-anchor="middle" style="white-space: pre;" direction="ltr" dominant-baseline="text-before-edge">magic = 'GOL-SCRATCH v1\n\0'</text><text x="220" y="40" font-family="Cascadia, Segoe UI Emoji" font-size="12px" fill="#000000" text-anchor="middle" style="white-space: pre;" direction="ltr" dominant-baseline="text-before-edge">schema_version  u32 LE</text><text x="220" y="60" font-family="Cascadia, Segoe UI Emoji" font-size="12px" fill="#000000" text-anchor="middle" style="white-space: pre;" direction="ltr" dominant-baseline="text-before-edge">created_at_unix u64 LE</text><text x="220" y="80" font-family="Cascadia, Segoe UI Emoji" font-size="12px" fill="#000000" text-anchor="middle" style="white-space: pre;" direction="ltr" dominant-baseline="text-before-edge">width           u64 LE</text><text x="220" y="100" font-family="Cascadia, Segoe UI Emoji" font-size="12px" fill="#000000" text-anchor="middle" style="white-space: pre;" direction="ltr" dominant-baseline="text-before-edge">height          u64 LE</text><text x="220" y="120" font-family="Cascadia, Segoe UI Emoji" font-size="12px" fill="#000000" text-anchor="middle" style="white-space: pre;" direction="ltr" dominant-baseline="text-before-edge">row_bytes       u64 LE  (ceil(width*2/8))</text></g><g stroke-linecap="round" transform="translate(690 585) rotate(0 220 65)"><path d="M0 0 C0 0, 0 0, 0 0 M0 0 C0 0, 0 0, 0 0 M-0.26 6.4 C1.76 4.45, 3.11 2.54, 4.99 0.36 M-0.26 6.4 C2.08 3.89, 3.31 1.91, 4.99 0.36 M0.13 12.04 C1 8.94, 5.32 8.32, 10.63 -0.03 M0.13 12.04 C4.13 7.61, 6.9 5.23, 10.63 -0.03 M-0.13 18.44 C4.2 12.83, 8.54 8.18, 15.62 0.33 M-0.13 18.44 C2.87 14.4, 7.71 9.29, 15.62 0.33 M0.27 24.08 C6.49 14.7, 11.85 8.98, 21.26 -0.07 M0.27 24.08 C7.67 14.69, 15.12 6.76, 21.26 -0.07 M0 30.48 C9.63 18.52, 18.62 5.54, 26.25 0.29 M0 30.48 C7.35 23.63, 13.24 16.76, 26.25 0.29 M-0.26 36.88 C10.94 23.42, 24.08 8.82, 31.89 -0.1 M-0.26 36.88 C10 25.65, 19.11 14.52, 31.89 -0.1 M0.14 42.52 C11.15 31.18, 18.61 21.01, 36.88 0.26 M0.14 42.52 C13.13 28.1, 25.81 13.35, 36.88 0.26 M-0.12 48.92 C12.35 35.88, 23.78 22.96, 42.52 -0.14 M-0.12 48.92 C11.61 36.66, 23.17 22.72, 42.52 -0.14 M0.27 54.56 C15.34 33.85, 32.04 15.13, 47.51 0.22 M0.27 54.56 C8.83 45.06, 19.8 32.35, 47.51 0.22 M0.01 60.96 C14.03 42.83, 28.34 27.02, 53.15 -0.17 M0.01 60.96 C12.78 47.22, 26.41 31.8, 53.15 -0.17 M-0.25 67.36 C18.97 44.23, 39.97 23.06, 58.14 0.19 M-0.25 67.36 C19.51 45.36, 37.66 23.8, 58.14 0.19 M0.14 73 C13.62 56.79, 26.69 43.56, 63.78 -0.21 M0.14 73 C13.11 57.13, 26.84 43.22, 63.78 -0.21 M-0.12 79.4 C16.07 60.68, 30.45 46.16, 68.77 0.15 M-0.12 79.4 C21.11 52.85, 44.81 26.65, 68.77 0.15 M0.28 85.04 C15.53 65.14, 35.01 47.26, 74.41 -0.24 M0.28 85.04 C15.81 68.25, 31.92 49.94, 74.41 -0.24 M0.01 91.44 C21.15 66.71, 44.54 38.28, 79.4 0.12 M0.01 91.44 C20.97 65.5, 43.62 41.68, 79.4 0.12 M-0.25 97.84 C20.28 73.03, 43.66 46.09, 85.04 -0.28 M-0.25 97.84 C23.85 72.8, 46.33 45.91, 85.04 -0.28 M0.15 103.48 C32.16 66.6, 63.82 30.31, 90.03 0.08 M0.15 103.48 C28.81 70.42, 57.29 38.4, 90.03 0.08 M-0.11 109.88 C29.68 71.86, 63.9 37.64, 95.67 -0.31 M-0.11 109.88 C25.82 78.72, 54.14 46.73, 95.67 -0.31 M0.28 115.52 C34.83 75.92, 68.53 36.75, 100.66 0.05 M0.28 115.52 C26.55 87.03, 52.07 56.42, 100.66 0.05 M0.02 121.92 C29.6 85.85, 61.13 49.19, 106.3 -0.34 M0.02 121.92 C32.15 82.49, 67.21 44.46, 106.3 -0.34 M-0.24 128.32 C21.69 99.67, 45.51 73.27, 111.29 0.02 M-0.24 128.32 C22.2 101.14, 45.11 74.81, 111.29 0.02 M3.43 130.19 C40.3 90.53, 71.29 50.98, 116.27 0.38 M3.43 130.19 C37.52 90.18, 73.81 48.56, 116.27 0.38 M8.42 130.55 C44.73 87.65, 80.83 46.7, 121.92 -0.02 M8.42 130.55 C43.03 88.2, 79.03 47.34, 121.92 -0.02 M14.06 130.15 C47.49 94.79, 78.22 55.02, 126.91 0.34 M14.06 130.15 C58.31 79.28, 102.39 28.61, 126.91 0.34 M19.05 130.51 C42.87 101.06, 70.36 72.21, 132.55 -0.05 M19.05 130.51 C46.05 99.82, 73.12 68.63, 132.55 -0.05 M24.69 130.12 C56.75 92.19, 88.29 53.25, 137.54 0.31 M24.69 130.12 C62.29 87.75, 98.94 47.5, 137.54 0.31 M29.68 130.48 C62.89 95.02, 93.35 58.94, 143.18 -0.09 M29.68 130.48 C61.52 94.12, 92.48 58.89, 143.18 -0.09 M34.67 130.84 C74.52 82.84, 116.17 36.95, 148.17 0.27 M34.67 130.84 C68.77 93.16, 100.74 55.93, 148.17 0.27 M40.31 130.44 C69.08 96.32, 96.93 62.72, 153.81 -0.12 M40.31 130.44 C64.53 101.3, 88.01 73.6, 153.81 -0.12 M45.3 130.8 C74.02 95.66, 105.87 60.86, 158.8 0.24 M45.3 130.8 C79.36 89.52, 116.04 50.62, 158.8 0.24 M50.94 130.41 C84.37 91.44, 119.75 52.24, 164.44 -0.16 M50.94 130.41 C85.11 89.83, 121.12 49.75, 164.44 -0.16 M55.93 130.77 C92.5 87.5, 131.25 43.43, 169.43 0.2 M55.93 130.77 C78.73 103.4, 100.52 76.23, 169.43 0.2 M61.57 130.37 C106.44 79.52, 151.38 27.19, 175.07 -0.19 M61.57 130.37 C97.91 88.97, 133.25 47.79, 175.07 -0.19 M66.56 130.73 C91.48 101.28, 119.99 71.63, 180.06 0.17 M66.56 130.73 C94.29 98.73, 121.62 65.73, 180.06 0.17 M72.2 130.34 C103.5 93.75, 136.7 56.75, 185.7 -0.23 M72.2 130.34 C97.39 103.74, 118.51 77.3, 185.7 -0.23 M77.19 130.7 C100.7 105.73, 121.27 78.65, 190.69 0.13 M77.19 130.7 C111.14 92.27, 143.59 53.08, 190.69 0.13 M82.83 130.3 C123.92 81.81, 163.71 34.54, 196.33 -0.26 M82.83 130.3 C115.26 91.18, 148.48 54.15, 196.33 -0.26 M87.82 130.66 C112.31 102.23, 137.82 76.32, 201.32 0.1 M87.82 130.66 C119.91 94.84, 152 57.25, 201.32 0.1 M93.46 130.27 C134.57 81.65, 174.34 32.08, 206.96 -0.3 M93.46 130.27 C128.07 92.3, 159.62 53.93, 206.96 -0.3 M98.45 130.63 C121.4 104.28, 144.47 79.39, 211.95 0.06 M98.45 130.63 C134.4 88.31, 168.81 48.08, 211.95 0.06 M104.09 130.23 C137.12 91.64, 170.82 51.51, 217.59 -0.33 M104.09 130.23 C132.57 95.87, 162.83 60.27, 217.59 -0.33 M109.08 130.6 C136.24 97.83, 165.75 68.78, 222.58 0.03 M109.08 130.6 C147.25 84.45, 187.93 40.37, 222.58 0.03 M114.72 130.2 C147.91 92, 184.31 51.97, 228.22 -0.36 M114.72 130.2 C148.28 92.8, 181.91 56.41, 228.22 -0.36 M119.71 130.56 C165.06 80.94, 211.35 28.33, 233.21 0 M119.71 130.56 C158.8 86.2, 197.47 40.01, 233.21 0 M125.35 130.17 C168.26 82.14, 210.8 30.53, 238.19 0.36 M125.35 130.17 C164.09 84.01, 204.61 38.32, 238.19 0.36 M130.34 130.53 C156.16 102.47, 179.45 72.76, 243.84 -0.04 M130.34 130.53 C167.67 87.76, 203.67 45.11, 243.84 -0.04 M135.98 130.13 C164.36 94.59, 196.81 59.82, 248.82 0.32 M135.98 130.13 C168.26 91.81, 202.28 54.1, 248.82 0.32 M140.97 130.49 C169.89 95.08, 202.95 60.81, 254.47 -0.07 M140.97 130.49 C174.22 90.98, 206.94 53.39, 254.47 -0.07 M146.61 130.1 C190.77 79.29, 231.14 29.01, 259.45 0.29 M146.61 130.1 C174.51 99.46, 201.12 69.94, 259.45 0.29 M151.6 130.46 C177.11 101.92, 200.29 74.03, 265.1 -0.11 M151.6 130.46 C185.7 91.3, 218.47 51.05, 265.1 -0.11 M156.58 130.82 C186.14 96.5, 220.29 58.31, 270.08 0.25 M156.58 130.82 C198.62 83.6, 239.97 36.42, 270.08 0.25 M162.23 130.42 C200.9 86.17, 239.39 42.45, 275.73 -0.14 M162.23 130.42 C186.36 103.65, 210.23 77.86, 275.73 -0.14 M167.22 130.78 C208.91 86.99, 247.2 41.43, 280.71 0.22 M167.22 130.78 C207.78 84.34, 248.09 36.73, 280.71 0.22 M172.86 130.39 C214.82 82.36, 259.13 31.51, 286.36 -0.18 M172.86 130.39 C209.56 89.75, 244.49 47.09, 286.36 -0.18 M177.85 130.75 C217.68 85.91, 255.15 41.2, 291.34 0.18 M177.85 130.75 C217.97 86.4, 257.54 39.45, 291.34 0.18 M183.49 130.35 C223.12 89.91, 256.89 44.26, 296.99 -0.21 M183.49 130.35 C221.46 87.87, 256.77 46.85, 296.99 -0.21 M188.48 130.71 C220.64 92.39, 254.36 54.87, 301.97 0.15 M188.48 130.71 C231.13 84.48, 270.92 35.74, 301.97 0.15 M194.12 130.32 C222.17 99.53, 250.76 68.75, 307.62 -0.25 M194.12 130.32 C237.94 80.53, 283.49 28.19, 307.62 -0.25 M199.11 130.68 C236.87 89.11, 276.12 42.43, 312.6 0.11 M199.11 130.68 C228.76 96.98, 259.95 62.09, 312.6 0.11 M204.75 130.28 C229.55 103.75, 253.16 77.65, 318.25 -0.28 M204.75 130.28 C234.56 94.67, 265.88 60.78, 318.25 -0.28 M209.74 130.64 C245.17 91.26, 276.88 52.89, 323.23 0.08 M209.74 130.64 C237.66 100.35, 265.8 67.24, 323.23 0.08 M215.38 130.25 C261.59 79.56, 303.84 29.85, 328.88 -0.31 M215.38 130.25 C254.53 86.19, 292.71 41.82, 328.88 -0.31 M220.37 130.61 C259.3 86.82, 296.97 45.14, 333.86 0.05 M220.37 130.61 C255.02 90.76, 289.51 51.26, 333.86 0.05 M226.01 130.22 C267.87 84.67, 308.84 34.07, 339.51 -0.35 M226.01 130.22 C251.33 102.84, 274.72 74.76, 339.51 -0.35 M231 130.58 C259.5 97.99, 288.65 64.79, 344.49 0.01 M231 130.58 C275.29 80.92, 318.16 31.21, 344.49 0.01 M236.64 130.18 C259.22 104.64, 285.26 76.55, 349.48 0.37 M236.64 130.18 C273.32 89.42, 310 46.84, 349.48 0.37 M241.63 130.54 C266.05 102.69, 293.12 70.28, 355.12 -0.02 M241.63 130.54 C265.91 100.98, 291.33 71.17, 355.12 -0.02 M247.27 130.15 C269.56 100.81, 293.55 75.55, 360.11 0.34 M247.27 130.15 C281.05 87.9, 317.07 48.11, 360.11 0.34 M252.26 130.51 C284.58 95.5, 313.08 59.06, 365.75 -0.06 M252.26 130.51 C289.6 87.18, 327.46 45.36, 365.75 -0.06 M257.9 130.11 C297.66 88.31, 333.69 41.63, 370.74 0.3 M257.9 130.11 C291.31 92.5, 323.38 54.34, 370.74 0.3 M262.89 130.47 C304.74 85.75, 346.74 36.69, 376.38 -0.09 M262.89 130.47 C306.18 81.55, 349.44 31.65, 376.38 -0.09 M267.87 130.83 C307.49 81.76, 349.9 33.04, 381.37 0.27 M267.87 130.83 C305.92 89.23, 342.19 46.58, 381.37 0.27 M273.52 130.44 C308.12 90.35, 344.45 50.65, 387.01 -0.13 M273.52 130.44 C298.6 102.53, 324.83 72.75, 387.01 -0.13 M278.5 130.8 C300.1 105.25, 323.12 76.33, 392 0.23 M278.5 130.8 C320.14 83.27, 360.85 34.71, 392 0.23 M284.15 130.4 C313.76 94.99, 346.85 58.35, 397.64 -0.16 M284.15 130.4 C316.44 93.86, 348.05 55.71, 397.64 -0.16 M289.13 130.76 C324.72 90.08, 360.5 44.81, 402.63 0.2 M289.13 130.76 C328.31 85.92, 366.83 42.06, 402.63 0.2 M294.78 130.37 C332.48 89.5, 366.55 47.66, 408.27 -0.2 M294.78 130.37 C336.24 83.84, 377.22 37.05, 408.27 -0.2 M299.76 130.73 C332.33 92.32, 369.72 49.16, 413.26 0.16 M299.76 130.73 C328.79 98.41, 355.23 67.01, 413.26 0.16 M305.41 130.33 C346.05 81.9, 390.61 30, 418.9 -0.23 M305.41 130.33 C333.03 100.41, 359.09 70.31, 418.9 -0.23 M310.39 130.69 C348.53 87.55, 386.38 40, 423.89 0.13 M310.39 130.69 C339.68 98.06, 368.12 65.88, 423.89 0.13 M316.04 130.3 C349.3 91.13, 383.28 50.12, 429.53 -0.26 M316.04 130.3 C342.58 101.7, 366.07 73.39, 429.53 -0.26 M321.02 130.66 C354.95 88.02, 393.22 46.59, 434.52 0.1 M321.02 130.66 C346.63 103.16, 369.53 77.13, 434.52 0.1 M326.67 130.27 C354.58 99.88, 383.28 65.55, 440.16 -0.3 M326.67 130.27 C358.81 93.13, 391.46 57.17, 440.16 -0.3 M331.65 130.63 C367.72 88.03, 405.82 46.71, 440.56 5.34 M331.65 130.63 C368.26 89.69, 402.86 50.32, 440.56 5.34 M337.3 130.23 C366.29 97.88, 390.83 66.32, 440.95 10.99 M337.3 130.23 C366.91 98.22, 394.02 66.14, 440.95 10.99 M342.28 130.59 C380.66 87.4, 415.7 43.03, 440.69 17.38 M342.28 130.59 C370.34 97.03, 399.89 63.98, 440.69 17.38 M347.93 130.2 C378.78 93.71, 407.31 58.43, 440.43 23.78 M347.93 130.2 C373.25 100, 399.26 70.22, 440.43 23.78 M352.91 130.56 C373.35 104.26, 397.98 80.96, 440.83 29.43 M352.91 130.56 C386.66 91.37, 422.01 52.18, 440.83 29.43 M358.56 130.16 C381.31 106.28, 400.52 80.67, 440.56 35.82 M358.56 130.16 C385.52 98.93, 412.16 68.29, 440.56 35.82 M363.54 130.52 C381.2 111.69, 402.18 87.43, 440.96 41.47 M363.54 130.52 C390.52 102.03, 416.56 71.72, 440.96 41.47 M369.19 130.13 C386.57 107.74, 406.15 87.91, 440.7 47.86 M369.19 130.13 C386.16 108.89, 404.04 89.19, 440.7 47.86 M374.17 130.49 C390.09 112.83, 406.06 91.58, 440.44 54.26 M374.17 130.49 C389.42 110.73, 406.35 93.09, 440.44 54.26 M379.82 130.09 C401.7 105.27, 422.74 80.15, 440.83 59.9 M379.82 130.09 C403.9 103.49, 428.94 75.17, 440.83 59.9 M384.8 130.45 C399.5 113.26, 412.48 95.9, 440.57 66.3 M384.8 130.45 C403.02 110.48, 421.81 88.68, 440.57 66.3 M389.79 130.81 C406.3 110.27, 424.44 88.52, 440.96 71.95 M389.79 130.81 C408.61 108.99, 427.42 87.91, 440.96 71.95 M395.43 130.42 C408 114.49, 424.02 98.22, 440.7 78.34 M395.43 130.42 C409.07 113.79, 423.22 98.71, 440.7 78.34 M400.42 130.78 C409.64 117.84, 418.2 106.03, 440.44 84.74 M400.42 130.78 C410.1 118.9, 420.91 107.77, 440.44 84.74 M406.06 130.38 C416.06 118.88, 422.87 112.03, 440.84 90.38 M406.06 130.38 C413.54 121.57, 422.48 111.47, 440.84 90.38 M411.05 130.74 C419.44 121.02, 426.56 113.8, 440.57 96.78 M411.05 130.74 C418.09 124.37, 423.89 115.97, 440.57 96.78 M416.69 130.35 C422.89 124.07, 427.98 118.71, 440.97 102.43 M416.69 130.35 C425.08 121.06, 432.55 112.76, 440.97 102.43 M421.68 130.71 C427.27 125.55, 429.46 118.52, 440.71 108.82 M421.68 130.71 C427.07 123.94, 431.17 118.75, 440.71 108.82 M427.32 130.31 C430.73 127.49, 432.45 121.19, 440.45 115.22 M427.32 130.31 C429.82 126.12, 433.34 123.93, 440.45 115.22 M432.31 130.68 C434.54 126.25, 438.8 123.32, 440.84 120.86 M432.31 130.68 C435.58 127.97, 437.84 124.77, 440.84 120.86 M437.95 130.28 C438.75 129.84, 439.48 128.9, 440.58 127.26 M437.95 130.28 C438.3 129.58, 439.16 129.1, 440.58 127.26" stroke="#99e9f2" stroke-width="0.5" fill="none"></path><path d="M0 0 C88.43 0.04, 175.84 0.14, 440 0 M0 0 C119.78 0.48, 239.24 1.09, 440 0 M440 0 C441.97 30.74, 440.83 59.97, 440 130 M440 0 C439.16 49.55, 438.05 98.12, 440 130 M440 130 C281.63 127.76, 121.55 128.51, 0 130 M440 130 C334.12 127.81, 227.63 128.26, 0 130 M0 130 C0.06 87.69, 0.59 41.21, 0 0 M0 130 C-0.24 85.22, -0.08 39.36, 0 0" stroke="#0c8599" stroke-width="1" fill="none"></path></g><g transform="translate(690 585) rotate(0 220 65)"><text x="220" y="0" font-family="Cascadia, Segoe UI Emoji" font-size="12px" fill="#000000" text-anchor="middle" style="white-space: pre;" direction="ltr" dominant-baseline="text-before-edge">Row payloads (height x row_bytes, fixed stride)</text><text x="220" y="21.666666666666668" font-family="Cascadia, Segoe UI Emoji" font-size="12px" fill="#000000" text-anchor="middle" style="white-space: pre;" direction="ltr" dominant-baseline="text-before-edge">2 bits per cell, 4 cells per byte</text><text x="220" y="43.333333333333336" font-family="Cascadia, Segoe UI Emoji" font-size="12px" fill="#000000" text-anchor="middle" style="white-space: pre;" direction="ltr" dominant-baseline="text-before-edge">00=Dead  01=Alive  10=Dying  11=Resurrecting</text><text x="220" y="65" font-family="Cascadia, Segoe UI Emoji" font-size="12px" fill="#000000" text-anchor="middle" style="white-space: pre;" direction="ltr" dominant-baseline="text-before-edge"></text><text x="220" y="86.66666666666667" font-family="Cascadia, Segoe UI Emoji" font-size="12px" fill="#000000" text-anchor="middle" style="white-space: pre;" direction="ltr" dominant-baseline="text-before-edge">Random-access row offset:</text><text x="220" y="108.33333333333334" font-family="Cascadia, Segoe UI Emoji" font-size="12px" fill="#000000" text-anchor="middle" style="white-space: pre;" direction="ltr" dominant-baseline="text-before-edge">  64 + y * row_bytes</text></g><g transform="translate(690 730) rotate(0 220 45)"><text x="0" y="0" font-family="Virgil, Segoe UI Emoji" font-size="11px" fill="#000000" text-anchor="start" style="white-space: pre;" direction="ltr" dominant-baseline="text-before-edge">Sub-byte writes use read-modify-write</text><text x="0" y="22.5" font-family="Virgil, Segoe UI Emoji" font-size="11px" fill="#000000" text-anchor="start" style="white-space: pre;" direction="ltr" dominant-baseline="text-before-edge">for boundary bytes so bits belonging</text><text x="0" y="45" font-family="Virgil, Segoe UI Emoji" font-size="11px" fill="#000000" text-anchor="start" style="white-space: pre;" direction="ltr" dominant-baseline="text-before-edge">to cells outside the write range are</text><text x="0" y="67.5" font-family="Virgil, Segoe UI Emoji" font-size="11px" fill="#000000" text-anchor="start" style="white-space: pre;" direction="ltr" dominant-baseline="text-before-edge">preserved.</text></g><g stroke-linecap="round"><g transform="translate(610 545) rotate(0 30 0)"><path d="M0 0 C12.86 0.84, 23.68 1.04, 60 0 M0 0 C16.52 -0.55, 32.41 0.67, 60 0" stroke="#e67700" stroke-width="2" fill="none"></path></g><g transform="translate(610 545) rotate(0 30 0)"><path d="M31.9 10.51 C38.46 9.31, 42.91 7.41, 60 0 M31.9 10.51 C39.83 6.97, 47.05 5.33, 60 0" stroke="#e67700" stroke-width="2" fill="none"></path></g><g transform="translate(610 545) rotate(0 30 0)"><path d="M31.72 -10.01 C38.15 -7.11, 42.63 -4.9, 60 0 M31.72 -10.01 C39.52 -7.96, 46.79 -4.02, 60 0" stroke="#e67700" stroke-width="2" fill="none"></path></g></g><mask></mask><g transform="translate(610 500) rotate(0 30 25)"><text x="30" y="0" font-family="Virgil, Segoe UI Emoji" font-size="10px" fill="#000000" text-anchor="middle" style="white-space: pre;" direction="ltr" dominant-baseline="text-before-edge">row</text><text x="30" y="16.666666666666668" font-family="Virgil, Segoe UI Emoji" font-size="10px" fill="#000000" text-anchor="middle" style="white-space: pre;" direction="ltr" dominant-baseline="text-before-edge">reads /</text><text x="30" y="33.333333333333336" font-family="Virgil, Segoe UI Emoji" font-size="10px" fill="#000000" text-anchor="middle" style="white-space: pre;" direction="ltr" dominant-baseline="text-before-edge">writes</text></g><g stroke-linecap="round" transform="translate(10 860) rotate(0 570 45)"><path d="M22.5 0 C241.85 -0.5, 460.38 -0.42, 1117.5 0 M22.5 0 C320.41 1.42, 618.08 1.91, 1117.5 0 M1117.5 0 C1131.2 0.53, 1140.88 9.13, 1140 22.5 M1117.5 0 C1132.7 0.56, 1138.67 9.23, 1140 22.5 M1140 22.5 C1141.33 30.54, 1140.89 43.31, 1140 67.5 M1140 22.5 C1139.2 39.71, 1139.95 56.97, 1140 67.5 M1140 67.5 C1140.6 80.9, 1132.98 88.28, 1117.5 90 M1140 67.5 C1138.31 82.56, 1133.44 90.81, 1117.5 90 M1117.5 90 C881.76 94.25, 645.59 94.26, 22.5 90 M1117.5 90 C881.1 94.33, 644.76 94.07, 22.5 90 M22.5 90 C5.61 89.71, -0.18 83.03, 0 67.5 M22.5 90 C9.33 89.98, 2.16 82.6, 0 67.5 M0 67.5 C-1.05 54.31, 0.93 40.16, 0 22.5 M0 67.5 C-0.64 55.7, 0.57 41.95, 0 22.5 M0 22.5 C0.44 9.5, 5.95 -1.31, 22.5 0 M0 22.5 C-0.62 5.43, 8.51 2.27, 22.5 0" stroke="#495057" stroke-width="2" fill="none"></path></g><g transform="translate(30 875) rotate(0 550 32.5)"><text x="0" y="0" font-family="Virgil, Segoe UI Emoji" font-size="11px" fill="#000000" text-anchor="start" style="white-space: pre;" direction="ltr" dominant-baseline="text-before-edge">Lifecycle: scratch lives in --working-dir (default OS temp), named gol-scratch-&lt;run-id&gt;-&lt;random&gt;.bin so concurrent runs never collide.</text><text x="0" y="21.666666666666668" font-family="Virgil, Segoe UI Emoji" font-size="11px" fill="#000000" text-anchor="start" style="white-space: pre;" direction="ltr" dominant-baseline="text-before-edge">Auto-deleted on successful completion. Preserved on any failure (panic / Ctrl-C / SIGKILL / I/O error) for debugging.</text><text x="0" y="43.333333333333336" font-family="Virgil, Segoe UI Emoji" font-size="11px" fill="#000000" text-anchor="start" style="white-space: pre;" direction="ltr" dominant-baseline="text-before-edge">Memory cap (--max-board-memory) governs chunk RAM only, using size_of::&lt;CellState&gt;() per cell. Disk packing is irrelevant to RAM accounting.</text></g></svg>